<svg xmlns="http://www.w3.org/2000/svg" viewBox="0 0 432.38 441.7"><defs><style>.cls-1{fill:#e0e0e0;}.cls-2{fill:#fafafa;}.cls-3{fill:#ebebeb;}.cls-4{fill:#455a64;}.cls-5{fill:#263238;}.cls-6{fill:#fff;}.cls-7{fill:#ff725e;}.cls-8{opacity:0.3;}.cls-9{fill:#ffbf9d;}.cls-10{fill:#ff9a6c;}</style></defs><g id="Layer_2" data-name="Layer 2"><g id="Layer_14" data-name="Layer 14"><circle class="cls-1" cx="217.46" cy="106.43" r="106.41" transform="translate(-11.57 184.94) rotate(-45)"/><circle class="cls-2" cx="217.46" cy="106.43" r="85.13" transform="translate(-11.57 184.94) rotate(-45)"/><circle class="cls-1" cx="217.46" cy="106.43" r="63.84" transform="translate(50.74 281.99) rotate(-72.56)"/><circle class="cls-2" cx="217.46" cy="106.43" r="42.56" transform="translate(31.71 261.72) rotate(-65.97)"/><circle class="cls-1" cx="217.46" cy="106.43" r="21.28" transform="translate(-24.62 110.12) rotate(-26.95)"/><polygon class="cls-3" points="220.74 109.57 191.2 101.78 198.75 94.03 137.64 43.83 141.02 40.54 202.46 90.43 208.39 82.31 220.74 109.57"/><path class="cls-3" d="M137.64,43.83l-.93.52A14.6,14.6,0,0,1,122,44.16L96.4,28.77l17.23-2.71L111.78,7.93l23.57,16.14A14.6,14.6,0,0,1,141,40.54h0Z"/><path class="cls-4" d="M0,140.16s10.25,42,56.13,32.37C56.13,172.53,42.83,130,0,140.16Z"/><path class="cls-4" d="M22.17,203.74S43.23,235.15,78,213.43C78,213.43,54.3,182.51,22.17,203.74Z"/><path class="cls-4" d="M55.73,251.65s30.73,26.14,60.16-6.25C115.89,245.4,82.56,220.53,55.73,251.65Z"/><path class="cls-4" d="M87.49,150.86S53.41,167.24,70,204.77C72.37,203.41,103.59,185,87.49,150.86Z"/><path class="cls-4" d="M94.89,196.11s-17,22.95,8.33,42.67C104.8,236.32,119.64,214.4,94.89,196.11Z"/><path class="cls-4" d="M16.05,91.85s-3.91,34,32.85,39.48C48.9,131.33,50.69,96.07,16.05,91.85Z"/><path class="cls-4" d="M68.77,57.42S39,69.84,52,104.68C52,104.68,81.74,89.81,68.77,57.42Z"/><path class="cls-4" d="M86.71,107.14s-39.36,4.49-35.9,47.33C50.81,154.47,91,147.27,86.71,107.14Z"/><path class="cls-5" d="M142.72,256.67s-.16-.06-.5-.15l-1.47-.39c-1.3-.34-3.22-.79-5.64-1.58a109.21,109.21,0,0,1-19.81-8.34,120.52,120.52,0,0,1-25.68-18.83,135.27,135.27,0,0,1-12.68-13.92l-3-4-1.5-2c-.48-.69-.92-1.4-1.38-2.11-.93-1.41-1.85-2.84-2.79-4.27l-2.56-4.49c-.43-.75-.86-1.5-1.28-2.25l-1.14-2.31c-.76-1.54-1.53-3.06-2.25-4.58l-2-4.63c-.32-.77-.66-1.52-1-2.29s-.56-1.55-.83-2.32l-1.64-4.57c-.46-1.54-.91-3.07-1.35-4.58-.23-.75-.45-1.5-.67-2.25s-.37-1.5-.55-2.25q-.54-2.25-1.05-4.44a133,133,0,0,1-2.93-31.73A136.26,136.26,0,0,1,51.55,107c.53-2.48,1-4.4,1.29-5.71.15-.64.26-1.14.34-1.49s.09-.51.09-.51l-.14.5c-.09.35-.21.84-.37,1.48-.32,1.3-.82,3.21-1.39,5.7a133.45,133.45,0,0,0-2.53,21.4,131.35,131.35,0,0,0,2.84,31.83l1,4.45c.18.75.33,1.52.55,2.26s.44,1.5.67,2.26q.66,2.28,1.35,4.59l1.63,4.59.84,2.33c.3.77.64,1.53,1,2.3l2,4.64c.73,1.53,1.5,3.06,2.26,4.6l1.14,2.32,1.29,2.26,2.57,4.5,2.8,4.29c.46.71.91,1.43,1.39,2.11l1.5,2,3,4a133,133,0,0,0,12.75,14,119.08,119.08,0,0,0,25.81,18.8,105.24,105.24,0,0,0,19.91,8.23c2.43.77,4.37,1.2,5.67,1.51l1.48.35Z"/><path class="cls-5" d="M98.57,214.61a4,4,0,0,0,0,1c.05.61.14,1.5.27,2.6.27,2.19.72,5.21,1.37,8.52s1.36,6.28,1.94,8.41c.29,1.06.54,1.92.73,2.51a3.6,3.6,0,0,0,.33.9,3.85,3.85,0,0,0-.17-.94c-.16-.7-.35-1.55-.58-2.55-.5-2.15-1.17-5.12-1.81-8.42s-1.15-6.3-1.49-8.48q-.25-1.51-.42-2.58A4.27,4.27,0,0,0,98.57,214.61Z"/><path class="cls-5" d="M90.19,248.7a4.62,4.62,0,0,0,1-.09l2.61-.38c2.21-.33,5.25-.76,8.63-1.16s6.44-.68,8.66-.87l2.62-.23a4.24,4.24,0,0,0,1-.14,4.24,4.24,0,0,0-1,0c-.62,0-1.52,0-2.64.09-2.23.11-5.3.34-8.69.74s-6.42.88-8.62,1.28c-1.09.21-2,.39-2.59.53A4.36,4.36,0,0,0,90.19,248.7Z"/><path class="cls-5" d="M48.77,207a5.93,5.93,0,0,0,1.14.28l3.11.61c2.63.52,6.25,1.28,10.23,2.24s7.54,2,10.11,2.69l3,.88a6.11,6.11,0,0,0,1.13.27,5.93,5.93,0,0,0-1.08-.44c-.7-.26-1.73-.61-3-1-2.55-.83-6.12-1.86-10.1-2.83s-7.62-1.67-10.27-2.11c-1.32-.22-2.4-.38-3.14-.48A6.29,6.29,0,0,0,48.77,207Z"/><path class="cls-5" d="M78.86,174.86a6.61,6.61,0,0,0-.7,1c-.44.69-1,1.71-1.68,3a58.23,58.23,0,0,0-6.2,21.59c-.12,1.44-.18,2.61-.17,3.42a6.07,6.07,0,0,0,0,1.25,7.5,7.5,0,0,0,.13-1.25c0-.8.15-2,.31-3.39A65.8,65.8,0,0,1,76.77,179c.62-1.29,1.15-2.33,1.54-3A7.09,7.09,0,0,0,78.86,174.86Z"/><path class="cls-5" d="M33.2,155.28a5.67,5.67,0,0,0,.91.64l2.52,1.65c2.12,1.4,5,3.42,8,5.86s5.59,4.83,7.4,6.61l2.13,2.13a5.66,5.66,0,0,0,.81.75,4.75,4.75,0,0,0-.68-.87c-.46-.54-1.15-1.31-2-2.23a81.5,81.5,0,0,0-7.34-6.74,79.78,79.78,0,0,0-8.11-5.78c-1.08-.67-2-1.19-2.6-1.53A5,5,0,0,0,33.2,155.28Z"/><path class="cls-5" d="M76.18,124.21a1.28,1.28,0,0,0-.32.25l-.87.77c-.75.67-1.8,1.68-3.09,2.94-2.57,2.53-6,6.14-9.59,10.33s-6.59,8.17-8.68,11.11c-1,1.47-1.86,2.68-2.41,3.52l-.63,1a1.41,1.41,0,0,0-.19.36,1.79,1.79,0,0,0,.27-.31l.69-.93,2.53-3.43c2.15-2.89,5.2-6.82,8.76-11s7-7.81,9.48-10.39l3-3.05.81-.83A1.41,1.41,0,0,0,76.18,124.21Z"/><path class="cls-5" d="M28.78,102.91a7.24,7.24,0,0,0,.84,1.06L32,106.79c2,2.4,4.69,5.76,7.46,9.63s5.08,7.51,6.69,10.17l1.9,3.17a9.08,9.08,0,0,0,.73,1.15,7.34,7.34,0,0,0-.58-1.23c-.39-.78-1-1.89-1.77-3.25-1.55-2.71-3.83-6.39-6.61-10.27s-5.51-7.23-7.58-9.57c-1-1.18-1.89-2.11-2.5-2.73A9.14,9.14,0,0,0,28.78,102.91Z"/><path class="cls-5" d="M64.37,70.6a8.41,8.41,0,0,0-.62,1.25c-.38.82-.9,2-1.52,3.48-1.25,2.94-2.9,7-4.59,11.63s-3.12,8.77-4.09,11.82c-.49,1.53-.86,2.76-1.11,3.62a7.79,7.79,0,0,0-.34,1.35,7.6,7.6,0,0,0,.5-1.29c.32-.92.74-2.13,1.25-3.58,1-3,2.51-7.19,4.21-11.77s3.29-8.69,4.46-11.66c.57-1.44,1-2.63,1.39-3.53A9.86,9.86,0,0,0,64.37,70.6Z"/><path class="cls-4" d="M432.38,134.2s-10.25,42-56.13,32.36C376.25,166.56,389.54,124.05,432.38,134.2Z"/><path class="cls-4" d="M410.21,197.78s-21.06,31.4-55.86,9.68C354.35,207.46,378.08,176.54,410.21,197.78Z"/><path class="cls-4" d="M376.65,245.69s-30.73,26.13-60.16-6.26C316.49,239.43,349.82,214.57,376.65,245.69Z"/><path class="cls-4" d="M344.89,144.9s34.08,16.37,17.54,53.91C360,197.44,328.79,179,344.89,144.9Z"/><path class="cls-4" d="M337.49,190.15s17,22.95-8.33,42.66C327.58,230.35,312.74,208.44,337.49,190.15Z"/><path class="cls-4" d="M416.32,85.89s3.91,34-32.84,39.48C383.48,125.37,381.69,90.1,416.32,85.89Z"/><path class="cls-4" d="M363.61,51.46s29.73,12.41,16.82,47.25C380.43,98.71,350.64,83.85,363.61,51.46Z"/><path class="cls-4" d="M345.67,101.17s39.36,4.5,35.89,47.33C381.56,148.5,341.37,141.3,345.67,101.17Z"/><path class="cls-5" d="M289.65,250.71l.5-.15,1.48-.39c1.29-.34,3.22-.8,5.64-1.59a108.49,108.49,0,0,0,19.81-8.34,120.06,120.06,0,0,0,25.67-18.82,133.32,133.32,0,0,0,12.69-13.93l2.95-4c.5-.66,1-1.33,1.49-2s.93-1.4,1.39-2.1q1.38-2.13,2.79-4.27c.84-1.49,1.7-3,2.56-4.49l1.28-2.26,1.14-2.31c.75-1.53,1.52-3.05,2.25-4.57l2-4.63c.32-.77.66-1.53,1-2.29s.56-1.55.83-2.32l1.64-4.58c.46-1.54.91-3.06,1.35-4.57.22-.75.45-1.5.67-2.25s.37-1.51.55-2.25q.53-2.25,1.05-4.44a132.44,132.44,0,0,0,2.92-31.73,136.32,136.32,0,0,0-2.39-21.38c-.53-2.49-1-4.41-1.3-5.71-.14-.65-.25-1.14-.33-1.49s-.1-.51-.1-.51.06.16.15.5.21.84.37,1.47c.32,1.31.82,3.22,1.38,5.7a129.44,129.44,0,0,1-.3,53.23c-.34,1.47-.69,3-1,4.46-.19.75-.33,1.51-.55,2.26s-.44,1.5-.67,2.26q-.66,2.26-1.35,4.59t-1.64,4.59c-.27.77-.55,1.55-.83,2.33s-.64,1.52-1,2.29l-2,4.65c-.72,1.53-1.5,3.05-2.25,4.6-.38.77-.76,1.54-1.15,2.31s-.85,1.51-1.28,2.27l-2.57,4.5-2.8,4.29c-.47.7-.91,1.42-1.39,2.11l-1.5,2-3,4a132.94,132.94,0,0,1-12.74,14,120,120,0,0,1-25.81,18.8,106.19,106.19,0,0,1-19.91,8.23c-2.43.77-4.37,1.19-5.67,1.51l-1.49.34Z"/><path class="cls-5" d="M333.81,208.65a3.91,3.91,0,0,1,0,1c0,.62-.14,1.51-.28,2.6-.26,2.2-.72,5.22-1.36,8.52s-1.37,6.28-1.94,8.41c-.29,1.07-.54,1.93-.73,2.52a3.6,3.6,0,0,1-.33.9,4.11,4.11,0,0,1,.16-.95l.59-2.54c.5-2.15,1.16-5.12,1.81-8.42s1.14-6.3,1.49-8.48q.24-1.51.42-2.58A4.08,4.08,0,0,1,333.81,208.65Z"/><path class="cls-5" d="M342.18,242.73a4.14,4.14,0,0,1-1-.08l-2.61-.39c-2.2-.32-5.25-.76-8.62-1.15s-6.44-.68-8.66-.87l-2.63-.23a4.07,4.07,0,0,1-1-.14,4.38,4.38,0,0,1,1,0c.63,0,1.53,0,2.64.09,2.23.11,5.31.35,8.69.74s6.43.88,8.63,1.29c1.09.2,2,.38,2.59.52A4.12,4.12,0,0,1,342.18,242.73Z"/><path class="cls-5" d="M383.6,201.08a6.26,6.26,0,0,1-1.13.27l-3.11.62c-2.63.52-6.26,1.27-10.23,2.23s-7.54,2-10.11,2.69l-3,.88a5.59,5.59,0,0,1-1.14.28,5.48,5.48,0,0,1,1.08-.44c.71-.26,1.74-.61,3-1,2.56-.82,6.12-1.86,10.11-2.82s7.62-1.68,10.27-2.12c1.32-.22,2.4-.38,3.14-.47A5.3,5.3,0,0,1,383.6,201.08Z"/><path class="cls-5" d="M353.52,168.9a5.53,5.53,0,0,1,.7,1c.43.68,1,1.7,1.67,3a58,58,0,0,1,6.21,21.59c.12,1.44.17,2.61.17,3.41a7.33,7.33,0,0,1,0,1.26,6.5,6.5,0,0,1-.13-1.25c-.05-.8-.16-2-.31-3.39a65.61,65.61,0,0,0-6.18-21.48c-.63-1.3-1.16-2.34-1.54-3A6.5,6.5,0,0,1,353.52,168.9Z"/><path class="cls-5" d="M399.17,149.32a5.37,5.37,0,0,1-.9.64l-2.52,1.64c-2.12,1.41-5,3.43-8,5.87s-5.58,4.83-7.39,6.61l-2.13,2.12a5.17,5.17,0,0,1-.82.76,5.22,5.22,0,0,1,.69-.87c.46-.55,1.15-1.31,2-2.23a80,80,0,0,1,7.34-6.74,80.89,80.89,0,0,1,8.12-5.78c1.08-.68,2-1.2,2.6-1.53A5.49,5.49,0,0,1,399.17,149.32Z"/><path class="cls-5" d="M356.19,118.24a1.55,1.55,0,0,1,.33.25l.86.77c.75.68,1.81,1.69,3.1,2.95,2.57,2.53,6,6.14,9.59,10.33s6.58,8.17,8.67,11.11c1.05,1.47,1.87,2.67,2.42,3.52.25.39.45.71.63,1a1.49,1.49,0,0,1,.19.35s-.11-.09-.27-.3l-.69-.93-2.53-3.44c-2.15-2.89-5.2-6.82-8.76-11s-7-7.82-9.48-10.4l-3-3-.8-.83C356.27,118.36,356.18,118.26,356.19,118.24Z"/><path class="cls-5" d="M403.6,97a9.21,9.21,0,0,1-.84,1.06l-2.39,2.82c-2,2.39-4.69,5.76-7.46,9.62s-5.08,7.51-6.7,10.18c-.77,1.28-1.4,2.35-1.89,3.17a8.78,8.78,0,0,1-.73,1.14,8.2,8.2,0,0,1,.57-1.23c.4-.78,1-1.89,1.78-3.24,1.55-2.72,3.83-6.39,6.61-10.28s5.51-7.22,7.58-9.57c1-1.17,1.89-2.1,2.5-2.73A7.41,7.41,0,0,1,403.6,97Z"/><path class="cls-5" d="M368,64.64a7.79,7.79,0,0,1,.62,1.25c.37.81.89,2,1.52,3.47,1.24,3,2.9,7,4.59,11.63s3.12,8.78,4.09,11.83c.48,1.52.86,2.76,1.11,3.62a7.79,7.79,0,0,1,.34,1.35,8,8,0,0,1-.51-1.3c-.32-.92-.74-2.12-1.24-3.57-1-3-2.51-7.19-4.21-11.77s-3.29-8.69-4.47-11.67c-.56-1.43-1-2.62-1.38-3.53A8.46,8.46,0,0,1,368,64.64Z"/><path class="cls-5" d="M220.37,418.13v.95s16.39,7.31,16.55,10.4l-32.39-1.79.44-10.62A18.76,18.76,0,0,0,220.37,418.13Z"/><path class="cls-4" d="M204.54,427.69l.1-2.55,31,2.64s1.45.7,1.28,1.7Z"/><path class="cls-6" d="M220.49,419.18c0,.16-.8.19-1.58.65s-1.2,1.1-1.35,1,.1-1,1.05-1.51S220.52,419,220.49,419.18Z"/><path class="cls-6" d="M223.89,420.76c0,.15-.65.38-1.2,1s-.7,1.33-.86,1.31-.25-.91.44-1.68S223.89,420.61,223.89,420.76Z"/><path class="cls-6" d="M225.8,424.9c-.14,0-.36-.77,0-1.61s1.16-1.14,1.23-1-.4.57-.73,1.27S226,424.89,225.8,424.9Z"/><path class="cls-5" d="M197.13,407.56l13.8,4.34-3.34,7.63,3.8,19.66a2.07,2.07,0,0,1-1.51,2.45,2.4,2.4,0,0,1-2.31-.76c-3-3.47-14.25-16.31-14-17.82l.37-4a31,31,0,0,1,.86-3Z"/><path class="cls-4" d="M209.48,441.69l-15.82-20-.07.89a2.52,2.52,0,0,0,.67,2c1.25,2,4.78,6.59,13.25,16.29a2.39,2.39,0,0,0,2,.81Z"/><path class="cls-6" d="M205.25,432a6.25,6.25,0,0,1,2-1.36,6.73,6.73,0,0,1,2.53-.13c0-.05-.24-.25-.74-.39a3.63,3.63,0,0,0-2,.08,3.2,3.2,0,0,0-1.56,1.08C205.25,431.64,205.2,431.94,205.25,432Z"/><path class="cls-6" d="M206.57,435a20.23,20.23,0,0,1,2-.64c1.14-.18,2.09.15,2.14,0a2.62,2.62,0,0,0-2.24-.47C207.16,434.05,206.46,434.88,206.57,435Z"/><path class="cls-6" d="M202.66,428a21.55,21.55,0,0,1,3-1.2,23.22,23.22,0,0,1,3.28-.3,5.13,5.13,0,0,0-3.42-.15A4.55,4.55,0,0,0,202.66,428Z"/><path class="cls-4" d="M208.33,423.72c.36,1.87.7,3.56,1,4.78a10.17,10.17,0,0,0,.52,2,10.68,10.68,0,0,0-.23-2c-.2-1.24-.49-2.93-.84-4.81-.3-1.58-.59-3-.83-4.17v0a14.18,14.18,0,0,0-.2-2.65,14.92,14.92,0,0,0-.12,2.64h0"/><path class="cls-5" d="M190,286a46.74,46.74,0,0,1-.93-15.63c1.61-12.74,2.76-17.48,8.79-31.47l1.59.38,47.89-.71,1.9,3c4.18,11.55,7,18.42,8.19,26.82,1.34,9.63-1,23.48-6.2,37.32-11,29.39-17,52.51-17.4,58.71s-1,12.52-6.54,31.71c-4,13.85-6.95,22-6.95,22-4.21,2.21-8.69,2.68-12.8.22l-12.46-5.24s3.27-32.74,7.62-41.44c3.15-6.3,8.43-9.22,5.84-17.66S193.73,303,190,286Z"/><path class="cls-4" d="M237.78,257.31a1.47,1.47,0,0,0-.18.24c-.12.18-.28.42-.5.72l-1.9,2.82c-1.67,2.49-4.07,6.09-7.1,10.63l0,0v0c.37,4,.54,8.55.81,13.65s.57,10.66.89,16.64.71,12.3,1.1,18.93.81,13.48,1.5,20.54c.71,5.86,1.34,11.59.88,17.06a40.49,40.49,0,0,1-.53,4,25.17,25.17,0,0,1-.92,3.83c-.9,2.42-1.94,4.76-2.92,7-4,9-7.65,17-10.71,23.74L211,413,209,417.2l-.49,1.11a4,4,0,0,0-.15.38s.07-.12.19-.36l.53-1.09,2-4.21,7.33-15.65c3.09-6.69,6.81-14.69,10.8-23.72,1-2.27,2-4.58,2.94-7.05a25.26,25.26,0,0,0,.95-3.88c.25-1.33.42-2.69.54-4.06.47-5.53-.17-11.3-.88-17.15-.68-7-1.07-13.92-1.5-20.52s-.78-13-1.14-18.93-.65-11.55-.94-16.64-.48-9.68-.89-13.65l0,.09,7-10.69,1.85-2.87.47-.74A2.06,2.06,0,0,0,237.78,257.31Z"/><path class="cls-5" d="M195.61,93.65c-6.46,3.71-6.35,9-6.55,21.94s.27,48.14.27,48.14l49.86.29.31-53.67s4.63-5.95,4.11-12.11-4.45-14.2-16.4-16.62C217.26,79.6,198.18,81.44,195.61,93.65Z"/><path class="cls-7" d="M250.49,218.39c.3-6.86,8.39-15.47,6.3-34.94-2.19-20.41-5.3-38.4-5.3-38.4l-15.38,3.76-2.65-3.76-25.41,6-4,3.78-17.63,7.21a8.37,8.37,0,0,0-4.61,4.66L169.53,198l-26.68-18-10.12,13.71s33.61,30.83,42.39,29.94c7.87-.8,14.46-12.73,17.73-19.88l5.06,21.09s-8,14.1-9.62,38l52.79,2a10.58,10.58,0,0,0,8.56-3.86l10-12.21S250.19,225.25,250.49,218.39Z"/><path class="cls-7" d="M244.31,148.85l6.81-3.12,26.74-23.33,9.63-40.65,17,7.1s-1.63,30.55-3.75,41.06-45.12,44.46-45.12,44.46Z"/><path class="cls-5" d="M253.64,155.09a30.93,30.93,0,0,1,.49,3.47c.29,2.29.66,5.18,1.06,8.39s.73,6.25.92,8.41c.1,1.08.16,1.95.18,2.56a3,3,0,0,1,0,.94,27.26,27.26,0,0,1-.53-3.46c-.3-2.29-.67-5.19-1.08-8.39s-.73-6.25-.91-8.41c-.08-1.08-.14-2-.15-2.57A2.9,2.9,0,0,1,253.64,155.09Z"/><path class="cls-5" d="M235.38,209.7a5,5,0,0,1-.5-.52c-.34-.39-.79-.9-1.36-1.53l-4.92-5.72c-4.14-4.9-9.81-11.59-16.07-19l-8.84-10.53-.11-.13.08-.14c.68-1.18,1.32-2.33,2-3.42l.24.33c-1.16.24-2.26.29-3.26.51l-.29.06,0-.29c.54-4.25,1-7.75,1.3-10.26.16-1.18.29-2.13.39-2.83a6.27,6.27,0,0,1,.17-1,4.44,4.44,0,0,1,0,1c-.07.71-.16,1.66-.28,2.84-.27,2.52-.65,6-1.11,10.29l-.26-.23c1.05-.24,2.15-.3,3.25-.54l.49-.11L206,169c-.62,1.1-1.26,2.25-1.92,3.44l0-.28,8.87,10.51,16,19.07,4.79,5.83,1.28,1.59A3.28,3.28,0,0,1,235.38,209.7Z"/><path class="cls-5" d="M239.33,206.81a2.78,2.78,0,0,1,.06-.67q.11-.72.27-1.89c.25-1.64.65-4,1.16-6.92s1.14-6.4,1.71-10.27a100.63,100.63,0,0,0,1.13-12.66,70.33,70.33,0,0,0-1-13.67l.18.19-3.49-.84-.53-.12.47-.28,2.55-1.51-.06.3c-1.11-1.58-1.93-3.1-2.7-4.41l-1.95-3.4c-.53-.94-1-1.66-1.26-2.14a6,6,0,0,1-.45-.75s.06,0,.15.16l.4.52c.33.47.79,1.17,1.36,2.09l2,3.35c.79,1.3,1.65,2.81,2.74,4.33l.13.19-.18.11-2.53,1.54-.07-.41,3.5.81.15,0,0,.16a68.75,68.75,0,0,1,1.09,13.76A94,94,0,0,1,243,187.13c-.59,3.88-1.26,7.35-1.81,10.26s-1,5.2-1.33,6.89c-.15.78-.27,1.4-.37,1.88A3.29,3.29,0,0,1,239.33,206.81Z"/><path class="cls-5" d="M242.6,217.57a3.29,3.29,0,0,1-.77.49c-.52.29-1.28.68-2.23,1.14a77.77,77.77,0,0,1-7.62,3.16,78.92,78.92,0,0,1-7.92,2.34c-1,.24-1.86.41-2.45.51a3.59,3.59,0,0,1-.91.11,25.67,25.67,0,0,1,3.27-1c2-.57,4.81-1.4,7.83-2.47s5.71-2.17,7.65-3A28.45,28.45,0,0,1,242.6,217.57Z"/><path class="cls-5" d="M243.49,225.74a12.53,12.53,0,0,1-2.48.08c-1.53,0-3.64,0-6,.11s-4.43.27-6,.4a14.21,14.21,0,0,1-2.48.14A10.22,10.22,0,0,1,229,226c1.52-.23,3.63-.45,6-.56s4.47,0,6,0A10.2,10.2,0,0,1,243.49,225.74Z"/><path class="cls-5" d="M239.61,217.77a29.58,29.58,0,0,1-.4-5.47,29.21,29.21,0,0,1,.12-5.49,29.58,29.58,0,0,1,.4,5.47A29.21,29.21,0,0,1,239.61,217.77Z"/><path class="cls-5" d="M238.83,225.25a8,8,0,0,1-.7-2.83,8.43,8.43,0,0,1-.18-2.91,8.06,8.06,0,0,1,.7,2.83A8.43,8.43,0,0,1,238.83,225.25Z"/><path class="cls-5" d="M245.08,264.28a8,8,0,0,1-.16-1.5c-.07-1-.18-2.35-.33-4.07-.29-3.43-.81-8.17-1.59-13.37s-1.67-9.89-2.4-13.26c-.36-1.69-.67-3.05-.88-4a8.83,8.83,0,0,1-.29-1.47,7.26,7.26,0,0,1,.48,1.42c.28.93.65,2.28,1.05,4,.82,3.36,1.77,8,2.56,13.26s1.24,10,1.44,13.42c.11,1.73.15,3.13.16,4.09A8.92,8.92,0,0,1,245.08,264.28Z"/><g class="cls-8"><path d="M202.38,169.5l1.17.49-1.3,3s20,24.45,25.47,29.18c6.6,5.74,6.8,6.48,6.8,6.48l-30.65-36.4,1.93-3.43Z"/></g><g class="cls-8"><path d="M216.75,226.52l29.43-9.17a4.72,4.72,0,0,1-1.69,4.66,11.9,11.9,0,0,1-4.7,2.2c-7.08,2-15.63,3.25-22.93,2.31"/></g><path class="cls-5" d="M176.8,204.4a14.06,14.06,0,0,0-8.11-7.07,3.63,3.63,0,0,1,1.63.31,10.65,10.65,0,0,1,6,5.19A3.58,3.58,0,0,1,176.8,204.4Z"/><path class="cls-5" d="M187.28,177.09a1.89,1.89,0,0,1,.16.48c.1.37.21.83.35,1.38.31,1.28.72,3,1.22,5.1,1,4.32,2.35,10.28,3.82,16.88s2.72,12.51,3.68,16.91c.43,2.11.79,3.84,1.06,5.13q.17.84.27,1.41a2.57,2.57,0,0,1,.07.49,10.67,10.67,0,0,1-.54-1.85c-.3-1.28-.72-3-1.22-5.1-1-4.31-2.37-10.28-3.83-16.88s-2.76-12.57-3.67-16.91c-.43-2.11-.79-3.85-1.05-5.14-.11-.56-.19-1-.26-1.4A1.56,1.56,0,0,1,187.28,177.09Z"/><path class="cls-5" d="M137.07,192.42a2.3,2.3,0,0,0,.07,1.25,1.52,1.52,0,0,0,.9.85,1.24,1.24,0,0,0,1.3-.52,1.23,1.23,0,0,0,.14-1.4,1.48,1.48,0,0,0-1.06-.63,2.32,2.32,0,0,0-1.22.28s0-.16.23-.32a1.55,1.55,0,0,1,1-.33,1.77,1.77,0,0,1,1.44.73,1.8,1.8,0,0,1-2,2.65,1.82,1.82,0,0,1-1.11-1.19,1.53,1.53,0,0,1,0-1.06C136.93,192.49,137.05,192.41,137.07,192.42Z"/><path class="cls-5" d="M289.72,87.47s.09-.16.37-.23a1.46,1.46,0,0,1,1.15.31,2.28,2.28,0,0,1,.92,1.5,1.75,1.75,0,0,1-1.2,1.8,2,2,0,0,1-2.13-.38,1.73,1.73,0,0,1-.35-1.74c.31-1,.88-1.3.9-1.26a9.6,9.6,0,0,0-.54,1.35,1.4,1.4,0,0,0,.32,1.31,1.55,1.55,0,0,0,1.61.23,1.29,1.29,0,0,0,.92-1.26,2,2,0,0,0-.68-1.26,1.41,1.41,0,0,0-.89-.4C289.88,87.44,289.75,87.51,289.72,87.47Z"/><path class="cls-9" d="M240.62,108.39c-.75-6.76-8.35-13.17-15-12.14L204,101.44l.24,3.65,5.52,49,23.4,13.94L231.79,144s8.54-1.85,9.78-13.22C242.18,125.08,241.46,115.89,240.62,108.39Z"/><path class="cls-5" d="M236.47,118.23a1.46,1.46,0,0,1-1.32,1.53,1.38,1.38,0,0,1-1.55-1.24,1.45,1.45,0,0,1,1.31-1.53A1.4,1.4,0,0,1,236.47,118.23Z"/><path class="cls-5" d="M238.86,113.27c-.17.2-1.3-.56-2.85-.49s-2.65.92-2.83.73.08-.43.56-.81a3.9,3.9,0,0,1,2.25-.82,3.8,3.8,0,0,1,2.28.62C238.77,112.85,239,113.18,238.86,113.27Z"/><path class="cls-5" d="M222.89,118.66a1.44,1.44,0,0,1-1.32,1.53A1.39,1.39,0,0,1,220,119a1.45,1.45,0,0,1,1.32-1.52A1.38,1.38,0,0,1,222.89,118.66Z"/><path class="cls-5" d="M223.69,114.62c-.17.19-1.31-.57-2.86-.49s-2.65.91-2.82.73.07-.43.55-.82a4,4,0,0,1,2.26-.81,3.84,3.84,0,0,1,2.28.62C223.59,114.19,223.77,114.53,223.69,114.62Z"/><path class="cls-5" d="M229.82,125.57a10.25,10.25,0,0,1,2.5-.58c.39-.06.76-.15.82-.43a2.06,2.06,0,0,0-.33-1.16l-1.31-3c-1.84-4.23-3.19-7.72-3-7.8s1.8,3.31,3.63,7.54c.45,1,.87,2,1.27,3a2.22,2.22,0,0,1,.28,1.55,1,1,0,0,1-.62.61,2.62,2.62,0,0,1-.67.13A9.75,9.75,0,0,1,229.82,125.57Z"/><path class="cls-10" d="M231.79,144a28.64,28.64,0,0,1-15.25-3.32s4.6,8.39,15.8,6.8Z"/><path class="cls-10" d="M224.94,131.29a21.26,21.26,0,0,1,6-1.09c.64.77.59,3.42.12,4.2a2.69,2.69,0,0,1-2.48,1.18A4.34,4.34,0,0,1,226.1,134,7.45,7.45,0,0,1,224.94,131.29Z"/><path class="cls-5" d="M230.92,134.64a5.08,5.08,0,0,1-1.82.67,3.24,3.24,0,0,1-2-.5,4.22,4.22,0,0,1-1.7-2.18,4.32,4.32,0,0,1-.22-1.3l-.18.24a31.79,31.79,0,0,0,5.45-1.37,31.36,31.36,0,0,0-5.6.82l-.18,0v.21a4.24,4.24,0,0,0,.25,1.51,4.72,4.72,0,0,0,2,2.5,3.49,3.49,0,0,0,2.34.44C230.51,135.46,231,134.66,230.92,134.64Z"/><path class="cls-5" d="M223.88,109c-.13.43-1.69.3-3.5.61s-3.25.87-3.51.5c-.12-.17.12-.58.69-1a6.1,6.1,0,0,1,5.35-.85C223.59,108.51,223.94,108.82,223.88,109Z"/><path class="cls-5" d="M238.07,108.79c-.25.36-1.34,0-2.62.09s-2.37.35-2.63,0c-.12-.17,0-.53.49-.89a3.55,3.55,0,0,1,2.11-.68,3.62,3.62,0,0,1,2.13.61C238,108.25,238.19,108.61,238.07,108.79Z"/><path class="cls-5" d="M224.43,94.21c-3.08-.25-4.19-.26-5.26.25a26.49,26.49,0,0,1-2.51,1.37c-1.95.69-4.2-.22-6.34-.34a7.94,7.94,0,0,0-7,3.25c-1.26,1.8-1.73,4.13-3.25,5.7-1.12,1.16-2.72,1.81-3.77,3-2,2.39-1.34,6.12-.36,9.29,2.05,1.21,4.27.48,6.4-.23a7.09,7.09,0,0,0,4.51-4.53c.53-1.65.63-3.74,2.17-4.53s3.8.39,5.55-.16c2.51-.78,2.54-4.37,4.42-6.14,1.7-1.61,3.12-.51,5.76-1.68a12,12,0,0,0,5.15-4.67C227.76,94.51,225.89,94.32,224.43,94.21Z"/><path class="cls-9" d="M207.14,120.07c-.16-.06-6.7-1.78-6.29,4.85s7,4.86,7,4.67S207.14,120.07,207.14,120.07Z"/><path class="cls-10" d="M205.64,127.2s-.11.09-.3.19a1.14,1.14,0,0,1-.86.07A2.88,2.88,0,0,1,203,125a3.92,3.92,0,0,1,.22-1.67,1.31,1.31,0,0,1,.81-.94.58.58,0,0,1,.7.27c.1.18.07.32.1.33s.14-.12.07-.4a.74.74,0,0,0-.29-.39A.88.88,0,0,0,204,122a1.63,1.63,0,0,0-1.13,1.11,3.93,3.93,0,0,0-.29,1.87,3,3,0,0,0,1.86,2.76,1.24,1.24,0,0,0,1-.24C205.63,127.36,205.66,127.21,205.64,127.2Z"/><path class="cls-6" d="M198.09,104.3l.17.07.51.17a8.06,8.06,0,0,0,2,.33,5.9,5.9,0,0,0,1.46-.14,4.18,4.18,0,0,0,1.58-.71,4.05,4.05,0,0,0,1.25-1.53,3.09,3.09,0,0,0,.2-2.19l-.21.13a7.63,7.63,0,0,0,6.95,2,4.63,4.63,0,0,0,1.31-.49,2.66,2.66,0,0,0,1-1,3.78,3.78,0,0,0,.41-1.63,10.75,10.75,0,0,0-.05-1.61,5.83,5.83,0,0,0-.35-1.54,1.87,1.87,0,0,0-1.1-1.1l-.1.26a4.56,4.56,0,0,0,2.93.37,4.9,4.9,0,0,0,2.41-1.22,4.07,4.07,0,0,0,1.2-2.09,4.82,4.82,0,0,0,0-2.07,4.72,4.72,0,0,0-1.43-2.51,3.08,3.08,0,0,0-.87-.58s.32.19.81.65a4.74,4.74,0,0,1,1.32,2.48,4.59,4.59,0,0,1,0,2,3.88,3.88,0,0,1-1.16,2,4.65,4.65,0,0,1-2.3,1.15,4.31,4.31,0,0,1-2.76-.37l-.1.26a1.55,1.55,0,0,1,.92,1,5.2,5.2,0,0,1,.32,1.45,5.53,5.53,0,0,1-.32,3.07,3.05,3.05,0,0,1-2.13,1.39,7.44,7.44,0,0,1-6.72-1.94l-.36-.36.16.49a2.86,2.86,0,0,1-.16,2,4,4,0,0,1-1.18,1.45,4,4,0,0,1-1.49.71,5.67,5.67,0,0,1-1.42.16,8.13,8.13,0,0,1-2-.26A7,7,0,0,0,198.09,104.3Z"/><path class="cls-6" d="M236.67,100.24s.12.1.39.17a3.1,3.1,0,0,0,1.16.07,3,3,0,0,0,1.6-.71,1.48,1.48,0,0,0,.48-1,1.11,1.11,0,0,0-.57-1l-.1.27.1,0a4.55,4.55,0,0,0,3.75-.81,4,4,0,0,0,.83-.85c.15-.23.22-.38.2-.39a7,7,0,0,1-1.15,1.07,4.53,4.53,0,0,1-3.56.69l-.1,0-1.38-.31,1.29.58a.82.82,0,0,1,.4.77,1.16,1.16,0,0,1-.38.79,2.93,2.93,0,0,1-1.44.7A4.61,4.61,0,0,1,236.67,100.24Z"/><path class="cls-9" d="M290.38,82.6l.74-4.15s-2.42-9-2.17-10.29.51-7.47.51-7.47l6.23-7a2.22,2.22,0,0,1,2.1,1.29s2.84-.23,3.48,1.69a1.62,1.62,0,0,1,2.4,1.37,7.66,7.66,0,0,1,.17,1.8c.41.09,2.76.66,2.79,1.83a18.76,18.76,0,0,1-1,5.28,2,2,0,0,1-1.45,1.19h0l-.69,3.2s-.61,5.23-1.79,7.68l-.88,1.44L300.56,87Z"/><path class="cls-9" d="M299.59,59.35a12.47,12.47,0,0,0-1.94-4.64l-2.38,1.51a15.85,15.85,0,0,0,1,2.36,3.09,3.09,0,0,0,2,1.91c.52.14,1.21,0,1.37-.51A1.34,1.34,0,0,0,299.59,59.35Z"/><path class="cls-10" d="M295.27,56.22a1.64,1.64,0,0,0,.11.49,10.7,10.7,0,0,0,.51,1.27c.12.26.24.55.37.86a4,4,0,0,0,.61.92,2.91,2.91,0,0,0,1,.72,1.63,1.63,0,0,0,1.32,0,.87.87,0,0,0,.5-.51,1.52,1.52,0,0,0,0-.67,9.55,9.55,0,0,0-.28-1.17,10.25,10.25,0,0,0-.78-1.88c-.26-.51-.51-.91-.68-1.18a2,2,0,0,0-.3-.4,3,3,0,0,0,.23.44c.15.28.38.69.63,1.2a14.65,14.65,0,0,1,.73,1.87c.1.36.19.75.26,1.15a1.26,1.26,0,0,1,0,.58.68.68,0,0,1-.39.39,1.51,1.51,0,0,1-1.16,0,2.64,2.64,0,0,1-.93-.67,3.43,3.43,0,0,1-.6-.86c-.14-.3-.26-.6-.39-.85-.26-.52-.46-.93-.57-1.23S295.28,56.22,295.27,56.22Z"/><path class="cls-10" d="M299.06,60.47s0,0,0,.14a2.61,2.61,0,0,0,0,.4,3.62,3.62,0,0,0,.39,1.44,4.65,4.65,0,0,0,1.45,1.68,1.66,1.66,0,0,0,1.3.28,1.15,1.15,0,0,0,.63-.38,1.17,1.17,0,0,0,.25-.72,6.72,6.72,0,0,0-.24-1.39c-.1-.44-.22-.86-.34-1.25l-.65-2.1c-.18-.6-.32-1.08-.41-1.42a2.79,2.79,0,0,0-.15-.52,2.71,2.71,0,0,0,.08.54c.06.34.18.84.35,1.44s.38,1.32.61,2.11c.11.39.22.81.32,1.25a6.06,6.06,0,0,1,.23,1.34,1,1,0,0,1-.2.59.92.92,0,0,1-.52.32A1.49,1.49,0,0,1,301,64a4.66,4.66,0,0,1-1.43-1.58,4.16,4.16,0,0,1-.44-1.39C299.07,60.66,299.08,60.47,299.06,60.47Z"/><path class="cls-10" d="M300.58,63.83s0,.06-.06.16-.07.27-.11.47a6.06,6.06,0,0,0,0,1.77,4,4,0,0,0,1.17,2.34,2.18,2.18,0,0,0,1.45.61,1.12,1.12,0,0,0,.8-.36,1.49,1.49,0,0,0,.34-.82,22.5,22.5,0,0,0-.05-3.21c-.08-1-.15-1.85-.21-2.6s-.08-1.34-.1-1.76a5.5,5.5,0,0,0,0-.64s0,.05,0,.16,0,.27,0,.48c0,.42,0,1,0,1.77s.1,1.63.16,2.6A23.81,23.81,0,0,1,304,68a1.36,1.36,0,0,1-.29.71A.89.89,0,0,1,303,69a2,2,0,0,1-1.33-.54,3.86,3.86,0,0,1-1.15-2.23A6.91,6.91,0,0,1,300.58,63.83Z"/><path class="cls-1" d="M237.53,60.54l.1-.24.15.21a1,1,0,0,0,.48.38l.24.1-.22.15a1.12,1.12,0,0,0-.38.48l-.1.24-.15-.21a1,1,0,0,0-.48-.38l-.24-.1.22-.15A1.12,1.12,0,0,0,237.53,60.54Z"/><path class="cls-1" d="M304.13,32.92l.17-.41.25.37a1.93,1.93,0,0,0,.83.66l.41.16-.37.26a1.86,1.86,0,0,0-.65.82l-.17.42-.26-.37a2,2,0,0,0-.82-.66L303.1,34l.37-.25A1.93,1.93,0,0,0,304.13,32.92Z"/><path class="cls-1" d="M301.2,18l.28-.7.43.62A3.2,3.2,0,0,0,303.3,19l.69.29-.61.43a3.18,3.18,0,0,0-1.11,1.38l-.28.7-.44-.62a3.11,3.11,0,0,0-1.38-1.1l-.69-.29.61-.43A3.25,3.25,0,0,0,301.2,18Z"/><path class="cls-1" d="M267.47,80.07l-.25-.71.73.18a3.14,3.14,0,0,0,1.77-.08l.71-.24-.18.73a3.23,3.23,0,0,0,.08,1.77l.25.71-.73-.18a3.14,3.14,0,0,0-1.77.08l-.71.24.18-.73A3.23,3.23,0,0,0,267.47,80.07Z"/><path class="cls-7" d="M255.33,54.46c-1.27,1.52-2.58,3-3.81,4.57a5.9,5.9,0,0,0-1.27,4.79,6.47,6.47,0,0,0,3,4.13c4.67,3.2,10.38,5.9,16.19,5.19a15.61,15.61,0,0,0,10-5.72,1.25,1.25,0,0,0-1.92-1.6,13.23,13.23,0,0,1-7.42,4.69,15.31,15.31,0,0,1-7.56-.61A29.21,29.21,0,0,1,256,66.73a8.54,8.54,0,0,1-2.82-2.25,3.31,3.31,0,0,1,.3-3.85c1.23-1.55,2.55-3.05,3.81-4.57a1.25,1.25,0,0,0-1.92-1.6Z"/><path class="cls-7" d="M281.33,26.83c1.19-1.43,2.38-2.88,3.59-4.31A3.53,3.53,0,0,1,287.66,21c1.47,0,2.41,1,3.36,2,3.36,3.45,6.48,7.9,6.81,12.86A13,13,0,0,1,294.59,45c-1,1.24.9,2.85,1.92,1.6A15.78,15.78,0,0,0,300.35,37,17.66,17.66,0,0,0,298,28.21a32,32,0,0,0-5.06-6.78,8.42,8.42,0,0,0-3.86-2.72A5.79,5.79,0,0,0,283.89,20a46.06,46.06,0,0,0-4.48,5.26,1.25,1.25,0,0,0,1.92,1.6Z"/><path class="cls-7" d="M299.28,62l-2.63,2,0,0,0,.08-.07.05,0,0-1.49,3s4.62,4.4,6.58,9.2l3.89-4.67.11-.13,3.89-4.67C304.45,65.76,299.28,62,299.28,62Z"/><path class="cls-7" d="M300.41,61.44l-5.72,6.87a2.09,2.09,0,0,1-2.95.27h0a2.09,2.09,0,0,1-.27-3l5.72-6.87a2.09,2.09,0,0,1,2.95-.27h0A2.09,2.09,0,0,1,300.41,61.44Z"/><path class="cls-7" d="M276.65,19.92,263.14,36.13l-.72.86L249.66,52.31c.24.38,30.78,28.53,45.14,10.19l0,0C310.27,45,277.06,20.08,276.65,19.92Z"/><path class="cls-5" d="M276.65,19.92a1.56,1.56,0,0,1,.32.19c.21.14.51.36.89.65.78.59,1.9,1.48,3.29,2.69a78.13,78.13,0,0,1,10.78,11.29,41.73,41.73,0,0,1,5.49,9.3,18.78,18.78,0,0,1,1.14,12.22,15.53,15.53,0,0,1-3.2,5.93,18.28,18.28,0,0,1-5.21,4.71,15.9,15.9,0,0,1-7,2,24.49,24.49,0,0,1-7.45-.81,52.51,52.51,0,0,1-14.54-6.68C259,60,256.93,58.58,255,57.09c-1-.75-1.92-1.5-2.84-2.27l-1.35-1.15c-.45-.41-.85-.73-1.33-1.24l-.11-.12.13-.15,19.58-23.35,5.59-6.6,1.48-1.72.38-.44c.09-.09.13-.14.14-.13l-.13.17-.37.47-1.45,1.79L269.22,29,249.84,52.46l-.15-.17.18-.1h0v0l0,0,.06.06.15.15.32.29.66.58,1.34,1.14c.92.76,1.86,1.51,2.83,2.25,2,1.48,4,2.92,6.16,4.29a52.59,52.59,0,0,0,14.4,6.61,23.86,23.86,0,0,0,7.29.79,15.14,15.14,0,0,0,6.77-1.94A17.79,17.79,0,0,0,295,61.88a15,15,0,0,0,3.11-5.75A18.3,18.3,0,0,0,297,44.2,41.45,41.45,0,0,0,291.63,35,81.62,81.62,0,0,0,281,23.6c-1.37-1.23-2.47-2.14-3.22-2.76-.36-.29-.65-.51-.86-.69Z"/><g class="cls-8"><path d="M276.65,19.92c2,1.64,3.89,3.11,5.66,4.72C294.25,35.49,302,47.76,297.67,58.19l-3.3,5s3.48-12.78-3-22-15.41-19.71-15.41-19.71Z"/></g><path class="cls-7" d="M317.78,64.24,300.93,84.47h0a6.51,6.51,0,0,1-.83-9.17l8.51-10.22a6.52,6.52,0,0,1,9.17-.84Z"/><rect class="cls-5" x="297.83" y="71.2" width="35.33" height="17" transform="translate(52.32 271.09) rotate(-50.2)"/><rect class="cls-4" x="303" y="75.66" width="24.99" height="8.33" transform="translate(52.23 271.14) rotate(-50.2)"/><polygon class="cls-6" points="271.44 42.59 277.75 44.11 282.58 39.77 283.08 46.24 288.7 49.49 282.7 51.97 281.35 58.31 277.14 53.38 270.68 54.05 274.08 48.52 271.44 42.59"/><path class="cls-6" d="M287.9,65.55l-.08.06-.23.18a5.55,5.55,0,0,1-1,.59,7.94,7.94,0,0,1-1.69.56,11.05,11.05,0,0,1-2.34.21,18.73,18.73,0,0,1-2.85-.29l-1.56-.3c-.53-.12-1.08-.27-1.64-.41a43.2,43.2,0,0,1-7-2.61,63.54,63.54,0,0,1-6.58-3.62c-1.95-1.22-3.67-2.39-5.1-3.39s-2.57-1.84-3.35-2.41l-.91-.67-.23-.18-.08-.06.09,0,.24.17.91.65c.79.57,1.94,1.39,3.37,2.39S261,58.62,263,59.84a65.29,65.29,0,0,0,6.57,3.6,43,43,0,0,0,7,2.61c.56.14,1.1.29,1.63.41l1.56.31a17.5,17.5,0,0,0,2.83.3,11.75,11.75,0,0,0,2.33-.19,7.91,7.91,0,0,0,1.68-.54,7.34,7.34,0,0,0,1-.57l.23-.17Z"/><path class="cls-6" d="M292.06,66.26a1.39,1.39,0,0,0-.11.43,1.24,1.24,0,0,0,.41,1,2.56,2.56,0,0,0,.94.52,2.22,2.22,0,0,1,.44.16,1.61,1.61,0,0,1-.46-.09,2.26,2.26,0,0,1-1-.51,1.28,1.28,0,0,1-.41-1,.84.84,0,0,1,.11-.32A.35.35,0,0,1,292.06,66.26Z"/><path class="cls-6" d="M301.09,75.2l-.2.26a8.14,8.14,0,0,0-.48.74,6.51,6.51,0,0,0-.87,2.75A6.61,6.61,0,0,0,300,81.8c.13.35.27.62.36.81a1.43,1.43,0,0,1,.15.29l0-.07s-.08-.11-.13-.2a5.33,5.33,0,0,1-.4-.8,6.38,6.38,0,0,1-.45-2.89,6.32,6.32,0,0,1,.91-2.78,5.73,5.73,0,0,1,.52-.72l.16-.18Z"/><path class="cls-9" d="M295.58,68.29a11.93,11.93,0,0,0,2.7-4,4.15,4.15,0,0,0-.89-4.45l-7,8,7.85,10.24C300.49,74.17,298.65,69.54,295.58,68.29Z"/><path class="cls-10" d="M299.67,76.43s0-.06.06-.18.08-.3.11-.54a6.63,6.63,0,0,0,0-2,7.26,7.26,0,0,0-1.16-2.91,6.8,6.8,0,0,0-3-2.55l0,.15a22.77,22.77,0,0,0,1.62-1.94A7.39,7.39,0,0,0,298.48,64a4.85,4.85,0,0,0,.06-2.3,3.5,3.5,0,0,0-1.09-1.88l-.07-.06-.06.07-5,5.79-1.44,1.69-.37.46a1.59,1.59,0,0,0-.13.16l.15-.14.4-.44,1.48-1.65,5-5.75h-.13a3.38,3.38,0,0,1,1,1.78,4.73,4.73,0,0,1-.06,2.21,7.27,7.27,0,0,1-1.18,2.36,22.15,22.15,0,0,1-1.6,1.93l-.08.1.12,0a6.7,6.7,0,0,1,3,2.47,7.3,7.3,0,0,1,1.18,2.84,7.18,7.18,0,0,1,.07,2C299.72,76.17,299.66,76.42,299.67,76.43Z"/><path class="cls-7" d="M300,75.86c2.86-3.76,6.37-7.65,9.22-11.41"/><path class="cls-5" d="M309.22,64.45a39.86,39.86,0,0,1-4.41,5.87l-3.34,4A9.53,9.53,0,0,1,300,75.86,39.86,39.86,0,0,1,304.41,70l3.34-4A9.51,9.51,0,0,1,309.22,64.45Z"/><path class="cls-4" d="M206.67,129.81a1.51,1.51,0,0,0-1.61-1.25l-.11,0a1.45,1.45,0,0,0,.51,2.86A1.5,1.5,0,0,0,206.67,129.81Z"/><polygon class="cls-2" points="208.05 151.09 216.84 175.39 237.96 209.7 238.59 173.31 232.51 145.18 232.03 145.18 227.67 163.77 221.88 156.78 208.71 147.61 208.05 151.09"/><path class="cls-5" d="M235.89,160.81a9.75,9.75,0,0,1-1.34-1.62c-.4-.51-.88-1.13-1.45-1.79a10.18,10.18,0,0,0-2-1.92l.38-.16a7.2,7.2,0,0,1-.3,1c-.86,2.14-1.85,4-2.49,5.3s-1,2.19-1,2.18a5.94,5.94,0,0,1,.69-2.33c.55-1.39,1.49-3.25,2.33-5.34a7.63,7.63,0,0,0,.29-.89l.09-.36.3.19a10,10,0,0,1,2.09,2.07c.55.69,1,1.33,1.37,1.88A8.28,8.28,0,0,1,235.89,160.81Z"/><path class="cls-5" d="M238,209.7a13,13,0,0,1-.38-1.73c-.24-1.21-.56-2.8-.95-4.74-.81-4-2-9.49-3.35-15.56s-2.58-11.48-3.5-15.53c-.42-1.93-.77-3.52-1-4.72a11,11,0,0,1-.31-1.74,13.38,13.38,0,0,1,.51,1.7c.3,1.1.71,2.69,1.2,4.67,1,4,2.3,9.44,3.65,15.51s2.49,11.59,3.21,15.61c.35,2,.63,3.63.78,4.76A10.78,10.78,0,0,1,238,209.7Z"/><path class="cls-5" d="M210.15,156.89a4.11,4.11,0,0,1,.86.6c.54.42,1.3,1,2.24,1.8,1.86,1.53,4.42,3.67,7.23,6.06l.15.13-.42.15c.48-2.23.94-4.33,1.34-6.16l.08-.36.28.23c1.59,1.29,2.92,2.38,3.83,3.16a9.49,9.49,0,0,1,1.4,1.27,9.21,9.21,0,0,1-1.56-1.07c-1-.71-2.33-1.75-4-3l.36-.14-1.27,6.17-.09.43-.34-.28-.15-.13c-2.8-2.39-5.33-4.58-7.13-6.18-.91-.8-1.63-1.46-2.13-1.92A4.13,4.13,0,0,1,210.15,156.89Z"/><path class="cls-10" d="M138.38,180.86c.06-.39-2-8.27-2-8.27l-10-4.57,1.76,9.13a46.6,46.6,0,0,0,3.58,3.19C131.88,180.28,138.38,180.86,138.38,180.86Z"/><path class="cls-9" d="M139,179.68c-1.91-.79-8.72-1.62-8.72-1.62l.54-3.13s3.82-1.14,4.85-2.8a3.73,3.73,0,0,0,.08-3.46l-2.11.61c1.05-1.08.45-3.2.45-3.2l-2.35.5a1.83,1.83,0,0,0,.24-2.72l-1.83.59c1.11-1.2-.85-2.5-.85-2.5s-8.28,6.45-8.82,7.34.65,3.27.65,3.27a5.17,5.17,0,0,0-1.22,2.7c-.06,1.39,1.7,1.9,1.7,1.9a5.29,5.29,0,0,0,.14,2.18c.34,1.14,5.84,4.33,5.84,4.33l7.23,7.28,7.27-9.94S140.91,180.47,139,179.68Z"/><path class="cls-10" d="M135.67,168.78a5.43,5.43,0,0,1-1.8.72,37.44,37.44,0,0,0-4.39,1.4,7.58,7.58,0,0,0-2.08,1.33c-.56.51-1,1.05-1.44,1.48a4.26,4.26,0,0,1-1.51,1.22c0-.06.5-.54,1.24-1.47a17.27,17.27,0,0,1,1.39-1.58,7.15,7.15,0,0,1,2.19-1.45,22.8,22.8,0,0,1,4.51-1.28A10.13,10.13,0,0,1,135.67,168.78Z"/><path class="cls-10" d="M134.23,178.78c0,.13-1.71-.25-4-.15h-.35l.1-.34c.13-.45.26-1,.36-1.47a19.51,19.51,0,0,0,.28-2.09l0-.22h.21a7.64,7.64,0,0,0,2.31-.65c.56-.24.88-.41.91-.36s-.24.3-.78.62a6,6,0,0,1-2.42.87l.23-.23a13.39,13.39,0,0,1-.25,2.17,14.62,14.62,0,0,1-.39,1.52l-.25-.32A8.75,8.75,0,0,1,134.23,178.78Z"/><path class="cls-10" d="M123.44,171.73a6.21,6.21,0,0,1,1.2-1.36L126,169a5.62,5.62,0,0,1,.92-.78,6.51,6.51,0,0,1,1.14-.6,26.68,26.68,0,0,1,4.21-1.23,7.74,7.74,0,0,1,1.79-.31,5.49,5.49,0,0,1-1.69.66c-1.07.34-2.56.73-4.11,1.36a8.07,8.07,0,0,0-1.06.54,5.72,5.72,0,0,0-.86.7l-1.48,1.29A6.13,6.13,0,0,1,123.44,171.73Z"/><path class="cls-10" d="M122.07,169.61c0-.05.41-.52,1.18-1.23l1.39-1.23.82-.71.45-.37.22-.19a2,2,0,0,1,.3-.18,32.33,32.33,0,0,1,3.88-1.45,5.32,5.32,0,0,1,1.67-.39,5.89,5.89,0,0,1-1.55.74c-1,.4-2.35.9-3.76,1.56a1.3,1.3,0,0,0-.21.12l-.23.19-.44.37-.85.68-1.45,1.14A5.62,5.62,0,0,1,122.07,169.61Z"/><path class="cls-7" d="M152.74,112l.38-.92.57.81a4.09,4.09,0,0,0,1.83,1.46l.92.38-.82.57a4.16,4.16,0,0,0-1.46,1.83l-.37.92-.57-.82a4.23,4.23,0,0,0-1.83-1.46l-.92-.37.81-.57A4.09,4.09,0,0,0,152.74,112Z"/><path class="cls-7" d="M277.4,217.68l.38-.92.57.82a4.23,4.23,0,0,0,1.83,1.46l.92.37-.82.57a4.16,4.16,0,0,0-1.46,1.83l-.37.92-.57-.81a4.15,4.15,0,0,0-1.83-1.46l-.92-.38.81-.57A4.16,4.16,0,0,0,277.4,217.68Z"/><path class="cls-7" d="M298.92,175l.37-.92.57.81a4.16,4.16,0,0,0,1.83,1.46l.92.38-.82.57a4.23,4.23,0,0,0-1.46,1.83l-.37.92-.57-.82a4.16,4.16,0,0,0-1.83-1.46l-.92-.37.82-.57A4.29,4.29,0,0,0,298.92,175Z"/><path class="cls-7" d="M116.9,107l.22-.54.33.48a2.37,2.37,0,0,0,1.06.84l.53.22-.47.33a2.51,2.51,0,0,0-.85,1.06l-.22.54-.33-.47a2.33,2.33,0,0,0-1.06-.85l-.53-.22.47-.33A2.51,2.51,0,0,0,116.9,107Z"/><path class="cls-7" d="M278.7,186.49l.22-.53.33.47a2.39,2.39,0,0,0,1.06.85l.53.21-.47.34a2.39,2.39,0,0,0-.85,1.06l-.22.53L279,189a2.39,2.39,0,0,0-1.06-.85l-.53-.22.47-.33A2.45,2.45,0,0,0,278.7,186.49Z"/><path class="cls-7" d="M133.75,78.82l.84-1.45.76,1.49a6.93,6.93,0,0,0,2.7,2.85l1.44.84-1.48.76a7,7,0,0,0-2.86,2.7l-.84,1.45L133.55,86a7,7,0,0,0-2.7-2.85l-1.44-.84,1.48-.76A7.08,7.08,0,0,0,133.75,78.82Z"/></g></g></svg>