<svg width="18" height="47" viewBox="0 0 18 47" fill="none" xmlns="http://www.w3.org/2000/svg">
<path d="M14.4815 11.9837H4.16217C2.22775 11.9837 0.654053 13.5575 0.654053 15.4919V26.9869C0.654053 28.3518 1.7644 29.4623 3.12942 29.4623C3.42951 29.4623 3.66405 29.462 3.84593 29.4618V44.5245C3.84593 45.8894 4.95628 46.9999 6.3213 46.9999C7.68632 46.9999 8.79667 45.8896 8.79667 44.5245V30.8197C8.79667 30.5602 9.0078 30.3491 9.26739 30.3491H9.37636C9.63583 30.3491 9.84697 30.5602 9.84697 30.8197V44.5247C9.84697 45.8896 10.9574 47 12.3225 47C13.6874 47 14.7978 45.8897 14.7978 44.5247V29.4619C14.9797 29.4621 15.2142 29.4624 15.5143 29.4624C16.8792 29.4624 17.9897 28.3519 17.9897 26.987V15.4921C17.9897 13.5575 16.4159 11.9837 14.4815 11.9837ZM16.8373 26.987C16.8373 27.7165 16.2438 28.31 15.5143 28.31C15.2125 28.31 14.9792 28.3098 14.7978 28.3095V16.4389C14.7978 16.1207 14.5399 15.8627 14.2216 15.8627C13.9034 15.8627 13.6455 16.1207 13.6455 16.4389V28.884V44.5248C13.6455 45.2543 13.052 45.8478 12.3223 45.8478C11.5928 45.8478 10.9993 45.2543 10.9993 44.5248V30.8197C10.9993 29.9248 10.2712 29.1967 9.37636 29.1967H9.26739C8.3724 29.1967 7.6443 29.9248 7.6443 30.8197V44.5247C7.6443 45.2542 7.0508 45.8477 6.3213 45.8477C5.5918 45.8477 4.99829 45.2542 4.99829 44.5247V28.8838V16.4389C4.99829 16.1207 4.74034 15.8627 4.42211 15.8627C4.10388 15.8627 3.84593 16.1207 3.84593 16.4389V28.3095C3.6644 28.3098 3.43126 28.31 3.12942 28.31C2.39992 28.31 1.80642 27.7165 1.80642 26.987V15.4921C1.80642 14.193 2.86316 13.1362 4.16217 13.1362H14.4815C15.7805 13.1362 16.8373 14.193 16.8373 15.4921V26.987V26.987Z" fill="black"/>
<path d="M9.32199 0C6.3766 0 3.98035 2.39625 3.98035 5.34164C3.98035 8.28704 6.3766 10.6833 9.32199 10.6833C12.2674 10.6833 14.6636 8.28704 14.6636 5.34164C14.6636 2.39625 12.2674 0 9.32199 0ZM9.32199 9.53104C7.012 9.53104 5.13271 7.65164 5.13271 5.34176C5.13271 3.03177 7.01212 1.15248 9.32199 1.15248C11.632 1.15248 13.5113 3.03189 13.5113 5.34176C13.5113 7.65164 11.6319 9.53104 9.32199 9.53104Z" fill="black"/>
</svg>
