<svg xmlns="http://www.w3.org/2000/svg" viewBox="0 0 484.88 464.07"><defs><style>.cls-1{fill:#fafafa;}.cls-2{fill:#e0e0e0;}.cls-13,.cls-15,.cls-16,.cls-25,.cls-3,.cls-8{fill:#fff;}.cls-4{fill:#f0f0f0;}.cls-5{fill:#ebebeb;}.cls-6{fill:#f5f5f5;}.cls-7{fill:#e6e6e6;}.cls-8{opacity:0.4;}.cls-9{fill:#37474f;}.cls-10{fill:#455a64;}.cls-11{fill:#263238;}.cls-12,.cls-18,.cls-20{fill:#ba68c8;}.cls-13{opacity:0.45;}.cls-14,.cls-19{opacity:0.3;}.cls-15{opacity:0.25;}.cls-16{opacity:0.8;}.cls-17,.cls-20,.cls-24,.cls-25{opacity:0.15;}.cls-18,.cls-23{opacity:0.1;}.cls-21{isolation:isolate;}.cls-22,.cls-37{opacity:0.2;}.cls-26{fill:#ffa8a7;}.cls-27{fill:#f28f8f;}.cls-28{fill:#b16668;}.cls-29{fill:#ffbf9d;}.cls-30{fill:#ff9a6c;}.cls-31{fill:#ff725e;}.cls-32{fill:#aa6550;}.cls-33{fill:#9a4a4d;}.cls-34{fill:#e8505b;}.cls-35{opacity:0.6;}.cls-36{fill:#995037;}.cls-38{opacity:0.35;}</style></defs><g id="Layer_2" data-name="Layer 2"><g id="Floor"><ellipse id="Floor-2" data-name="Floor" class="cls-1" cx="242.44" cy="324.1" rx="242.44" ry="139.97"/></g><g id="Shadows"><path id="Shadow" class="cls-2" d="M174.43,280.78,138.2,259.9a.93.93,0,0,1,0-1.76L177,235.63a3.35,3.35,0,0,1,3.05,0l36.23,20.87a.94.94,0,0,1,0,1.77l-38.83,22.51A3.38,3.38,0,0,1,174.43,280.78Z"/><ellipse id="Shadow-2" data-name="Shadow" class="cls-2" cx="132.36" cy="288.32" rx="32.07" ry="18.52"/><ellipse id="Shadow-3" data-name="Shadow" class="cls-2" cx="313.24" cy="314.31" rx="64.39" ry="37.17"/><ellipse id="Shadow-4" data-name="Shadow" class="cls-2" cx="240.14" cy="364.6" rx="56.62" ry="32.69"/><ellipse id="Shadow-5" data-name="Shadow" class="cls-2" cx="403.59" cy="384.16" rx="64.14" ry="37.03"/><ellipse id="Shadow-6" data-name="Shadow" class="cls-2" cx="77.93" cy="388.99" rx="56.62" ry="32.69"/></g><g id="Window"><g id="Window-2" data-name="Window"><g id="Window-3" data-name="Window"><polygon class="cls-1" points="23.48 179.24 25.77 179.4 128.34 120.14 127.2 119.31 23.48 179.24"/><polygon class="cls-3" points="127.2 119.31 25.77 177.92 25.77 83.27 127.2 24.65 127.2 119.31"/><path class="cls-4" d="M130.63,20,23.48,81.94V183.36l107.15-61.9Zm-2.28,100.1L25.77,179.4V83.27L128.34,24Z"/><polygon class="cls-2" points="128.34 120.14 127.2 119.31 127.2 24.65 128.34 24.01 128.34 120.14"/><polygon class="cls-1" points="130.63 20.04 129.49 19.38 22.34 81.28 23.48 81.94 130.63 20.04"/><polygon class="cls-2" points="22.34 81.28 23.48 81.94 23.48 183.36 22.34 182.7 22.34 81.28"/><polygon class="cls-1" points="25.77 130.47 127.2 71.84 128.35 72.53 25.77 131.78 25.77 130.47"/><polygon class="cls-4" points="128.35 72.53 128.34 75.08 25.77 134.34 25.77 131.78 128.35 72.53"/></g><g id="Blinds"><polygon class="cls-4" points="25.77 85.18 127.2 26.57 127.8 29.25 25.77 88.23 25.77 85.18"/><polygon class="cls-2" points="25.77 85.18 25.77 86.41 127.44 27.64 127.2 26.57 25.77 85.18"/><polygon class="cls-4" points="25.77 89.45 127.2 30.84 127.8 33.52 25.77 92.5 25.77 89.45"/><polygon class="cls-2" points="25.77 89.45 25.77 90.67 127.44 31.91 127.2 30.84 25.77 89.45"/><polygon class="cls-4" points="25.77 93.72 127.2 35.11 127.8 37.79 25.77 96.77 25.77 93.72"/><polygon class="cls-2" points="25.77 93.72 25.77 94.94 127.44 36.18 127.2 35.11 25.77 93.72"/><polygon class="cls-4" points="25.77 97.99 127.2 39.38 127.8 42.06 25.77 101.04 25.77 97.99"/><polygon class="cls-2" points="25.77 97.99 25.77 99.21 127.44 40.45 127.2 39.38 25.77 97.99"/><polygon class="cls-4" points="25.77 102.26 127.2 43.65 127.8 46.33 25.77 105.31 25.77 102.26"/><polygon class="cls-2" points="25.77 102.26 25.77 103.48 127.44 44.72 127.2 43.65 25.77 102.26"/><polygon class="cls-4" points="25.77 106.53 127.2 47.92 127.8 50.6 25.77 109.58 25.77 106.53"/><polygon class="cls-2" points="25.77 106.53 25.77 107.75 127.44 48.98 127.2 47.92 25.77 106.53"/><polygon class="cls-4" points="25.77 110.79 127.2 52.19 127.8 54.87 25.77 113.85 25.77 110.79"/><polygon class="cls-2" points="25.77 110.79 25.77 112.02 127.44 53.25 127.2 52.19 25.77 110.79"/><polygon class="cls-4" points="25.77 115.06 127.2 56.46 127.8 59.14 25.77 118.12 25.77 115.06"/><polygon class="cls-2" points="25.77 115.06 25.77 116.29 127.44 57.52 127.2 56.46 25.77 115.06"/><polygon class="cls-4" points="25.77 119.33 127.2 60.73 127.8 63.41 25.77 122.39 25.77 119.33"/><polygon class="cls-2" points="25.77 119.33 25.77 120.56 127.44 61.79 127.2 60.73 25.77 119.33"/><polygon class="cls-4" points="25.77 123.6 127.2 65 127.8 67.68 25.77 126.65 25.77 123.6"/><polygon class="cls-2" points="25.77 123.6 25.77 124.83 127.44 66.06 127.2 65 25.77 123.6"/></g></g></g><g id="Clock"><g id="Clock-2" data-name="Clock"><path class="cls-5" d="M252,7.64h0L257,4.75h0l0,0h0c3.12-1.58,7.29-1.12,11.77,1.77,9,5.81,15.91,19.2,15.39,29.92-.26,5.34-2.31,9-5.42,10.62h0l-5,2.87h0l0,0h0c-3.12,1.58-7.3,1.12-11.79-1.77-9-5.81-15.91-19.2-15.38-29.92C246.86,12.92,248.92,9.26,252,7.64Z"/><path class="cls-2" d="M274,49.81l4.73-2.76h0l0,0c3.11-1.62,5.16-5.29,5.42-10.62a33.27,33.27,0,0,0-3.26-15L276,24.28a33.15,33.15,0,0,1,3.25,15C279,44.52,277,48.14,274,49.81Z"/><path class="cls-4" d="M262,48.18c-9-5.81-15.9-19.2-15.38-29.92s8.25-14.69,17.27-8.88,15.9,19.2,15.38,29.91S271,54,262,48.18Z"/><path class="cls-3" d="M269.55,47.43c5.31.26,6.18-5.72,6.31-8.3.46-9.45-5.88-21.76-13.83-26.88a11.94,11.94,0,0,0-5.71-2.12c-5.32-.26-6.18,5.72-6.31,8.3-.46,9.45,5.87,21.76,13.83,26.88a12,12,0,0,0,5.71,2.12Z"/><path class="cls-2" d="M261.89,30.55a.63.63,0,0,0,.19,0,.58.58,0,0,0,.39-.55V16.3a.58.58,0,0,0-1.16,0v12l-6.37-8.19a.58.58,0,0,0-.92.72l7.41,9.52A.61.61,0,0,0,261.89,30.55Z"/><path class="cls-5" d="M265.15,40.64a.14.14,0,0,0,.09,0,.23.23,0,0,0,.16-.3l-3.21-10.81a.24.24,0,0,0-.3-.16.23.23,0,0,0-.16.3l3.2,10.81A.23.23,0,0,0,265.15,40.64Z"/><path class="cls-5" d="M262.07,27.24c-1.06-.69-2-.22-2,1a4.38,4.38,0,0,0,1.81,3.52c1.06.68,2,.22,2-1A4.34,4.34,0,0,0,262.07,27.24Z"/></g></g><g id="Picture"><g id="Picture-2" data-name="Picture"><g id="Frame"><polygon class="cls-1" points="280.15 101.81 278.78 102.63 250.65 86.39 252.02 85.57 280.15 101.81"/><polygon class="cls-3" points="252.02 85.57 278.78 101.02 278.78 73 252.02 57.56 252.02 85.57"/><path class="cls-5" d="M248.06,87.88l33.31,19.23V71.5L248.06,52.27Zm2.59-31.13L278.78,73v29.63L250.65,86.39Z"/><polygon class="cls-2" points="250.65 86.39 252.02 85.57 252.02 57.56 250.65 56.75 250.65 86.39"/><polygon class="cls-6" points="248.06 52.27 249.46 51.48 282.76 70.71 281.37 71.5 248.06 52.27"/><polygon class="cls-2" points="282.76 70.71 281.37 71.5 281.37 107.11 282.76 106.31 282.76 70.71"/></g><g id="Land"><polygon class="cls-4" points="253.07 84.73 277.74 98.98 277.74 91.86 271.57 77.61 267.73 81.17 269.11 87.14 260.59 68.93 253.07 77.61 253.07 84.73"/><path class="cls-4" d="M268,70.74a4,4,0,0,1,1.82,3.16c0,1.16-.81,1.63-1.82,1a4,4,0,0,1-1.83-3.16C266.13,70.63,267,70.15,268,70.74Z"/></g></g></g><g id="Water"><g id="Water-2" data-name="Water"><path class="cls-6" d="M202.62,150.82l-20.35-11.75a12.37,12.37,0,0,0-11.21,0l-20.35,11.75a12.41,12.41,0,0,0-5.6,9.71v96.78l31.56,18.22,31.55-18.22V160.53A12.41,12.41,0,0,0,202.62,150.82Z"/><path class="cls-5" d="M176.67,178.75a12.41,12.41,0,0,1,5.6-9.71l20.35-11.75c3.09-1.78,5.61-.34,5.61,3.24v96.78l-31.55,18.22Z"/><path class="cls-2" d="M145.11,160.53v96.78l31.56,18.22V178.75a11.89,11.89,0,0,1,2.28-6.52L147.4,154A12,12,0,0,0,145.11,160.53Z"/><polygon class="cls-6" points="205.59 173.94 179.29 189.13 179.29 224.09 205.59 208.9 205.59 173.94"/><polygon class="cls-2" points="198.32 204.7 198.32 178.11 179.29 189.13 179.29 215.72 198.32 204.7"/><polygon class="cls-5" points="198.32 204.7 205.59 208.9 179.29 224.09 179.29 215.72 198.32 204.7"/><path class="cls-1" d="M201.73,176.17l-1,4.64-1,.6a3.23,3.23,0,0,1-3.21,0l-.2-.11-.4-1.78Z"/><path class="cls-1" d="M189,183.51l-1,4.71-1.05.6a3.2,3.2,0,0,1-3.21,0l-.2-.11-.41-1.82Z"/><path class="cls-2" d="M150.19,142.3c0-3.49,2.64-7,7.24-9.67,5-2.9,12-4.57,19.22-4.57s14.21,1.67,19.23,4.57c4.6,2.65,7.24,6.18,7.24,9.67v4.31c0,3.49-2.64,7-7.24,9.67-5,2.9-12,4.56-19.23,4.56s-14.2-1.66-19.22-4.56c-4.6-2.66-7.24-6.18-7.24-9.68Z"/><path class="cls-1" d="M176.65,156.53c7.2,0,14.21-1.66,19.23-4.56,4.6-2.65,7.24-6.18,7.24-9.67s-2.64-7-7.24-9.67c-5-2.9-12-4.57-19.23-4.57s-14.2,1.67-19.22,4.57c-4.6,2.65-7.24,6.18-7.24,9.67s2.64,7,7.24,9.67C162.45,154.87,169.46,156.53,176.65,156.53Z"/><path class="cls-7" d="M147.81,136.38V80.46c-.57-4.65,2.21-9.42,8.38-13,11.3-6.53,29.63-6.53,40.93,0,5.66,3.27,8.49,7.56,8.47,11.85h0v58.21a0,0,0,0,1,0,0v1.3h-.1c-.53,3.83-3.3,7.57-8.37,10.5-11.3,6.53-29.63,6.53-40.93,0-5.07-2.93-7.85-6.67-8.37-10.5h0v-.15A9.16,9.16,0,0,1,147.81,136.38Z"/><path class="cls-8" d="M176.66,150.55c7.08,0,13.69-1.56,18.6-4.4,3.84-2.21,6.16-5,6.54-7.78l.08-.54V99.3c0-3-2.4-6.19-6.62-8.63-4.91-2.83-11.52-4.39-18.61-4.39s-13.69,1.56-18.6,4.39c-4.56,2.63-7,6-6.55,9.32l0,.23v36.39l0,.22a5.86,5.86,0,0,0,0,1.45l0,.24c.45,2.75,2.76,5.45,6.53,7.63C163,149,169.57,150.55,176.66,150.55Z"/><path class="cls-6" d="M158.05,90.67a39.19,39.19,0,0,1,18.6-4.39,44.15,44.15,0,0,1,18.61,4.39c4.23,2,6.66,5.53,6.62,9.32s-2.39,7.34-6.62,9.33a44.15,44.15,0,0,1-18.61,4.39c-7.08,0-13.69-1.56-18.6-4.39-4.56-2.64-6.55-5.91-6.55-9.33C151.28,96.46,153.37,93.25,158.05,90.67Z"/><path class="cls-4" d="M176.65,93.53c7.2,0,14.21-1.66,19.23-4.56,4.6-2.66,7.24-6.18,7.24-9.67s-2.64-7-7.24-9.68c-5-2.9-12-4.56-19.23-4.56s-14.2,1.66-19.22,4.56c-4.6,2.66-7.24,6.18-7.24,9.67s2.64,7,7.24,9.68C162.45,91.87,169.46,93.53,176.65,93.53Z"/><path class="cls-2" d="M186.75,174.14l1.12.65-.05.09a1.63,1.63,0,0,1,.2.82,3.86,3.86,0,0,1-1.73,3,1.62,1.62,0,0,1-.81.23l-.06.1-1.12-.65h0a1.22,1.22,0,0,1-.51-1.12,3.83,3.83,0,0,1,1.73-3A1.22,1.22,0,0,1,186.75,174.14Z"/><path class="cls-1" d="M184.92,177.91c0,1.1.77,1.55,1.73,1a3.86,3.86,0,0,0,1.73-3c0-1.11-.78-1.55-1.73-1A3.81,3.81,0,0,0,184.92,177.91Z"/><path class="cls-2" d="M199.47,166.87l1.13.65-.06.1a1.49,1.49,0,0,1,.2.81,3.81,3.81,0,0,1-1.73,3,1.47,1.47,0,0,1-.8.23l-.06.1-1.12-.65h0a1.2,1.2,0,0,1-.51-1.12,3.84,3.84,0,0,1,1.73-3A1.23,1.23,0,0,1,199.47,166.87Z"/><path class="cls-1" d="M197.64,170.64c0,1.1.78,1.55,1.73,1a3.82,3.82,0,0,0,1.73-3c0-1.1-.77-1.55-1.73-1A3.85,3.85,0,0,0,197.64,170.64Z"/></g></g><g id="Plants"><g id="Plant"><g id="Plant-2" data-name="Plant"><g id="Pot"><path class="cls-9" d="M116.55,289.64c-8.47-8.73-13.44-31.41-5.18-38.34h42c8.25,6.92,3.28,29.59-5.17,38.33l-.23.24-.29.29c-.24.23-.5.46-.77.69l-.2.16c-.21.16-.41.33-.64.49a11.79,11.79,0,0,1-1.09.7c-7,4.07-18.25,4.07-25.21,0h0a12.05,12.05,0,0,1-1.1-.71l-.6-.45-.25-.2c-.26-.22-.5-.44-.73-.67s-.23-.22-.34-.33Z"/><path class="cls-10" d="M149.71,248.51c9.58,5.6,9.58,14.67,0,20.26s-25.11,5.59-34.69,0-9.59-14.66,0-20.26S140.13,242.92,149.71,248.51Z"/><path class="cls-11" d="M145.1,251.2c7,4.11,7,10.77,0,14.88s-18.44,4.11-25.48,0-7-10.77,0-14.88S138.07,247.1,145.1,251.2Z"/><path class="cls-1" d="M119.62,258.26c7-4.1,18.45-4.1,25.48,0a11.85,11.85,0,0,1,4.22,3.91,11.68,11.68,0,0,1-4.22,3.91c-7,4.11-18.44,4.11-25.48,0a11.72,11.72,0,0,1-4.21-3.91A11.9,11.9,0,0,1,119.62,258.26Z"/></g><path class="cls-12" d="M129.54,202.27c-3.22,3.48-12.16,4.44-15.87-5-3.47-8.84-7.22-17.21-8.29-20.46a3.33,3.33,0,0,1,2.14-4.31s.26-4.85,8.48-1.56,14,8.28,17.62,16.35S135.05,201.18,129.54,202.27Z"/><path class="cls-13" d="M129.54,202.27c-3.22,3.48-12.16,4.44-15.87-5-3.47-8.84-7.22-17.21-8.29-20.46a3.33,3.33,0,0,1,2.14-4.31s.26-4.85,8.48-1.56,14,8.28,17.62,16.35S135.05,201.18,129.54,202.27Z"/><path class="cls-12" d="M133.1,214.72a42.69,42.69,0,0,0-.71-4.91,68.94,68.94,0,0,0-2.73-9.48,69.64,69.64,0,0,0-9.54-17.6,60.53,60.53,0,0,0-7.49-8.5c-.08-.08-.15.11-.09.17a74.55,74.55,0,0,1,11.73,16.21A75.18,75.18,0,0,1,131.06,209c.41,1.79.79,3.59,1.12,5.4s.53,3.68.83,5.52c0,.19.32.3.34.05A35.44,35.44,0,0,0,133.1,214.72Z"/><path class="cls-14" d="M133.1,214.72a42.69,42.69,0,0,0-.71-4.91,68.94,68.94,0,0,0-2.73-9.48,69.64,69.64,0,0,0-9.54-17.6,60.53,60.53,0,0,0-7.49-8.5c-.08-.08-.15.11-.09.17a74.55,74.55,0,0,1,11.73,16.21A75.18,75.18,0,0,1,131.06,209c.41,1.79.79,3.59,1.12,5.4s.53,3.68.83,5.52c0,.19.32.3.34.05A35.44,35.44,0,0,0,133.1,214.72Z"/><path class="cls-12" d="M135.85,199.82c-7.39,2.29-12.88-3.48-11-12.52s11.4-19.09,15-16.39c2.24-2.24,7.18-1.44,9.5,5.91S149.57,203,135.85,199.82Z"/><path class="cls-15" d="M135.85,199.82c-7.39,2.29-12.88-3.48-11-12.52s11.4-19.09,15-16.39c2.24-2.24,7.18-1.44,9.5,5.91S149.57,203,135.85,199.82Z"/><path class="cls-12" d="M140.18,176.41a99.77,99.77,0,0,0-4.91,16.25,157.77,157.77,0,0,0-2.85,17A265.11,265.11,0,0,0,130.94,243q0,4.62.12,9.23c.06,3.17,0,6.37.28,9.53.11,1.21,1.83.89,1.85-.22.11-5.54-.2-11.1-.25-16.65s0-10.95.1-16.43a230.74,230.74,0,0,1,3-33.3c.53-3.07,1.11-6.13,1.83-9.16.75-3.19,1.67-6.33,2.51-9.49C140.4,176.41,140.26,176.24,140.18,176.41Z"/><path class="cls-14" d="M140.18,176.41a99.77,99.77,0,0,0-4.91,16.25,157.77,157.77,0,0,0-2.85,17A265.11,265.11,0,0,0,130.94,243q0,4.62.12,9.23c.06,3.17,0,6.37.28,9.53.11,1.21,1.83.89,1.85-.22.11-5.54-.2-11.1-.25-16.65s0-10.95.1-16.43a230.74,230.74,0,0,1,3-33.3c.53-3.07,1.11-6.13,1.83-9.16.75-3.19,1.67-6.33,2.51-9.49C140.4,176.41,140.26,176.24,140.18,176.41Z"/><path class="cls-12" d="M123.82,226.35c-3.22,3.65-10.62,3.33-15.58-3.19s-7.95-31-1-29.48c1.48-3.28,20.77,4.58,23.25,20.58C132.33,225.9,123.82,226.35,123.82,226.35Z"/><path class="cls-15" d="M123.82,226.35c-3.22,3.65-10.62,3.33-15.58-3.19s-7.95-31-1-29.48c1.48-3.28,20.77,4.58,23.25,20.58C132.33,225.9,123.82,226.35,123.82,226.35Z"/><path class="cls-12" d="M129.6,237.93a36.31,36.31,0,0,0-1-4.47,89.85,89.85,0,0,0-2.87-8.87,92.92,92.92,0,0,0-8.62-16.92A84.37,84.37,0,0,0,111,199c-.06-.07-.12.1-.08.15,1.72,2.52,3.47,5,5,7.62a91.94,91.94,0,0,1,4.37,8.42,116.33,116.33,0,0,1,6.37,17.07c.47,1.66.86,3.34,1.35,5s1.15,3.4,1.58,5.14c.07.26.39.35.36,0C129.85,240.94,129.79,239.43,129.6,237.93Z"/><path class="cls-14" d="M129.6,237.93a36.31,36.31,0,0,0-1-4.47,89.85,89.85,0,0,0-2.87-8.87,92.92,92.92,0,0,0-8.62-16.92A84.37,84.37,0,0,0,111,199c-.06-.07-.12.1-.08.15,1.72,2.52,3.47,5,5,7.62a91.94,91.94,0,0,1,4.37,8.42,116.33,116.33,0,0,1,6.37,17.07c.47,1.66.86,3.34,1.35,5s1.15,3.4,1.58,5.14c.07.26.39.35.36,0C129.85,240.94,129.79,239.43,129.6,237.93Z"/><path class="cls-12" d="M135.64,222.72c-4.22-1-4.44-6,.84-12.26s18.58-8.94,19.22-6.31c3,0,3,9.26-3.59,17.76S136,228.44,135.64,222.72Z"/><path class="cls-15" d="M135.64,222.72c-4.22-1-4.44-6,.84-12.26s18.58-8.94,19.22-6.31c3,0,3,9.26-3.59,17.76S136,228.44,135.64,222.72Z"/><path class="cls-12" d="M143.91,213.67a33.3,33.3,0,0,0-12.22,15.78c-.14.36.49.89.63.5a38.84,38.84,0,0,1,11.62-16.19S144,213.63,143.91,213.67Z"/><path class="cls-14" d="M143.91,213.67a33.3,33.3,0,0,0-12.22,15.78c-.14.36.49.89.63.5a38.84,38.84,0,0,1,11.62-16.19S144,213.63,143.91,213.67Z"/><path class="cls-12" d="M140.46,253.62c-5.85,2.37-3.34,9.33,2.37,14.63a26.12,26.12,0,0,0,17.8,6.4c3.93-.27,4.94-.81,4.94-.81s.62-6,0-9.69a18.74,18.74,0,0,0-13.79-14.85C142.65,246.84,140.46,250.14,140.46,253.62Z"/><path class="cls-13" d="M140.46,253.62c-5.85,2.37-3.34,9.33,2.37,14.63a26.12,26.12,0,0,0,17.8,6.4c3.93-.27,4.94-.81,4.94-.81s.62-6,0-9.69a18.74,18.74,0,0,0-13.79-14.85C142.65,246.84,140.46,250.14,140.46,253.62Z"/><path class="cls-12" d="M156.66,263.91a47.29,47.29,0,0,0-9-8.29c-3.33-2.19-7.77-4.06-11.77-2.7-1.54.53-4,2.08-3.66,4,0,.19.37.66.6.4a15.88,15.88,0,0,1,2.1-2.46,6.36,6.36,0,0,1,3.14-1.19,14.56,14.56,0,0,1,8.2,1.87c4,2.1,7.15,5.35,10.3,8.47C156.65,264,156.68,263.94,156.66,263.91Z"/><path class="cls-14" d="M156.66,263.91a47.29,47.29,0,0,0-9-8.29c-3.33-2.19-7.77-4.06-11.77-2.7-1.54.53-4,2.08-3.66,4,0,.19.37.66.6.4a15.88,15.88,0,0,1,2.1-2.46,6.36,6.36,0,0,1,3.14-1.19,14.56,14.56,0,0,1,8.2,1.87c4,2.1,7.15,5.35,10.3,8.47C156.65,264,156.68,263.94,156.66,263.91Z"/><path class="cls-12" d="M118.19,223.67c.55-2.67-3.29-9-15.28-10.27s-21,3.87-22.79,6.19-2.73,4.77-.55,5.38,9.66,1.34,14.58,3.6,14.92,9,21.75,7S121.58,226.31,118.19,223.67Z"/><path class="cls-13" d="M118.19,223.67c.55-2.67-3.29-9-15.28-10.27s-21,3.87-22.79,6.19-2.73,4.77-.55,5.38,9.66,1.34,14.58,3.6,14.92,9,21.75,7S121.58,226.31,118.19,223.67Z"/><path class="cls-12" d="M127.31,233c-5.06-10.45-18.1-13.64-28.75-13.58a42.45,42.45,0,0,0-10.4,1.35s0,.13,0,.12a55.24,55.24,0,0,1,17.36-.17c5.65.92,11.21,2.67,15.86,6.11a21.77,21.77,0,0,1,5.68,6.37C127.22,233.4,127.41,233.16,127.31,233Z"/><path class="cls-14" d="M127.31,233c-5.06-10.45-18.1-13.64-28.75-13.58a42.45,42.45,0,0,0-10.4,1.35s0,.13,0,.12a55.24,55.24,0,0,1,17.36-.17c5.65.92,11.21,2.67,15.86,6.11a21.77,21.77,0,0,1,5.68,6.37C127.22,233.4,127.41,233.16,127.31,233Z"/><path class="cls-12" d="M146.13,209.67c-.15,4.2,5.75,6.63,11.46,3s11.71-7.16,17-8.52,7.8-5.69,6.13-7.78-4.33-7.36-18.25-5.64-18.85,8-20.75,12.42S144,210.88,146.13,209.67Z"/><path class="cls-13" d="M146.13,209.67c-.15,4.2,5.75,6.63,11.46,3s11.71-7.16,17-8.52,7.8-5.69,6.13-7.78-4.33-7.36-18.25-5.64-18.85,8-20.75,12.42S144,210.88,146.13,209.67Z"/><path class="cls-12" d="M168.78,196.35a15.15,15.15,0,0,0-6,.63,30.22,30.22,0,0,0-5.11,1.83,28.2,28.2,0,0,0-8.7,6.3,23.25,23.25,0,0,0-2,2.37,10,10,0,0,0-1.49,2.43c-.09.28.31.73.55.45.69-.8,1.21-1.77,1.86-2.61a27.18,27.18,0,0,1,2.24-2.56,28.09,28.09,0,0,1,5.36-4.22,33,33,0,0,1,5.94-2.9c1.14-.41,2.29-.74,3.46-1a11.89,11.89,0,0,1,3.79-.52C168.81,196.51,168.85,196.36,168.78,196.35Z"/><path class="cls-14" d="M168.78,196.35a15.15,15.15,0,0,0-6,.63,30.22,30.22,0,0,0-5.11,1.83,28.2,28.2,0,0,0-8.7,6.3,23.25,23.25,0,0,0-2,2.37,10,10,0,0,0-1.49,2.43c-.09.28.31.73.55.45.69-.8,1.21-1.77,1.86-2.61a27.18,27.18,0,0,1,2.24-2.56,28.09,28.09,0,0,1,5.36-4.22,33,33,0,0,1,5.94-2.9c1.14-.41,2.29-.74,3.46-1a11.89,11.89,0,0,1,3.79-.52C168.81,196.51,168.85,196.36,168.78,196.35Z"/><path class="cls-12" d="M136.14,232.31c-1.95-1.95-7.24-1.5-9.75,4.27s2.76,12.06,3.35,13.84c2.42-1.4,4.3-.57,8.55-1.4a10.62,10.62,0,0,0,8.16-10.6C146.17,233.14,144,229.66,136.14,232.31Z"/><path class="cls-13" d="M136.14,232.31c-1.95-1.95-7.24-1.5-9.75,4.27s2.76,12.06,3.35,13.84c2.42-1.4,4.3-.57,8.55-1.4a10.62,10.62,0,0,0,8.16-10.6C146.17,233.14,144,229.66,136.14,232.31Z"/><path class="cls-12" d="M136.07,231.73a8,8,0,0,0-2.58,2.67,14.81,14.81,0,0,0-1.68,3.23,13.84,13.84,0,0,0-.73,7.34c0,.1.09,0,.09-.05a15.14,15.14,0,0,1,1.23-7.25,14.44,14.44,0,0,1,1.76-2.92,13.64,13.64,0,0,1,1.17-1.35,7.41,7.41,0,0,0,1.12-1.12C136.59,232.06,136.37,231.58,136.07,231.73Z"/><path class="cls-14" d="M136.07,231.73a8,8,0,0,0-2.58,2.67,14.81,14.81,0,0,0-1.68,3.23,13.84,13.84,0,0,0-.73,7.34c0,.1.09,0,.09-.05a15.14,15.14,0,0,1,1.23-7.25,14.44,14.44,0,0,1,1.76-2.92,13.64,13.64,0,0,1,1.17-1.35,7.41,7.41,0,0,0,1.12-1.12C136.59,232.06,136.37,231.58,136.07,231.73Z"/><path class="cls-12" d="M127,244c-.18-4.29-4.83-7.69-11.44-9.66a18,18,0,0,0-18.6,4.95c-4.82,5.24-7.33,9.71-5.36,11s10.73,4.47,16.45,6.26,13.23,2.33,19-1.07S132.33,246.13,127,244Z"/><path class="cls-15" d="M127,244c-.18-4.29-4.83-7.69-11.44-9.66a18,18,0,0,0-18.6,4.95c-4.82,5.24-7.33,9.71-5.36,11s10.73,4.47,16.45,6.26,13.23,2.33,19-1.07S132.33,246.13,127,244Z"/><path class="cls-12" d="M127.34,243.51a18,18,0,0,0-7.19-1.92,32.7,32.7,0,0,0-7.2.08,45.09,45.09,0,0,0-7.45,1.58c-1.28.37-2.54.79-3.79,1.25a26.74,26.74,0,0,0-3.46,1.42s-.06.17,0,.15c1.21-.25,2.4-.72,3.58-1.09s2.56-.77,3.85-1.1a49.85,49.85,0,0,1,7.35-1.39,33.23,33.23,0,0,1,7.46,0,43.72,43.72,0,0,1,6.77,1.66C127.73,244.3,127.6,243.66,127.34,243.51Z"/><path class="cls-14" d="M127.34,243.51a18,18,0,0,0-7.19-1.92,32.7,32.7,0,0,0-7.2.08,45.09,45.09,0,0,0-7.45,1.58c-1.28.37-2.54.79-3.79,1.25a26.74,26.74,0,0,0-3.46,1.42s-.06.17,0,.15c1.21-.25,2.4-.72,3.58-1.09s2.56-.77,3.85-1.1a49.85,49.85,0,0,1,7.35-1.39,33.23,33.23,0,0,1,7.46,0,43.72,43.72,0,0,1,6.77,1.66C127.73,244.3,127.6,243.66,127.34,243.51Z"/><path class="cls-12" d="M140.62,237.6c-4.73-3.76-3.16-12.77,13.39-13.25s28.37,3.83,27.84,9.16c2.66,2.66,1.31,10.12-12.08,12.45S137.2,247.13,140.62,237.6Z"/><path class="cls-15" d="M140.62,237.6c-4.73-3.76-3.16-12.77,13.39-13.25s28.37,3.83,27.84,9.16c2.66,2.66,1.31,10.12-12.08,12.45S137.2,247.13,140.62,237.6Z"/><path class="cls-12" d="M174.07,233.57a71.7,71.7,0,0,0-14.78-.87,57.47,57.47,0,0,0-13.65,1.57,20.82,20.82,0,0,0-3.33,1.24c-.49.24-1,.49-1.45.78s-.8.42-.93.86a.45.45,0,0,0,.49.53,17.64,17.64,0,0,0,2.89-1.43,22.38,22.38,0,0,1,2.87-1.05,36.09,36.09,0,0,1,5.75-1.13,101.82,101.82,0,0,1,14-.77c2.73,0,5.43.24,8.14.46C174.12,233.77,174.15,233.58,174.07,233.57Z"/><path class="cls-14" d="M174.07,233.57a71.7,71.7,0,0,0-14.78-.87,57.47,57.47,0,0,0-13.65,1.57,20.82,20.82,0,0,0-3.33,1.24c-.49.24-1,.49-1.45.78s-.8.42-.93.86a.45.45,0,0,0,.49.53,17.64,17.64,0,0,0,2.89-1.43,22.38,22.38,0,0,1,2.87-1.05,36.09,36.09,0,0,1,5.75-1.13,101.82,101.82,0,0,1,14-.77c2.73,0,5.43.24,8.14.46C174.12,233.77,174.15,233.58,174.07,233.57Z"/></g></g></g><g id="Board"><g id="Board-2" data-name="Board"><g id="Board-3" data-name="Board"><path class="cls-12" d="M296.28,3.76l-1.2.69V168.57c0,3.88,2.36,8.39,5.27,10.07L462.07,272a3.47,3.47,0,0,0,3.3.36c.26-.13,1.16-.67,1.36-.79,1.11-.64,1.81-2.13,1.81-4.24V103.21Z"/><path class="cls-16" d="M462.07,272,300.35,178.64c-2.91-1.68-5.27-6.19-5.27-10.07V4.45L467.34,103.9V268C467.34,271.9,465,273.68,462.07,272Z"/></g><g id="Chart"><polygon class="cls-17" points="381.21 151.37 307.12 108.59 307.12 24.23 381.21 67.01 381.21 151.37"/><path class="cls-4" d="M378.18,150.42l.34-.2a2.16,2.16,0,0,0,1-1.7V69.17a2.16,2.16,0,0,0-1-1.7L307.08,26.14a2.2,2.2,0,0,0-2,0l-.34.2a2.18,2.18,0,0,0-1,1.7v79.35a2.2,2.2,0,0,0,1,1.71l71.44,41.32A2.14,2.14,0,0,0,378.18,150.42Z"/><path class="cls-2" d="M379.5,69.17v79.35a2.2,2.2,0,0,1-1,1.71l-.34.2a2.26,2.26,0,0,1-1.75.1c.45.12.77-.13.77-.68V70.5a1.89,1.89,0,0,0-.3-1l2.32-1.34A2.11,2.11,0,0,1,379.5,69.17Z"/><path class="cls-1" d="M304.77,27.48,376.21,68.8a2.18,2.18,0,0,1,1,1.71v79.34c0,.63-.44.89-1,.57L304.77,109.1a2.2,2.2,0,0,1-1-1.71V28C303.79,27.42,304.23,27.16,304.77,27.48Z"/><path class="cls-18" d="M308.28,102.61c2.41,1.39,6.09,1.66,8.87-5.13s5.27-12.25,8.67-10c2.38,1.6,2.06,3.77,4.19,5,3.33,1.93,5.95-6.37,7.13-14.11,1.67-11,3.29-13.87,6.28-12.22,4.45,2.47,4.07,9.78,4.07,16.5,0,6,0,9.15,3.27,10.49,2.16.89,4.26-4.33,5.13-8.36s2.74-6,4.67-4.84,4,3.77,4.12,14.42c.09,9.43.24,23,.4,25.92a14.68,14.68,0,0,0,7.82,12.56v10.7l-64.62-37.32Z"/><path class="cls-12" d="M372.58,133.44a15.34,15.34,0,0,1-8.16-13.1c-.16-3.11-.32-17.59-.4-25.94-.1-10.41-2.08-12.88-3.78-13.87a1.32,1.32,0,0,0-1.27-.1c-1,.45-1.93,2.14-2.44,4.52-.72,3.36-2.28,7.66-4.29,8.72a2,2,0,0,1-1.73.11c-3.67-1.51-3.67-4.91-3.67-11.1V81.2c0-6.07.05-12.35-3.74-14.44-.88-.49-1.33-.37-1.6-.24-1.81.89-2.94,6.87-3.72,12-.46,3-2.23,13-5.73,14.7a2.44,2.44,0,0,1-2.37-.12,5.75,5.75,0,0,1-2.24-2.6,5.81,5.81,0,0,0-2-2.42,1.86,1.86,0,0,0-1.65-.35c-2.22.68-4.43,6.08-6,10-1.36,3.32-3.09,5.36-5.14,6.06a5.55,5.55,0,0,1-4.67-.62l.66-1.13a4.35,4.35,0,0,0,3.59.51c1.67-.57,3.13-2.36,4.34-5.31,2.3-5.63,4.27-10,6.88-10.78a3.15,3.15,0,0,1,2.77.51,7.19,7.19,0,0,1,2.41,2.89,4.54,4.54,0,0,0,1.73,2.08,1.11,1.11,0,0,0,1.15.07c1.89-.9,3.9-6.41,5-13.71,1.27-8.38,2.51-12,4.43-13a2.88,2.88,0,0,1,2.82.26c4.47,2.47,4.44,9.14,4.41,15.59v1.48c0,6,0,8.71,2.86,9.89a.71.71,0,0,0,.62-.06c1.24-.66,2.8-4,3.62-7.83.61-2.88,1.75-4.81,3.19-5.45a2.59,2.59,0,0,1,2.45.17c2.14,1.23,4.34,4,4.44,15,.08,8.35.24,22.81.4,25.89a14,14,0,0,0,7.5,12Z"/><g class="cls-19"><path d="M372.58,133.44a15.34,15.34,0,0,1-8.16-13.1c-.16-3.11-.32-17.59-.4-25.94-.1-10.41-2.08-12.88-3.78-13.87a1.32,1.32,0,0,0-1.27-.1c-1,.45-1.93,2.14-2.44,4.52-.72,3.36-2.28,7.66-4.29,8.72a2,2,0,0,1-1.73.11c-3.67-1.51-3.67-4.91-3.67-11.1V81.2c0-6.07.05-12.35-3.74-14.44-.88-.49-1.33-.37-1.6-.24-1.81.89-2.94,6.87-3.72,12-.46,3-2.23,13-5.73,14.7a2.44,2.44,0,0,1-2.37-.12,5.75,5.75,0,0,1-2.24-2.6,5.81,5.81,0,0,0-2-2.42,1.86,1.86,0,0,0-1.65-.35c-2.22.68-4.43,6.08-6,10-1.36,3.32-3.09,5.36-5.14,6.06a5.55,5.55,0,0,1-4.67-.62l.66-1.13a4.35,4.35,0,0,0,3.59.51c1.67-.57,3.13-2.36,4.34-5.31,2.3-5.63,4.27-10,6.88-10.78a3.15,3.15,0,0,1,2.77.51,7.19,7.19,0,0,1,2.41,2.89,4.54,4.54,0,0,0,1.73,2.08,1.11,1.11,0,0,0,1.15.07c1.89-.9,3.9-6.41,5-13.71,1.27-8.38,2.51-12,4.43-13a2.88,2.88,0,0,1,2.82.26c4.47,2.47,4.44,9.14,4.41,15.59v1.48c0,6,0,8.71,2.86,9.89a.71.71,0,0,0,.62-.06c1.24-.66,2.8-4,3.62-7.83.61-2.88,1.75-4.81,3.19-5.45a2.59,2.59,0,0,1,2.45.17c2.14,1.23,4.34,4,4.44,15,.08,8.35.24,22.81.4,25.89a14,14,0,0,0,7.5,12Z"/></g><path class="cls-20" d="M308.28,87.51c0,2.31,4.55,14.47,14.81,15.1s14-10.81,19-8.07,4,10.93,8.67,13.73S360.36,95.4,366,97.89s3.64,19.61,6.95,22.74v22.94l-64.62-37.32Z"/><path class="cls-12" d="M372.46,121.1c-1.59-1.5-2-5.36-2.57-9.84-.63-5.39-1.35-11.5-4.21-12.77-2.4-1.07-4.92,2.2-7.36,5.35s-5.14,6.65-7.9,5c-2.46-1.49-3.45-4.31-4.41-7s-1.91-5.4-4.23-6.68c-1.81-1-3.44.28-6.15,2.63-3,2.61-6.8,5.88-12.58,5.52-10.36-.63-15.4-12.81-15.43-15.74h1.31c0,1.93,4.2,13.83,14.2,14.44,5.23.31,8.79-2.74,11.64-5.21,2.65-2.29,4.94-4.26,7.64-2.78s3.82,4.51,4.83,7.4c.93,2.62,1.8,5.1,3.86,6.34,1.75,1.06,3.9-1.72,6.18-4.66,2.63-3.39,5.6-7.23,8.93-5.75,3.55,1.58,4.28,7.8,5,13.82.45,3.87.92,7.87,2.16,9Z"/><path class="cls-12" d="M312.42,38.76a3.75,3.75,0,0,1,1.69,2.92c0,1.08-.76,1.51-1.69,1a3.75,3.75,0,0,1-1.69-2.93C310.73,38.66,311.49,38.22,312.42,38.76Z"/><path class="cls-10" d="M315.4,42.05a2.66,2.66,0,0,0,1.24,2.07l11.5,6.64c.69.39,1.24.11,1.24-.63a2.64,2.64,0,0,0-1.24-2.06l-11.5-6.64C316,41,315.4,41.31,315.4,42.05Z"/><path class="cls-12" d="M312.42,46.84a3.71,3.71,0,0,1,1.69,2.92c0,1.07-.76,1.51-1.69,1a3.75,3.75,0,0,1-1.69-2.92C310.73,46.73,311.49,46.3,312.42,46.84Z"/><path class="cls-14" d="M312.42,46.84a3.71,3.71,0,0,1,1.69,2.92c0,1.07-.76,1.51-1.69,1a3.75,3.75,0,0,1-1.69-2.92C310.73,46.73,311.49,46.3,312.42,46.84Z"/><path class="cls-10" d="M315.4,50.13a2.64,2.64,0,0,0,1.24,2.06l11.5,6.64c.69.4,1.24.12,1.24-.63a2.66,2.66,0,0,0-1.24-2.06l-11.5-6.64C316,49.1,315.4,49.39,315.4,50.13Z"/></g><g id="Chart-2" data-name="Chart"><polygon class="cls-17" points="461.94 261.17 387.85 218.39 387.85 149.96 461.94 192.74 461.94 261.17"/><path class="cls-4" d="M458.9,260.22l.34-.2a2.16,2.16,0,0,0,1-1.7V194.91a2.16,2.16,0,0,0-1-1.71l-71.43-41.33a2.2,2.2,0,0,0-2,0l-.34.2a2.18,2.18,0,0,0-1,1.71v63.41a2.18,2.18,0,0,0,1,1.71l71.43,41.32A2.2,2.2,0,0,0,458.9,260.22Z"/><path class="cls-2" d="M460.23,194.9v63.42a2.18,2.18,0,0,1-1,1.71l-.33.2a2.28,2.28,0,0,1-1.76.09c.45.13.77-.12.77-.67V196.24a2,2,0,0,0-.29-1l2.31-1.33A2.12,2.12,0,0,1,460.23,194.9Z"/><path class="cls-1" d="M385.5,153.21l71.43,41.32a2.18,2.18,0,0,1,1,1.71v63.41c0,.63-.44.88-1,.57L385.5,218.9a2.18,2.18,0,0,1-1-1.71V153.78C384.51,153.15,385,152.89,385.5,153.21Z"/><g id="Chart-3" data-name="Chart"><path class="cls-10" d="M392.68,213.63v1a4,4,0,0,1-.06.55,1,1,0,0,1-.16.37.4.4,0,0,1-.29.14.77.77,0,0,1-.43-.14,1.57,1.57,0,0,1-.44-.36,1.72,1.72,0,0,1-.28-.47,2.6,2.6,0,0,1-.17-.56,6,6,0,0,1-.06-.61v-.94a4.21,4.21,0,0,1,.06-.55.89.89,0,0,1,.17-.38.37.37,0,0,1,.28-.15.82.82,0,0,1,.44.14,1.36,1.36,0,0,1,.43.36,2.05,2.05,0,0,1,.29.47,3.05,3.05,0,0,1,.16.56A6,6,0,0,1,392.68,213.63Zm-1.41.12a2.06,2.06,0,0,0,.12.67.8.8,0,0,0,.35.42c.16.09.28.09.35,0a1.39,1.39,0,0,0,.12-.54v-.9a2.78,2.78,0,0,0-.12-.67.81.81,0,0,0-.35-.42c-.17-.09-.28-.09-.35,0a1.06,1.06,0,0,0-.12.53c0,.14,0,.29,0,.45S391.26,213.61,391.27,213.75Z"/><path class="cls-2" d="M398,218.09a2.25,2.25,0,0,1-.4-.71c-.13-.37-.06-.57.17-.44l54.75,31.61a1.91,1.91,0,0,1,.65.91c.13.38.05.58-.18.45L398.19,218.3A1.44,1.44,0,0,1,398,218.09Z"/><path class="cls-10" d="M389.88,196.69a.25.25,0,0,1,0-.12s0-.06,0-.07l.76-.49.06,0h.06l.28.16a.18.18,0,0,1,.06.08.27.27,0,0,1,0,.12v3.49s0,.07,0,.08a0,0,0,0,1-.06,0l-.29-.17a.13.13,0,0,1-.06-.08.27.27,0,0,1,0-.12V196.9l-.5.31a.06.06,0,0,1-.07,0,.2.2,0,0,1-.06-.09Z"/><path class="cls-10" d="M393.48,199v1a4,4,0,0,1-.06.54,1,1,0,0,1-.16.37.41.41,0,0,1-.29.15.86.86,0,0,1-.43-.14,1.45,1.45,0,0,1-.44-.37,1.86,1.86,0,0,1-.29-.47,3.05,3.05,0,0,1-.16-.56,5.73,5.73,0,0,1-.06-.61v-.93a4,4,0,0,1,.06-.55,1,1,0,0,1,.16-.38.41.41,0,0,1,.29-.15.79.79,0,0,1,.44.13,1.68,1.68,0,0,1,.43.36,1.92,1.92,0,0,1,.29.48,3,3,0,0,1,.16.55A5.92,5.92,0,0,1,393.48,199Zm-1.41.12a2.11,2.11,0,0,0,.12.67.75.75,0,0,0,.35.41c.16.1.28.09.34,0a1.06,1.06,0,0,0,.12-.53c0-.14,0-.29,0-.45s0-.32,0-.46a2.11,2.11,0,0,0-.12-.67.73.73,0,0,0-.34-.41c-.17-.1-.28-.1-.35,0a1.06,1.06,0,0,0-.12.53c0,.13,0,.28,0,.45S392.06,198.94,392.07,199.08Z"/><path class="cls-2" d="M398,203a2.2,2.2,0,0,1-.4-.7c-.13-.38-.06-.58.17-.45l54.75,31.61a1.9,1.9,0,0,1,.65.92c.13.38.05.57-.18.44l-54.75-31.61A.88.88,0,0,1,398,203Z"/><path class="cls-10" d="M390.81,182.54a.33.33,0,0,0,.14-.19.91.91,0,0,0,0-.23,1,1,0,0,0-.09-.42.72.72,0,0,0-.29-.33c-.13-.07-.22-.07-.28,0a.6.6,0,0,0-.13.3s0,.07,0,.08h-.07l-.27-.16a.19.19,0,0,1-.07-.08.27.27,0,0,1,0-.12,1.65,1.65,0,0,1,.08-.42.77.77,0,0,1,.19-.27.45.45,0,0,1,.28-.09.62.62,0,0,1,.34.1,1.31,1.31,0,0,1,.38.33,2,2,0,0,1,.27.44,2.21,2.21,0,0,1,.15.48,2.48,2.48,0,0,1,.05.45,2,2,0,0,1,0,.25.79.79,0,0,1-.05.22.49.49,0,0,1-.11.18.9.9,0,0,1-.2.18l-.64.53,1,.57s0,0,.07.08a.25.25,0,0,1,0,.12v.38s0,.07,0,.08a.06.06,0,0,1-.07,0l-1.64-.95a.18.18,0,0,1-.06-.08.27.27,0,0,1,0-.12v-.33a.23.23,0,0,1,0-.13l.06-.06Z"/><path class="cls-10" d="M393.75,184c0,.07,0,.15,0,.23v.51c0,.08,0,.16,0,.22a4,4,0,0,1-.06.55.85.85,0,0,1-.16.37.4.4,0,0,1-.29.14.77.77,0,0,1-.43-.14,1.73,1.73,0,0,1-.44-.36,2,2,0,0,1-.28-.47,2.12,2.12,0,0,1-.16-.56,3.11,3.11,0,0,1-.06-.62c0-.14,0-.29,0-.47s0-.33,0-.46a2.32,2.32,0,0,1,.06-.55.78.78,0,0,1,.16-.38.39.39,0,0,1,.28-.15.8.8,0,0,1,.44.14,1.36,1.36,0,0,1,.43.36,2.05,2.05,0,0,1,.29.47,2.43,2.43,0,0,1,.16.56A5.73,5.73,0,0,1,393.75,184Zm-1.41.12a2.06,2.06,0,0,0,.12.67.8.8,0,0,0,.35.42c.16.09.28.09.35,0a1.06,1.06,0,0,0,.12-.53c0-.13,0-.28,0-.45s0-.31,0-.45a2.18,2.18,0,0,0-.12-.68.79.79,0,0,0-.35-.41c-.17-.09-.28-.09-.35,0a1.06,1.06,0,0,0-.12.53c0,.14,0,.29,0,.45S392.33,184,392.34,184.1Z"/><path class="cls-2" d="M398,187.82a2.25,2.25,0,0,1-.4-.71c-.13-.38-.06-.57.17-.44l54.75,31.61a1.91,1.91,0,0,1,.65.91c.13.38.05.58-.18.45L398.19,188A1.44,1.44,0,0,1,398,187.82Z"/><path class="cls-10" d="M391.35,166.05a.13.13,0,0,1,.06.08.27.27,0,0,1,0,.12v.38a.3.3,0,0,1,0,.1l-.06.06-.51.53a2,2,0,0,1,.29.29,1.38,1.38,0,0,1,.22.35,1.65,1.65,0,0,1,.14.41,2.12,2.12,0,0,1,.05.44,1.44,1.44,0,0,1-.07.46.6.6,0,0,1-.2.26.44.44,0,0,1-.3.05.86.86,0,0,1-.38-.13,1.85,1.85,0,0,1-.43-.34,2.2,2.2,0,0,1-.3-.4,1.78,1.78,0,0,1-.18-.43,2.08,2.08,0,0,1-.08-.39.12.12,0,0,1,0-.09.08.08,0,0,1,.07,0l.28.16a.13.13,0,0,1,.05.07.59.59,0,0,1,0,.13.47.47,0,0,0,.06.15.89.89,0,0,0,.09.16l.14.15a.94.94,0,0,0,.22.15.36.36,0,0,0,.34.07c.09,0,.13-.14.13-.3a.68.68,0,0,0-.13-.42,1.14,1.14,0,0,0-.34-.31l-.29-.16a.22.22,0,0,1-.07-.09.27.27,0,0,1,0-.12v-.38a.12.12,0,0,1,0-.09s0-.05.05-.06l.49-.51-1-.56a.28.28,0,0,1-.06-.08.27.27,0,0,1,0-.12v-.39a.1.1,0,0,1,0-.08,0,0,0,0,1,.06,0Z"/><path class="cls-10" d="M393.79,168.87c0,.07,0,.14,0,.23v.5c0,.09,0,.16,0,.23a3.86,3.86,0,0,1-.06.54.8.8,0,0,1-.16.37.41.41,0,0,1-.29.15.86.86,0,0,1-.43-.14,1.45,1.45,0,0,1-.44-.37,1.83,1.83,0,0,1-.28-.47,2.05,2.05,0,0,1-.16-.55,3.18,3.18,0,0,1-.06-.62c0-.14,0-.3,0-.47s0-.33,0-.46a2.26,2.26,0,0,1,.06-.55.74.74,0,0,1,.16-.38.39.39,0,0,1,.28-.15.79.79,0,0,1,.44.13,1.68,1.68,0,0,1,.43.36,1.92,1.92,0,0,1,.29.48,2.35,2.35,0,0,1,.16.55A6.2,6.2,0,0,1,393.79,168.87Zm-1.41.12a2.11,2.11,0,0,0,.12.67.75.75,0,0,0,.35.41c.16.1.28.09.35,0a1.06,1.06,0,0,0,.12-.53c0-.14,0-.29,0-.45s0-.32,0-.46a2.11,2.11,0,0,0-.12-.67.79.79,0,0,0-.35-.41c-.17-.1-.28-.09-.35,0a1.06,1.06,0,0,0-.12.53c0,.13,0,.28,0,.45S392.37,168.85,392.38,169Z"/><path class="cls-2" d="M398,172.68a2.2,2.2,0,0,1-.4-.7c-.13-.38-.06-.58.17-.45l54.75,31.61a1.9,1.9,0,0,1,.65.92c.13.37.05.57-.18.44l-54.75-31.61A1.09,1.09,0,0,1,398,172.68Z"/><g class="cls-21"><path class="cls-12" d="M398,217.62V174.51s5.46,2.49,9.43,19.71S419.54,215.84,425,213s7.87-9.29,13.71-5.91,10.07,20.09,14,22.38v19.8Z"/><path class="cls-22" d="M398,217.62V174.51s5.46,2.49,9.43,19.71S419.54,215.84,425,213s7.87-9.29,13.71-5.91,10.07,20.09,14,22.38v19.8Z"/><path class="cls-12" d="M398,211.08s2.89-10.68,5.62-9.11c3.5,2,4,15.24,10,18.75s7.63-25.93,13.86-22.33,7.21,22.29,11.8,25,5.66-6,13.44-1.51v27.4L398,217.62Z"/><path class="cls-23" d="M447.34,220.67c-3.33.79-4.83,4.54-8.07,2.67-2.9-1.68-4.36-9.74-6.6-16.36-2.38,1.44-4.53,4.29-7.71,6a7,7,0,0,1-5.65.4c-1.57,4.91-3.27,8.76-5.7,7.36-6.07-3.51-6.54-16.73-10-18.75-2.73-1.57-5.62,9.11-5.62,9.11v6.54l54.76,31.61v-19.8C451,228.44,449.25,224.78,447.34,220.67Z"/></g></g></g><g id="Chart-4" data-name="Chart"><polygon class="cls-17" points="461.94 183.76 387.85 140.99 387.85 72.56 461.94 115.33 461.94 183.76"/><path class="cls-4" d="M458.9,182.81l.34-.19a2.18,2.18,0,0,0,1-1.71V117.5a2.18,2.18,0,0,0-1-1.71L387.81,74.47a2.14,2.14,0,0,0-2,0l-.34.19a2.18,2.18,0,0,0-1,1.71v63.41a2.16,2.16,0,0,0,1,1.71l71.43,41.32A2.14,2.14,0,0,0,458.9,182.81Z"/><path class="cls-2" d="M460.23,117.5v63.41a2.18,2.18,0,0,1-1,1.71l-.33.2a2.24,2.24,0,0,1-1.76.1c.45.12.77-.13.77-.68V118.83a2,2,0,0,0-.29-1l2.31-1.33A2.13,2.13,0,0,1,460.23,117.5Z"/><path class="cls-1" d="M385.5,75.8l71.43,41.33a2.16,2.16,0,0,1,1,1.7v63.42c0,.62-.44.88-1,.56L385.5,141.49a2.16,2.16,0,0,1-1-1.71V76.37C384.51,75.74,385,75.49,385.5,75.8Z"/><path class="cls-10" d="M431.68,114.12c-3.5-2-6.72-2.37-9.35-1.33l9.35,22.57Z"/><path class="cls-12" d="M441,123.59a29,29,0,0,0-9.36-9.47v21.24Z"/><path class="cls-12" d="M446.83,137.54A42.53,42.53,0,0,0,441,123.59l-9.36,11.77Z"/><path class="cls-10" d="M422.33,112.79c-2.69,1-4.75,3.56-5.8,7.26l15.15,15.31Z"/><path class="cls-12" d="M446.83,150.67a22.19,22.19,0,0,0,.79-6.11,33.43,33.43,0,0,0-.79-7l-15.15-2.18Z"/><path class="cls-12" d="M416.53,133.18a42.55,42.55,0,0,0,5.8,13.95l9.35-11.77Z"/><path class="cls-12" d="M431.68,156.61c3.5,2,6.73,2.36,9.36,1.32l-9.36-22.57Z"/><path class="cls-12" d="M446.83,150.67l-15.15-15.31L441,157.93C443.73,156.88,445.78,154.37,446.83,150.67Z"/><path class="cls-23" d="M441,123.59a42.53,42.53,0,0,1,5.79,13.95,33.43,33.43,0,0,1,.79,7,22.19,22.19,0,0,1-.79,6.11c-1.05,3.7-3.1,6.21-5.79,7.26l-9.36-22.57Z"/><path class="cls-12" d="M416.53,120.05a22.6,22.6,0,0,0-.78,6.11,34.08,34.08,0,0,0,.78,7l15.15,2.18Z"/><path class="cls-12" d="M422.33,147.13a29.12,29.12,0,0,0,9.35,9.48V135.36Z"/><path class="cls-22" d="M416.53,120.05l15.15,15.31L441,157.93c-2.63,1-5.86.7-9.36-1.32a29.12,29.12,0,0,1-9.35-9.48,42.55,42.55,0,0,1-5.8-13.95,34.08,34.08,0,0,1-.78-7A22.6,22.6,0,0,1,416.53,120.05Z"/><path class="cls-2" d="M431.44,161.23c-10.66-6.15-19.33-22.7-19.33-36.89,0-7.57,2.49-13.35,6.84-15.86,3.62-2.09,8.23-1.73,13,1,10.66,6.15,19.33,22.7,19.33,36.89,0,7.57-2.49,13.35-6.84,15.86a10.18,10.18,0,0,1-5.15,1.34A15.74,15.74,0,0,1,431.44,161.23Zm-12-51.89c-4,2.33-6.34,7.8-6.34,15,0,13.87,8.45,30,18.83,36,4.43,2.55,8.69,2.91,12,1,4-2.33,6.35-7.8,6.35-15,0-13.87-8.45-30-18.83-36a14.83,14.83,0,0,0-7.34-2.22A9.2,9.2,0,0,0,419.44,109.34Z"/><path class="cls-2" d="M407,102.06a.41.41,0,0,0,.36-.21.42.42,0,0,0-.15-.58L388.68,90.61a.42.42,0,0,0-.58.15.42.42,0,0,0,.16.58L406.74,102A.39.39,0,0,0,407,102.06Z"/><path class="cls-10" d="M402.33,91.59l5,2.88a.15.15,0,0,1,.07.12V99s0,.06-.07,0l-5-2.87a.15.15,0,0,1-.07-.12V91.63S402.29,91.57,402.33,91.59Z"/><path class="cls-2" d="M407,105.25a.4.4,0,0,0,.36-.22.41.41,0,0,0-.15-.57L388.68,93.79a.43.43,0,0,0-.58.16.41.41,0,0,0,.16.57l18.48,10.67A.39.39,0,0,0,407,105.25Z"/><path class="cls-2" d="M407,116.36a.39.39,0,0,0,.36-.21.41.41,0,0,0-.15-.57l-18.48-10.67a.42.42,0,0,0-.58.15.42.42,0,0,0,.16.58l18.48,10.67A.38.38,0,0,0,407,116.36Z"/><path class="cls-12" d="M402.33,105.9l5,2.87a.17.17,0,0,1,.07.12v4.42s0,.06-.07,0l-5-2.88a.15.15,0,0,1-.07-.12v-4.41S402.29,105.87,402.33,105.9Z"/><path class="cls-2" d="M407,119.55a.41.41,0,0,0,.36-.21.42.42,0,0,0-.15-.58l-18.48-10.67a.44.44,0,0,0-.58.16.42.42,0,0,0,.16.58l18.48,10.66A.39.39,0,0,0,407,119.55Z"/><path class="cls-2" d="M407,130.67a.41.41,0,0,0,.36-.21.42.42,0,0,0-.15-.58l-18.48-10.67a.43.43,0,0,0-.58.16.41.41,0,0,0,.16.57l18.48,10.67A.39.39,0,0,0,407,130.67Z"/><path class="cls-12" d="M402.33,120.2l5,2.88a.14.14,0,0,1,.07.12v4.41s0,.06-.07,0l-5-2.88a.14.14,0,0,1-.07-.12v-4.41S402.29,120.18,402.33,120.2Z"/><path class="cls-22" d="M402.33,120.2l5,2.88a.14.14,0,0,1,.07.12v4.41s0,.06-.07,0l-5-2.88a.14.14,0,0,1-.07-.12v-4.41S402.29,120.18,402.33,120.2Z"/><path class="cls-2" d="M407,133.85a.39.39,0,0,0,.36-.21.42.42,0,0,0-.15-.58L388.68,122.4a.42.42,0,0,0-.58.15.42.42,0,0,0,.16.58l18.48,10.67A.5.5,0,0,0,407,133.85Z"/><path class="cls-2" d="M407,145a.41.41,0,0,0,.36-.21.42.42,0,0,0-.15-.58l-18.48-10.67a.44.44,0,0,0-.58.16.42.42,0,0,0,.16.58l18.48,10.66A.39.39,0,0,0,407,145Z"/><path class="cls-12" d="M402.33,134.5l5,2.88a.14.14,0,0,1,.07.12v4.41c0,.05,0,.07-.07,0l-5-2.87a.17.17,0,0,1-.07-.12v-4.42S402.29,134.48,402.33,134.5Z"/><path class="cls-23" d="M402.33,134.5l5,2.88a.14.14,0,0,1,.07.12v4.41c0,.05,0,.07-.07,0l-5-2.87a.17.17,0,0,1-.07-.12v-4.42S402.29,134.48,402.33,134.5Z"/><path class="cls-2" d="M407,148.16a.4.4,0,0,0,.36-.22.41.41,0,0,0-.15-.57L388.68,136.7a.42.42,0,0,0-.58.15.42.42,0,0,0,.16.58l18.48,10.67A.39.39,0,0,0,407,148.16Z"/></g><path class="cls-3" d="M304.93,128.09a2.87,2.87,0,0,1-.5-.87c-.16-.46-.06-.71.21-.55l70.06,40.44a2.39,2.39,0,0,1,.8,1.13c.16.46.06.71-.22.55l-70-40.44A1,1,0,0,1,304.93,128.09Z"/><path class="cls-10" d="M311.29,121l-6.84-4a.06.06,0,0,0-.1.06v6.07a.23.23,0,0,0,.1.17l6.84,3.94c.06,0,.1,0,.1,0v-6.08A.19.19,0,0,0,311.29,121Z"/><path class="cls-3" d="M304.93,132.48a3,3,0,0,1-.5-.88c-.16-.46-.06-.71.21-.55l70.06,40.44a2.39,2.39,0,0,1,.8,1.13c.16.47.06.71-.22.55l-70-40.44A1.11,1.11,0,0,1,304.93,132.48Z"/><path class="cls-3" d="M304.93,147.78a2.87,2.87,0,0,1-.5-.87c-.16-.47-.06-.71.21-.55L374.7,186.8a2.34,2.34,0,0,1,.8,1.13c.16.46.06.71-.22.55l-70-40.44A1.39,1.39,0,0,1,304.93,147.78Z"/><path class="cls-12" d="M311.29,140.71l-6.84-3.94c-.05,0-.1,0-.1,0v6.08a.21.21,0,0,0,.1.16l6.84,3.95c.06,0,.1,0,.1-.06v-6.07A.21.21,0,0,0,311.29,140.71Z"/><path class="cls-3" d="M304.93,152.16a2.87,2.87,0,0,1-.5-.87c-.16-.46-.06-.71.21-.55l70.06,40.44a2.39,2.39,0,0,1,.8,1.13c.16.47.06.71-.22.55l-70-40.44A1,1,0,0,1,304.93,152.16Z"/><path class="cls-3" d="M304.93,167.47a3,3,0,0,1-.5-.88c-.16-.46-.06-.71.21-.55l70.06,40.44a2.39,2.39,0,0,1,.8,1.13c.16.47.06.71-.22.55l-70-40.44A1.11,1.11,0,0,1,304.93,167.47Z"/><path class="cls-12" d="M311.29,160.4l-6.84-3.94c-.05,0-.1,0-.1,0v6.08a.21.21,0,0,0,.1.16l6.84,3.95c.06,0,.1,0,.1-.06v-6.08A.19.19,0,0,0,311.29,160.4Z"/><path class="cls-22" d="M311.29,160.4l-6.84-3.94c-.05,0-.1,0-.1,0v6.08a.21.21,0,0,0,.1.16l6.84,3.95c.06,0,.1,0,.1-.06v-6.08A.19.19,0,0,0,311.29,160.4Z"/><path class="cls-3" d="M304.93,171.85a2.87,2.87,0,0,1-.5-.87c-.16-.47-.06-.71.21-.55l70.06,40.44a2.34,2.34,0,0,1,.8,1.13c.16.46.06.71-.22.55l-70-40.44A1.39,1.39,0,0,1,304.93,171.85Z"/><g id="Tube"><path class="cls-10" d="M468.19,109l4-7L295.92.22h0a2,2,0,0,0-2.07.15A6.31,6.31,0,0,0,291,5.32a2,2,0,0,0,.78,1.8h0l.05,0h0Z"/><path class="cls-9" d="M467.34,107.14a6.31,6.31,0,0,1,2.85-4.94c1.58-.91,2.85-.17,2.85,1.64a6.29,6.29,0,0,1-2.85,4.94C468.62,109.69,467.34,109,467.34,107.14Z"/></g></g></g><g id="Chair"><g id="Chair-2" data-name="Chair"><path class="cls-11" d="M264.52,301.68a1.31,1.31,0,0,0,1-.42l48.81-51.64L363,301a1.33,1.33,0,1,0,1.94-1.82l-49.69-52.45a1.31,1.31,0,0,0-1-.42h0a1.31,1.31,0,0,0-1,.42l-49.77,52.67a1.33,1.33,0,0,0,.05,1.88A1.35,1.35,0,0,0,264.52,301.68Z"/><path class="cls-9" d="M314.3,340.79a1.34,1.34,0,0,0,1.33-1.33V253.92a1.33,1.33,0,0,0-2.66,0v85.54A1.33,1.33,0,0,0,314.3,340.79Z"/><path class="cls-9" d="M261.37,309.65a1.33,1.33,0,0,0,1.24-.84l26.23-66.39a1.33,1.33,0,1,0-2.47-1l-26.23,66.39a1.32,1.32,0,0,0,.74,1.72A1.41,1.41,0,0,0,261.37,309.65Z"/><path class="cls-9" d="M367.22,309.65a1.41,1.41,0,0,0,.49-.09,1.32,1.32,0,0,0,.74-1.72l-26.23-66.39a1.33,1.33,0,1,0-2.47,1L366,308.81A1.33,1.33,0,0,0,367.22,309.65Z"/><path class="cls-12" d="M263.18,299.63l-3.47,9.15a1,1,0,0,0,0,.23v.17a1.08,1.08,0,0,0,.52.58,2.33,2.33,0,0,0,2.12,0,1,1,0,0,0,.41-.43v0l0-.12,3.21-8.58Z"/><path class="cls-12" d="M365.41,299.63l3.47,9.15a1,1,0,0,1,0,.23v.17a1.08,1.08,0,0,1-.52.58,2.31,2.31,0,0,1-2.11,0,1,1,0,0,1-.42-.43v0l0-.12-3.21-8.58Z"/><path class="cls-12" d="M312.76,332.84v7.57a.76.76,0,0,0,.45.62,2.37,2.37,0,0,0,2.17,0,.76.76,0,0,0,.45-.62v-7.57A3.22,3.22,0,0,0,312.76,332.84Z"/><g id="Chair-3" data-name="Chair"><path class="cls-12" d="M366.83,174.45a33.12,33.12,0,0,1,2.35,10.33c.67,7.92-1.89,37.2-3.5,48.67h0c-2.33,19.17-5.18,19.2-9.34,22.41-7.14,5.52-27.68,16.34-34.47,19-12.29,4.84-22.34-2.62-29.84-6.32a278.33,278.33,0,0,1-24.73-14.34c-1.87-1.37-2.84-2.74-2.82-4.2,0-.57,0-2.92,0-3.53,0-1.85,1.63-3.83,5.07-6.07,6.35-4.12,29.31-17.5,38.2-22.43a.07.07,0,0,1,.07-.07c6.85-4.16,10.85-36,15.59-51,.1-.32.2-.63.31-.93s.16-.47.24-.7q.45-1.23.93-2.25"/><path class="cls-12" d="M264.47,246.46c0-1.85,1.63-3.83,5.07-6.07,6.35-4.12,29.31-17.5,38.2-22.43a.07.07,0,0,1,.07-.07c6.85-4.16,10.85-36,15.59-51a27.32,27.32,0,0,1,1-2.76l.09-.2c.08-.2.17-.41.27-.62l.13-.3h0a14.44,14.44,0,0,1,3.16-4.57,7.3,7.3,0,0,1,1.55-1.09c.77-.43,2.39-1.33,2.79-1.57C337,153,348,158.87,355.62,163c4.72,2.59,8.76,5.67,11.21,11.41h0a33.12,33.12,0,0,1,2.35,10.33c.67,7.92-1.89,37.2-3.5,48.67h0c-2.33,19.17-5.18,19.2-9.34,22.41-7.14,5.52-27.68,16.34-34.47,19-12.29,4.84-22.34-2.62-29.84-6.32a278.33,278.33,0,0,1-24.73-14.34c-1.87-1.37-2.84-2.74-2.82-4.2C264.48,249.42,264.47,247.07,264.47,246.46Z"/><path class="cls-17" d="M264.47,246.46c0-1.85,1.63-3.83,5.07-6.07,6.35-4.12,29.31-17.5,38.2-22.43a.07.07,0,0,1,.07-.07c6.85-4.16,10.85-36,15.59-51a27.32,27.32,0,0,1,1-2.76l.09-.2c.08-.2.17-.41.27-.62l.13-.3h0a14.44,14.44,0,0,1,3.16-4.57,7.3,7.3,0,0,1,1.55-1.09c.77-.43,2.39-1.33,2.79-1.57C337,153,348,158.87,355.62,163c4.72,2.59,8.76,5.67,11.21,11.41h0a33.12,33.12,0,0,1,2.35,10.33c.67,7.92-1.89,37.2-3.5,48.67h0c-2.33,19.17-5.18,19.2-9.34,22.41-7.14,5.52-27.68,16.34-34.47,19-12.29,4.84-22.34-2.62-29.84-6.32a278.33,278.33,0,0,1-24.73-14.34c-1.87-1.37-2.84-2.74-2.82-4.2C264.48,249.42,264.47,247.07,264.47,246.46Z"/><path class="cls-12" d="M292,265a280.54,280.54,0,0,1-24.73-14.35c-4.26-3.09-3.87-6.26,2.24-10.22,8.49-5.51,43.08-25.14,43.08-25.14s48.62,28.4,46.74,33.16-29,19.51-37.48,22.87C309.58,276.13,299.52,268.67,292,265Z"/><g class="cls-24"><path class="cls-3" d="M292,265a280.54,280.54,0,0,1-24.73-14.35c-4.26-3.09-3.87-6.26,2.24-10.22,8.49-5.51,43.08-25.14,43.08-25.14s48.62,28.4,46.74,33.16-29,19.51-37.48,22.87C309.58,276.13,299.52,268.67,292,265Z"/></g><path class="cls-12" d="M329.6,157.3c4.61-2.41,15.47,3.46,22.87,7.51,4.74,2.6,8.78,5.68,11.24,11.44l3.12-1.8c-2.45-5.74-6.49-8.82-11.21-11.41C348,158.87,337,153,332.39,155.73,332,156,330.37,156.87,329.6,157.3Z"/><path class="cls-25" d="M329.6,157.3c4.61-2.41,15.47,3.46,22.87,7.51,4.74,2.6,8.78,5.68,11.24,11.44l3.12-1.8c-2.45-5.74-6.49-8.82-11.21-11.41C348,158.87,337,153,332.39,155.73,332,156,330.37,156.87,329.6,157.3Z"/><path class="cls-12" d="M307.81,217.89s4.6-1.33,19.54,7.1A161.85,161.85,0,0,1,350,240c7.36,6,8.31,9.87,8.31,9.87,4.47-3.71,8.82-50.34,7.72-63.36a32.77,32.77,0,0,0-2.56-10.83l-.37-.76c-.09-.17-.17-.34-.27-.51s-.08-.16-.13-.24a19.11,19.11,0,0,0-1.13-1.81l-.3-.42-.31-.41-.32-.4-.28-.32a19.75,19.75,0,0,0-1.61-1.68c-.14-.14-.28-.26-.43-.39a26,26,0,0,0-2.85-2.16c-.15-.11-.31-.21-.46-.3l-.62-.4-.53-.31-1.4-.8c-5.66-3.09-15.36-8.34-19.39-8.34a7.52,7.52,0,0,0-5,1.92c-3,2.62-4.55,8.13-4.65,8.45C318.66,181.86,314.66,213.73,307.81,217.89Z"/></g></g></g><g id="Character_2" data-name="Character 2"><g id="Character"><g id="Bottom"><g id="Bottom-2" data-name="Bottom"><polygon class="cls-11" points="225.97 354.17 222.56 352.52 225.91 351.56 225.97 354.17"/><path class="cls-11" d="M192.33,360.7s39.95-18.47,40.46-15.76a3.92,3.92,0,0,1,0,1.64l.11-.15-.7,5.07a11.87,11.87,0,0,1-6.22,2.67c0-.24,0-1.75-.06-2.61a20.27,20.27,0,0,0-3.53,1.91c-2.55,1.73-4.18,4.73-6.89,8.22-2,2.55-5.5,3.75-10.74,4.54-5.64.84-10.63-.21-12-1.73C191.58,363.29,192.13,361.05,192.33,360.7Z"/><path class="cls-26" d="M193.43,359.75c.38-.41,1.8-2,3.72-3.74,1.68-1.52,3.64-3.44,5.75-5a22.45,22.45,0,0,0,2.86-2.4c.69-.76,1.36-1.55,2-2.37a43.23,43.23,0,0,0,4.78-8.29,18.6,18.6,0,0,0,1.66-4.34,27.79,27.79,0,0,0,.44-4.82c0-7.27-.16-8.42-.23-14l16.94.45c-.54,3.07-1.35,7.26-1.62,10.75-.41,5.31-.55,6.49,1.55,11.77.61,1.55,1.53,3,1.62,4.71.14,2.71-2,5.07-4.32,6.41-2,1.11-4.21,1.6-6.11,2.79a19.65,19.65,0,0,0-5,5c-1.33,1.74-2.4,3.8-4.29,5a17.34,17.34,0,0,1-6.51,2.32,34.57,34.57,0,0,1-8.77.5C193.75,364.23,190.64,362.73,193.43,359.75Z"/><path class="cls-9" d="M209,351.34a7.47,7.47,0,0,0-6.22-.52c-2.94,2.37-5.38,4.48-7.09,5.95-2.09,1.79-3.91,3.42-3.82,5.45.14,3.19,12.46,4.06,19.31,1A8.56,8.56,0,0,0,216,358.9S215,354.45,209,351.34Zm23.31-11.61c-1.06-2-1.47-3.08-1.47-3.08-2.38,1.32-6.5,7.36-4.55,13.39a9.15,9.15,0,0,0,6-4.16A5.81,5.81,0,0,0,232.33,339.73Z"/><path class="cls-11" d="M262.12,344.67c-1.14,1.82.33,8.7.07,13.59-.23,4.45-1.42,12.2-.05,16.59,1.62,5.21,4.91,11.25,11,6.37,3.79-3,6-6.93,6.48-13.33.36-4.45-1.41-10.6-2.94-16.06-1.78-6.37-2.46-9.78-2.46-9.78Z"/><path class="cls-26" d="M274.68,311.87c.43,10.37-.77,17.66-.84,24.3a47,47,0,0,0,.94,9c.87,4.24,2.35,10.13,3,12.88.87,3.83,1.53,6.25.2,10.56a4.87,4.87,0,0,1-.43,1c-1.85,3.55-6.56,6.22-8.07,5.8a2.58,2.58,0,0,1-2.65.92,4.54,4.54,0,0,1-.5-.12,3.07,3.07,0,0,1-.5-.2,5.14,5.14,0,0,1-2.51-3.26,8.6,8.6,0,0,1-.24-.94c-1.1-5.35-.3-8.8-.2-10.89.12-2.41,0-5.48-.24-9.37s-1.13-16.11-2.49-21.95c-1-4.08-2.25-9.19-3.57-14.65Z"/><path class="cls-9" d="M278.67,363c-3.71-1.64-14.48-1.87-16.2,3.38,0,4.93-.07,8.28,3,12.57,4.14,5.71,9.54-.34,11.61-4.18S279.18,365.67,278.67,363Z"/><path class="cls-10" d="M260.64,176.4c5.24,9.41,9.47,17.33,10.84,42.18,1.54,28,1.31,38.71,1.45,42.09s2.31,9.59,4.16,26.25S277,344,277,344s-1.31,2.72-7.68,3.34c-5.88.57-9.33-1.49-9.33-1.49s-9.34-53-11.64-63.06-9-43-9-43l-3.65,26.81s1.86,9.18.17,23.82-5,44.14-5,44.14a33.06,33.06,0,0,1-8.91,2.3,21.45,21.45,0,0,1-9.88-1.14s-4.94-59.57-5.06-76.14,1.16-57.93,6.19-82.5Z"/><path class="cls-9" d="M219,203.17c2.55,6.82,9.26,9.2,13.26,10.13l4.89,26.11-1.44,27.16,3.65-26.81-5.42-30.12S225.16,209.56,219,203.17Zm35.47-6c.67,2.69,1.28,5.39,1.94,8.09s1.28,5.4,2,8.13a54.72,54.72,0,0,0-.62-8.39c-.38-2.77-.93-5.52-1.58-8.25a73.68,73.68,0,0,0-2.45-8,39.83,39.83,0,0,0-3.66-7.58c.86,2.67,1.62,5.33,2.35,8S253.77,194.51,254.42,197.2Zm4.67-5.21c.91,1.61,1.78,3.25,2.66,4.89l2.58,5a22.09,22.09,0,0,0-1.32-5.56,36.33,36.33,0,0,0-2.38-5.19,41.84,41.84,0,0,0-3.11-4.76,30.06,30.06,0,0,0-3.83-4.23c.85,1.72,1.76,3.35,2.68,5S258.2,190.36,259.09,192Zm-3.61,75.71c-1.66-8.57-2.86-17.25-4-25.92s-2.31-17.38-3.58-26.06c.59,8.75,1.29,17.5,2.21,26.22s2,17.44,3.68,26.09,3.51,17.18,5.38,25.75,3.8,17.12,5.86,25.65q-2.09-13-4.51-25.92C258.88,284.89,257.18,276.26,255.48,267.7Zm-40.1-28.88L216.64,216c-1.12,7.56-2,15.16-2.63,22.77s-1.23,15.22-1.19,23c.31,7.69,1,15.28,1.63,22.89s1.5,15.21,2.45,22.79q-.41-11.46-1.07-22.89L215.17,273c-.22-3.8-.48-7.63-.59-11.4s.11-7.58.26-11.38S215.2,242.63,215.38,238.82Z"/></g></g><g id="Top"><path class="cls-11" d="M257.78,83.6c5.07,3.22,4.94,7.75,5,18.76s-.67,41-.67,41l-39.4-.23L223,97.42s-3.61-5.12-3.13-10.37,3.65-12,13.11-14C240.81,71.42,255.87,73.17,257.78,83.6Z"/><path class="cls-26" d="M214,128.94c-3.06,2.87-8.42,9.6-12,14.25-3,4-6.21,7.94-6.21,7.94-2.33-4.67-7.29-14.58-8.2-16.57-1.47-2.87-3.75-8-4.13-8.6-2.61-4.45-7-7.4-11.35-9.92l-2.26-1.27a10.66,10.66,0,0,1-1.08-.65c-.31-.23-.59-.42-1-.12a1.52,1.52,0,0,0-.49.92,4.25,4.25,0,0,0,1,3.26,20.07,20.07,0,0,0,2.54,2.42c.66.61-.34.81-.83.83-2.4.12-5.74-1.7-7.81-2.81a32.12,32.12,0,0,0-4.06-2.24,4.82,4.82,0,0,0-2.83-.2c-.63.18-1.15.55-.85,1.31a3.23,3.23,0,0,0,1,1.14,3.52,3.52,0,0,1,1.51,2.45,8.51,8.51,0,0,0,.15,2.08,25.33,25.33,0,0,0,1.37,2.27,22.32,22.32,0,0,1,.44,2.22,6.44,6.44,0,0,0,1.75,2.08A21.24,21.24,0,0,0,165.2,133a22.93,22.93,0,0,0,5.87,2.52c1.49.46,3.6.6,4.9,2.84s2,5.81,4.3,13.25c2,6.6,4.83,16.35,10.3,21.68,5.09,3.58,10.47-2.55,13.57-5.69,2.09-2.11,15.43-16.88,15.43-16.88,6-9.83,7.34-17.94,6.32-26.1C225.89,124.64,218,125.18,214,128.94Z"/><path class="cls-1" d="M194.16,147.4,192,142.85s.07,3.26-5.15,6.33-6.9,2.37-6.9,2.37l1.11,3.48s2.81,1,7-1.27A15.06,15.06,0,0,0,194.16,147.4Z"/><path class="cls-27" d="M172.37,124.35a15.53,15.53,0,0,0,5.39,6.7,6.41,6.41,0,0,1-4-2A6,6,0,0,1,172.37,124.35Z"/><path class="cls-10" d="M225.74,124.31c-6.79.45-10.53,1.17-16.66,8.89s-13.28,16.86-13.28,16.86l-2.87-5.94s.8,3.55-4.29,7.53-8.27,2.23-8.27,2.23a145.89,145.89,0,0,0,5.8,14.93c2.55,5,6,6.71,7.88,6.39S199,175,205.5,168s17.42-19.57,17.42-19.57S228.66,131.17,225.74,124.31Z"/><path class="cls-9" d="M195.8,150.06a35.37,35.37,0,0,1,2.39,15.39,25.33,25.33,0,0,0-1-17.21Z"/><path id="Chest" class="cls-1" d="M263.56,188.41c5-2.35,1.43-8.41,1.86-20.09.14-3.94,1.76-14.09,1.76-14.09s-8.66-6.74-6.36-25.71l-10.08-4.14-6.9-1.36-11.06.08-7,2.09c-2.38,2.14-6.75,5.52-10.22,10.65-5,7.39-5.76,15.43-.36,21.31.08,1.17-.67,19-2.13,23.35-1.35,4.05-1.64,4.51.54,6.31C220.43,191.81,254.74,191.8,263.56,188.41Z"/><path class="cls-9" d="M232.78,123.1l-7,1.21c-6.67,5.27-14.54,14.68-14.84,21.81A37.18,37.18,0,0,0,212.14,158s.76,14.76-.73,22.43-5,26.25-5,26.25a22.48,22.48,0,0,0,9.52,5.4c1.53-9.84,5.07-47,4.65-55.6S219.7,134.26,232.78,123.1Z"/><path class="cls-9" d="M250.74,124.38s-2.11,3.37-5.85,12.44-7.36,17.31-7.11,25.63,3.12,52.86,3.12,52.86a149.21,149.21,0,0,0,22.75-1.37l-.7-12L266.86,213s2.05-.64,7.89-3.11c-3.37-13.72-8.28-34.56-7.27-42.73,3.3-26.65-3.31-39.49-3.31-39.49Z"/><path class="cls-11" d="M222.56,128.35a10.21,10.21,0,0,0-1.43,3.69,11.29,11.29,0,0,0,0,3.76,29.71,29.71,0,0,0-5.34,4.44,8.06,8.06,0,0,0-1.07,1.49,2.19,2.19,0,0,0-.2.44,1.56,1.56,0,0,0-.14.48,3.25,3.25,0,0,0,0,1,28.66,28.66,0,0,0,.78,3.5c.63,2.28,1.4,4.51,2.14,6.75s1.55,4.45,2.33,6.68c-.61-2.28-1.27-4.54-1.94-6.8s-1.32-4.53-1.93-6.79a26.24,26.24,0,0,1-.72-3.41c-.2-1.08.55-2,1.3-2.86a31.47,31.47,0,0,1,5.32-4.49l.18-.12,0-.22a11.17,11.17,0,0,1-.07-3.74,9.69,9.69,0,0,1,1.23-3.55,11.17,11.17,0,0,1,2.59-2.77,18.2,18.2,0,0,1,3.29-2,16.43,16.43,0,0,0-3.44,1.82A10.46,10.46,0,0,0,222.56,128.35Zm31.34,7.37c0-.21,0-.42-.08-.63a37.09,37.09,0,0,0-1.26-4.74c-.51-1.55-1-3.09-1.63-4.61.42,1.58.86,3.14,1.25,4.72a46.69,46.69,0,0,1,1,4.72,2.85,2.85,0,0,1,0,1l-.11.12-.22.21-.43.43-1.72,1.74-3.42,3.5-.25.25.2.31c.6.91,1.17,1.87,1.69,2.83a9.94,9.94,0,0,1,1.16,2.92,2.18,2.18,0,0,1,0,.27.07.07,0,0,0,0,.06s-.07.1-.1.14c-.15.2-.35.42-.52.62l-1.1,1.26c-.74.84-1.47,1.68-2.19,2.55a65.92,65.92,0,0,0-4,5.39,25.71,25.71,0,0,0-1.67,2.93,11.7,11.7,0,0,0-1.07,3.18,19.12,19.12,0,0,1,3.15-5.82c1.3-1.8,2.73-3.5,4.2-5.17.72-.84,1.47-1.67,2.21-2.5l1.12-1.24c.19-.22.38-.41.57-.66a1.15,1.15,0,0,0,.14-.2,2.12,2.12,0,0,0,.14-.31,2.28,2.28,0,0,0,.05-.57,10,10,0,0,0-1.23-3.29c-.5-.89-1-1.74-1.58-2.59l3.09-3.27,1.66-1.77.41-.44.21-.23a2.13,2.13,0,0,0,.28-.35A1.8,1.8,0,0,0,253.9,135.72Z"/><g id="Head"><g id="Head-2" data-name="Head"><g id="Head-3" data-name="Head"><path class="cls-26" d="M253,110.55a5.87,5.87,0,0,0,5.3-2c2.8-3.07,3.06-6.2,1.76-8.28-1.07-1.71-3.7-2.81-5.55-1.65s-2,2.25-2.79,3.64-2.66.31-2-5.31c-1.22.9-6.67,2.73-13-4.56-3.43-4-4.21-7.23-5.86-9s-5.23-1.79-6.3.5c-1.81,2.3-2.72,4.27-3,13.86-.93,10.18.82,17,3.17,19.13,1.62,1.49,4.62,2.49,8.2,2.29l0,3.83s-10.34,10.79,2.85,9.82a20.72,20.72,0,0,0,14.94-8.47l.09-15.43S251,110.18,253,110.55Z"/><path class="cls-28" d="M231.36,108.74a2.94,2.94,0,1,0,5.77-1.15Z"/><path class="cls-27" d="M237.15,108.55a2.93,2.93,0,0,1-2.33,2.5,3,3,0,0,1-1,0A3,3,0,0,1,237.15,108.55Z"/><path class="cls-11" d="M237.27,98.67a1.7,1.7,0,0,0,2.11,1.18,1.75,1.75,0,1,0-2.11-1.18Z"/><path class="cls-11" d="M223.73,92.16l3.54-1.89a1.93,1.93,0,0,0-2.66-.88A2.12,2.12,0,0,0,223.73,92.16Z"/><path class="cls-11" d="M227.81,98.23a1.68,1.68,0,1,1-1-2.22A1.71,1.71,0,0,1,227.81,98.23Z"/><path class="cls-11" d="M239.42,90.81l3.78,2a2.06,2.06,0,0,0-.79-2.89A2.25,2.25,0,0,0,239.42,90.81Z"/><path class="cls-10" d="M218.44,94.38a2.72,2.72,0,0,0,.59,1.56,1.16,1.16,0,0,1,.24.55,25.37,25.37,0,0,0,.67,4.18,4.48,4.48,0,0,0,4.44,3.08,7.44,7.44,0,0,0,1.61-.08l.13,0a5.15,5.15,0,0,0,1.34-.46l.08,0,.12-.06.15-.09.13-.09.15-.11.15-.11.27-.23a6.19,6.19,0,0,0,1.18-1.55c.8-1.44.8-3.47,1.94-3.68h.13a.75.75,0,0,1,.15,0c1.51.06,1.15,2.27,1.87,3.87s2,3.19,5.26,3.32h.77c.29,0,.55,0,.8-.09l.26,0,.24-.06.15,0a4.62,4.62,0,0,0,.93-.37l.31-.18a5.84,5.84,0,0,0,.56-.42,5.43,5.43,0,0,0,1.12-1.44,26.41,26.41,0,0,0,1.25-4.09,2,2,0,0,1,.3-.6,2.9,2.9,0,0,0,.87-1.46,1.2,1.2,0,0,0-.8-1.33l-.8-.12a25.82,25.82,0,0,0-8-.13c-2.6.59-3.55,1.34-5,1.28s-2.11-.89-4.45-1.7a22.37,22.37,0,0,0-7.47-.57l-.76,0A1.32,1.32,0,0,0,218.44,94.38Zm16.57,2a2.38,2.38,0,0,1,.77-.54l.14-.06.07,0,.38-.15.34-.12a10.53,10.53,0,0,1,1.11-.29l.44-.09a10.56,10.56,0,0,1,1.13-.13l.26,0c2.46-.12,3.94.47,4.45,1s.09,2.65-.23,3.74l0,.08a.19.19,0,0,0,0,.08c0,.13-.09.28-.15.44s-.06.18-.1.27h0a4.54,4.54,0,0,1-.21.45h0a.8.8,0,0,1-.08.16.41.41,0,0,1-.05.09l-.06.1a.57.57,0,0,1-.08.13l-.09.14-.11.15-.12.16a4.2,4.2,0,0,1-3.55,1.44,4.6,4.6,0,0,1-3.5-1.41h0a4.51,4.51,0,0,1-1-2.24C234.53,98.42,234.48,97,235,96.34Zm-14.28-1.53a2.14,2.14,0,0,1,.63-.34l0,0,.27-.09.17,0,.13,0,.09,0h0l.14,0a4.44,4.44,0,0,1,.57-.07l.3,0h1a9.65,9.65,0,0,1,1.12.13c1.72.29,3.47,1.11,3.89,1.8s.19,2.11-.15,3.31a4.21,4.21,0,0,1-.29.81.14.14,0,0,1,0,.06.36.36,0,0,0,0,.09l0,.05a.47.47,0,0,1,0,.1l-.11.2-.11.16s0,0,0,.06a.83.83,0,0,1-.08.12l-.07.09v0a4.15,4.15,0,0,1-3.77,1.48,4.27,4.27,0,0,1-1.79-.47,4.57,4.57,0,0,1-2.08-3.61C220.33,97.44,220.17,95.27,220.73,94.81Z"/><path class="cls-27" d="M226.84,103.61l5.58,2.42.88-6.71c-.21-1.07-.39-2-1.31-2.1Z"/><path class="cls-10" d="M245.91,94.47l8.61,4.13a9.25,9.25,0,0,0-1.33,1.06l-7.5-3.4Z"/></g></g><path class="cls-27" d="M233,119.2c5.16-.19,12.08-2,13.93-5.35-1,3.58-4.66,5.44-7.56,6.25a30.46,30.46,0,0,1-6.33,1.1Z"/></g><g id="Arm"><path class="cls-6" d="M221.38,167.68c-.31-1.05-1.43-2-3.35-2.72a22.46,22.46,0,0,0-15.65.91c-1.82.92-2.82,2-3,3.09h-.06c-.33,7,1.38,15.06,4.13,19.4a.41.41,0,0,1,.05.09.16.16,0,0,1,0,.07h0a5.33,5.33,0,0,0,2.15,1.8,13.14,13.14,0,0,0,11.88-.68,5.44,5.44,0,0,0,1.93-2h0l0-.06.05-.11c2.23-4.63,3-12.64,1.85-19.59Z"/><path class="cls-1" d="M218,165c4.43,1.63,4.61,4.67.4,6.8a22.54,22.54,0,0,1-15.66.91c-4.43-1.63-4.6-4.68-.39-6.8A22.46,22.46,0,0,1,218,165Z"/><path class="cls-7" d="M216.59,166.23c3.56,1,3.67,3,.26,4.44a22.11,22.11,0,0,1-12.63.73c-3.56-1-3.68-3-.26-4.44A22.11,22.11,0,0,1,216.59,166.23Z"/><path class="cls-9" d="M216.74,168.91a6.75,6.75,0,0,1,1.81.78,6.87,6.87,0,0,1-1.7,1,22.11,22.11,0,0,1-12.63.73,6.37,6.37,0,0,1-1.8-.78,6.52,6.52,0,0,1,1.7-1A22.17,22.17,0,0,1,216.74,168.91Z"/><path class="cls-26" d="M276.1,185.26c1.26-8.87,3.28-17.49,3-36.83-.21-13.08-2.77-16.28-14.61-19.94-4.23,10.58-3.26,27.62-3.26,27.62L259.63,178s-24.46,2.57-30.36-.29c-2.05-1-5.19-7.08-7.45-6.69.13,1.63.13,3.14.12,4.35-1,1.47-4,3.64-9.05,4.1-3.6.32-7.31-.55-10.86-1.07a.69.69,0,0,0-.32,0,.5.5,0,0,0-.24.34,2,2,0,0,0,.66,1.78,3.92,3.92,0,0,1,1.08,1.64c.1.49,0,1,.07,1.49.18.79,1,1.28,1.46,1.92a15.6,15.6,0,0,1,.9,1.47,8.42,8.42,0,0,0,5.9,3.5c6.2,1.06,12.64,0,18.9.72,1.91.22,3.79.6,5.68.93,4,.7,8,1.33,12.09,1.84a96.47,96.47,0,0,0,15,1C270.81,194.83,274.84,194.12,276.1,185.26Z"/><path class="cls-1" d="M252.6,178.46l-5.07.21s1.76,1.88,2.18,7.75-1.26,7.91-1.26,7.91l4.65.63a25.34,25.34,0,0,0,1.13-7.62C254,180.51,252.6,178.46,252.6,178.46Z"/></g><path class="cls-10" d="M264.17,127.7c7.66,2.24,13.47,4.26,14.66,11.84s.77,16.23.27,24.65-1.93,20.38-3.24,24.53-3.56,6.87-10.72,7a93.71,93.71,0,0,1-12.62-.61,22.37,22.37,0,0,0,.83-9.94c-.83-5.33-2.61-6.87-2.61-6.87l8.06-.6,1.42-22.86S258.41,136,264.17,127.7Z"/></g></g></g><g id="Character_1" data-name="Character 1"><path class="cls-11" d="M71.26,101.07c-2-1.3-2.55-4.48-1.49-6.82a8.13,8.13,0,0,1,5.71-4.36,10.23,10.23,0,0,1,9.53,3c1.32,1.4,2.39,3.25,4.17,3.85,1.57.52,3.29-.08,4.93.08a7.14,7.14,0,0,1,5.25,3.83,17.92,17.92,0,0,1,1.88,6.74c.24,2.16.41,4.54,1.82,6.06s3.53,1.74,5.24,2.77c3.21,2,4.26,7,2.14,10.36-.67,1.07-1.64,2.06-1.72,3.32s.63,2.16,1,3.25c.85,2.8-1.33,6.21-4.11,6.47-1.41.12-2.91-.41-4.16.29s-1.71,2.31-2.5,3.54a5.83,5.83,0,0,1-7.26,2.2c-1-.5-2-1.35-3.14-1.24s-2,1.17-3.12,1.43c-1.46.34-2.85-.76-3.72-2s-1.49-2.75-2.61-3.77c-1.46-1.33-3.5-1.61-5.33-2.23a15.25,15.25,0,0,1-9.11-8.87A17.61,17.61,0,0,1,65,115.55"/><path class="cls-10" d="M92.77,129.69a4.2,4.2,0,0,1,1.63-1.2h-.12a2,2,0,0,1,.35-.07,1.54,1.54,0,0,1,1.28.12h0A2.94,2.94,0,0,1,97.56,130a4,4,0,0,1-.41,3.94,2.67,2.67,0,0,1-5-.84A3.84,3.84,0,0,1,92.77,129.69Z"/><path class="cls-29" d="M66.53,149.51l-2.51-39a3.62,3.62,0,0,1,2.81-3.83l17.47-6.07C90,99.5,94,106.78,94.56,112.89c.61,6.76,1.11,15,.52,20.09-1.19,10.15-8.93,11.89-8.93,11.89s0,2.53,0,6.16l-3.44,12.35Z"/><path class="cls-11" d="M92.15,122.15A1.31,1.31,0,0,1,91,123.54a1.15,1.15,0,0,1-1.29-1.09,1.31,1.31,0,0,1,1.13-1.39A1.15,1.15,0,0,1,92.15,122.15Z"/><path class="cls-11" d="M93,117.33c-.14.18-1.09-.49-2.4-.4s-2.25.85-2.4.69.08-.39.48-.74a3.33,3.33,0,0,1,1.91-.77,3,3,0,0,1,1.92.53C92.94,117,93.08,117.24,93,117.33Z"/><path class="cls-11" d="M80.24,122.77a1.3,1.3,0,0,1-1.12,1.38,1.16,1.16,0,0,1-1.29-1.09A1.32,1.32,0,0,1,79,121.68,1.15,1.15,0,0,1,80.24,122.77Z"/><path class="cls-11" d="M80.17,118.44c-.14.18-1.09-.48-2.39-.39s-2.22.85-2.37.69.07-.39.47-.74a3.26,3.26,0,0,1,1.89-.77,3,3,0,0,1,1.91.53C80.09,118.06,80.24,118.36,80.17,118.44Z"/><path class="cls-11" d="M85.26,128.48a8.07,8.07,0,0,1,2.1-.54c.33-.06.65-.15.69-.4a1.92,1.92,0,0,0-.25-1c-.35-.84-.7-1.72-1.08-2.65a49.28,49.28,0,0,1-2.46-7c.15-.07,1.48,2.94,3,6.72l1,2.67a2.18,2.18,0,0,1,.22,1.39.88.88,0,0,1-.53.55,1.94,1.94,0,0,1-.57.12A7.87,7.87,0,0,1,85.26,128.48Z"/><path class="cls-30" d="M86.15,144.87A21.09,21.09,0,0,1,74,142s2.78,7.34,12.12,5.87Z"/><path class="cls-11" d="M80.54,112.64c-.11.39-1.42.3-2.94.6s-2.74.83-3,.5c-.09-.15.11-.53.59-.93a5,5,0,0,1,2.17-1,4.57,4.57,0,0,1,2.33.14C80.3,112.17,80.59,112.45,80.54,112.64Z"/><path class="cls-11" d="M92.39,112.52c-.22.33-1.13.06-2.22.12s-2,.35-2.22,0c-.1-.15,0-.48.43-.81a3,3,0,0,1,1.79-.65,2.91,2.91,0,0,1,1.79.52C92.35,112,92.49,112.36,92.39,112.52Z"/><path class="cls-11" d="M101,110.5a6.74,6.74,0,0,0-2.54-3.78,23.75,23.75,0,0,1-2.13-1.25c-1.39-1.14-1.72-3.22-2.58-4.86a6.89,6.89,0,0,0-5.52-3.69c-1.89-.13-3.83.56-5.67.14-1.36-.32-2.56-1.22-3.93-1.44-2.68-.44-5.14,1.74-7.05,3.88,0,2.06,1.55,3.38,3,4.64A6.12,6.12,0,0,0,80,105.45c1.45-.34,3-1.2,4.32-.41s1.41,3,2.6,4c1.7,1.51,4.37-.07,6.52.53,1.67.47,2.71,2.13,3.82,3.52s2.77,2.69,4.43,2.1A21.93,21.93,0,0,0,101,110.5Z"/><path class="cls-11" d="M80.78,102.56c-1.2-.32-3.66-1.06-4.31-2.15a7,7,0,0,0-6.39-3.69,6.41,6.41,0,0,0-5.34,5.37A9.41,9.41,0,0,0,57,108.75a7.58,7.58,0,0,0-.34,5.94c.42,1.13,1.14,2.39.61,3.49s-2,1.2-3,1.65a4.81,4.81,0,0,0-2.62,5.29,6.14,6.14,0,0,1,.38,2.26,5.07,5.07,0,0,1-1.23,2,6.25,6.25,0,0,0-.83,5.68A5.49,5.49,0,0,0,54,138.65a6.38,6.38,0,0,1,2.46.52c.83.52,1.21,1.58,1.81,2.4a4.4,4.4,0,0,0,5,1.53,4.14,4.14,0,0,0,1-.58,3.17,3.17,0,0,0,3,1.31l-.62-21.11a1.62,1.62,0,0,0,1.21,1c3.18.66,3.56-6.4,2.83-8.29a20,20,0,0,0,3.15-3.75,15.52,15.52,0,0,0,1.4-7C76.4,104.65,81.31,102.7,80.78,102.56Z"/><path class="cls-29" d="M67.55,124.42c-.12-2.16-2.58-2.54-4.31-1.39-.94.62-1.65,1.84-1.53,4.12.32,6.08,5.93,4.39,5.93,4.22S67.7,126.94,67.55,124.42Z"/><path class="cls-30" d="M65.79,129.19s-.09.09-.25.18a1,1,0,0,1-.74.08,2.61,2.61,0,0,1-1.25-2.27,3.84,3.84,0,0,1,.2-1.54,1.22,1.22,0,0,1,.7-.87A.47.47,0,0,1,65,125c.09.17.06.29.09.3s.12-.11.06-.36a.7.7,0,0,0-.25-.37.72.72,0,0,0-.55-.11,1.49,1.49,0,0,0-1,1,3.85,3.85,0,0,0-.25,1.72,2.7,2.7,0,0,0,1.57,2.52,1,1,0,0,0,.89-.23C65.79,129.34,65.81,129.2,65.79,129.19Z"/><path class="cls-3" d="M72.85,101.21a3.69,3.69,0,0,0-1.13,1.08,6.23,6.23,0,0,0-.37,4.3l0,.15-.14,0a5.89,5.89,0,0,0-3.63,3.65,5.17,5.17,0,0,0-.28,1.51,10.38,10.38,0,0,0,.2,1.62,13.51,13.51,0,0,1,.24,1.74,3.05,3.05,0,0,1-.43,1.83,7.16,7.16,0,0,1-2.79,2.39,9.74,9.74,0,0,0-2.6,2,8,8,0,0,0-2,5.19,8.34,8.34,0,0,0,.8,3.73c.39.82.71,1.21.67,1.23s-.09-.08-.24-.26a7.61,7.61,0,0,1-.57-.88,8.07,8.07,0,0,1-.94-3.82,8.32,8.32,0,0,1,2-5.46,9.94,9.94,0,0,1,2.69-2A6.85,6.85,0,0,0,67,116.91c.62-1,.32-2.16.14-3.26A9.62,9.62,0,0,1,67,112a5.31,5.31,0,0,1,.31-1.66,6.2,6.2,0,0,1,3.91-3.82l-.11.2a6.2,6.2,0,0,1,.53-4.48,2.7,2.7,0,0,1,.88-.83C72.72,101.24,72.85,101.19,72.85,101.21Z"/><path class="cls-10" d="M63.71,131.54a4.25,4.25,0,0,1,1.59-1.19h-.12a2.09,2.09,0,0,1,.34-.08,1.53,1.53,0,0,1,1.26.13h0a2.94,2.94,0,0,1,1.65,1.47,4,4,0,0,1-.36,3.91,2.93,2.93,0,0,1-2.91,1.38,3,3,0,0,1-2-2.22A3.81,3.81,0,0,1,63.71,131.54Z"/><path class="cls-30" d="M79.84,130.13a17.73,17.73,0,0,1,4.42,1.55,3.92,3.92,0,0,1-1.59,2.65,2.24,2.24,0,0,1-2.13-.19,3,3,0,0,1-1-1.88A5.1,5.1,0,0,1,79.84,130.13Z"/><path class="cls-11" d="M82.48,134.43a4.14,4.14,0,0,1-1.48-.26,2.57,2.57,0,0,1-1.17-1.07,3,3,0,0,1-.25-2,2.83,2.83,0,0,1,.37-.89l-.22.08a24.91,24.91,0,0,0,4.18,1.18,25.21,25.21,0,0,0-4-1.58l-.14,0-.08.12a3.33,3.33,0,0,0-.44,1,3.21,3.21,0,0,0,.32,2.27,2.68,2.68,0,0,0,1.38,1.15A1.83,1.83,0,0,0,82.48,134.43Z"/><path class="cls-11" d="M80.58,382.46v.85s14.56,6.5,14.7,9.23L66.51,391l.39-9.43A16.65,16.65,0,0,0,80.58,382.46Z"/><path class="cls-10" d="M66.51,391l.09-2.26L94.15,391s1.29.63,1.13,1.51Z"/><path class="cls-3" d="M80.68,383.4c0,.14-.71.16-1.41.58s-1.06,1-1.19.91.08-.86.93-1.34S80.71,383.27,80.68,383.4Z"/><path class="cls-3" d="M83.7,384.8c0,.14-.58.34-1.06.91s-.63,1.18-.77,1.16-.22-.81.39-1.49S83.7,384.67,83.7,384.8Z"/><path class="cls-3" d="M85.4,388.48c-.13,0-.32-.69,0-1.43s1-1,1.09-.9-.35.51-.64,1.13S85.54,388.47,85.4,388.48Z"/><path class="cls-11" d="M59.93,373.08l12.26,3.85-3,6.78,3.38,17.46a1.83,1.83,0,0,1-1.34,2.17,2.09,2.09,0,0,1-2.05-.67c-2.72-3.08-12.67-14.49-12.45-15.83l.32-3.58a27.42,27.42,0,0,1,.76-2.67Z"/><path class="cls-10" d="M70.9,403.39l-14.05-17.8-.06.79a2.27,2.27,0,0,0,.59,1.83c1.11,1.78,4.25,5.84,11.77,14.46a2.14,2.14,0,0,0,1.75.72Z"/><path class="cls-3" d="M67.14,394.75a5.79,5.79,0,0,1,1.8-1.21,6.09,6.09,0,0,1,2.25-.12s-.21-.22-.66-.34a3.12,3.12,0,0,0-1.75.07,2.78,2.78,0,0,0-1.38,1C67.15,394.46,67.1,394.73,67.14,394.75Z"/><path class="cls-3" d="M68.32,397.41a14.33,14.33,0,0,1,1.76-.57,17,17,0,0,1,1.9,0,2.31,2.31,0,0,0-2-.43C68.84,396.6,68.22,397.34,68.32,397.41Z"/><path class="cls-3" d="M64.84,391.24a19.16,19.16,0,0,1,2.65-1.06,18.93,18.93,0,0,1,2.91-.27,4.51,4.51,0,0,0-3-.13A4.09,4.09,0,0,0,64.84,391.24Z"/><path class="cls-10" d="M69.88,387.43c.32,1.66.62,3.16.86,4.25a8.64,8.64,0,0,0,.45,1.74,8.75,8.75,0,0,0-.2-1.78c-.18-1.09-.44-2.6-.75-4.26-.27-1.41-.52-2.7-.74-3.71v0a13.35,13.35,0,0,0-.18-2.35,12.3,12.3,0,0,0-.11,2.34h0"/><path class="cls-11" d="M53.62,265.06a41.75,41.75,0,0,1-.82-13.89c1.43-11.32,2.45-15.53,7.81-27.95l1.41.34,42.54-.63,1.69,2.67c3.71,10.26,6.23,16.36,7.27,23.82,1.19,8.56-.91,20.86-5.51,33.15-9.78,26.11-15.11,46.65-15.45,52.15s-.89,11.13-5.81,28.17c-3.55,12.3-6.17,19.57-6.17,19.57-3.75,2-7.73,2.38-11.37.2L58.13,378s2.91-29.07,6.78-36.8c2.8-5.6,7.49-8.19,5.18-15.69S56.91,280.19,53.62,265.06Z"/><path class="cls-10" d="M96,239.62a1.37,1.37,0,0,0-.16.21l-.44.64L93.74,243l-6.3,9.44,0,0v0c.33,3.52.48,7.59.72,12.12s.51,9.47.79,14.78.64,10.93,1,16.81.71,12,1.33,18.25A75.38,75.38,0,0,1,92,329.61a34.82,34.82,0,0,1-.46,3.57,23.44,23.44,0,0,1-.83,3.4c-.79,2.15-1.71,4.22-2.59,6.24-3.52,8-6.8,15.14-9.51,21.09s-4.89,10.67-6.41,14l-1.72,3.77-.43,1c-.1.22-.14.34-.14.34l.17-.32.47-1c.42-.86,1-2.12,1.79-3.73,1.53-3.28,3.75-8,6.51-13.91s6-13,9.59-21.06c.88-2,1.8-4.08,2.62-6.27a24.46,24.46,0,0,0,.84-3.45,35,35,0,0,0,.47-3.6,75.1,75.1,0,0,0-.77-15.23c-.61-6.25-1-12.37-1.34-18.23s-.69-11.52-1-16.81-.58-10.27-.83-14.78S88,256,87.65,252.47l0,.08c2.65-4.06,4.76-7.28,6.22-9.5l1.64-2.54c.18-.28.31-.5.42-.66Z"/><path class="cls-29" d="M154.56,183.3s6.78-3.14,8.77-4.48a11.76,11.76,0,0,1,5.24-2.13c2.22-.46,8.11-1.22,9.52-.19s7.8,3.62,7.8,3.62L177.27,185s-1.51,5.9-3.19,6.46-1.4.38-3.18,0-7.61-3.14-7.79-3-6.23,3.56-6.23,3.56Z"/><path class="cls-29" d="M190.46,180.63s-.94-1.17-2.86,0a36.59,36.59,0,0,0-3.21,2.2,12.68,12.68,0,0,1-1.27-.38l-2.71,1.36-.33,1.64s3.4,1.12,4.5.52a41.1,41.1,0,0,0,5.61-4.42C190.65,180.93,190.46,180.63,190.46,180.63Z"/><path class="cls-29" d="M173.19,187.71l1.25-.82-.41-1.76s-2.6-.31-2.86-1.78,0-1.44,0-1.44l3.36.53L173,181.13s-2.82-.31-2.57-2l.56-.81a23.43,23.43,0,0,1,3.64.93,44.82,44.82,0,0,1,4.1,2.58h0l-2.51-2.44a5.31,5.31,0,0,1-1.84-1.11,1.05,1.05,0,0,1,.22-1.57h0a1,1,0,0,1,.62-.17,8.81,8.81,0,0,1,2.71.55c1.07.51,4.28,2.91,4.74,4.18s.38,1.72-.41,2.54a16.22,16.22,0,0,1-2.69,1.93,5.08,5.08,0,0,1-1.63,1.83,6.55,6.55,0,0,1-3.88,3.94"/><path class="cls-30" d="M174.08,191.49l.35-.14a5.55,5.55,0,0,0,1-.53,6.78,6.78,0,0,0,1.39-1.14,5.69,5.69,0,0,0,1.28-2.11l-.06.08a5,5,0,0,0,1.7-1.86l-.06.06a19.49,19.49,0,0,0,1.7-1.1,5.11,5.11,0,0,0,1.61-1.6,1.81,1.81,0,0,0,.1-1.25,4,4,0,0,0-.44-1.15,9.34,9.34,0,0,0-1.7-1.8,20.3,20.3,0,0,0-2-1.56,5.29,5.29,0,0,0-1.2-.64,7.8,7.8,0,0,0-1.35-.32l-.69-.08a2.35,2.35,0,0,0-.75,0,1.29,1.29,0,0,0-1,1.29,1.13,1.13,0,0,0,.33.78,3,3,0,0,0,.58.48,6.07,6.07,0,0,0,1.32.67l-.07,0,1,1L178.6,182l.27-.33c-1.26-.86-2.48-1.7-3.76-2.41a9,9,0,0,0-2-.7c-.68-.16-1.36-.3-2-.42l-.12,0-.07.1-.56.82,0,0v0a1.48,1.48,0,0,0,.24,1,2.18,2.18,0,0,0,.75.64,5,5,0,0,0,1.74.53l-.09,0,1.54,1.3.14-.29-2.52-.38-.58-.09-.15,0h-.21c-.22.17-.16.28-.2.39a4.73,4.73,0,0,0,.1,1.16,1.69,1.69,0,0,0,.55.95,3,3,0,0,0,.82.51,6,6,0,0,0,1.62.43l-.08-.06c.18.69.32,1.27.44,1.74l0-.07-.93.65c-.2.15-.3.22-.29.23a1.28,1.28,0,0,0,.32-.17l1-.6,0,0v0c-.1-.48-.23-1.07-.38-1.77v0h-.06a6.28,6.28,0,0,1-1.55-.46,1.92,1.92,0,0,1-1.21-1.31,4.87,4.87,0,0,1-.08-1.08.36.36,0,0,1,0-.11c0-.05,0,0,0-.1v0h0c0-.1,0,.13,0,.11h.11l.14,0,.59.1,2.5.41.59.1-.45-.4q-.75-.63-1.53-1.32l0,0h0a4.79,4.79,0,0,1-1.61-.5,1.28,1.28,0,0,1-.8-1.31l0,.08.56-.81-.19.08c.65.13,1.32.27,2,.43a8.27,8.27,0,0,1,2,.68c1.24.69,2.46,1.53,3.71,2.39l.26-.33-1.48-1.45-1-1,0,0h-.05a5.91,5.91,0,0,1-1.23-.62,3.13,3.13,0,0,1-.52-.43.73.73,0,0,1-.22-.51.86.86,0,0,1,.64-.86,1.86,1.86,0,0,1,.62,0c.23,0,.45,0,.67.08a6.63,6.63,0,0,1,1.28.29,5,5,0,0,1,1.12.6,20.81,20.81,0,0,1,2,1.51,9.14,9.14,0,0,1,1.64,1.72,3.21,3.21,0,0,1,.4,1,1.42,1.42,0,0,1-.06,1,5,5,0,0,1-1.48,1.49c-.56.41-1.12.77-1.66,1.1l0,0,0,0a4.66,4.66,0,0,1-1.56,1.78l0,0v.06a5.64,5.64,0,0,1-1.18,2,7.36,7.36,0,0,1-1.33,1.17C174.55,191.26,174.06,191.46,174.08,191.49Z"/><path class="cls-30" d="M172.07,187.83a4,4,0,0,0-.63-1.34,11.59,11.59,0,0,0-2.28-2.72,12,12,0,0,0-3-1.9,3.64,3.64,0,0,0-1.39-.43,23.43,23.43,0,0,1,4.09,2.66A25.54,25.54,0,0,1,172.07,187.83Z"/><path class="cls-30" d="M174.31,182.31c0,.07.38.13.94.37a3.54,3.54,0,0,1,1.63,1.63,11.33,11.33,0,0,1,.78,2.33,3.19,3.19,0,0,0,.33,1,2.67,2.67,0,0,0,0-1.07,8,8,0,0,0-.71-2.46,3.31,3.31,0,0,0-1.88-1.71A1.71,1.71,0,0,0,174.31,182.31Z"/><path class="cls-30" d="M178.63,181.72a7.63,7.63,0,0,1,.86,1.81c.27,1.08.17,2,.29,2a3.56,3.56,0,0,0-.61-3.53C178.89,181.76,178.66,181.67,178.63,181.72Z"/><path class="cls-31" d="M86.38,146.73l3.66,5L101.61,154s8.56,18.9,8.16,27.62a92.31,92.31,0,0,1-1.28,13l.09,9.84s3.56,8.12,2,11.65-6,6.79-6,6.79l-40.81.8s-2.84,1.75-4.42-2.76c-.67-1.92,1.75-7.77.64-15.33-1.5-10.21-6.53-22.5-6.53-22.5l-2.13-22.58,12.84-7,2.29-6.78,15.7,3.83Z"/><path class="cls-31" d="M157.59,180.75c-.47.06-7.21,2.62-7.21,2.62a9.54,9.54,0,0,0-5.21-.12c-2.48.79-15,3.93-15,3.93l-16-21.35s-6.43-11.25-12.55-11.79l4.91,31.76s12.89,17.56,19.12,19.71,28.49-6.55,29.11-9.76l7.55-4.92Z"/><path class="cls-11" d="M103.31,160.68a1.21,1.21,0,0,0,.13.35l.43.95c.2.41.43.92.68,1.52s.55,1.27.83,2c.59,1.52,1.2,3.37,1.78,5.45a60.14,60.14,0,0,1,1.38,6.88,59.21,59.21,0,0,1,.5,7,56.35,56.35,0,0,1-.26,5.73c-.06.81-.18,1.54-.25,2.18s-.17,1.19-.25,1.64l-.15,1c0,.24,0,.37,0,.37a1.39,1.39,0,0,0,.1-.35c.07-.28.14-.62.23-1a15.71,15.71,0,0,0,.31-1.64c.1-.64.24-1.37.31-2.19a49.39,49.39,0,0,0,.35-5.75,57.84,57.84,0,0,0-.46-7.07,56.7,56.7,0,0,0-1.43-6.93,47.71,47.71,0,0,0-1.88-5.44c-.29-.77-.61-1.43-.88-2s-.52-1.09-.74-1.49l-.5-.92A1.28,1.28,0,0,0,103.31,160.68Z"/><path class="cls-11" d="M64.15,153.52a1.2,1.2,0,0,0,.3.17l.9.4c.78.34,1.94.8,3.38,1.32a93.11,93.11,0,0,0,11.66,3.3l.19,0,0-.2c.08-.39.17-.8.28-1.22.54-2.17,1.19-4.24,1.6-6.23l-.32.09c1.66,2.09,3.16,3.94,4.49,5.37l.11.11.1-.11a17.82,17.82,0,0,0,1.36-2c.35-.59.67-1.11.94-1.55.52-.85.87-1.27.84-1.29a1.38,1.38,0,0,0-.28.28,9.37,9.37,0,0,0-.69.91c-.28.41-.61.93-1,1.52a16.81,16.81,0,0,1-1.38,1.93h.2c-1.29-1.44-2.77-3.32-4.41-5.41l-.24-.31-.08.39c-.41,1.95-1.08,4-1.62,6.21-.11.42-.2.84-.29,1.23l.24-.16a109.81,109.81,0,0,1-11.66-3.16c-1.46-.49-2.62-.9-3.42-1.2A8.6,8.6,0,0,0,64.15,153.52Z"/><path class="cls-11" d="M87.6,225.26l.17-.09a4.88,4.88,0,0,0,.46-.29,5.7,5.7,0,0,0,1.43-1.6,9.61,9.61,0,0,0,1.18-3.22,25,25,0,0,0,.38-4.57c0-6.78,0-16.22-.78-26.66-.39-5.24-1-10.23-1.76-14.74A104.76,104.76,0,0,0,86,162.23a73,73,0,0,0-3.83-10.52.85.85,0,0,0,.06.2l.19.54c.2.51.46,1.21.79,2.09s.72,2,1.16,3.32.88,2.8,1.37,4.46a113.55,113.55,0,0,1,2.61,11.84c.75,4.5,1.33,9.47,1.73,14.71.76,10.42.78,19.84.88,26.62a24.05,24.05,0,0,1-.31,4.53,9.29,9.29,0,0,1-1.1,3.18A6.42,6.42,0,0,1,87.6,225.26Z"/><path class="cls-11" d="M76,210.84a4.91,4.91,0,0,0,1.06-.11c.67-.1,1.65-.28,2.85-.54a65,65,0,0,0,9.24-2.74,66.44,66.44,0,0,0,8.84-4.1c1.1-.61,2-1.13,2.57-1.51a7.57,7.57,0,0,0,.9-.63,5.27,5.27,0,0,0-1,.49c-.61.34-1.5.82-2.61,1.4a84.7,84.7,0,0,1-8.85,4,80.85,80.85,0,0,1-9.17,2.84c-1.19.3-2.15.52-2.82.66A6.19,6.19,0,0,0,76,210.84Z"/><g class="cls-19"><path d="M107.05,169.92a16.74,16.74,0,0,1,4.23,9.39,17.52,17.52,0,0,1-2.23,10.23l0-.12A43.79,43.79,0,0,0,107.05,169.92Z"/></g><path class="cls-29" d="M73.62,204.86s-6.19.1-6.67.62-4.1,4.16-4.1,4.16a24.47,24.47,0,0,1-1.37,2.9s-1.06,1.89-2,2.24a4.45,4.45,0,0,1-1.65.3l-1.33,8.21s2.41,1.85,3.63,1.47,7.25-5.44,7.25-5.44l1.56-.87s6.52-.91,6.49-3l-.1-.58-6.5.57-2.3.84,3.84-2.36s6-1.45,6.48-1.72,1-1.29.69-1.75l-1.3.07s1.21-1.24,1-2.15l-5.87.09S74.46,206,73.62,204.86Z"/><path class="cls-30" d="M76.83,210.26a2.21,2.21,0,0,1-.53,0c-.35,0-.84,0-1.46,0-1.22,0-2.92.11-4.78.23-.24,0-.47,0-.68.06a2,2,0,0,0-.59.22c-.36.23-.71.49-1,.73-.66.48-1.24.94-1.71,1.34a14.08,14.08,0,0,0-1.06,1c-.24.25-.36.41-.38.39a1.73,1.73,0,0,1,.3-.46,10,10,0,0,1,1-1.09c.46-.42,1-.9,1.69-1.4.33-.25.67-.5,1.06-.76a2,2,0,0,1,.66-.25,6.08,6.08,0,0,1,.71-.07c1.87-.12,3.57-.17,4.8-.15.62,0,1.12,0,1.46.07A2.54,2.54,0,0,1,76.83,210.26Z"/><path class="cls-30" d="M71.54,208.65s-.49-.08-1.27-.09a6.62,6.62,0,0,0-3,.63,6.93,6.93,0,0,0-2.4,1.92c-.5.63-.72,1.09-.76,1.06a3.34,3.34,0,0,1,.62-1.19,6.46,6.46,0,0,1,2.43-2,6.1,6.1,0,0,1,3.08-.57A3.35,3.35,0,0,1,71.54,208.65Z"/><path class="cls-31" d="M31.85,211A12.89,12.89,0,0,1,30,201c.94-4.89,12.85-28.37,18.37-37.35a13.49,13.49,0,0,1,6-4.75s8.17,6.52,9.06,16l-6.62,9.66L47,203.5Z"/><path class="cls-31" d="M55.85,213.6,46,200.88S32.11,210.68,31.85,211c0,0,11.86,10.36,24.61,13.38L58.05,215Z"/><path class="cls-11" d="M58.36,180.18a19.31,19.31,0,0,1,0-2.86,26.84,26.84,0,0,0-.51-6.81,11.64,11.64,0,0,0-3.17-5.77,14.8,14.8,0,0,0-2.22-1.56,2.19,2.19,0,0,1,.7.2,6.64,6.64,0,0,1,1.73,1.08,11.12,11.12,0,0,1,3.42,5.92,23,23,0,0,1,.38,7A15.25,15.25,0,0,1,58.36,180.18Z"/><path class="cls-11" d="M33.82,203.16a5.22,5.22,0,0,1,1.68-1.44,9.84,9.84,0,0,1,5-1.44,17.32,17.32,0,0,1,2.9.05,6.62,6.62,0,0,1,2.31.71A4.81,4.81,0,0,1,47,202.09c.24.31.36.5.33.52a9.4,9.4,0,0,0-1.76-1.25,7,7,0,0,0-2.21-.57,19,19,0,0,0-2.83,0A10.57,10.57,0,0,0,35.66,202C34.5,202.65,33.87,203.22,33.82,203.16Z"/><path class="cls-32" d="M450,188.41a11.78,11.78,0,0,0,3.56-2.94,12.33,12.33,0,0,1,3.65-2.78c.69-.42,2-.92,3.07-1.46a2.72,2.72,0,0,1,2.46-.43,10,10,0,0,1,3.16,1c.48.4.31.75-.37,1a4.52,4.52,0,0,1-2.08-.07c-.36,0-1.16,0-1.16,0l-2.11,1.34a21.7,21.7,0,0,1,2.35,1.76,2.31,2.31,0,0,1-.23,2.22,1.3,1.3,0,0,1-.08,1.55s.21.85-.35,1.23a9.5,9.5,0,0,1-1.92.89,4,4,0,0,1-1.45-.28,10.67,10.67,0,0,1-2.47,1.21,6,6,0,0,0-2.79.8Z"/><path class="cls-33" d="M461.06,184.7c.62,0,.88-.3,1.29.09a.65.65,0,0,1,0,.88Z"/><path class="cls-33" d="M462.24,188.1a5.25,5.25,0,0,0-.77-1.14c-.28-.33-.92-.91-.92-.91a5.55,5.55,0,0,1,1.93,1.67,1.13,1.13,0,0,1-.2.34Z"/><path class="cls-33" d="M462,188.87a4.15,4.15,0,0,1,.39.47,1.6,1.6,0,0,1-.23.32,4.72,4.72,0,0,0-1-1.45A4.73,4.73,0,0,1,462,188.87Z"/><path class="cls-33" d="M458.16,191.65a11.87,11.87,0,0,1,1.81-1.27c.47-.22,1.07.09,1.11.36s-.65-.06-.89-.06A7.37,7.37,0,0,0,458.16,191.65Z"/><path class="cls-33" d="M459.59,183.77s.64-.39,1.74-1,1-.48,1.76-.32,2.18.5,2.72.23l-.3.15a4.52,4.52,0,0,1-2.08-.07c-.36,0-1.16,0-1.16,0l-2.17,1.38Z"/><polygon class="cls-32" points="366.44 343.76 364.56 385.9 380.2 388.52 383.02 347.69 366.44 343.76"/><polygon class="cls-34" points="364.09 385.58 361.54 397.01 379.5 395.78 380.2 388.46 364.09 385.58"/><path class="cls-11" d="M379.85,394.14a14.22,14.22,0,0,1-2.6.32c-1.61.12-3.83.23-6.29.31l-6.32.17a17.69,17.69,0,0,1-2.63,0,12.57,12.57,0,0,1,2.63-.32c1.63-.12,3.87-.23,6.33-.31l6.28-.17A14.48,14.48,0,0,1,379.85,394.14Z"/><path class="cls-11" d="M372.21,387.25a13.8,13.8,0,0,1,0,3.64,14.45,14.45,0,0,1-.47,3.62,13.16,13.16,0,0,1,0-3.62A13.59,13.59,0,0,1,372.21,387.25Z"/><g class="cls-35"><polyline class="cls-3" points="361.54 397.01 379.5 395.78 379.65 394.15 361.84 394.93 361.54 396.81"/></g><polygon class="cls-32" points="425.04 361.17 428.51 387.85 441.55 386.1 439.03 361.75 425.04 361.17"/><path class="cls-34" d="M441.71,383.2h0s14.4,3.92,14.6,6.51l-27.77,2.69-.21-7.23,1,.14A21.6,21.6,0,0,0,441.71,383.2Z"/><g class="cls-35"><path class="cls-3" d="M431.61,386.22a1.23,1.23,0,0,0-.76,1.37,1,1,0,0,0,1.31.66,1.29,1.29,0,0,0,.8-1.45,1.08,1.08,0,0,0-1.45-.53"/></g><g class="cls-35"><path class="cls-3" d="M428.54,392.4l0-2.24,26.65-1.73s1.23.41,1.1,1.28Z"/></g><path class="cls-11" d="M442.16,383c0,.14-.68.26-1.34.76s-1,1.09-1.14,1.05.06-.84.87-1.43S442.18,382.9,442.16,383Z"/><path class="cls-11" d="M445.1,383.94c0,.13-.55.42-1,1s-.57,1.22-.71,1.23-.23-.75.34-1.5S445.09,383.82,445.1,383.94Z"/><path class="cls-11" d="M446.81,387.24c-.12,0-.32-.61,0-1.38s1-1.12,1-1-.32.53-.58,1.17S447,387.21,446.81,387.24Z"/><path class="cls-11" d="M441.85,383a2.61,2.61,0,0,1-1.39.13,6.46,6.46,0,0,1-1.47-.31,8.07,8.07,0,0,1-.82-.35,1.62,1.62,0,0,1-.43-.29.57.57,0,0,1-.07-.71.81.81,0,0,1,.59-.36,1.74,1.74,0,0,1,.52,0,4.53,4.53,0,0,1,.88.22A4.58,4.58,0,0,1,441,382c.65.54.89,1,.84,1.05s-.38-.34-1.05-.77a5.28,5.28,0,0,0-1.26-.58,4.15,4.15,0,0,0-.81-.17c-.3-.05-.55,0-.62.11s0,.07,0,.15a1.48,1.48,0,0,0,.32.21,7,7,0,0,0,.74.35,7.35,7.35,0,0,0,1.37.38A10.18,10.18,0,0,1,441.85,383Z"/><path class="cls-11" d="M441.68,383.18c-.05,0-.33-.43-.39-1.3a4.29,4.29,0,0,1,.16-1.53,5.15,5.15,0,0,1,.33-.87,1.25,1.25,0,0,1,.88-.78.58.58,0,0,1,.59.33,1.51,1.51,0,0,1,.15.49,2.92,2.92,0,0,1,0,.93,3.47,3.47,0,0,1-.56,1.49c-.53.76-1.1,1-1.11.93a13.48,13.48,0,0,0,.82-1.09,3.31,3.31,0,0,0,.42-1.34,3.09,3.09,0,0,0,0-.8c-.05-.29-.17-.51-.28-.47s-.37.25-.48.49a6.63,6.63,0,0,0-.33.79,5.2,5.2,0,0,0-.24,1.4C441.6,382.66,441.75,383.15,441.68,383.18Z"/><path class="cls-11" d="M377.15,218.06s-11.26,19-11.13,30.4L364.73,382l17.35,2.89,12.6-129.12S426,382.38,427,382.32s15.87-3.64,15.87-3.64L420.77,219.22Z"/><path class="cls-10" d="M384.42,252.11a1.45,1.45,0,0,1,0,.34c0,.25-.08.59-.14,1-.14.91-.33,2.2-.59,3.85-.52,3.34-1.25,8.16-2.11,14.12-1.72,11.84-3.84,28.19-5.57,46.19-1.7,17.84-2.7,33.89-3.24,45.44-.27,5.74-.46,10.38-.57,13.58-.06,1.58-.11,2.82-.14,3.68l0,1a2.77,2.77,0,0,1,0,.33,1.19,1.19,0,0,1,0-.33v-.95c0-.87,0-2.1.06-3.68.05-3.2.18-7.84.41-13.59.45-11.55,1.4-27.62,3.1-45.48s3.9-34.33,5.7-46.2c.91-5.95,1.69-10.77,2.28-14.1.29-1.65.51-2.93.67-3.84.08-.42.15-.75.19-1A2.25,2.25,0,0,1,384.42,252.11Z"/><path class="cls-10" d="M412.15,254.26c.13,0,5.31,29.25,11.43,64.58,6,34.49,10.62,61.86,10.5,61.89s-5-27.3-11-61.79C417,283.6,412,254.29,412.15,254.26Z"/><path class="cls-10" d="M394.06,255.5s-.08-.11-.19-.33-.26-.57-.45-1a36,36,0,0,1-1.32-3.84A39.44,39.44,0,0,1,390.78,237c.09-1.32.26-2.6.46-3.83a33.28,33.28,0,0,1,.83-3.5c.61-2.2,1.25-4.15,1.81-5.79s1-2.94,1.37-3.85l.4-1a1.61,1.61,0,0,1,.17-.35s0,.14-.08.38l-.33,1.06-1.25,3.89c-.51,1.65-1.12,3.61-1.71,5.8-.3,1.1-.59,2.26-.8,3.46s-.36,2.49-.44,3.8a41.81,41.81,0,0,0,1.18,13.25c.42,1.65.88,2.95,1.19,3.85A10.2,10.2,0,0,1,394.06,255.5Z"/><path class="cls-10" d="M399,232.58a.9.9,0,0,1,0,.26c0,.2,0,.44,0,.73l.12,2.7c.09,2.35.21,5.61.35,9.5l-.11-.16,6.73,2.76-.19,0,5.43-3.35.36-.22-.1.16c.41-4.47.8-8.69,1.14-12.33l.18.2-10-.15-2.88-.07-.78,0-.28,0a6.49,6.49,0,0,1,1,0l2.84,0,10.16,0h.2l0,.2c-.32,3.65-.69,7.86-1.09,12.34v.11l-.09.05c-.11.08-.23.15-.35.22l-5.44,3.34-.09.06-.09,0L399.26,246l-.11,0v-.12c-.07-3.94-.13-7.24-.17-9.62,0-1.11,0-2,0-2.67A7.5,7.5,0,0,1,399,232.58Z"/><path class="cls-10" d="M373.17,228.75s0,.34-.11.93-.21,1.49-.37,2.54c-.33,2.21-.8,5.26-1.36,8.91l-.07-.18,5.25,3.87-.18,0,6.3-1.75.32-.09-.15.15,3.25-11.32.14.24-9.36-2.3-2.68-.68c-.63-.17-1-.26-1-.28a6.2,6.2,0,0,1,.92.17l2.66.58,9.52,2.14.19,0,0,.2-3.19,11.33,0,.12-.11,0-.32.09-6.31,1.74-.09,0-.09-.06-5.22-3.9-.1-.07,0-.12c.65-3.68,1.19-6.76,1.58-9,.18-1,.34-1.86.45-2.48A7.64,7.64,0,0,1,373.17,228.75Z"/><path class="cls-10" d="M409,252.82a69,69,0,0,1-7.4,1.86,69.18,69.18,0,0,1-7.54,1.47,68.22,68.22,0,0,1,7.45-1.88A66.47,66.47,0,0,1,409,252.82Z"/><path class="cls-10" d="M387.21,253.48a7,7,0,0,1-1.93,0,31.84,31.84,0,0,1-4.62-.7,32.81,32.81,0,0,1-4.5-1.36,7,7,0,0,1-1.77-.85,12,12,0,0,1,1.87.56c1.14.37,2.72.83,4.49,1.23s3.39.66,4.56.82A11.17,11.17,0,0,1,387.21,253.48Z"/><path class="cls-11" d="M384.4,105.75c.65,1.94-1.52,3.42-3.41,3.76s-4.19.47-5.05,2.22c-.74,1.52,0,3.55-.64,5.1-1.28,3-6.58,2-7.6,5.11-.69,2.12,1.31,4.45,1.08,6.69-.19,1.94-1.92,3.17-3.43,4.27s-3.11,2.64-2.84,4.59c.3,2.25,3,3.92,2.77,6.15s-3.11,3.07-3.51,5.22c-.47,2.55,2.71,4.34,3.75,6.78.79,1.86.34,4.19,1.66,5.72s3.71,1.36,5.66,1l19.23-3.43c-1.3-3.16-.1-6.75,1.73-9.48s4.28-5,5.85-7.88,2.08-6.86,0-9.61"/><path class="cls-11" d="M418.11,123.78a22.06,22.06,0,0,0-.61-3.16,3.32,3.32,0,0,0-.75-1.33c-.37-.4-.86-.19-1.17.33a8.24,8.24,0,0,0-.84,4,8.83,8.83,0,0,0,.83,4.06c.3.55.79.81,1.16.46a2.94,2.94,0,0,0,.75-1.24,21.63,21.63,0,0,0,.63-3.08,2.52,2.52,0,0,1,.06.87,8.26,8.26,0,0,1-.36,2.35,3.21,3.21,0,0,1-.82,1.44.94.94,0,0,1-1,.19,1.82,1.82,0,0,1-.8-.75,8.85,8.85,0,0,1-.94-4.32,8.31,8.31,0,0,1,1-4.23,1.54,1.54,0,0,1,.8-.66,1,1,0,0,1,1,.3,3.72,3.72,0,0,1,.82,1.55,8.91,8.91,0,0,1,.35,2.39A2.64,2.64,0,0,1,418.11,123.78Z"/><path class="cls-11" d="M387.05,140.4c-3.53-6.27-4.58-14.47-5.52-21.6-.44-3.37-1.21-8.18,1.05-10.14,2.43-2.09,2.64-5.54,5.43-7.09a8.29,8.29,0,0,1,9.17.71"/><path class="cls-32" d="M396.73,162.16h0a9,9,0,0,0,10-8.76c.21-5.22.39-10.52.39-10.52s7.63-.35,8.22-8.19.43-26.22.43-26.22h0a25.55,25.55,0,0,0-27,0l.53,28.25,0,15C389.37,156.79,391.9,161.58,396.73,162.16Z"/><path class="cls-11" d="M407.84,124.6c-1.3-1.78-3.44-2.58-5.2-1.49a4.56,4.56,0,0,0-1.49,5.7,6.37,6.37,0,0,0,3.73,3.15,3.22,3.22,0,0,1,2.28,3.4c-.22,2-3.4,2.55-4.83,4.12-2.24,2.43-7.16,3.27-10.48,3.51s-2.88.28-4.8-2.59a11.38,11.38,0,0,1-1.89-6.58q-.21-8.85-.41-17.77a26.06,26.06,0,0,1,.37-6.38,8,8,0,0,1,3.25-5.1c1.89-1.16,4.28-1.11,6.43-1.69,2.67-.72,4.94-2.41,7.44-3.58s5.54-1.74,8-.25c1.78,1.07,3,3,4.68,4.18,2.45,1.64,5.78,1.54,6.94,5.4a6.78,6.78,0,0,1-.06,4c-1.69,5-7.75,6.73-12.12,4.23-.09.87.72,2.86-.17,5.56-.28.86-.38,2.2-1.7,2.14"/><path class="cls-36" d="M406.47,129.48s0,.15-.11.34a1.07,1.07,0,0,1-.85.39,2.3,2.3,0,0,1-2-2.3,2.26,2.26,0,0,1,.57-1.65,2,2,0,0,1,1.19-.65c.79-.13,1.24.2,1.21.25s-.47-.06-1.1.14a1.85,1.85,0,0,0-1.32,1.91,2,2,0,0,0,1.43,1.9C406.15,129.88,406.41,129.43,406.47,129.48Z"/><path class="cls-11" d="M418.13,123.4a25.58,25.58,0,0,1-5.09.84,26.33,26.33,0,0,1-5.18.34,26.4,26.4,0,0,1,5.11-.85A25.64,25.64,0,0,1,418.13,123.4Z"/><path class="cls-11" d="M387.71,148.17a2.31,2.31,0,0,0,2.68,1.22,6,6,0,0,0,2.57-1.68A6.24,6.24,0,0,1,395.5,146c2-.54,4.53,1,6.24-.25,1.55-1.12,1.35-3.82,2.87-5,.81-.61,1.93-.64,2.76-1.23,1.53-1.11,1.28-3.76,0-5.3s-3.25-2.24-5.1-2.87l-16.48,6.45Z"/><path class="cls-10" d="M407.19,118.32s0,0-.13.09a4.07,4.07,0,0,1-.44.23,7.24,7.24,0,0,1-1.79.57,19,19,0,0,1-3,.32,29.28,29.28,0,0,0-3.93.34,6.87,6.87,0,0,0-4.08,2.09c-1.11,1.28-1.52,3.19-2.38,5a6.06,6.06,0,0,1-1.92,2.41,9.09,9.09,0,0,1-2.88,1.32c-2,.6-4.3.91-6,2.31a4.19,4.19,0,0,0-1.52,2.74,18.66,18.66,0,0,0,0,3.34,6.14,6.14,0,0,1-.6,3.26,5.55,5.55,0,0,1-2.24,2.12c-1.74,1-3.58,1.46-5,2.35a5.4,5.4,0,0,0-1.79,1.62,4.35,4.35,0,0,0-.67,2.16,16.22,16.22,0,0,0,.59,4.07,11,11,0,0,1,.31,3.15,4.27,4.27,0,0,1-.54,1.89,2.1,2.1,0,0,1-.42.53,4.62,4.62,0,0,0,.76-2.44,10.91,10.91,0,0,0-.39-3.08,16,16,0,0,1-.67-4.16,4.72,4.72,0,0,1,.7-2.35,5.94,5.94,0,0,1,1.89-1.77c1.52-.94,3.36-1.43,5-2.39a5,5,0,0,0,2.06-2,5.53,5.53,0,0,0,.53-3,20.62,20.62,0,0,1,0-3.43,4.67,4.67,0,0,1,1.69-3c1.84-1.51,4.18-1.8,6.17-2.39a8.94,8.94,0,0,0,2.75-1.24,5.7,5.7,0,0,0,1.8-2.24c.84-1.74,1.27-3.7,2.48-5.08a7.11,7.11,0,0,1,4.31-2.15,28.11,28.11,0,0,1,4-.27,19.68,19.68,0,0,0,3-.23A12.38,12.38,0,0,0,407.19,118.32Z"/><path class="cls-10" d="M402.77,120.92a14.78,14.78,0,0,0-1.6.15,6.74,6.74,0,0,0-5.16,4.68,12.68,12.68,0,0,0-.29,3.57,9.49,9.49,0,0,1-.55,4.06,3.9,3.9,0,0,1-1.44,1.6,16.92,16.92,0,0,1-1.9,1,4.64,4.64,0,0,0-1.64,1.12,3,3,0,0,0-.64,1.8c-.09,1.33.2,2.82-.43,4a6.13,6.13,0,0,1-2.56,2.52c-1,.55-1.91.94-2.71,1.4a6.34,6.34,0,0,0-1.91,1.55,4.16,4.16,0,0,0-.81,1.68,4.11,4.11,0,0,0,0,1.65,1.08,1.08,0,0,1-.18-.42,3,3,0,0,1-.05-1.28,4.32,4.32,0,0,1,.78-1.82,6.35,6.35,0,0,1,1.94-1.68c.81-.49,1.75-.91,2.68-1.46a5.79,5.79,0,0,0,2.37-2.36c.54-1.07.28-2.45.35-3.89a3.47,3.47,0,0,1,.74-2.08,5,5,0,0,1,1.8-1.25c1.3-.59,2.6-1.12,3.13-2.34a9.21,9.21,0,0,0,.53-3.84,12.58,12.58,0,0,1,.36-3.68,6.73,6.73,0,0,1,1.6-2.72,6.6,6.6,0,0,1,3.91-2,4.69,4.69,0,0,1,1.22,0C402.63,120.87,402.78,120.9,402.77,120.92Z"/><polyline class="cls-34" points="408.98 150.31 407.02 146.02 389.78 144.55 387.07 149.93 408.71 150.88"/><path class="cls-34" d="M436.42,206.34l19-13.83-.68-1.2a9.44,9.44,0,0,0-4.35-4l-2.95.48-17.68,2.33Z"/><polygon class="cls-34" points="366.67 201.66 383.34 195.31 379.53 181.19 365.86 185.52 366.67 201.66"/><path class="cls-34" d="M435.76,206.71c3.95-2,5-6.79,3.11-10.94l-16.34-37.41a7,7,0,0,0-1.68-2.48,19.27,19.27,0,0,0-14-5.59L388.94,149s-14.29-.64-19.59,10.71c-.39.83-8.6,17.4-14,28.31a9.78,9.78,0,0,0,5.36,13.33h0a9.13,9.13,0,0,0,11.77-4.75l5.81-13.22,3.84,19.17-5.2,15.5,43.62,1.16-3.24-20.56-1-14.78,8.67,18.8a8,8,0,0,0,10.79,4Z"/><g class="cls-37"><path d="M383.63,202.22c3.37,2.62,8.29,1.86,12.4,1.25a17.13,17.13,0,0,0,10.67-5.69,7.27,7.27,0,0,0,2-5.11c-.16-1.9-1.79-3.77-3.63-3.59-2.11.2-3.13,2.61-4.15,4.5a16,16,0,0,1-17.19,7.86S383,201.76,383.63,202.22Z"/></g><g class="cls-37"><path d="M410.75,173.63c1,8.59.56,7.93,2.27,16.38.84,4.14,1.86,8.45,4.6,11.59l-1.32-17.72Z"/></g><polygon class="cls-34" points="376.93 218.06 375.62 214.3 378.92 212.12 419.01 209.41 421.76 214.8 420.55 219.22 376.93 218.06"/><path class="cls-11" d="M384.92,146.67a5.93,5.93,0,0,0-3.63,3.85,6.69,6.69,0,0,0,.82,5.46,3.3,3.3,0,0,1,.8,1.78c-.07,1.55-2.54,1.5-3.3,2.81a2.51,2.51,0,0,0,.68,2.85,19.21,19.21,0,0,0,2.54,1.82,3.35,3.35,0,0,1,1.57,2.59c.86,0,1.36-1,1.22-1.91a8.88,8.88,0,0,0-1.07-2.43,2.59,2.59,0,0,1-.12-2.51c.56-.79,1.7-.78,2.61-1.11a3.62,3.62,0,0,0,1.9-4.73c-.55-1.29-1.84-2.62-1.22-3.83.34-.67,1.14-.9,1.8-1.25a4.62,4.62,0,0,0,2.39-3.75,5.25,5.25,0,0,0-1.82-4.29"/><path class="cls-11" d="M378.2,185.22a11.76,11.76,0,0,1-.9,2.12c-.61,1.27-1.51,3-2.6,4.86s-2.16,3.48-3,4.64a11,11,0,0,1-1.4,1.8,12.46,12.46,0,0,1,1.14-2c.73-1.2,1.76-2.85,2.84-4.7s2-3.55,2.7-4.78A12.51,12.51,0,0,1,378.2,185.22Z"/><path class="cls-11" d="M374.3,192.33a5.68,5.68,0,0,1-.25,3.14,5.38,5.38,0,0,1-1.55,2.68c-.11-.07.64-1.22,1.12-2.83S374.17,192.33,374.3,192.33Z"/><path class="cls-11" d="M438.19,194.44c-.11.05-3.37-7.27-7.33-16.41s-7.15-16.8-7.05-16.84,3.45,7.44,7.44,16.67S438.29,194.4,438.19,194.44Z"/><path class="cls-11" d="M417.93,156c0,.07-.74.32-1.82,1a11.12,11.12,0,0,0-3.56,3.43,11.92,11.92,0,0,0-1.75,4.73c-.19,1.31-.14,2.15-.21,2.15a5.71,5.71,0,0,1-.09-2.2,11.05,11.05,0,0,1,1.69-4.94,10.22,10.22,0,0,1,3.76-3.45A4.89,4.89,0,0,1,417.93,156Z"/><path class="cls-11" d="M382.08,202.74c-.12,0-2.18-8.67-4.62-19.49s-4.38-19.83-4.26-19.85,2.22,8.86,4.69,19.77S382.2,202.72,382.08,202.74Z"/><path class="cls-11" d="M439.68,193a15.38,15.38,0,0,1-1.86-1.88,13.9,13.9,0,0,1-1.8-1.95,6.21,6.21,0,0,1,2.1,1.65A6.31,6.31,0,0,1,439.68,193Z"/><path class="cls-11" d="M425.32,203.37a8.2,8.2,0,0,1-.65-1.13c-.4-.75-.95-1.83-1.62-3.18-1.35-2.7-3.15-6.49-5.13-10.69s-3.8-8-5.16-10.79c-.65-1.33-1.2-2.43-1.61-3.28a10,10,0,0,1-.56-1.22,6.41,6.41,0,0,1,.7,1.15c.43.75,1,1.85,1.74,3.21,1.42,2.73,3.29,6.53,5.27,10.75s3.7,7.93,5,10.74c.61,1.31,1.12,2.4,1.5,3.23A8,8,0,0,1,425.32,203.37Z"/><path class="cls-11" d="M409.81,191.66a.91.91,0,0,1,0,.29,7.1,7.1,0,0,1-.14.83,10.67,10.67,0,0,1-1.08,2.86,15.69,15.69,0,0,1-7.36,6.53,31.48,31.48,0,0,1-9.67,2.27c-1.28.12-2.31.18-3,.22a5.91,5.91,0,0,1-1.11,0,5.57,5.57,0,0,1,1.1-.18l3-.36a34.32,34.32,0,0,0,9.53-2.37,15.9,15.9,0,0,0,7.27-6.28A16.47,16.47,0,0,0,409.81,191.66Z"/><path class="cls-11" d="M401.06,213.1c0,.12-5.41.52-12.14.9s-12.3.59-12.31.47,5.5-.53,12.28-.91S401.05,213,401.06,213.1Z"/><path class="cls-11" d="M408,209.91a13.69,13.69,0,0,1,.87,4.17,13.89,13.89,0,0,1,0,4.24,41.46,41.46,0,0,1-.42-4.2C408.23,211.8,407.89,209.93,408,209.91Z"/><path class="cls-11" d="M410.8,207.3a5.84,5.84,0,0,1,.36,1.69,21.4,21.4,0,0,1,.11,4.14,21.8,21.8,0,0,1-.68,4.06,5.32,5.32,0,0,1-.59,1.6c-.12,0,.63-2.52.84-5.7S410.67,207.32,410.8,207.3Z"/><path class="cls-11" d="M409,150.61c0,.12-4-.18-8.84-.68a86,86,0,0,1-8.88-1.14c0-.12,4,.19,8.91.69S409,150.49,409,150.61Z"/></g><g id="Speech_Bubbles" data-name="Speech Bubbles"><g id="Speech_Bubble" data-name="Speech Bubble"><g id="Speech_Bubble-2" data-name="Speech Bubble"><path class="cls-10" d="M197.41,15.8a26.43,26.43,0,1,0,36.82,6.41A26.46,26.46,0,0,0,197.41,15.8Zm29.06,41.28a24.05,24.05,0,1,1,5.82-33.51A24.08,24.08,0,0,1,226.47,57.08Z"/><path class="cls-3" d="M232.29,23.57a24.05,24.05,0,1,1-33.51-5.83A24.08,24.08,0,0,1,232.29,23.57Z"/><path class="cls-10" d="M230.85,65.8l-7.8-5.19,7.88-5.54,2.26,9.09A1.53,1.53,0,0,1,230.85,65.8Z"/></g><g id="Bulb"><path class="cls-10" d="M216.66,48.53h-8.08a.61.61,0,0,1-.61-.61.61.61,0,0,1,.61-.61h8.08a.61.61,0,0,1,.61.61A.61.61,0,0,1,216.66,48.53Z"/><path class="cls-10" d="M212.62,54.84A4.65,4.65,0,0,1,208,50.19a.61.61,0,0,1,.61-.61h8.08a.61.61,0,0,1,.61.61A4.66,4.66,0,0,1,212.62,54.84Z"/><path class="cls-12" d="M221.25,23.45A12.4,12.4,0,0,0,212,20a12.67,12.67,0,0,0-11.91,12.3,12.55,12.55,0,0,0,6.15,11,3.31,3.31,0,0,1,1.67,2.86.63.63,0,0,0,.15.39.61.61,0,0,0,.39.15h8.31a.54.54,0,0,0,.54-.54A3.34,3.34,0,0,1,219,43.28a12.59,12.59,0,0,0,6.17-10.77A12.43,12.43,0,0,0,221.25,23.45Z"/><g class="cls-38"><path class="cls-3" d="M221.25,23.45A12.4,12.4,0,0,0,212,20a12.67,12.67,0,0,0-11.91,12.3,12.55,12.55,0,0,0,6.15,11,3.31,3.31,0,0,1,1.67,2.86.63.63,0,0,0,.15.39.61.61,0,0,0,.39.15h8.31a.54.54,0,0,0,.54-.54A3.34,3.34,0,0,1,219,43.28a12.59,12.59,0,0,0,6.17-10.77A12.43,12.43,0,0,0,221.25,23.45Z"/></g><path class="cls-1" d="M219.55,35.08a1.22,1.22,0,0,0-1.21-.86,3,3,0,0,0-2.22,1.45l-.1.14-.16-.06a6.18,6.18,0,0,1-1.84-1,5.87,5.87,0,0,1-.86-.78l-.13-.12.11-.15a3.8,3.8,0,0,0,.8-3.12,1.4,1.4,0,0,0-2.64,0,3.76,3.76,0,0,0,.8,3.12l.1.15-.12.12a7.12,7.12,0,0,1-.86.78,6.31,6.31,0,0,1-1.84,1l-.16.06-.1-.14a3,3,0,0,0-2.22-1.45,1.21,1.21,0,0,0-1.21.86,1,1,0,0,0,.44,1.15,2.89,2.89,0,0,0,1.66.43,5.39,5.39,0,0,0,1-.09l.16,0,.08.14a8.88,8.88,0,0,1,.69,1.63,21.9,21.9,0,0,1,.71,7.15c0,.41,0,.82,0,1.21H211V45.45a22.23,22.23,0,0,0-.74-7.34,9.26,9.26,0,0,0-.62-1.52l-.11-.22.24-.09a7.3,7.3,0,0,0,1.81-1,8.92,8.92,0,0,0,.85-.75l.16-.16.16.16a7.84,7.84,0,0,0,.85.75,7,7,0,0,0,1.81,1l.23.09-.11.22a10.23,10.23,0,0,0-.62,1.52,22.54,22.54,0,0,0-.74,7.35c0,.41,0,.81,0,1.21h.64c0-.39,0-.8,0-1.24a21.77,21.77,0,0,1,.71-7.12,8.88,8.88,0,0,1,.69-1.63l.08-.14.15,0a5.47,5.47,0,0,0,1,.09,2.93,2.93,0,0,0,1.67-.43A1,1,0,0,0,219.55,35.08ZM208.11,36h-.29a2.47,2.47,0,0,1-1.32-.31.41.41,0,0,1-.21-.43.6.6,0,0,1,.61-.41,2.09,2.09,0,0,1,1.36.76l.32.35Zm4.51-2.66-.19-.31a2.93,2.93,0,0,1-.52-2.23.69.69,0,0,1,.71-.5.67.67,0,0,1,.7.5,2.88,2.88,0,0,1-.51,2.23Zm6.12,2.36a2.51,2.51,0,0,1-1.33.31h-.28l-.47,0,.32-.35a2.09,2.09,0,0,1,1.36-.76.59.59,0,0,1,.6.41A.38.38,0,0,1,218.74,35.71Z"/></g></g><g id="Speech_Bubble-3" data-name="Speech Bubble"><path class="cls-3" d="M405.71,46.86c0-13.43,15.2-24.32,34-24.32s33.95,10.89,33.95,24.32-15.2,24.32-33.95,24.32c-1.13,0-2.24,0-3.34-.12-3.71,7-10,8.17-14.92,7.61a9.21,9.21,0,0,0,5.24-9.35C414.35,65.66,405.71,57,405.71,46.86Z"/><path class="cls-12" d="M421.36,79a.34.34,0,0,1-.31-.29.36.36,0,0,1,.2-.38,8.85,8.85,0,0,0,5.05-8.76c-12.73-3.87-20.94-12.77-20.94-22.73,0-13.61,15.38-24.68,34.3-24.68S474,33.25,474,46.86s-15.39,24.67-34.3,24.67c-1,0-2.08,0-3.14-.1a14.18,14.18,0,0,1-13.06,7.71A18.76,18.76,0,0,1,421.36,79Zm15-8.31c1.12.08,2.23.12,3.32.12,18.52,0,33.59-10.76,33.59-24s-15.07-24-33.59-24-33.6,10.75-33.6,24c0,9.7,8.12,18.38,20.68,22.12a.36.36,0,0,1,.25.31,9.67,9.67,0,0,1-4.36,9.13A13.65,13.65,0,0,0,436,70.9a.36.36,0,0,1,.32-.19Z"/><path class="cls-34" d="M451,47.55a3.46,3.46,0,1,0,3.46-3.46A3.46,3.46,0,0,0,451,47.55Z"/><circle class="cls-34" cx="439.66" cy="47.55" r="3.45"/><path class="cls-34" d="M421.4,47.55a3.46,3.46,0,1,0,3.45-3.46A3.46,3.46,0,0,0,421.4,47.55Z"/><g class="cls-19"><path class="cls-3" d="M451,47.55a3.46,3.46,0,1,0,3.46-3.46A3.46,3.46,0,0,0,451,47.55Z"/><circle class="cls-3" cx="439.66" cy="47.55" r="3.45"/><path class="cls-3" d="M421.4,47.55a3.46,3.46,0,1,0,3.45-3.46A3.46,3.46,0,0,0,421.4,47.55Z"/></g></g><g id="Speech_Bubble-4" data-name="Speech Bubble"><path class="cls-3" d="M98.05,46.86c0-13.43-15.2-24.32-33.95-24.32S30.15,33.43,30.15,46.86,45.35,71.18,64.1,71.18c1.12,0,2.24,0,3.34-.12,3.71,7,10,8.17,14.92,7.61a9.18,9.18,0,0,1-5.24-9.35C89.4,65.66,98.05,57,98.05,46.86Z"/><path class="cls-12" d="M80.29,79.14a14.17,14.17,0,0,1-13.05-7.71c-1.06.07-2.12.1-3.14.1-18.92,0-34.31-11.07-34.31-24.67S45.18,22.18,64.1,22.18,98.4,33.25,98.4,46.86c0,10-8.22,18.86-21,22.73a8.86,8.86,0,0,0,5,8.76.35.35,0,0,1-.1.67A19.1,19.1,0,0,1,80.29,79.14ZM67.44,70.71a.34.34,0,0,1,.31.19,13.66,13.66,0,0,0,13.38,7.52,9.67,9.67,0,0,1-4.37-9.13A.39.39,0,0,1,77,69c12.56-3.74,20.67-12.42,20.67-22.12,0-13.22-15.07-24-33.59-24s-33.6,10.75-33.6,24,15.07,24,33.6,24c1.08,0,2.2,0,3.31-.12Z"/><path class="cls-31" d="M52.74,47.55a3.45,3.45,0,1,1-3.45-3.46A3.45,3.45,0,0,1,52.74,47.55Z"/><circle class="cls-31" cx="64.1" cy="47.55" r="3.45"/><path class="cls-31" d="M82.36,47.55a3.46,3.46,0,1,1-3.46-3.46A3.46,3.46,0,0,1,82.36,47.55Z"/><g class="cls-19"><path class="cls-3" d="M52.74,47.55a3.45,3.45,0,1,1-3.45-3.46A3.45,3.45,0,0,1,52.74,47.55Z"/><circle class="cls-3" cx="64.1" cy="47.55" r="3.45"/><path class="cls-3" d="M82.36,47.55a3.46,3.46,0,1,1-3.46-3.46A3.46,3.46,0,0,1,82.36,47.55Z"/></g></g></g></g></svg>