<svg width="47" height="46" viewBox="0 0 47 46" fill="none" xmlns="http://www.w3.org/2000/svg">
<path d="M41.1646 25.8513C40.9286 25.9847 40.8455 26.2843 40.979 26.5203C43.6453 31.2339 45.0546 36.5865 45.0546 41.9995C45.0993 43.0545 44.2951 43.4879 42.2029 44.1716L40.3453 34.6115C40.2937 34.3453 40.0361 34.1717 39.7697 34.2232C39.5036 34.2749 39.3298 34.5326 39.3814 34.7988L41.2498 44.4155C39.7807 44.7465 37.9214 44.9759 35.7391 45.006V34.7051C35.7391 34.4339 35.5193 34.2142 35.2481 34.2142C34.9769 34.2142 34.7571 34.4339 34.7571 34.7051V45.006C32.5746 44.9757 30.7155 44.7463 29.2465 44.4151L31.1148 34.7988C31.1664 34.5326 30.9926 34.2749 30.7265 34.2232C30.4606 34.1719 30.2025 34.3454 30.1509 34.6115L28.2936 44.1711C26.3237 43.5626 25.4796 43.02 25.4424 42.2117C25.3993 35.835 27.2611 29.6839 30.8309 24.4005H39.9271H39.9272C40.1984 24.4005 40.4182 24.1807 40.4182 23.9095C40.4182 23.9092 40.4181 23.9089 40.4181 23.9085V20.4511C40.7938 19.2924 41.2094 17.937 41.6259 16.8103C42.5568 14.2905 42.4225 11.4575 41.2579 9.03649L41.2229 8.95871C41.1436 8.78255 40.9684 8.66923 40.7752 8.66923H37.5571C37.2859 8.66923 37.0661 8.88899 37.0661 9.16021V12.6957L35.2014 14.6976L33.3365 12.6957V9.16012C33.3365 8.88889 33.1167 8.66913 32.8455 8.66913H29.6611C29.473 8.66913 29.3015 8.77656 29.2194 8.94565C28.0356 11.3844 27.9026 14.2438 28.8544 16.7908C28.9609 17.0756 29.0695 17.38 29.1866 17.7214C29.2744 17.9777 29.5533 18.1149 29.8102 18.0265C30.0667 17.9385 30.2034 17.6593 30.1154 17.4027C29.9954 17.0528 29.884 16.7403 29.7742 16.447C28.9517 14.2461 29.0274 11.787 29.9743 9.6511H32.3544V12.8889C32.3544 13.0131 32.4015 13.1326 32.4862 13.2235L34.8421 15.7525C35.0263 15.9591 35.3763 15.9591 35.5605 15.7525L37.9162 13.2235C38.0009 13.1326 38.048 13.013 38.048 12.8889V9.6511H40.4611C41.4289 11.791 41.5197 14.2637 40.7047 16.4699C40.3035 17.5548 39.9275 18.7743 39.5691 19.8831H30.5713C30.3001 19.8831 30.0804 20.1029 30.0804 20.3741V23.7595C26.3431 29.2507 24.3998 35.6575 24.461 42.2988C24.5062 47.2436 46.6041 47.3226 46.0365 41.9994C46.0365 36.4172 44.5832 30.8974 41.8335 26.0367C41.7002 25.8008 41.4004 25.7175 41.1646 25.8513ZM39.4361 20.8651V23.4184H31.0624V20.8651H39.4361Z" fill="black"/>
<path d="M13.7935 28.9643C13.7675 28.714 13.5567 28.5237 13.305 28.5237C13.0534 28.5237 12.8425 28.7141 12.8166 28.9643L11.1769 44.8278C11.149 45.0974 11.3451 45.3387 11.6149 45.3666C11.8848 45.3945 12.1259 45.1984 12.1537 44.9286L13.3051 33.7898L14.4566 44.9287C14.4827 45.1813 14.696 45.3693 14.9444 45.3693C14.9613 45.3693 14.9784 45.3684 14.9955 45.3667C15.2653 45.3388 15.4614 45.0975 15.4335 44.8279L13.7935 28.9643Z" fill="black"/>
<path d="M8.06191 29.3624C7.79069 29.3624 7.57092 29.5821 7.57092 29.8534V44.8783C7.57092 45.1495 7.79069 45.3693 8.06191 45.3693C8.33313 45.3693 8.5529 45.1495 8.5529 44.8783V29.8534C8.5529 29.5821 8.33313 29.3624 8.06191 29.3624Z" fill="black"/>
<path d="M18.5432 29.3415C18.272 29.3415 18.0522 29.5613 18.0522 29.8325V44.8783C18.0522 45.1495 18.272 45.3693 18.5432 45.3693C18.8145 45.3693 19.0342 45.1495 19.0342 44.8783V29.8325C19.0342 29.5613 18.8144 29.3415 18.5432 29.3415Z" fill="black"/>
<path d="M26.0746 21.4859L19.1159 10.0539C19.0669 9.97327 18.9956 9.90856 18.9108 9.86741L15.6167 8.27033C15.5498 8.23792 15.4767 8.22113 15.4025 8.22113H11.2025C11.1283 8.22113 11.0551 8.23792 10.9883 8.27033L7.69433 9.86741C7.60949 9.90856 7.5382 9.97327 7.4892 10.0539L0.530718 21.4859C0.388429 21.7094 0.467577 22.0303 0.697359 22.1621L3.34869 23.7537C3.57916 23.8921 3.87808 23.8193 4.01919 23.5905L7.56913 17.8368L8.10873 23.0342L6.62565 27.235C6.50781 27.5416 6.76028 27.8987 7.08865 27.8894H12.3186C12.4911 27.8894 12.651 27.7989 12.7396 27.6509L13.3024 26.7123L13.8653 27.6509C13.9539 27.7989 14.1138 27.8894 14.2863 27.8894H19.5162C19.8459 27.8986 20.0986 27.5393 19.9782 27.2322L18.4962 23.1148L19.0373 17.8393L22.5857 23.5904C22.7268 23.8192 23.0257 23.892 23.2562 23.7536L25.9076 22.1621C26.232 22.0139 26.1424 21.5974 26.0746 21.4859ZM11.3154 9.20311H15.2897L16.7229 9.89795L13.3016 17.579L9.86804 9.90492L11.3154 9.20311ZM23.1668 22.6621L19.1142 16.0937C18.8876 15.6982 18.2395 15.847 18.208 16.3014L17.508 23.1257C17.5004 23.1988 17.5096 23.2728 17.5345 23.342L18.8178 26.9074H14.5645L13.7236 25.5052C13.5482 25.1914 13.0567 25.1914 12.8814 25.5052L12.0406 26.9074H7.78271L9.07155 23.2569C9.09581 23.1883 9.10445 23.1152 9.09699 23.0427L8.39703 16.3008C8.36492 15.8467 7.71682 15.6985 7.49077 16.0938L3.43815 22.6622L1.62621 21.5745L8.25278 10.6881L8.98377 10.3337L12.8541 18.9841C13.0099 19.3656 13.5958 19.365 13.7509 18.9833L17.6068 10.3268L18.3521 10.6881L24.9787 21.5746L23.1668 22.6621Z" fill="black"/>
<path d="M13.3026 21.6137C13.7102 21.6137 14.0405 21.2831 14.0405 20.8753C14.0405 20.4675 13.7102 20.137 13.3026 20.137C12.895 20.137 12.5646 20.4675 12.5646 20.8753C12.5646 21.2831 12.895 21.6137 13.3026 21.6137Z" fill="black"/>
<path d="M13.3026 24.5669C13.7102 24.5669 14.0405 24.2363 14.0405 23.8286C14.0405 23.4208 13.7102 23.0902 13.3026 23.0902C12.895 23.0902 12.5646 23.4208 12.5646 23.8286C12.5646 24.2363 12.895 24.5669 13.3026 24.5669Z" fill="black"/>
<path d="M23.6118 10.1164C23.7644 10.212 23.9568 10.2165 24.1135 10.1282C25.7977 9.17983 27.1096 8.15464 28.0122 7.08144C28.1867 6.87395 28.1601 6.56414 27.9526 6.38964C27.7451 6.21505 27.4352 6.24176 27.2608 6.44925C26.479 7.37879 25.3446 8.27877 23.8864 9.1269C20.783 7.11306 19.216 4.77213 19.6856 2.82949C20.1925 0.791199 22.6891 0.177366 23.5802 2.3491C23.7385 2.74906 24.3598 2.73178 24.4925 2.32082C25.0759 0.492383 27.196 0.729138 28.0772 2.19395C28.2197 2.42472 28.5221 2.4963 28.753 2.35342C28.9837 2.21084 29.0551 1.9083 28.9125 1.67763C27.8385 -0.108881 25.2497 -0.648968 24.0079 1.14019C22.4035 -1.01574 19.3002 0.119036 18.7311 2.59882C18.4497 3.76256 18.3623 6.82485 23.6118 10.1164Z" fill="black"/>
<path d="M28.8684 5.12171C29.248 5.12171 29.5557 4.81396 29.5557 4.43433C29.5557 4.0547 29.248 3.74695 28.8684 3.74695C28.4887 3.74695 28.181 4.0547 28.181 4.43433C28.181 4.81396 28.4887 5.12171 28.8684 5.12171Z" fill="black"/>
<path d="M4.0022 36.6106H3.21661V35.825C3.21661 35.5538 2.99685 35.334 2.72563 35.334C2.4544 35.334 2.23464 35.5538 2.23464 35.825V36.6106H1.44906C1.17784 36.6106 0.958069 36.8303 0.958069 37.1015C0.958069 37.3728 1.17784 37.5925 1.44906 37.5925H2.23464V38.3781C2.23464 38.6493 2.4544 38.8691 2.72563 38.8691C2.99685 38.8691 3.21661 38.6493 3.21661 38.3781V37.5925H4.0022C4.27342 37.5925 4.49318 37.3728 4.49318 37.1015C4.49318 36.8303 4.27342 36.6106 4.0022 36.6106Z" fill="black"/>
<path d="M42.9925 22.1046H43.778V22.8902C43.778 23.1614 43.9978 23.3812 44.269 23.3812C44.5402 23.3812 44.76 23.1614 44.76 22.8902V22.1046H45.5456C45.8168 22.1046 46.0366 21.8848 46.0366 21.6136C46.0366 21.3424 45.8168 21.1226 45.5456 21.1226H44.76V20.3371C44.76 20.0658 44.5402 19.8461 44.269 19.8461C43.9978 19.8461 43.778 20.0658 43.778 20.3371V21.1226H42.9925C42.7212 21.1226 42.5015 21.3424 42.5015 21.6136C42.5015 21.8848 42.7212 22.1046 42.9925 22.1046Z" fill="black"/>
</svg>
