<svg width="47" height="46" viewBox="0 0 47 46" fill="none" xmlns="http://www.w3.org/2000/svg">
<path d="M13.1771 32.4044C12.8207 32.4044 12.5104 32.2691 12.2561 32.1583C12.1155 32.097 11.9701 32.0336 11.8751 32.0211C11.7955 32.0106 11.6472 32.0339 11.5038 32.0564C11.1955 32.1051 10.8119 32.1654 10.4137 32.0266C10.0201 31.8895 9.74747 31.6163 9.50712 31.3752C9.3751 31.2429 9.25046 31.1179 9.14158 31.0543C9.04054 30.9952 8.87335 30.9504 8.69632 30.903C8.38655 30.82 8.00106 30.7167 7.68017 30.4498C7.355 30.1793 7.1828 29.8155 7.04431 29.5232C6.96696 29.3598 6.89389 29.2056 6.81991 29.1187C6.73617 29.0205 6.59186 28.9186 6.43906 28.8107C6.15762 28.6119 5.83865 28.3866 5.64003 28.0157C5.40578 27.5784 5.41562 27.1226 5.42355 26.7563C5.42692 26.601 5.43011 26.4543 5.41298 26.3526C5.39403 26.2404 5.35102 26.1053 5.30556 25.9624C5.18165 25.5734 5.02749 25.0894 5.20771 24.5722C5.38792 24.0551 5.80949 23.7717 6.14824 23.544C6.27279 23.4603 6.39032 23.3812 6.47487 23.3051C6.55149 23.2361 6.64014 23.1191 6.73408 22.9954C6.95548 22.7036 7.23109 22.3403 7.68637 22.1432C8.0724 21.9761 8.46235 21.9977 8.80639 22.017C8.99307 22.0274 9.16937 22.0373 9.2961 22.0124C9.40799 21.9904 9.56114 21.9149 9.72323 21.8351C10.0133 21.6921 10.3744 21.5142 10.7972 21.5043C11.2135 21.4939 11.5808 21.6531 11.8752 21.7807C12.0434 21.8536 12.2022 21.9224 12.318 21.9389C12.4429 21.9567 12.6182 21.9362 12.8039 21.9146C13.1421 21.8753 13.5254 21.8305 13.919 21.9677C14.3173 22.1065 14.5802 22.3922 14.7915 22.6218C14.8897 22.7286 14.9913 22.8389 15.0604 22.8803C15.1427 22.9296 15.2959 22.9703 15.4441 23.0097C15.7415 23.0886 16.1116 23.1869 16.4084 23.4668C16.7221 23.7627 16.8419 24.1407 16.9382 24.4446C16.9815 24.5813 17.0263 24.7227 17.0714 24.7919C17.1233 24.8716 17.2379 24.975 17.3488 25.0751C17.5866 25.2896 17.8825 25.5568 18.0126 25.9638C18.1499 26.3934 18.0531 26.7959 17.9752 27.1193C17.9422 27.2563 17.9081 27.3979 17.9081 27.4868C17.9081 27.5729 17.9408 27.7114 17.9724 27.8456C18.0503 28.1767 18.1473 28.5889 17.9943 29.0281C17.8413 29.4672 17.5092 29.7299 17.2423 29.9409C17.1342 30.0264 17.0225 30.1147 16.969 30.1822C16.9137 30.2519 16.8523 30.384 16.793 30.5117C16.653 30.8135 16.4787 31.1889 16.1041 31.4402C15.7493 31.6782 15.3515 31.7035 15.0318 31.7239C14.8828 31.7333 14.7287 31.7431 14.6385 31.7732C14.5602 31.7994 14.4373 31.8823 14.3183 31.9626C14.039 32.1577 13.6261 32.4121 13.1771 32.4044ZM11.8292 30.6519C11.9025 30.6519 11.9775 30.6561 12.0537 30.6662C12.3397 30.7039 12.5854 30.811 12.8022 30.9055C12.9194 30.9566 13.1149 31.0408 13.1787 31.0377C13.255 31.0311 13.4278 30.9146 13.554 30.8295C13.7398 30.7042 13.9504 30.5622 14.2054 30.477C14.4643 30.3905 14.7196 30.3743 14.9449 30.3599C15.0733 30.3517 15.2883 30.3381 15.3431 30.3049C15.3998 30.2669 15.4921 30.068 15.5531 29.9364C15.6417 29.7457 15.742 29.5295 15.8981 29.3328C16.0501 29.1411 16.2331 28.9965 16.3944 28.8688C16.5018 28.7839 16.6814 28.6419 16.7037 28.5784C16.7258 28.5148 16.6733 28.2918 16.642 28.1587C16.5949 27.9585 16.5415 27.7317 16.5414 27.4869C16.5414 27.2358 16.5971 27.0041 16.6463 26.7996C16.6803 26.6586 16.7316 26.4454 16.7107 26.38C16.6885 26.3204 16.5285 26.176 16.433 26.0897C16.2654 25.9385 16.0755 25.7671 15.9264 25.5385C15.7795 25.3132 15.7028 25.0711 15.6351 24.8575C15.5892 24.7124 15.5262 24.5137 15.4704 24.4611C15.4235 24.4183 15.2167 24.3635 15.0932 24.3307C14.8647 24.2699 14.6056 24.2012 14.3581 24.053C14.1193 23.91 13.9421 23.7173 13.7857 23.5474C13.6778 23.4303 13.5436 23.2844 13.469 23.2584C13.3718 23.2245 13.154 23.2499 12.9619 23.2723C12.7102 23.3016 12.4247 23.3349 12.1246 23.292C11.8271 23.2496 11.5638 23.1355 11.3316 23.0349C11.1422 22.9528 10.9478 22.869 10.8289 22.8707C10.7076 22.8736 10.5142 22.9689 10.3271 23.0611C10.1031 23.1714 9.84914 23.2966 9.55932 23.3535C9.2644 23.4114 8.98059 23.3957 8.73022 23.3817C8.53725 23.3709 8.31867 23.3587 8.22893 23.3976C8.10283 23.4522 7.96043 23.64 7.82267 23.8215C7.70049 23.9826 7.56191 24.1651 7.38925 24.3207C7.23282 24.4615 7.06153 24.5767 6.91038 24.6783C6.74902 24.7867 6.52817 24.9351 6.49792 25.0219C6.46758 25.1089 6.5484 25.3624 6.60744 25.5477C6.66265 25.7211 6.72524 25.9177 6.76032 26.1254C6.79895 26.3545 6.79403 26.5837 6.78966 26.7858C6.78474 27.0136 6.77963 27.2492 6.84451 27.3704C6.8907 27.4566 7.06955 27.583 7.22735 27.6945C7.43226 27.8392 7.66432 28.0033 7.85938 28.2319C8.05117 28.4566 8.17235 28.7126 8.27922 28.9382C8.36851 29.1267 8.4608 29.3216 8.55401 29.3992C8.6443 29.4742 8.85048 29.5295 9.04983 29.5829C9.29428 29.6484 9.57135 29.7227 9.83083 29.8743C10.0928 30.0273 10.2956 30.2307 10.4745 30.4101C10.6111 30.547 10.7659 30.7022 10.8632 30.7361C10.9376 30.7621 11.1335 30.7312 11.291 30.7065C11.4562 30.6805 11.6373 30.6519 11.8292 30.6519Z" fill="black"/>
<path d="M1.67505 24.7524C2.03284 24.8322 2.40548 24.6002 2.48283 24.2306L6.22802 6.80759C6.56913 7.0546 6.93339 7.27517 7.3187 7.46559C7.65563 7.63205 8.06325 7.49393 8.22962 7.15719C8.39599 6.82044 8.25786 6.41263 7.92121 6.24626C6.41005 5.49961 5.29113 4.18908 4.7728 2.63583C5.54624 3.36863 6.5151 3.88013 7.58702 4.10079C9.15612 4.42396 10.7452 4.09852 12.0618 3.18468C12.7017 2.74052 13.5832 2.82078 14.158 3.37556C14.3092 3.52151 14.4299 3.69016 14.5166 3.87712C14.6309 4.12321 14.8577 4.30279 15.1233 4.35745C15.389 4.41194 15.6681 4.33668 15.8701 4.15583C16.0238 4.01843 16.2012 3.91101 16.3978 3.83676C17.145 3.55431 17.9865 3.82883 18.3988 4.48965C19.2472 5.8493 20.5786 6.77589 22.1476 7.09897C23.2205 7.31991 24.3133 7.23244 25.3139 6.86417C23.8644 8.49277 21.6289 9.2755 19.4029 8.81704C17.8862 8.50471 16.5474 7.64572 15.6327 6.39805C15.5674 6.30895 15.5107 6.21355 15.4645 6.1147C15.3504 5.87034 15.1243 5.69186 14.8597 5.63737C14.595 5.58271 14.3169 5.65742 14.1154 5.83681C14.0339 5.90943 13.9442 5.97475 13.8488 6.03088C12.9563 6.55622 11.941 6.85306 10.9125 6.88923C10.5371 6.90244 10.2435 7.21741 10.2567 7.59269C10.2699 7.96807 10.5866 8.26172 10.9603 8.24832C12.2139 8.20423 13.4506 7.84297 14.5371 7.20383C15.6514 8.72283 17.282 9.76887 19.1286 10.1491C19.6451 10.2555 20.1616 10.307 20.6723 10.3069C23.5516 10.3068 26.2317 8.66843 27.5116 5.98769C27.6989 5.59546 27.5918 5.13353 27.2511 4.86448C26.9125 4.59698 26.4411 4.59972 26.105 4.87113C25.0677 5.70871 23.7253 6.03498 22.422 5.76684C21.2211 5.51957 20.2022 4.81027 19.5527 3.76952C18.7981 2.56012 17.2691 2.05318 15.9169 2.56458C15.7525 2.62672 15.5953 2.70189 15.4461 2.78962C15.3437 2.65004 15.229 2.51894 15.1025 2.39685C14.0623 1.39299 12.4573 1.25432 11.2864 2.06739C10.2786 2.76685 9.06237 3.01576 7.86144 2.76867C6.55793 2.50035 5.45358 1.67015 4.83166 0.490817C4.63012 0.1087 4.19817 -0.0798073 3.78143 0.0318941C3.36214 0.144507 3.08133 0.526442 3.09837 0.960765C3.16971 2.77386 3.88265 4.46423 5.06144 5.76283L1.15307 23.9446C1.07417 24.3118 1.30787 24.6734 1.67505 24.7524Z" fill="black"/>
<path d="M46.6282 34.6243L43.9757 23.6592C43.8874 23.2942 43.5199 23.0697 43.1549 23.1581C42.7898 23.2464 42.5655 23.6139 42.6538 23.9789L45.3063 34.944C45.3816 35.2554 45.66 35.4644 45.9667 35.4644C46.3996 35.4696 46.7362 35.0452 46.6282 34.6243Z" fill="black"/>
<path d="M43.2163 20.5199L42.1277 16.0198C42.521 14.8674 42.8012 13.7091 42.9742 12.6341C43.1358 11.6298 43.4202 9.31617 42.8384 8.22448C42.8385 8.22075 42.8389 8.21719 42.8389 8.21346C42.8387 8.02049 42.8165 7.82678 42.7729 7.63755C42.6188 6.96962 42.2139 6.40182 41.6327 6.03847C41.0515 5.67512 40.3636 5.55996 39.6958 5.71403C38.9549 5.88495 38.3454 6.36802 38.0036 7.01654C37.6133 6.91295 37.1931 6.89964 36.7729 6.99659C36.268 7.11303 35.8205 7.37305 35.4751 7.74397C35.0039 7.56393 34.4899 7.5273 33.9874 7.6432C33.3574 7.78852 32.8149 8.1628 32.4552 8.68213C31.9846 8.50282 31.4714 8.46647 30.9697 8.58218C30.1561 8.76987 29.5002 9.33348 29.184 10.0799C28.9508 10.0682 28.7123 10.0882 28.474 10.1432C27.5223 10.3628 26.7958 11.1038 26.5638 12.0162C26.3053 11.9766 26.0373 11.9761 25.7677 12.02C25.5751 11.7515 25.3301 11.5206 25.0416 11.3402C24.4604 10.9769 23.7723 10.8614 23.1047 11.0156C22.8942 11.0642 22.6943 11.1383 22.506 11.2352C22.4781 11.2163 22.4501 11.1974 22.4214 11.1795C21.8402 10.8162 21.1524 10.701 20.4845 10.855C19.9609 10.9757 19.4939 11.2574 19.1432 11.6522C18.6167 11.3949 18.0228 11.3258 17.444 11.4593C16.9413 11.5753 16.4954 11.8333 16.1507 12.2015C15.6777 12.0194 15.1615 11.9818 14.6566 12.0981C14.2645 12.1886 13.9037 12.3685 13.5992 12.6201C13.0096 12.1582 12.2242 11.9559 11.4392 12.1371C10.7712 12.2912 10.2034 12.6961 9.84009 13.2773C9.47683 13.8585 9.36158 14.5464 9.51565 15.2142C9.56494 15.428 9.64184 15.6338 9.74279 15.8269C9.68584 16.8411 10.5425 18.3612 11.2353 19.4128C9.59273 19.3908 8.00066 19.7624 6.61761 20.5111C4.64324 21.5798 3.32697 23.2804 2.91124 25.2998C2.61485 26.7394 2.81766 28.184 3.41234 29.4969L0.015564 45.1755C-0.0639754 45.5426 0.169176 45.9046 0.536169 45.9841C0.893869 46.0645 1.26678 45.833 1.34477 45.4635L4.44052 31.1733C5.75005 32.8248 7.74911 34.0904 10.1371 34.582C13.1537 35.2033 16.1984 34.4641 18.2428 32.6485C19.4034 35.1238 21.9085 37.0058 24.9251 37.6269C25.6271 37.7715 26.3341 37.8429 27.033 37.8429C28.4959 37.8429 29.9221 37.5296 31.1842 36.9175C31.5221 36.7536 31.6631 36.3469 31.4992 36.0089C31.3353 35.6709 30.9284 35.5298 30.5906 35.6938C28.9935 36.4683 27.0789 36.6818 25.1993 36.2949C22.4112 35.7208 20.1427 33.9245 19.2789 31.6068C19.164 31.2986 18.9028 31.0749 18.5801 31.0086C18.2574 30.9422 17.9293 31.0446 17.7021 31.2823C15.9931 33.0701 13.1992 33.8239 10.4113 33.25C6.3123 32.4059 3.54518 28.9626 4.24291 25.5742C4.57637 23.9549 5.64947 22.5816 7.26458 21.7074C8.91878 20.812 10.935 20.5464 12.9419 20.9597C15.7299 21.5338 17.9985 23.3301 18.8622 25.6477C18.9771 25.9559 19.2383 26.1796 19.5608 26.246C19.8833 26.3125 20.2116 26.2101 20.439 25.9724C22.148 24.1846 24.9416 23.4306 27.7298 24.0047C31.8288 24.8488 34.5959 28.2921 33.8982 31.6805C33.7353 32.4709 33.3976 33.2033 32.894 33.8574C32.665 34.155 32.7206 34.582 33.0181 34.811C33.3157 35.0401 33.7427 34.9845 33.9718 34.687C34.6021 33.8681 35.0255 32.9488 35.2302 31.9548C35.8533 28.9284 34.2724 25.8799 31.4756 24.0788C31.9483 24.1706 32.4326 24.2176 32.9215 24.2176C34.3497 24.2176 35.816 23.8247 37.1344 23.0328C38.9195 21.9607 40.2755 20.1645 41.2474 18.1667L41.894 20.8398C41.9694 21.1511 42.2477 21.3601 42.5544 21.3601C42.6073 21.3601 42.6611 21.3539 42.7147 21.3409C43.0803 21.2525 43.3046 20.885 43.2163 20.5199ZM40.0014 7.03914C40.3152 6.96679 40.6385 7.02091 40.9117 7.19165C41.0482 7.27702 41.164 7.38645 41.2549 7.51373C41.2513 7.51482 41.2474 7.51582 41.2439 7.51692C40.8767 7.63272 40.5364 7.88309 40.0652 8.22949C39.9543 8.31113 39.8356 8.39823 39.7089 8.48925C39.5815 8.1905 39.4012 7.92464 39.1814 7.70105C39.3364 7.37132 39.6345 7.12378 40.0014 7.03914ZM37.0785 8.3217C37.7266 8.17228 38.3752 8.57781 38.5247 9.22579C38.5272 9.23699 38.5282 9.24838 38.5305 9.25968C38.1481 9.48272 37.7117 9.71095 37.208 9.93362C37.1792 9.94638 37.1515 9.95768 37.1231 9.96998C37.1139 9.83486 37.0951 9.70002 37.0643 9.56663C36.9787 9.19517 36.8152 8.85487 36.5871 8.56332C36.7286 8.44752 36.8951 8.36397 37.0785 8.3217ZM34.2929 8.9684C34.6066 8.89606 34.9301 8.95009 35.2032 9.12092C35.4764 9.29175 35.6667 9.55861 35.7391 9.87249C35.7821 10.0586 35.7799 10.2505 35.7344 10.4335C35.205 10.5571 34.7145 10.614 34.1853 10.6748C34.1508 10.6787 34.1158 10.6828 34.081 10.6868C34.0715 10.6263 34.0606 10.5659 34.0467 10.5058C33.9593 10.127 33.791 9.78047 33.5558 9.48509C33.7246 9.22661 33.9861 9.0391 34.2929 8.9684ZM31.2753 9.90738C31.9233 9.7576 32.572 10.1635 32.7215 10.8114C32.7265 10.833 32.7293 10.8547 32.7331 10.8764C32.2769 10.9583 31.7723 11.0711 31.1985 11.2375C31.0088 10.9462 30.7647 10.701 30.484 10.5122C30.6453 10.2111 30.9299 9.98701 31.2753 9.90738ZM28.7796 11.4684C29.1744 11.3773 29.5697 11.4904 29.8528 11.7425C29.2275 12.0537 28.6653 12.459 28.1776 12.9452C28.0775 12.821 27.9662 12.7071 27.846 12.6043C27.8631 12.0633 28.2459 11.5916 28.7796 11.4684ZM26.2413 13.3491C26.6903 13.373 27.0956 13.6479 27.2798 14.0638C27.1456 14.2748 27.0209 14.494 26.9086 14.7229C26.6651 14.5333 26.4116 14.364 26.1509 14.2123C26.2298 13.9322 26.2604 13.6404 26.2413 13.3491ZM24.3205 12.4936C24.5937 12.6643 24.784 12.9312 24.8565 13.245C24.8868 13.3765 24.8936 13.5108 24.8797 13.6427C24.4724 13.5112 24.0531 13.4215 23.6259 13.3736C23.6272 13.1744 23.6068 12.9748 23.5615 12.7786C23.5264 12.6266 23.4778 12.4801 23.4175 12.3397C23.7293 12.2698 24.0496 12.3241 24.3205 12.4936ZM20.7902 12.1803C21.1041 12.108 21.4274 12.1621 21.7005 12.3328C21.9736 12.5036 22.164 12.7705 22.2364 13.0844C22.2576 13.1764 22.2673 13.27 22.2668 13.3633C22.1464 13.3749 22.0257 13.3891 21.9048 13.4072C21.4049 13.4821 20.9654 13.5701 20.5686 13.6651C20.5577 13.5705 20.5426 13.4763 20.521 13.383C20.4515 13.0816 20.3304 12.8009 20.1655 12.5499C20.3298 12.3673 20.5468 12.2365 20.7902 12.1803ZM17.7496 12.7846C18.0633 12.7123 18.3867 12.7664 18.6599 12.9372C18.933 13.1079 19.1233 13.3749 19.1958 13.6887C19.2236 13.8092 19.2304 13.9325 19.2208 14.0545C19.002 14.1276 18.7946 14.2006 18.5939 14.2714C18.3226 14.3671 18.0619 14.4587 17.7961 14.542C17.7924 14.3675 17.7732 14.1931 17.7336 14.0219C17.6485 13.6529 17.4864 13.3146 17.2607 13.0243C17.4016 12.9096 17.5673 12.8267 17.7496 12.7846ZM14.9621 13.4236C15.6099 13.2739 16.2588 13.6797 16.4082 14.3276C16.4492 14.505 16.4492 14.6842 16.4109 14.857C16.1477 14.8925 15.8646 14.9177 15.5517 14.9294C15.1994 14.9424 14.8714 14.9411 14.5647 14.93C14.5977 14.6427 14.5828 14.3501 14.516 14.061C14.4886 13.9426 14.4529 13.8283 14.4106 13.7179C14.5645 13.5741 14.7537 13.4716 14.9621 13.4236ZM11.7447 13.4626C12.0587 13.3902 12.3819 13.4444 12.655 13.6151C12.9282 13.7859 13.1185 14.0527 13.1909 14.3666C13.225 14.5145 13.2302 14.6642 13.2091 14.8104C12.8425 14.7594 12.5203 14.7007 12.2368 14.649C11.6616 14.5438 11.2462 14.4679 10.8652 14.5247C10.8486 14.5271 10.8316 14.5303 10.8146 14.5335C10.8307 14.3456 10.8904 14.1629 10.9932 13.9984C11.1639 13.7253 11.4308 13.5349 11.7447 13.4626ZM41.4866 13.2091C41.178 14.7136 39.9017 19.7844 36.4345 21.8668C34.1187 23.2579 31.2764 23.181 29.362 21.6753C29.1071 21.4749 28.7805 21.4017 28.4659 21.4741C28.1513 21.5467 27.8898 21.7557 27.7485 22.0475C27.6618 22.2265 27.5626 22.403 27.4531 22.5742C24.6206 22.1453 21.8185 22.901 19.8987 24.6059C18.738 22.1305 16.2329 20.2486 13.2164 19.6275C13.1516 19.6142 13.0868 19.6037 13.022 19.5916C11.5689 17.6624 11.0448 16.2131 11.0989 15.8995C11.1024 15.886 11.1058 15.8744 11.109 15.8645C11.2805 15.8567 11.6712 15.9281 11.9924 15.9867C12.7819 16.131 13.9752 16.3488 15.6025 16.2883C17.1237 16.2317 18.0575 15.9024 19.0461 15.5539C19.8784 15.2604 20.7391 14.957 22.1063 14.7521C23.6386 14.5227 25.1354 14.9657 26.3205 16.0002C26.577 16.224 26.9273 16.3121 27.2576 16.236C27.5879 16.1597 27.8642 15.9271 27.9966 15.6135C28.6087 14.1644 29.76 13.1104 31.2383 12.6456C32.5571 12.2309 33.4637 12.1266 34.3405 12.0259C35.3819 11.9062 36.3655 11.7931 37.7578 11.1776C39.2473 10.5192 40.2243 9.8006 40.8709 9.3251C41.1342 9.13149 41.4543 8.89606 41.6118 8.82818C41.6181 8.83465 41.625 8.84221 41.6325 8.85096C41.8293 9.12338 41.995 10.73 41.4866 13.2091Z" fill="black"/>
<path d="M23.9643 17.7025C23.3267 17.2618 22.5231 17.0615 21.7008 17.14C21.116 17.1954 19.9938 17.3348 19.0492 17.6459C17.4123 18.1851 17.1357 19.005 17.1918 19.5978C17.2904 20.6381 18.5016 21.4488 19.2148 21.8395C20.0604 22.2954 21.2322 22.7507 22.2246 22.6677C23.9663 22.5026 25.2658 21.1285 25.1214 19.6046C25.0493 18.8439 24.6384 18.1683 23.9643 17.7025ZM22.0962 21.3139C21.5884 21.3614 20.6728 21.0876 19.8683 20.6469C18.9032 20.1183 18.5606 19.6255 18.5458 19.4697C18.5426 19.4356 18.7002 19.1929 19.4747 18.9377C20.2931 18.6682 21.3011 18.544 21.8291 18.494C22.6539 18.3921 23.6845 18.8688 23.7674 19.733C23.8411 20.5103 23.0913 21.2195 22.0962 21.3139Z" fill="black"/>
<path d="M32.6489 14.6144C31.8758 14.9045 31.2406 15.4362 30.8605 16.1117C30.4586 16.8257 30.3851 17.613 30.6536 18.3284C31.2197 19.8506 33.1288 20.3965 34.5996 19.8132C35.4851 19.4809 36.3904 18.5297 36.9423 17.7502C37.4124 17.0866 38.146 15.8271 37.7789 14.8488C37.1919 13.2843 34.6652 13.8578 32.6489 14.6144ZM35.8324 16.9642C35.3022 17.7129 34.5988 18.3608 34.1218 18.5398C33.1859 18.8909 32.2013 18.5818 31.927 17.8506C31.802 17.5175 31.8442 17.137 32.0458 16.7787C32.2691 16.3819 32.6529 16.0655 33.1267 15.8878C33.6233 15.7014 34.5838 15.3715 35.4375 15.2554C35.6493 15.2266 35.8225 15.2155 35.9631 15.2155C36.3592 15.2155 36.4967 15.303 36.5055 15.3266C36.5606 15.4732 36.4684 16.0661 35.8324 16.9642Z" fill="black"/>
<path d="M32.7334 29.3363C32.6525 29.2108 32.5761 29.0924 32.5287 28.9895C32.4858 28.8963 32.4506 28.7546 32.4134 28.6045C32.3258 28.2506 32.2166 27.8103 31.8779 27.4511C31.5905 27.1466 31.2256 27.0131 30.9035 26.8953C30.7287 26.8314 30.5636 26.7711 30.4577 26.6986C30.364 26.6344 30.2536 26.5052 30.1369 26.3685C29.9279 26.1237 29.6677 25.8192 29.285 25.6439C28.9072 25.4709 28.5093 25.471 28.1909 25.4729C28.0085 25.4733 27.8363 25.4739 27.724 25.4433C27.6028 25.4105 27.4506 25.323 27.2894 25.2301C26.9957 25.0611 26.6629 24.8696 26.2491 24.8403C25.8302 24.8108 25.4776 24.9685 25.1942 25.0953C25.0625 25.1542 24.9263 25.2152 24.8469 25.2259C24.7521 25.2385 24.5962 25.2155 24.4452 25.1931C24.1423 25.1484 23.7653 25.0927 23.3839 25.232C22.9809 25.3792 22.7228 25.6777 22.5154 25.9175C22.422 26.0254 22.3254 26.1371 22.257 26.1826C22.1781 26.2351 22.0327 26.2846 21.8921 26.3324C21.5903 26.4351 21.2148 26.5629 20.9359 26.8838C20.6414 27.2225 20.5717 27.6286 20.5157 27.9549C20.492 28.0931 20.4675 28.236 20.4324 28.3172C20.3986 28.396 20.3143 28.5098 20.2327 28.62C20.0313 28.8921 19.7805 29.2308 19.7478 29.6925C19.715 30.1542 19.9155 30.5248 20.0765 30.8227C20.1417 30.9432 20.209 31.0679 20.2315 31.1507C20.2547 31.236 20.2588 31.3809 20.2627 31.521C20.2721 31.852 20.2837 32.2637 20.5275 32.6407C20.7583 32.9978 21.112 33.1773 21.3963 33.3216C21.5288 33.3888 21.6658 33.4583 21.7365 33.5214C21.7978 33.576 21.8776 33.7002 21.9548 33.8203C22.1263 34.087 22.3397 34.419 22.7181 34.6217C23.0759 34.8133 23.4567 34.8115 23.7631 34.8099C23.9157 34.8092 24.0736 34.8084 24.1654 34.8343C24.2425 34.856 24.3688 34.9356 24.4908 35.0126C25.0113 35.4614 25.9726 35.5241 26.5841 35.1748C26.7568 35.1056 26.9199 35.0404 27.0444 35.0251C27.1599 35.0108 27.3305 35.0355 27.511 35.0618C27.8269 35.1077 28.22 35.1649 28.6182 35.0468C29.022 34.9274 29.3224 34.6625 29.5639 34.4497C29.6988 34.3308 29.8263 34.2185 29.928 34.1683C30.0432 34.1114 30.2151 34.075 30.3972 34.0363C30.7326 33.9653 31.1128 33.8846 31.4402 33.6237C31.8262 33.316 31.9964 32.8954 32.1332 32.5575C32.1912 32.4142 32.246 32.2788 32.3016 32.1926C32.363 32.0975 32.4555 31.991 32.5532 31.8782C32.8193 31.5713 33.1506 31.1894 33.1892 30.6457C33.2277 30.1025 32.9536 29.6777 32.7334 29.3363ZM31.5257 30.9875C31.407 31.1243 31.2724 31.2795 31.1588 31.4555C31.0333 31.6499 30.9478 31.8612 30.8723 32.0478C30.7872 32.2581 30.6993 32.4754 30.5923 32.5607C30.5163 32.6214 30.3031 32.6665 30.115 32.7064C29.8709 32.7581 29.5941 32.8168 29.326 32.9491C29.0623 33.0793 28.851 33.2655 28.6645 33.4299C28.5088 33.5671 28.3478 33.709 28.2321 33.7432C28.1201 33.7765 27.9098 33.7459 27.7065 33.7163C27.4574 33.6802 27.1749 33.6391 26.878 33.6756C26.5785 33.7125 26.3131 33.8188 26.0789 33.9124C25.9002 33.9838 25.6976 34.064 25.5954 34.0576C25.517 34.0521 25.3502 33.9469 25.2161 33.8624C24.8345 33.5721 24.2375 33.4081 23.7564 33.4503C23.6289 33.4511 23.4162 33.4519 23.3603 33.4232C23.2929 33.3872 23.1808 33.2127 23.0989 33.0853C22.9782 32.8977 22.8416 32.6851 22.6419 32.5069C22.4391 32.3261 22.2122 32.2108 22.0119 32.1092C21.8977 32.0511 21.7064 31.9541 21.6697 31.9027C21.6325 31.8452 21.6264 31.6271 21.6223 31.4828C21.6164 31.2736 21.6097 31.0363 21.5443 30.7953C21.4807 30.5602 21.3703 30.3561 21.2729 30.1761C21.2082 30.0563 21.0998 29.8558 21.1045 29.7889C21.1093 29.7222 21.2449 29.5389 21.3259 29.4295C21.4478 29.265 21.5858 29.0785 21.682 28.8549C21.7808 28.6254 21.8209 28.3915 21.8563 28.1852C21.8807 28.0429 21.9176 27.8279 21.9622 27.7766C22.0062 27.7305 22.2092 27.6614 22.3303 27.6201C22.543 27.5478 22.784 27.4658 23.0101 27.3153C23.233 27.1671 23.3983 26.9759 23.5442 26.8072C23.6432 26.6926 23.7789 26.5357 23.8504 26.5096C23.91 26.489 24.1208 26.5201 24.2466 26.5387C24.4794 26.573 24.7432 26.6119 25.0278 26.5738C25.3023 26.537 25.5402 26.4306 25.7499 26.3366C25.8946 26.2719 26.0737 26.1904 26.153 26.1968C26.2552 26.2041 26.4443 26.3129 26.6111 26.4089C26.8297 26.5347 27.0774 26.6772 27.3688 26.7561C27.6574 26.8342 27.9428 26.8337 28.1947 26.8328C28.3997 26.8323 28.6125 26.8316 28.7188 26.8803C28.8285 26.9306 28.9679 27.0938 29.1027 27.2516C29.2641 27.4407 29.4471 27.6549 29.6897 27.8209C29.9365 27.9897 30.2022 28.0869 30.4365 28.1725C30.6171 28.2386 30.8218 28.3134 30.8886 28.3843C30.9825 28.4837 31.0389 28.7114 31.0933 28.9315C31.1417 29.1267 31.1966 29.3481 31.2933 29.5582C31.381 29.7486 31.4923 29.9211 31.5905 30.0734C31.6954 30.2359 31.8389 30.4585 31.8324 30.5498C31.826 30.6413 31.6524 30.8414 31.5257 30.9875Z" fill="black"/>
<path d="M26.3648 27.0542C24.4197 26.9161 22.7406 28.1828 22.6203 29.8774C22.5002 31.5721 23.9844 33.063 25.9288 33.2009C26.8589 33.2629 27.8578 33.0321 28.6872 32.5837C29.6764 32.044 30.2545 31.2767 30.315 30.4232C30.4376 28.6924 28.2922 27.1909 26.3648 27.0542ZM28.9583 30.327C28.932 30.6969 28.5957 31.0843 28.0357 31.3898C27.4382 31.7158 26.6676 31.8898 26.025 31.8443C24.8285 31.7595 23.9097 30.9203 23.9769 29.9737C24.044 29.0271 25.0722 28.3263 26.2685 28.4109C27.6085 28.5059 29.0163 29.5087 28.9583 30.327Z" fill="black"/>
<path d="M15.0275 25.9237C14.5858 25.1806 13.8627 24.6042 12.9915 24.3005C12.1381 24.0031 11.0825 23.9563 10.1677 24.1752C9.07196 24.4375 8.31329 25.0269 8.03176 25.8349C7.75013 26.643 7.97809 27.5762 8.67363 28.4627C9.25418 29.2027 10.1103 29.8221 10.9638 30.1195C11.3963 30.2702 11.842 30.3455 12.2801 30.3455C12.7243 30.3455 13.1608 30.268 13.5675 30.1131C14.4169 29.7897 15.0379 29.1717 15.3161 28.3733C15.5943 27.5749 15.4919 26.7049 15.0275 25.9237ZM14.0317 27.9258C13.8879 28.3386 13.551 28.6641 13.0835 28.8422C12.5743 29.0362 11.9805 29.0336 11.4112 28.8353C10.8028 28.6233 10.1637 28.1589 9.74363 27.6233C9.34985 27.1214 9.19396 26.6328 9.31605 26.2825C9.43804 25.9324 9.86389 25.6464 10.4843 25.4979C10.7616 25.4316 11.0614 25.3989 11.3608 25.3989C11.7759 25.3989 12.1904 25.4617 12.544 25.5849C13.1132 25.7833 13.5799 26.1504 13.8583 26.6186C14.114 27.0488 14.1756 27.513 14.0317 27.9258Z" fill="black"/>
</svg>
