<svg width="45" height="46" viewBox="0 0 45 46" fill="none" xmlns="http://www.w3.org/2000/svg">
<path d="M20.25 32.6081V23.7419C20.25 23.5452 20.171 23.3564 20.0303 23.2173C19.8897 23.0782 19.6989 23 19.5 23C14.9194 23 14.2772 30.7748 14.2521 31.1056C14.2409 31.2525 14.2742 31.3993 14.3477 31.5273C14.4211 31.6554 14.5314 31.7589 14.6646 31.8248L15.75 32.3617V32.6084L15.1688 38.3592C15.1375 38.6686 15.1721 38.9811 15.2704 39.2765C15.3686 39.5718 15.5284 39.8436 15.7393 40.0741C15.9502 40.3047 16.2076 40.489 16.495 40.6151C16.7823 40.7413 17.0932 40.8064 17.4075 40.8065H18.5925C18.9068 40.8064 19.2177 40.7413 19.505 40.6151C19.7924 40.489 20.0498 40.3047 20.2607 40.0741C20.4716 39.8436 20.6314 39.5718 20.7296 39.2765C20.8279 38.9811 20.8625 38.6686 20.8312 38.3592L20.25 32.6081ZM15.8015 30.7282C15.9315 29.6878 16.1627 28.6623 16.4919 27.6659C17.0683 25.9881 17.8256 24.9671 18.75 24.6191V31.9032H17.25C17.25 31.7654 17.2112 31.6304 17.138 31.5132C17.0648 31.396 16.96 31.3013 16.8354 31.2397L15.8015 30.7282ZM19.1483 39.0785C19.0784 39.1557 18.9927 39.2174 18.8969 39.2595C18.8011 39.3016 18.6973 39.3231 18.5925 39.3226H17.4075C17.3027 39.3226 17.199 39.3009 17.1032 39.2588C17.0074 39.2168 16.9215 39.1553 16.8512 39.0784C16.7809 39.0015 16.7276 38.9109 16.6949 38.8123C16.6622 38.7138 16.6507 38.6096 16.6612 38.5065L17.1788 33.3871H18.8212L19.3388 38.5065C19.3499 38.6097 19.3386 38.7141 19.3058 38.8127C19.273 38.9113 19.2194 39.0019 19.1486 39.0785H19.1483ZM44.25 0H38.25C38.0511 0 37.8603 0.0781679 37.7197 0.217308C37.579 0.356448 37.5 0.545162 37.5 0.741935V1.48387H21.8421C21.164 1.48434 20.4969 1.65261 19.9014 1.97336L12.5587 5.93548H3.75C2.48831 5.93548 1.5 7.23906 1.5 8.90323C1.5 10.4565 2.36109 11.6948 3.50166 11.8534L0.120281 23.1772C0.117281 23.1873 0.114469 23.1975 0.111844 23.2077C0.0376004 23.5019 3.97983e-05 23.804 0 24.1072V45.2581C0 45.4548 0.0790176 45.6436 0.21967 45.7827C0.360322 45.9218 0.551088 46 0.75 46H34.5C34.6989 46 34.8897 45.9218 35.0303 45.7827C35.171 45.6436 35.25 45.4548 35.25 45.2581V24.1693C35.2501 23.8149 35.1987 23.4624 35.0976 23.1225L31.9727 12.6123C32.9903 12.6049 33.968 12.2195 34.7119 11.5325C35.4558 10.8455 35.9116 9.90705 35.9888 8.90323H37.5V10.3871C37.5 10.5839 37.579 10.7726 37.7197 10.9117C37.8603 11.0509 38.0511 11.129 38.25 11.129H44.25C44.4489 11.129 44.6397 11.0509 44.7803 10.9117C44.921 10.7726 45 10.5839 45 10.3871V0.741935C45 0.545162 44.921 0.356448 44.7803 0.217308C44.6397 0.0781679 44.4489 0 44.25 0ZM3 8.90323C3 7.99742 3.44419 7.41935 3.75 7.41935H25.1894L22.1894 10.3871H3.75C3.44419 10.3871 3 9.80904 3 8.90323ZM26.3618 23.2077C26.2876 23.502 26.25 23.8041 26.25 24.1073V44.5161H1.5V24.1072C1.50007 23.9301 1.52144 23.7537 1.56366 23.5816L5.06044 11.871H20.8325C20.4409 12.5253 20.2923 13.2943 20.4121 14.0454C20.532 14.7965 20.9128 15.4828 21.489 15.9861C22.0652 16.4894 22.8007 16.7782 23.569 16.8028C24.3373 16.8274 25.0902 16.5863 25.6981 16.121L29.3063 13.3445L26.3703 23.1773C26.3673 23.1874 26.3645 23.1976 26.3618 23.2077ZM30.75 42.5977L32.6893 44.5161H28.8107L30.75 42.5977ZM33.6586 23.5415C33.7193 23.7454 33.75 23.9568 33.75 24.1693V43.4668L31.5 41.241V25.2258C31.5 25.029 31.421 24.8403 31.2803 24.7012C31.1397 24.562 30.9489 24.4839 30.75 24.4839C30.5511 24.4839 30.3603 24.562 30.2197 24.7012C30.079 24.8403 30 25.029 30 25.2258V41.2411L27.75 43.4669V24.1072C27.7501 23.9301 27.7714 23.7537 27.8137 23.5816L30.748 13.7532L33.6586 23.5415ZM37.5 7.41935H35.6975C35.38 7.41972 35.0756 7.54465 34.8511 7.76672C34.6267 7.98879 34.5004 8.28989 34.5 8.60395C34.4992 9.27341 34.2301 9.91523 33.7515 10.3886C33.273 10.862 32.6242 11.1283 31.9475 11.129H30.1038C29.8698 11.1294 29.6426 11.2066 29.4577 11.3484L24.777 14.95C24.415 15.2288 23.9591 15.3606 23.5023 15.3184C23.0455 15.2763 22.6221 15.0634 22.3185 14.7231C22.0149 14.3829 21.8538 13.9409 21.8682 13.4873C21.8825 13.0337 22.0712 12.6025 22.3958 12.2817L27.5303 7.20234C27.6352 7.0986 27.7068 6.96638 27.7358 6.82241C27.7648 6.67845 27.7499 6.52921 27.6932 6.39359C27.6364 6.25796 27.5402 6.14204 27.4168 6.06049C27.2935 5.97895 27.1484 5.93544 27 5.93548H15.6913L20.6198 3.27602C20.9949 3.074 21.415 2.96803 21.8421 2.96774H37.5V7.41935ZM43.5 9.64516H39V1.48387H43.5V9.64516ZM13.5 23.7419C13.5 23.5452 13.421 23.3564 13.2803 23.2173C13.1397 23.0782 12.9489 23 12.75 23C12.5511 23 12.3603 23.0782 12.2197 23.2173C12.079 23.3564 12 23.5452 12 23.7419V25.9677H10.5V23.7419C10.5 23.5452 10.421 23.3564 10.2803 23.2173C10.1397 23.0782 9.94891 23 9.75 23C9.55109 23 9.36032 23.0782 9.21967 23.2173C9.07902 23.3564 9 23.5452 9 23.7419V25.9677H7.5V23.7419C7.5 23.5452 7.42098 23.3564 7.28033 23.2173C7.13968 23.0782 6.94891 23 6.75 23C6.55109 23 6.36032 23.0782 6.21967 23.2173C6.07902 23.3564 6 23.5452 6 23.7419V26.7097H6.00141C6.00089 26.8248 6.02753 26.9384 6.07922 27.0415L7.48725 29.8274L6.86672 38.4221C6.8447 38.7269 6.8864 39.033 6.98921 39.3213C7.09203 39.6095 7.25375 39.8737 7.46431 40.0974C7.67486 40.3211 7.92974 40.4995 8.21304 40.6215C8.49635 40.7435 8.80202 40.8065 9.111 40.8065H10.389C10.698 40.8065 11.0036 40.7435 11.287 40.6215C11.5703 40.4995 11.8251 40.3211 12.0357 40.0974C12.2462 39.8737 12.408 39.6095 12.5108 39.3213C12.6136 39.033 12.6553 38.7269 12.6333 38.4221L12.0128 29.8274L13.4208 27.0415C13.4725 26.9384 13.4991 26.8248 13.4986 26.7097H13.5V23.7419ZM11.5365 27.4516L10.7865 28.9355H8.7135L7.9635 27.4516H11.5365ZM10.938 39.0862C10.8681 39.1611 10.7832 39.2209 10.6887 39.2616C10.5941 39.3023 10.4921 39.323 10.389 39.3226H9.111C9.00801 39.3226 8.90613 39.3016 8.8117 39.2609C8.71726 39.2203 8.6323 39.1608 8.56212 39.0863C8.49193 39.0117 8.43802 38.9237 8.40374 38.8276C8.36946 38.7315 8.35555 38.6295 8.36287 38.5279L8.94834 30.4194H10.5515L11.1369 38.5279C11.1448 38.6295 11.1311 38.7316 11.0969 38.8277C11.0626 38.9239 11.0085 39.0119 10.938 39.0862Z" fill="black"/>
</svg>
