<svg width="46" height="46" viewBox="0 0 46 46" fill="none" xmlns="http://www.w3.org/2000/svg">
<path d="M45.3119 39.3224L40.6207 31.5046L41.0408 27.9126H41.6382C42.697 27.9126 43.5582 27.0514 43.5582 25.9926V23.7932C43.5582 22.7347 42.697 21.8734 41.6382 21.8734H39.0039V19.3547C39.0039 19.348 39.0043 19.341 39.0043 19.334C39.0043 19.1757 38.9495 19.03 38.8579 18.9149C38.8579 18.9146 38.8576 18.9142 38.8572 18.9139L36.5307 15.9901V13.5341C36.5307 12.7241 35.872 12.065 35.062 12.065H32.353C32.3358 12.0303 32.3183 11.9966 32.3007 11.9636C31.967 11.3358 31.0471 10.5321 29.5661 9.57433C29.2594 9.37639 29.0762 9.03842 29.0762 8.66992V6.88428C29.3647 6.74109 29.5636 6.44348 29.5636 6.0999V2.35068C29.5636 1.05461 28.5094 0 27.213 0H24.6531C23.3567 0 22.3024 1.05461 22.3024 2.35068V6.0999C22.3024 6.44348 22.5011 6.74109 22.7899 6.88428V8.66992C22.7899 9.03842 22.6064 9.37639 22.2993 9.57468C22.0547 9.7326 21.7806 9.91615 21.5016 10.1144C21.5037 10.0621 21.5051 10.0099 21.5051 9.95721C21.5051 7.97574 19.8928 6.36346 17.9113 6.36346C15.9295 6.36346 14.3176 7.97574 14.3176 9.95721C14.3176 10.2106 14.345 10.4661 14.3987 10.7142C14.4794 11.0968 14.5548 11.4526 14.625 11.7843C13.8052 11.494 12.8576 11.6249 12.1357 12.2135C11.6037 12.648 11.2724 13.2635 11.2032 13.9472C11.1337 14.6308 11.3348 15.3005 11.7669 15.8293C11.8802 15.9697 12.0115 16.0999 12.1554 16.215L14.1614 17.8315C13.032 18.8282 12.3014 20.2664 12.2424 21.8734H9.02627L8.88589 21.6095C8.90695 21.5986 8.92801 21.5874 8.94871 21.5765C11.1032 20.4303 12.9004 18.5482 12.1662 17.1679C11.4321 15.7876 8.86694 16.2256 6.71245 17.3718C6.69139 17.3827 6.67033 17.3939 6.64963 17.4055L5.74382 15.7027C5.76488 15.6918 5.78593 15.6805 5.80699 15.6697C6.88055 15.0987 7.80707 14.3848 8.41632 13.6594C9.42004 12.4651 9.22807 11.6442 9.02417 11.261C8.82027 10.8778 8.24681 10.2594 6.69525 10.424C5.75365 10.524 4.64358 10.8936 3.57037 11.4646C3.54932 11.4758 3.52826 11.487 3.50755 11.4982L2.82846 10.2222C2.44978 9.51045 2.25781 8.74292 2.25781 7.94135C2.25781 6.13429 3.2475 4.48552 4.84117 3.63797C5.98914 3.02731 7.30661 2.90027 8.55003 3.28C9.79346 3.66008 10.8147 4.50166 11.4254 5.64963L12.586 7.8329C12.7608 8.16139 13.1686 8.28633 13.4974 8.11121C13.8259 7.93678 13.9508 7.52863 13.7761 7.20013L12.6151 5.01686C11.0056 1.9906 7.23431 0.838776 4.20805 2.44824C2.17393 3.53023 0.910156 5.63489 0.910156 7.94135C0.910156 8.95174 1.16214 9.95932 1.63873 10.8549L7.49963 21.8734H4.75554C3.69672 21.8734 2.83548 22.7347 2.83548 23.7932V25.9926C2.83548 27.0514 3.69672 27.9126 4.75554 27.9126H5.35251L5.77295 31.5046L1.08177 39.3224C0.814697 39.7674 0.736785 40.29 0.862426 40.7936C0.988418 41.2969 1.30287 41.7215 1.74788 41.9886C1.97284 42.1234 2.21745 42.2104 2.4754 42.2469C2.56735 42.2599 2.6586 42.2662 2.7495 42.2662C3.42543 42.2662 4.05925 41.9139 4.41441 41.3225L6.5124 37.8263L6.66367 39.1245C6.70402 39.4674 6.99496 39.7201 7.33223 39.7201C7.3582 39.7201 7.38487 39.7187 7.41119 39.7155C7.78075 39.6723 8.04536 39.3375 8.0022 38.968L7.64809 35.9336L12.4614 27.9126H33.9323L38.7456 35.9336L37.8998 43.1633C37.8008 44.0122 37.0817 44.6523 36.2268 44.6523H10.1665C9.3116 44.6523 8.5925 44.0122 8.49353 43.1626L8.3156 41.6433C8.27243 41.2737 7.93762 41.0091 7.56807 41.0526C7.19852 41.0958 6.9339 41.4306 6.97742 41.8002L7.155 43.3187C7.33293 44.8475 8.62794 46 10.1669 46H36.2268C37.7657 46 39.0608 44.8475 39.2383 43.3191L39.8809 37.8256L41.9793 41.3222C42.5366 42.2504 43.7316 42.5368 44.6458 41.9886C45.5667 41.4359 45.8647 40.2433 45.3119 39.3224ZM7.34521 18.5615C9.5155 17.4069 10.8765 17.6136 10.9765 17.8006C11.0758 17.9877 10.4862 19.2322 8.31595 20.3865C8.29524 20.3977 8.27418 20.4089 8.25313 20.4198L7.28239 18.5948C7.30345 18.5836 7.32416 18.5724 7.34521 18.5615ZM4.20314 12.6543C5.11456 12.1696 6.07477 11.845 6.83774 11.7643C7.50771 11.6934 7.80251 11.8341 7.83444 11.8938C7.86603 11.9534 7.8183 12.2767 7.38487 12.7926C6.89108 13.3801 6.08565 13.9949 5.17387 14.4796C5.15317 14.4908 5.13211 14.5017 5.11105 14.5129L4.14067 12.688C4.16138 12.6767 4.18208 12.6655 4.20314 12.6543ZM39.4854 29.6126L38.4652 27.9126H39.6841L39.4854 29.6126ZM25.8228 21.8734V19.5687L27.9475 16.8987H35.5319L36.9333 18.6601H33.8804C33.508 18.6601 33.2065 18.9619 33.2065 19.334C33.2065 19.706 33.508 20.0078 33.8804 20.0078H37.6562V21.8734H25.8228ZM35.1834 13.5338V15.551H28.2964V13.5338C28.2964 13.4671 28.3508 13.4127 28.4174 13.4127H31.8933C31.8992 13.4127 31.9048 13.413 31.9108 13.413C31.9168 13.413 31.9227 13.4127 31.9287 13.4127H35.062C35.129 13.4127 35.1834 13.4671 35.1834 13.5338ZM24.6531 1.34766H27.213C27.7661 1.34766 28.216 1.79758 28.216 2.35068V5.62682H23.6501V2.35068C23.6501 1.79758 24.1 1.34766 24.6531 1.34766ZM23.0303 10.7068C23.7234 10.2597 24.1376 9.49817 24.1376 8.66992V6.97482H27.7285V8.66992C27.7285 9.49817 28.1426 10.2597 28.8351 10.7065C29.7668 11.3091 30.3228 11.7548 30.6533 12.065H28.4174C27.6074 12.065 26.9487 12.7238 26.9487 13.5338V15.9897L24.6219 18.9139C24.5268 19.0332 24.4752 19.1809 24.4752 19.3333V21.8734H23.5803C23.5209 20.2664 22.7906 18.8282 21.6616 17.8315C21.888 17.649 22.1536 17.4353 22.4748 17.1763L23.6662 16.2164C23.8084 16.1027 23.9389 15.9732 24.0537 15.8325C24.4885 15.3001 24.6896 14.6305 24.6201 13.9468C24.5506 13.2632 24.2193 12.6476 23.6862 12.2131C23.1539 11.779 22.4842 11.5783 21.8013 11.6478C21.7616 11.652 21.722 11.6569 21.683 11.6625C22.0515 11.3687 22.5085 11.0441 23.0303 10.7068ZM20.6891 14.1953C20.8744 13.9328 21.0432 13.0793 21.9375 12.9884C22.2628 12.9554 22.5814 13.0509 22.8348 13.2576C23.0886 13.4643 23.2465 13.7577 23.2795 14.083C23.322 14.502 23.1493 14.9042 22.8226 15.1657L21.6293 16.127C21.145 16.5172 20.7877 16.8053 20.4996 17.0373C20.3775 16.9745 20.2525 16.9159 20.1255 16.8618L20.6891 14.1953ZM17.9113 7.71112C19.1498 7.71112 20.1574 8.71906 20.1574 9.95721C20.1574 10.118 20.1406 10.2776 20.1065 10.4352L19.8447 11.6734C19.8433 11.68 19.8416 11.6867 19.8405 11.6934L18.8277 16.4856C18.5294 16.4372 18.2233 16.4119 17.9113 16.4119C17.5997 16.4119 17.2937 16.4372 16.9957 16.4856L16.9873 16.4463C16.7532 15.3373 16.5023 14.1483 15.7165 10.4324C15.6824 10.2748 15.6652 10.1151 15.6652 9.95757C15.6652 8.71906 16.6728 7.71112 17.9113 7.71112ZM12.8138 14.9804C12.3866 14.4575 12.4649 13.6843 12.9878 13.2576C13.582 12.7733 14.4913 12.9435 14.8545 13.6534L15.1353 14.1988C15.3883 15.3966 15.5315 16.0743 15.6684 16.7243L15.6975 16.8615C15.5705 16.9155 15.4459 16.9742 15.3234 17.037C12.8696 15.0492 12.9524 15.152 12.8138 14.9804ZM17.9113 17.7596C20.2255 17.7596 22.1206 19.5863 22.2312 21.8734H13.5915C13.702 19.5863 15.5972 17.7596 17.9113 17.7596ZM6.70929 27.9126H7.9285L6.90828 29.6126L6.70929 27.9126ZM3.25873 40.6287C3.13519 40.8347 2.90181 40.9459 2.66421 40.9122H2.66386C2.5856 40.901 2.5105 40.8743 2.44136 40.8329C2.30484 40.7512 2.20868 40.621 2.17007 40.4665C2.13147 40.3121 2.15533 40.1521 2.23711 40.0156L7.0434 32.0061C7.0441 32.0058 7.04445 32.0051 7.0448 32.0044L9.68396 27.6066C9.69308 27.5922 9.70221 27.5775 9.71028 27.5624L11.1801 25.1131C11.2618 24.9766 11.392 24.8804 11.5465 24.8418C11.5945 24.8295 11.6433 24.8235 11.6918 24.8235C11.7984 24.8235 11.9034 24.8527 11.9974 24.9088C12.2789 25.078 12.3708 25.4444 12.2017 25.7262L11.5128 26.8742C11.5051 26.8861 11.498 26.898 11.491 26.9103L3.25873 40.6287ZM13.27 26.565L13.3574 26.4197C13.6244 25.9747 13.702 25.4521 13.5764 24.9485C13.4504 24.4452 13.1359 24.0206 12.6909 23.7535C12.2459 23.4864 11.7233 23.4085 11.2197 23.5345C10.7161 23.6605 10.2918 23.9749 10.0247 24.42L8.73709 26.565H4.75554C4.44003 26.565 4.18314 26.3084 4.18314 25.9926V23.7932C4.18314 23.4776 4.44003 23.2211 4.75554 23.2211H41.6382C41.9537 23.2211 42.2106 23.4776 42.2106 23.7932V25.9926C42.2106 26.3084 41.9537 26.565 41.6382 26.565H37.6566L36.3693 24.42C36.1022 23.9746 35.6776 23.6601 35.174 23.5345C34.6703 23.4085 34.1481 23.4864 33.7028 23.7535C33.2578 24.0206 32.9433 24.4452 32.8177 24.9485C32.6917 25.4521 32.7696 25.9747 33.0367 26.4197L33.1237 26.565H13.27ZM43.7295 40.9122C43.7165 40.9101 43.3357 40.9635 43.135 40.6287C42.6306 39.7885 34.6668 26.5179 34.192 25.7265C34.0228 25.4447 34.1144 25.078 34.3963 24.9092C34.6784 24.7397 35.0441 24.8309 35.2136 25.1134C35.7109 25.9424 38.8649 31.1979 39.3471 32.0016C39.3482 32.0033 39.3492 32.0051 39.3503 32.0068L44.1562 40.0159C44.378 40.3848 44.1457 40.8533 43.7295 40.9122Z" fill="black"/>
<path d="M16.2371 33.7964V31.5668C16.2371 30.5746 15.4299 29.7671 14.4377 29.7671C13.4453 29.7671 12.6381 30.5746 12.6381 31.5668V33.7964C12.6381 34.7885 13.4453 35.5961 14.4377 35.5961C15.4299 35.5961 16.2371 34.7885 16.2371 33.7964ZM13.9857 33.7964V31.5668C13.9857 31.3176 14.1886 31.1147 14.4377 31.1147C14.6869 31.1147 14.8898 31.3176 14.8898 31.5668V33.7964C14.8898 34.0455 14.6869 34.2484 14.4377 34.2484C14.1886 34.2484 13.9857 34.0455 13.9857 33.7964Z" fill="black"/>
<path d="M20.6165 41.0803V38.8511C20.6165 37.8586 19.8093 37.0514 18.8171 37.0514C17.8246 37.0514 17.0175 37.8586 17.0175 38.8511V41.0803C17.0175 42.0728 17.8246 42.88 18.8171 42.88C19.8093 42.88 20.6165 42.0728 20.6165 41.0803ZM18.3651 41.0803V38.8511C18.3651 38.6019 18.5676 38.399 18.8171 38.399C19.0663 38.399 19.2688 38.6019 19.2688 38.8511V41.0803C19.2688 41.3295 19.0663 41.5323 18.8171 41.5323C18.5676 41.5323 18.3651 41.3295 18.3651 41.0803Z" fill="black"/>
<path d="M24.9961 33.7964V31.5668C24.9961 30.5746 24.1889 29.7671 23.1968 29.7671C22.2043 29.7671 21.3971 30.5746 21.3971 31.5668V33.7964C21.3971 34.7885 22.2043 35.5961 23.1968 35.5961C24.1889 35.5961 24.9961 34.7885 24.9961 33.7964ZM22.7448 33.7964V31.5668C22.7448 31.3176 22.9473 31.1147 23.1968 31.1147C23.446 31.1147 23.6485 31.3176 23.6485 31.5668V33.7964C23.6485 34.0455 23.446 34.2484 23.1968 34.2484C22.9473 34.2484 22.7448 34.0455 22.7448 33.7964Z" fill="black"/>
<path d="M29.3756 41.0803V38.8511C29.3756 37.8586 28.5684 37.0514 27.5759 37.0514C26.5838 37.0514 25.7762 37.8586 25.7762 38.8511V41.0803C25.7762 42.0728 26.5838 42.88 27.5759 42.88C28.5684 42.88 29.3756 42.0728 29.3756 41.0803ZM27.1243 41.0803V38.8511C27.1243 38.6019 27.3268 38.399 27.5759 38.399C27.8255 38.399 28.028 38.6019 28.028 38.8511V41.0803C28.028 41.3295 27.8255 41.5323 27.5759 41.5323C27.3268 41.5323 27.1243 41.3295 27.1243 41.0803Z" fill="black"/>
<path d="M33.7552 33.7964V31.5668C33.7552 30.5746 32.9481 29.7671 31.9556 29.7671C30.9634 29.7671 30.1559 30.5746 30.1559 31.5668V33.7964C30.1559 34.7885 30.9634 35.5961 31.9556 35.5961C32.9481 35.5961 33.7552 34.7885 33.7552 33.7964ZM31.5035 33.7964V31.5668C31.5035 31.3176 31.7064 31.1147 31.9556 31.1147C32.2047 31.1147 32.4076 31.3176 32.4076 31.5668V33.7964C32.4076 34.0455 32.2047 34.2484 31.9556 34.2484C31.7064 34.2484 31.5035 34.0455 31.5035 33.7964Z" fill="black"/>
</svg>
