<svg width="50" height="48" viewBox="0 0 50 48" fill="none" xmlns="http://www.w3.org/2000/svg">
<path d="M44.997 37.2857C45.4703 37.2857 45.8541 36.902 45.8541 36.4286V34.7143C45.8541 34.241 45.4703 33.8572 44.997 33.8572C44.5236 33.8572 44.1398 34.241 44.1398 34.7143V36.4286C44.1398 36.902 44.5236 37.2857 44.997 37.2857Z" fill="black"/>
<path d="M44.997 39C44.5236 39 44.1398 39.3838 44.1398 39.8571V41.5714C44.1398 42.0448 44.5236 42.4286 44.997 42.4286C45.4703 42.4286 45.8541 42.0448 45.8541 41.5714V39.8571C45.8541 39.3838 45.4703 39 44.997 39Z" fill="black"/>
<path d="M41.5684 37.2858C41.0951 37.2858 40.7113 37.6696 40.7113 38.1429C40.7113 38.6163 41.0951 39.0001 41.5684 39.0001H43.2827C43.7561 39.0001 44.1398 38.6163 44.1398 38.1429C44.1398 37.6696 43.7561 37.2858 43.2827 37.2858H41.5684Z" fill="black"/>
<path d="M48.4256 37.2858H46.7113C46.2379 37.2858 45.8541 37.6696 45.8541 38.1429C45.8541 38.6163 46.2379 39.0001 46.7113 39.0001H48.4256C48.8989 39.0001 49.2827 38.6163 49.2827 38.1429C49.2827 37.6696 48.8989 37.2858 48.4256 37.2858Z" fill="black"/>
<path d="M13.0193 27.0403C12.3848 27.959 9.21877 32.652 9.21877 34.8245C9.21877 37.3089 11.2403 39.3298 13.7246 39.3298C16.2088 39.3298 18.2303 37.3087 18.2303 34.8245C18.2303 32.6518 15.0643 27.959 14.4298 27.0403C14.1101 26.5764 13.3391 26.5764 13.0193 27.0403ZM13.7246 37.6155C12.1851 37.6155 10.9331 36.3633 10.9331 34.8245C10.9331 33.758 12.4406 31.0695 13.7246 29.0748C15.0538 31.143 16.5161 33.8049 16.5161 34.8245C16.5163 36.3633 15.264 37.6155 13.7246 37.6155Z" fill="black"/>
<path d="M1.72454 1.71429C2.19793 1.71429 2.58169 1.33053 2.58169 0.857143C2.58169 0.383756 2.19793 0 1.72454 0C1.25116 0 0.867401 0.383756 0.867401 0.857143C0.867401 1.33053 1.25116 1.71429 1.72454 1.71429Z" fill="black"/>
<path d="M32.1531 9.42859C33.8072 9.42859 35.1531 8.08266 35.1531 6.42859C35.1531 4.77452 33.8072 3.42859 32.1531 3.42859C30.499 3.42859 29.1531 4.77452 29.1531 6.42859C29.1531 8.08266 30.499 9.42859 32.1531 9.42859ZM32.1531 5.14287C32.8622 5.14287 33.4388 5.71952 33.4388 6.42859C33.4388 7.13766 32.8622 7.7143 32.1531 7.7143C31.444 7.7143 30.8674 7.13766 30.8674 6.42859C30.8674 5.71952 31.4442 5.14287 32.1531 5.14287Z" fill="black"/>
<path d="M45.4388 46.2858H30.1251C30.1416 46.2553 30.1618 46.2283 30.1772 46.197C30.8042 44.9255 30.2805 43.3807 29.0096 42.753L25.5508 41.045C25.4123 40.9768 25.3562 40.8613 25.3348 40.7985C25.3133 40.7358 25.2878 40.6097 25.3562 40.4717L25.3566 40.4713C25.4248 40.3329 25.5403 40.2767 25.6031 40.2553C25.6667 40.2343 25.7927 40.2088 25.9303 40.2767L29.3886 41.9844C30.6602 42.6135 32.2054 42.0894 32.8331 40.8172C33.1373 40.2015 33.1834 39.5042 32.9627 38.8539C32.7422 38.2031 32.2813 37.6775 31.6656 37.3736L28.2068 35.6655C28.0684 35.5974 28.0123 35.4819 27.9908 35.4191C27.9694 35.3563 27.9439 35.2303 28.0123 35.0919C28.1168 34.8802 28.3755 34.7938 28.5866 34.8973L32.0453 36.6054C32.6614 36.9088 33.3591 36.9549 34.0091 36.7348C34.6594 36.5143 35.1851 36.0534 35.4889 35.4378C36.1172 34.1666 35.5935 32.6218 34.3221 31.9937L30.8633 30.2861C30.6516 30.1815 30.5642 29.9242 30.6692 29.7118C30.7373 29.5734 30.8528 29.5173 30.9156 29.4958C30.9784 29.4748 31.1044 29.4493 31.2424 29.5172L34.7012 31.2249C35.3168 31.5296 36.0146 31.5761 36.6649 31.3545C37.3157 31.1345 37.8413 30.6735 38.1452 30.0579C38.4495 29.4423 38.4956 28.7445 38.2748 28.0942C38.0548 27.4434 37.5938 26.9177 36.9782 26.6139L33.5194 24.9062C33.3077 24.8017 33.2203 24.5439 33.3248 24.332C33.429 24.1202 33.6872 24.0343 33.8987 24.1374L37.3579 25.845C38.6286 26.4746 40.1743 25.9492 40.8015 24.6774C41.4289 23.4062 40.9056 21.8615 39.6347 21.2338L36.1759 19.5262C36.0375 19.4576 35.9809 19.3421 35.9595 19.2793C35.9381 19.2165 35.913 19.091 35.9818 18.9521C36.0499 18.8137 36.1654 18.7575 36.2282 18.7361C36.2914 18.7151 36.4174 18.6896 36.555 18.7575L40.0138 20.4652C40.629 20.7686 41.3267 20.816 41.9775 20.5948C42.6278 20.3747 43.1535 19.9138 43.4578 19.2977C43.7621 18.6821 43.8081 17.9848 43.5874 17.3345C43.3669 16.6837 42.906 16.158 42.2903 15.8542L35.8961 12.6969C34.3346 11.9267 32.4407 12.5687 31.671 14.1287L24.0094 29.6465V12.35C24.0094 9.79396 21.9298 7.71432 19.3738 7.71432H17.9391V1.71432C17.9391 1.24096 17.5553 0.857178 17.082 0.857178H10.3384C9.86505 0.857178 9.48127 1.24096 9.48127 1.71432V7.71432H8.04662C5.49041 7.71432 3.41077 9.79396 3.41077 12.35V44.615C3.41077 46.4816 4.92919 48 6.79584 48H45.4388C45.9122 48 46.296 47.6162 46.296 47.1429C46.296 46.6695 45.9122 46.2858 45.4388 46.2858ZM24.5488 46.2858H23.5513C23.6246 46.158 23.6991 46.0314 23.7555 45.894L24.5488 46.2858ZM33.2087 14.8871C33.3791 14.5423 33.6737 14.2841 34.0378 14.1605C34.1897 14.109 34.3461 14.0835 34.5015 14.0835C34.7201 14.0835 34.9363 14.1337 35.1377 14.2329L41.5324 17.3906C41.7375 17.492 41.8911 17.6668 41.9648 17.8837C42.0381 18.1005 42.0229 18.3333 41.9218 18.5383C41.7118 18.9615 41.196 19.1355 40.7738 18.9275L37.3151 17.2198C36.8018 16.9661 36.2203 16.9286 35.6786 17.1118C35.1362 17.2955 34.6984 17.6793 34.4451 18.192C34.1914 18.7055 34.1531 19.2868 34.3367 19.829C34.5203 20.3711 34.9041 20.8091 35.4173 21.0624L38.8761 22.77C39.2998 22.9794 39.4742 23.4945 39.2653 23.918C39.0555 24.342 38.5399 24.5169 38.1173 24.3075L34.6586 22.5999C33.5993 22.0768 32.3119 22.5125 31.7886 23.5721C31.2653 24.6318 31.7016 25.9196 32.7608 26.4425L36.2201 28.1501C36.4251 28.2515 36.5788 28.4267 36.6521 28.6436C36.7258 28.8605 36.7101 29.0932 36.609 29.2987C36.5076 29.5037 36.3323 29.6574 36.1155 29.7307C35.8986 29.8048 35.6659 29.7888 35.4608 29.6876L32.0021 27.98C31.4888 27.7267 30.9073 27.6887 30.3656 27.872C29.8232 28.0556 29.3854 28.4394 29.1321 28.9526C28.6091 30.0122 29.0451 31.2997 30.1043 31.8225L33.5631 33.5302C33.7686 33.632 33.9218 33.8068 33.9956 34.0241C34.0693 34.241 34.0536 34.4732 33.9521 34.6787C33.8507 34.8838 33.6758 35.0375 33.459 35.1112C33.243 35.1845 33.0107 35.1697 32.8043 35.0681L29.3456 33.36C28.2859 32.8374 26.9985 33.273 26.4752 34.3331C26.2219 34.8463 26.184 35.4275 26.3676 35.9696C26.5513 36.5117 26.9351 36.9497 27.4483 37.203L30.9071 38.9111C31.1121 39.0125 31.2658 39.1873 31.3395 39.4042C31.4128 39.621 31.3976 39.8537 31.2964 40.0588C31.0871 40.4829 30.5706 40.6565 30.1481 40.448L26.6897 38.7403C26.1763 38.4866 25.5953 38.4502 25.0528 38.6319C24.5108 38.816 24.0726 39.1997 23.8193 39.713C23.5656 40.2264 23.5277 40.8073 23.7113 41.3495C23.895 41.8918 24.2788 42.3296 24.792 42.5829L28.2503 44.2905C28.6744 44.4999 28.8488 45.0155 28.6399 45.4389C28.4301 45.8625 27.9137 46.0352 27.492 45.828L23.6233 43.9179C23.5545 43.8714 23.4833 43.8339 23.4023 43.8088L21.0973 42.6707C20.3854 42.3191 20.0925 41.4536 20.4435 40.7418L33.2087 14.8871ZM5.12505 15.4286H22.296V22.2857H5.12505V15.4286ZM11.1956 2.57146H16.2259V7.71432H11.1956V2.57146ZM8.04641 9.42861H19.3746C20.9856 9.42861 22.296 10.739 22.296 12.35V13.7143H5.12505V12.35C5.12505 10.739 6.43562 9.42861 8.04641 9.42861ZM6.79584 46.2858C5.87462 46.2858 5.12505 45.5362 5.12505 44.615V24H22.296V33C22.296 33.0296 22.3099 33.0547 22.3129 33.0836L18.9068 39.9823C18.5336 40.7377 18.477 41.5933 18.7474 42.3913C19.0183 43.1891 19.5831 43.8339 20.3387 44.207L22.2068 45.1292C21.9885 45.798 21.3662 46.2858 20.6254 46.2858H6.79584Z" fill="black"/>
</svg>
