<svg width="45" height="47" viewBox="0 0 45 47" fill="none" xmlns="http://www.w3.org/2000/svg">
<path d="M19.3966 33.7072C18.2038 33.7072 17.0109 33.5124 15.947 33.1228C15.5899 32.9921 15.4065 32.5966 15.5372 32.2395C15.6679 31.8823 16.0635 31.6987 16.4205 31.8297C18.2562 32.5017 20.5369 32.5017 22.3725 31.8297C22.7296 31.699 23.1252 31.8824 23.2558 32.2395C23.3866 32.5966 23.2031 32.9921 22.846 33.1228C21.7823 33.5125 20.5894 33.7072 19.3966 33.7072Z" fill="black"/>
<path d="M34.847 40.1705C33.0096 40.8409 30.7284 40.8408 28.8938 40.1706C28.5366 40.0401 28.1412 40.2239 28.0107 40.5811C27.8803 40.9383 28.064 41.3337 28.4212 41.4642C29.4844 41.8525 30.6766 42.0467 31.8694 42.0467C33.0618 42.0467 34.2549 41.8525 35.3191 41.4642C35.6763 41.3339 35.8603 40.9386 35.7299 40.5814C35.5996 40.2242 35.2039 40.0403 34.847 40.1705Z" fill="black"/>
<path d="M38.1044 41.0995C37.7242 41.0995 37.4159 41.4078 37.4159 41.7881V46.3114C37.4159 46.6917 37.7242 47 38.1044 47C38.4847 47 38.793 46.6917 38.793 46.3114V41.7881C38.793 41.4078 38.4847 41.0995 38.1044 41.0995Z" fill="black"/>
<path d="M9.9023 37.05C8.06553 37.7202 5.7832 37.7202 3.94624 37.05C3.589 36.9197 3.19376 37.1036 3.06338 37.4609C2.9331 37.8182 3.117 38.2135 3.47424 38.3438C4.53833 38.732 5.73132 38.9261 6.92431 38.9261C8.11731 38.9261 9.3103 38.732 10.3743 38.3438C10.7316 38.2135 10.9155 37.8182 10.7852 37.4609C10.6548 37.1036 10.2594 36.9198 9.9023 37.05Z" fill="black"/>
<path d="M43.4425 1.35008C43.4382 1.34558 43.4338 1.34099 43.4293 1.33658C41.7095 -0.383316 39.0095 -0.452175 37.2814 1.18114L36.3419 2.07382C36.0662 2.33576 36.0551 2.77168 36.3171 3.0473C36.5791 3.323 37.015 3.33421 37.2905 3.07218L38.2287 2.18078C39.4077 1.06656 41.2595 1.12119 42.4488 2.30372C43.5724 3.4979 43.5193 5.38297 42.3287 6.51013L38.2837 10.3379L34.1836 6.00728L35.3071 4.94117C35.5829 4.67942 35.5944 4.24359 35.3327 3.9677C35.0709 3.69199 34.6351 3.68042 34.3592 3.94218L30.7966 7.32257C30.2205 7.86875 30.1959 8.78172 30.7417 9.35756L31.1744 9.81478C31.1744 9.81478 25.3373 15.341 25.2592 15.4159C24.7516 15.9024 24.2597 16.3738 23.5947 16.7819L23.5712 15.9601C23.5587 15.3223 23.035 14.8035 22.4039 14.8035H16.3897C15.7541 14.8035 15.2415 15.3086 15.2225 15.9544L15.1668 17.9461C13.473 19.2599 12.4714 21.2801 12.4714 23.4194V24.5085C12.0989 24.0091 11.6577 23.5564 11.155 23.1664L11.1 21.1713C11.081 20.5281 10.5672 20.0243 9.93028 20.0243H3.9184C3.28151 20.0243 2.76774 20.5281 2.74864 21.1727L2.69374 23.1665C1.00092 24.48 0 26.5003 0 28.6405V46.3114C0 46.6917 0.308302 47 0.688583 47C1.06886 47 1.37717 46.6917 1.37717 46.3114V28.6405C1.37717 27.3485 1.83347 26.1104 2.63975 25.1278L2.49873 30.2426C2.46761 31.3847 2.90059 32.4762 3.71798 33.3162C4.56595 34.1876 5.73452 34.6873 6.92421 34.6873C8.12005 34.6873 9.28696 34.1934 10.1256 33.3321C10.9455 32.49 11.3803 31.393 11.3497 30.2426L11.2088 25.1278C12.0117 26.1063 12.4673 27.3382 12.4711 28.6242V46.3113C12.4711 46.6916 12.7794 46.9999 13.1596 46.9999H13.1598C13.1598 46.9999 13.1599 46.9999 13.16 46.9999C13.5403 46.9999 13.8486 46.6916 13.8486 46.3113V28.6405C13.8486 28.6323 13.8482 28.6241 13.8482 28.6159V23.4194C13.8482 22.1277 14.3052 20.8895 15.1126 19.9067L14.9723 25.0247C14.9411 26.1652 15.3739 27.2557 16.1908 28.0952C17.0389 28.9667 18.2078 29.4667 19.3978 29.4667C20.5947 29.4667 21.7623 28.972 22.6011 28.1095C23.4196 27.2679 23.8527 26.1722 23.8207 25.0247L23.6971 20.5009C23.8665 20.5674 24.0359 20.6216 24.2053 20.6642C24.6894 21.5046 24.9447 22.4511 24.9447 23.4194V46.3113C24.9447 46.6916 25.253 46.9999 25.6333 46.9999H25.6334C26.0137 46.9999 26.322 46.6916 26.322 46.3113V31.7602C26.322 30.4676 26.7786 29.2292 27.5854 28.2469L27.4459 33.3623C27.4134 34.5032 27.8452 35.5944 28.6619 36.4347C29.51 37.3073 30.6789 37.8078 31.8688 37.8078C33.0647 37.8078 34.2316 37.3138 35.0703 36.4525C35.8902 35.6104 36.325 34.5134 36.2943 33.3629L36.1534 28.2474C36.9594 29.2295 37.4156 30.4676 37.4156 31.7601V38.6074C37.4156 38.9877 37.7239 39.296 38.1042 39.296C38.4844 39.296 38.7927 38.9877 38.7927 38.6074V31.7601C38.7927 29.619 37.7919 27.5987 36.0994 26.2864L36.0444 24.2915C36.0253 23.6484 35.5126 23.1446 34.8773 23.1446H28.8629C28.2261 23.1446 27.7123 23.6484 27.6932 24.2932L27.6388 26.2872C27.1363 26.677 26.6943 27.1287 26.3219 27.628V23.4193C26.3219 22.4865 26.1323 21.5702 25.769 20.7185C26.3311 20.6173 26.8963 20.3871 27.4667 20.0271C27.9736 19.7062 28.4837 19.2941 29.1204 18.6908L34.6343 13.4701L34.7501 13.5925C35.0141 13.8736 35.3724 14.034 35.7589 14.0442C35.7722 14.0445 35.7853 14.0447 35.7984 14.0447C36.1702 14.0447 36.5208 13.9045 36.787 13.6497L38.706 11.8339C38.7143 11.8266 38.7231 11.8199 38.7312 11.8122C38.7389 11.8049 38.7457 11.797 38.7531 11.7894L43.2751 7.51023C45.0197 5.85883 45.0947 3.0954 43.4425 1.35008ZM9.13897 32.3713C8.55799 32.968 7.75078 33.3101 6.92421 33.3101C6.10406 33.3101 5.29511 32.9623 4.70495 32.3557C4.14913 31.7844 3.8545 31.0474 3.87535 30.2804L4.11993 21.4013H9.72839L9.97298 30.2798C9.99373 31.055 9.69745 31.7977 9.13897 32.3713ZM21.614 27.1493C21.0329 27.7468 20.2252 28.0894 19.3979 28.0894C18.5775 28.0894 17.7684 27.7413 17.1779 27.1347C16.6226 26.5639 16.3282 25.8278 16.3491 25.0622L16.5937 16.1806H22.1997L22.2351 17.415C22.038 17.4827 21.8284 17.5466 21.6041 17.6056C21.3688 17.6675 21.1838 17.8488 21.117 18.0827C21.0504 18.3166 21.112 18.5683 21.2792 18.745C21.6196 19.1044 21.9587 19.4145 22.2971 19.6785L22.4442 25.0625C22.4657 25.8355 22.1708 26.5766 21.614 27.1493ZM28.8227 33.4007L29.0647 24.5218H34.6731L34.9177 33.4003C34.9383 34.1755 34.6422 34.9182 34.0837 35.4918C33.5027 36.0884 32.6954 36.4306 31.8689 36.4306C31.0488 36.4306 30.2399 36.0823 29.6496 35.4748C29.0946 34.9036 28.8009 34.1674 28.8227 33.4007ZM28.1734 17.6911C27.604 18.2306 27.1589 18.5922 26.7311 18.863C25.8165 19.4403 24.6835 19.8161 23.1021 18.5613C24.5899 17.9651 25.4427 17.1477 26.2122 16.41C26.2884 16.3369 27.6766 15.0216 27.6766 15.0216L29.1709 16.7463L28.1734 17.6911ZM30.1719 15.7986L28.6776 14.074L32.1207 10.8152L33.2645 12.023L33.6877 12.47L30.1719 15.7986ZM35.838 12.6522C35.8267 12.663 35.8124 12.6689 35.7958 12.6677C35.7789 12.6673 35.7648 12.6612 35.7522 12.6478L35.166 12.0285C35.1644 12.0268 35.163 12.0249 35.1613 12.0231L34.231 11.0407L31.7416 8.41062C31.7194 8.38739 31.7207 8.34433 31.7444 8.32193L33.1847 6.95532L37.2834 11.2846L35.838 12.6522Z" fill="black"/>
</svg>
