<svg width="44" height="46" viewBox="0 0 44 46" fill="none" xmlns="http://www.w3.org/2000/svg">
<path d="M0.757072 46C0.311911 46 0.0151367 45.7032 0.0151367 45.2581V43.7742C0.0151367 40.8065 1.72159 37.9129 4.76352 35.6871C5.0603 35.4645 5.57965 35.5387 5.80223 35.8355C6.02481 36.1323 5.95062 36.6516 5.65385 36.8742C2.24094 39.3226 1.49901 41.9935 1.49901 43.7742V45.2581C1.49901 45.7032 1.20223 46 0.757072 46Z" fill="black"/>
<path d="M15.3732 12.9839C15.1506 12.9839 14.928 12.8355 14.7796 12.6871C14.557 12.3161 14.6312 11.8709 15.0022 11.6484C16.9312 10.3129 19.157 9.64514 21.5312 9.64514C23.9054 9.64514 26.1312 10.3129 28.0603 11.6484C28.4312 11.8709 28.5054 12.3161 28.2828 12.6871C28.0603 13.058 27.6151 13.1322 27.2441 12.9097C25.6119 11.7226 23.6087 11.129 21.5312 11.129C19.4538 11.129 17.4506 11.7226 15.8183 12.8355C15.6699 12.9839 15.5216 12.9839 15.3732 12.9839Z" fill="black"/>
<path d="M21.5313 26.7097C18.1926 26.7097 12.6281 23.7419 12.6281 12.6129V10.3871C12.6281 9.94192 12.9248 9.64515 13.37 9.64515C13.8151 9.64515 14.1119 9.94192 14.1119 10.3871V12.6129C14.1119 21.2935 17.97 25.2258 21.5313 25.2258C25.0926 25.2258 28.9506 21.2935 28.9506 12.6129C28.9506 11.871 28.5055 10.4613 28.2829 9.94192C27.0216 7.56773 25.3893 5.93547 21.5313 5.93547C19.0087 5.93547 16.5603 7.27095 15.5216 9.27418C15.299 9.64515 14.8539 9.79353 14.4829 9.57095C14.1119 9.34837 13.9635 8.90321 14.1861 8.53224C15.5216 6.08386 18.4151 4.4516 21.5313 4.4516C26.4281 4.4516 28.3571 6.89999 29.6184 9.27418V9.34837C29.6926 9.57095 30.4345 11.4258 30.4345 12.6129C30.4345 23.7419 24.87 26.7097 21.5313 26.7097Z" fill="black"/>
<path d="M17.8216 37.0968C17.7474 37.0968 17.6732 37.0968 17.6732 37.0968C8.99253 35.0194 8.91833 27.0806 8.91833 26.7097C8.91833 24.7065 9.14092 23.371 9.2893 22.0355C9.51188 20.7742 9.66027 19.5871 9.66027 17.8065C9.66027 6.15806 13.7409 0 21.5312 0C24.8699 0 27.4667 0.964516 29.3216 2.81936C32.8087 6.30645 32.7345 12.1677 32.6603 16.1V17.1387C32.6603 20.1806 33.1054 21.6645 33.4764 22.9258C33.7732 24.0387 34.1441 25.0774 34.1441 26.7839C34.1441 27.229 33.8474 27.5258 33.4022 27.5258C32.957 27.5258 32.6603 27.229 32.6603 26.7839C32.6603 25.3 32.3635 24.4097 32.0667 23.371C31.6216 21.9613 31.1764 20.4032 31.1764 17.1387C31.1764 16.8419 31.1764 16.471 31.1764 16.1C31.1764 12.4645 31.2506 6.97419 28.2087 3.93226C26.7248 2.3 24.4248 1.48387 21.5312 1.48387C14.6312 1.48387 11.1441 6.97419 11.1441 17.8065C11.1441 19.7355 10.9216 20.9968 10.7732 22.2581C10.5506 23.5935 10.4022 24.7806 10.4022 26.7097C10.4022 27.0065 10.4764 33.8323 17.9699 35.6129C18.3409 35.6871 18.6377 36.1323 18.4893 36.5032C18.4893 36.8742 18.1925 37.0968 17.8216 37.0968Z" fill="black"/>
<path d="M37.8538 34.129C37.4829 34.129 37.1861 33.8322 37.1119 33.4613C36.9635 32.1258 35.257 29.6774 32.6603 29.6774C31.028 29.6774 29.47 30.6419 27.7635 31.6806C25.8345 32.8677 23.8312 34.129 21.5312 34.129C13.5925 34.129 11.8861 25.5226 11.8861 25.3742C11.8119 25.0032 12.1087 24.5581 12.4796 24.4839C12.8506 24.4097 13.2958 24.7064 13.3699 25.0774C13.4441 25.4484 14.8538 32.6451 21.5312 32.6451C23.3861 32.6451 25.2409 31.5322 26.9474 30.4193C28.728 29.3064 30.5829 28.1935 32.6603 28.1935C35.999 28.1935 38.299 31.2355 38.5958 33.3129C38.67 33.6839 38.3732 34.129 37.928 34.129H37.8538Z" fill="black"/>
<path d="M42.3055 46C41.8603 46 41.5635 45.7032 41.5635 45.2581V43.7742C41.5635 41.9936 40.8216 38.5806 35.5539 35.6871C31.6216 33.4613 29.1732 35.2419 26.1313 37.5419C23.5345 39.3968 20.641 41.5484 16.3377 41.5484C9.7345 41.5484 6.69257 37.9871 6.69257 34.5C6.69257 32.7194 7.4345 30.271 7.4345 30.1968C7.58289 29.8258 7.95386 29.6032 8.32482 29.6774C8.69579 29.8258 8.91837 30.1968 8.84418 30.5677C8.84418 30.5677 8.17644 32.9419 8.17644 34.5C8.17644 37.2452 10.699 40.0645 16.3377 40.0645C20.1958 40.0645 22.7926 38.1355 25.241 36.3548C28.4313 33.9806 31.4732 31.7548 36.2958 34.4258C42.1571 37.6903 43.0474 41.6968 43.0474 43.7742V45.2581C43.0474 45.7032 42.7506 46 42.3055 46Z" fill="black"/>
<path d="M22.2732 46C21.828 46 21.5312 45.7032 21.5312 45.2581V41.5484C21.5312 41.1032 21.828 40.8065 22.2732 40.8065C22.7183 40.8065 23.0151 41.1032 23.0151 41.5484V45.2581C23.0151 45.7032 22.7183 46 22.2732 46Z" fill="black"/>
<path d="M32.6603 46C32.2151 46 31.9183 45.7032 31.9183 45.2581V36.3549C31.9183 35.9097 32.2151 35.6129 32.6603 35.6129C33.1054 35.6129 33.4022 35.9097 33.4022 36.3549V45.2581C33.4022 45.7032 33.1054 46 32.6603 46Z" fill="black"/>
</svg>
