<svg width="48" height="46" viewBox="0 0 48 46" fill="none" xmlns="http://www.w3.org/2000/svg">
<path d="M24.2411 22.6586L19.5734 14.5741C19.4514 14.3629 19.2261 14.2327 18.9821 14.2327H9.19483C8.95093 14.2327 8.72551 14.3629 8.60352 14.5741L7.49611 16.4919C7.30756 16.8185 7.41945 17.2361 7.74601 17.4246C8.07248 17.6129 8.49018 17.5014 8.67872 17.1747L9.58903 15.5983H18.5879L22.8612 23L19.1939 29.3521V25.5572C19.1939 24.4648 18.5985 23.5095 17.7157 22.9968C18.3436 22.3823 18.7343 21.5262 18.7343 20.5802V20.1731C18.7343 18.3075 17.2166 16.7898 15.351 16.7898H12.8259C10.9603 16.7898 9.44255 18.3075 9.44255 20.1731V20.5802C9.44255 21.5262 9.83329 22.3822 10.4612 22.9967C9.57829 23.5094 8.98289 24.4648 8.98289 25.5572V29.352L5.31569 23L7.21634 19.708C7.40488 19.3814 7.293 18.9638 6.96644 18.7753C6.63978 18.5868 6.22227 18.6986 6.03373 19.0252L3.93598 22.6586C3.81398 22.8698 3.81398 23.1302 3.93598 23.3414L8.60361 31.426C8.72561 31.6372 8.95093 31.7674 9.19492 31.7674H18.9822C19.2262 31.7674 19.4515 31.6372 19.5735 31.426L24.2411 23.3414C24.363 23.1302 24.363 22.8699 24.2411 22.6586ZM10.3486 28.9354H17.8284V30.4018H10.3486V28.9354ZM13.2779 21.7873V18.9661C13.2779 18.5191 13.6415 18.1555 14.0885 18.1555C14.5355 18.1555 14.8991 18.5191 14.8991 18.9661V21.7873C14.8991 22.2343 14.5355 22.5979 14.0885 22.5979C13.6415 22.5979 13.2779 22.2343 13.2779 21.7873ZM17.3688 20.1732V20.5803C17.3688 21.4015 16.8753 22.1093 16.1695 22.4238C16.2312 22.2224 16.2647 22.0087 16.2647 21.7873V18.9661C16.2647 18.7447 16.2312 18.531 16.1695 18.3296C16.8753 18.6442 17.3688 19.352 17.3688 20.1732ZM10.8082 20.1732C10.8082 19.352 11.3018 18.6442 12.0075 18.3297C11.9458 18.5311 11.9124 18.7448 11.9124 18.9662V21.7874C11.9124 22.0088 11.9458 22.2225 12.0075 22.4239C11.3018 22.1093 10.8082 21.4016 10.8082 20.5804V20.1732ZM11.9422 23.9635H16.2347C17.1134 23.9635 17.8284 24.6784 17.8284 25.5572V27.5697H10.3486V25.5572C10.3486 24.6784 11.0634 23.9635 11.9422 23.9635Z" fill="black"/>
<path d="M44.064 11.5001L39.3964 3.4155C39.2744 3.20428 39.0491 3.0741 38.8051 3.0741H29.0178C28.7738 3.0741 28.5485 3.20428 28.4265 3.4155L23.7589 11.5001C23.6369 11.7114 23.6369 11.9717 23.7589 12.1829L28.4265 20.2674C28.5485 20.4786 28.7738 20.6088 29.0178 20.6088H38.8051C39.0491 20.6088 39.2744 20.4786 39.3964 20.2674L44.064 12.1829C44.186 11.9717 44.186 11.7114 44.064 11.5001ZM34.8624 8.98734C34.8624 8.54361 35.2235 8.18255 35.6672 8.18255C36.111 8.18255 36.4721 8.54361 36.4721 8.98734V10.5888H34.8624V8.98734ZM33.4968 10.5888H31.7784V7.85216C31.7784 7.40843 32.1395 7.04737 32.5832 7.04737H32.692C33.1357 7.04737 33.4968 7.40843 33.4968 7.85216V10.5888ZM31.4578 11.9597C31.463 11.9563 31.4683 11.9544 31.4727 11.9544H34.1795H36.3501C36.3545 11.9544 36.3597 11.9563 36.365 11.9597C37.6758 12.8019 38.4584 14.2327 38.4584 15.787C38.4584 17.1296 37.8793 18.3764 36.863 19.2432H30.9599C29.9436 18.3764 29.3644 17.1295 29.3644 15.787C29.3644 14.2327 30.147 12.8019 31.4578 11.9597ZM39.6936 17.0214C39.7783 16.6203 39.8241 16.2077 39.8241 15.787C39.8241 14.0728 39.0924 12.4747 37.8311 11.361C37.835 11.3317 37.8377 11.302 37.8377 11.2716V8.98734C37.8377 7.79053 36.864 6.81694 35.6672 6.81694C35.3219 6.81694 34.9953 6.89842 34.7052 7.04254C34.3836 6.24576 33.6027 5.68176 32.692 5.68176H32.5832C31.3864 5.68176 30.4128 6.65535 30.4128 7.85216V11.0216C28.8945 12.1352 27.9988 13.8902 27.9988 15.787C27.9988 16.2076 28.0445 16.6202 28.1291 17.0213L25.1387 11.8415L29.412 4.4397H38.4109L42.6842 11.8415L39.6936 17.0214Z" fill="black"/>
<path d="M39.3964 25.7327C39.2744 25.5215 39.049 25.3913 38.805 25.3913H29.0178C28.7738 25.3913 28.5485 25.5215 28.4265 25.7327L23.7587 33.8173C23.6367 34.0285 23.6367 34.2888 23.7587 34.5001L28.4265 42.5846C28.5485 42.7958 28.7738 42.926 29.0178 42.926H38.805C39.049 42.926 39.2744 42.7958 39.3964 42.5846L44.064 34.5001C44.186 34.2888 44.186 34.0285 44.064 33.8173L39.3964 25.7327ZM38.4108 41.5603H37.9444V38.9617C37.9444 38.5845 37.6388 38.2789 37.2616 38.2789C36.8845 38.2789 36.5788 38.5845 36.5788 38.9617V41.5603H31.244V35.0348C31.244 34.1628 31.9535 33.4532 32.8256 33.4532H34.9971C35.8693 33.4532 36.5788 34.1628 36.5788 35.0348V36.0517C36.5788 36.4289 36.8845 36.7345 37.2616 36.7345C37.6388 36.7345 37.9444 36.4289 37.9444 36.0517V35.0348C37.9444 34.2072 37.601 33.4586 37.0498 32.9228C37.3927 32.5866 37.6064 32.1188 37.6064 31.6017V30.7439C37.6064 29.723 36.7759 28.8924 35.7549 28.8924H32.0679C31.047 28.8924 30.2164 29.723 30.2164 30.7439V31.6017C30.2164 32.1188 30.4301 32.5865 30.773 32.9228C30.2218 33.4586 29.8784 34.2072 29.8784 35.0348V41.5603H29.412L25.1385 34.1586L29.412 26.7568H38.4108L42.6842 34.1586L38.4108 41.5603ZM32.0679 32.0877C31.8 32.0877 31.582 31.8696 31.582 31.6018V30.744C31.582 30.4762 31.8 30.2581 32.0679 30.2581H35.7549C36.0228 30.2581 36.2408 30.4762 36.2408 30.744V31.6018C36.2408 31.8696 36.0228 32.0877 35.7549 32.0877H32.0679Z" fill="black"/>
<path d="M41.7413 23.6461C41.5997 23.401 41.421 23.1843 41.2155 23C41.4211 22.8157 41.5998 22.599 41.7414 22.3538L43.1692 19.8808C43.3578 19.5543 43.2459 19.1367 42.9193 18.9481C42.5926 18.7596 42.1751 18.8713 41.9866 19.198L40.5589 21.6709C40.3287 22.0695 39.8997 22.3172 39.4394 22.3172H28.3833C27.9229 22.3172 27.494 22.0695 27.2639 21.6709L21.9621 12.4879C21.7321 12.0892 21.732 11.594 21.962 11.1955L27.264 2.01199C27.4941 1.61332 27.923 1.36569 28.3833 1.36569H39.4393C39.8996 1.36569 40.3285 1.61332 40.5587 2.0119L45.8607 11.1953C46.0908 11.594 46.0907 12.0891 45.8606 12.4879L43.449 16.6649C43.2605 16.9915 43.3723 17.4091 43.6989 17.5976C44.0256 17.786 44.4432 17.6743 44.6316 17.3477L47.0432 13.1707C47.5166 12.3508 47.5166 11.3322 47.0433 10.5125L41.7414 1.32891C41.2679 0.509188 40.3859 0 39.4394 0H28.3833C27.4367 0 26.5546 0.509279 26.0813 1.3291L20.7792 10.5127C20.6355 10.7617 20.5361 11.0293 20.4797 11.3038C20.2054 11.2092 19.9141 11.1586 19.6164 11.1586H8.56037C7.61364 11.1586 6.73155 11.6679 6.25833 12.4876L0.956324 21.6713C0.483278 22.4909 0.483278 23.5093 0.956506 24.3291L6.25823 33.512C6.73155 34.332 7.61364 34.8415 8.56037 34.8415H19.6164C19.9142 34.8415 20.2055 34.7908 20.4798 34.6963C20.5363 34.9709 20.6357 35.2386 20.7795 35.4877L26.0813 44.6707C26.5546 45.4906 27.4367 46 28.3834 46H39.4394C40.3859 46 41.2679 45.4907 41.7414 44.6709L47.0433 35.4879C47.5167 34.668 47.5167 33.6495 47.0434 32.8296L41.7413 23.6461ZM8.56037 33.4759C8.10007 33.4759 7.67109 33.2281 7.44094 32.8293L2.13912 23.6464C1.90906 23.2478 1.90897 22.7525 2.13894 22.354L7.44103 13.1705C7.67109 12.7719 8.09998 12.5243 8.56037 12.5243H19.6164C20.0767 12.5243 20.5056 12.7719 20.7356 13.1704L26.0376 22.3538C26.2678 22.7525 26.2677 23.2478 26.0375 23.6464L20.7357 32.8294C20.5055 33.2281 20.0765 33.4759 19.6163 33.4759H8.56037ZM45.8607 34.805L40.5589 43.988C40.3286 44.3867 39.8996 44.6344 39.4394 44.6344H28.3833C27.923 44.6344 27.494 44.3867 27.2639 43.9879L21.9621 34.805C21.7321 34.4063 21.732 33.911 21.962 33.5126L27.264 24.3291C27.4941 23.9304 27.923 23.6828 28.3833 23.6828H39.4393C39.8995 23.6828 40.3285 23.9304 40.5587 24.329L45.8607 33.5124C46.0909 33.911 46.0909 34.4063 45.8607 34.805Z" fill="black"/>
</svg>
