<svg width="48" height="46" viewBox="0 0 48 46" fill="none" xmlns="http://www.w3.org/2000/svg">
<path d="M47.8754 20.8886C47.8763 20.4887 47.7851 20.0939 47.6089 19.7349C47.4327 19.376 47.1761 19.0624 46.8592 18.8185C47.2693 18.3463 47.4963 17.7427 47.499 17.1173C47.4978 16.5242 47.2965 15.9489 46.9276 15.4844C46.5588 15.02 46.044 14.6936 45.4666 14.558C45.5628 14.2924 45.6137 14.0125 45.6172 13.73C45.6172 13.0312 45.3396 12.3611 44.8455 11.867C44.3514 11.373 43.6813 11.0954 42.9826 11.0954C42.9867 11.0327 42.9867 10.9699 42.9826 10.9072C42.9806 10.2098 42.7021 9.54159 42.2083 9.04913C41.7144 8.55668 41.0454 8.28014 40.348 8.28014C40.0655 8.28359 39.7856 8.33448 39.52 8.43069C39.4029 7.93849 39.1462 7.49056 38.7807 7.14074C38.4152 6.79092 37.9564 6.55408 37.4596 6.45868C36.9627 6.36329 36.4489 6.41339 35.9798 6.60298C35.5107 6.79256 35.1064 7.11356 34.8153 7.5274C33.8396 7.06258 32.7723 6.82137 31.6915 6.82137C30.6106 6.82137 29.5434 7.06258 28.5676 7.5274C28.2766 7.11356 27.8722 6.79256 27.4031 6.60298C26.9341 6.41339 26.4202 6.36329 25.9234 6.45868C25.4265 6.55408 24.9678 6.79092 24.6023 7.14074C24.2368 7.49056 23.98 7.93849 23.863 8.43069C23.5973 8.33448 23.3174 8.28359 23.0349 8.28014C22.3362 8.28014 21.6661 8.55771 21.172 9.05179C20.6779 9.54588 20.4004 10.216 20.4004 10.9147C20.3962 10.9774 20.3962 11.0403 20.4004 11.1029C19.7016 11.1029 19.0315 11.3805 18.5374 11.8746C18.0433 12.3687 17.7658 13.0388 17.7658 13.7375C17.7692 14.02 17.8201 14.2999 17.9163 14.5655C17.3389 14.7011 16.8242 15.0275 16.4553 15.492C16.0865 15.9564 15.8852 16.5318 15.8839 17.1248C15.8884 17.7476 16.1154 18.3483 16.5237 18.8185C16.1976 19.0702 15.9357 19.3955 15.7593 19.7678C15.583 20.1401 15.4971 20.5488 15.5089 20.9606C15.5206 21.3724 15.6296 21.7756 15.8269 22.1372C16.0242 22.4988 16.3043 22.8087 16.6442 23.0414C16.312 23.4242 16.0818 23.8846 15.975 24.38C15.8681 24.8755 15.888 25.3899 16.0329 25.8755C16.1778 26.3612 16.4429 26.8024 16.8037 27.1584C17.1645 27.5143 17.6094 27.7734 18.097 27.9116C17.8472 28.4268 17.733 28.9971 17.7652 29.5687C17.7973 30.1402 17.9748 30.6942 18.2808 31.178C18.5868 31.6619 19.0112 32.0596 19.5138 32.3337C20.0164 32.6078 20.5806 32.7491 21.1531 32.7442C21.3249 32.742 21.4963 32.7244 21.665 32.6915C21.6425 32.8337 21.6274 32.9769 21.6198 33.1206C21.6228 33.8464 21.8356 34.5558 22.2326 35.1635C22.6295 35.7711 23.1937 36.251 23.8572 36.5453C24.5206 36.8396 25.255 36.9359 25.9719 36.8224C26.6888 36.7089 27.3575 36.3906 27.8977 35.9057C28.2201 36.6437 28.7507 37.2716 29.4245 37.7125C30.0984 38.1535 30.8862 38.3883 31.6915 38.3883C32.4968 38.3883 33.2846 38.1535 33.9584 37.7125C34.6323 37.2716 35.1629 36.6437 35.4853 35.9057C36.0254 36.3906 36.6942 36.7089 37.411 36.8224C38.1279 36.9359 38.8623 36.8396 39.5258 36.5453C40.1892 36.251 40.7534 35.7711 41.1504 35.1635C41.5473 34.5558 41.7601 33.8464 41.7631 33.1206C41.7555 32.9769 41.7405 32.8337 41.718 32.6915C41.8867 32.7244 42.058 32.742 42.2298 32.7442C42.8013 32.7484 43.3644 32.607 43.8661 32.3334C44.3677 32.0597 44.7914 31.6628 45.0972 31.18C45.403 30.6972 45.5808 30.1445 45.6138 29.574C45.6468 29.0035 45.534 28.434 45.286 27.9192C45.7736 27.7809 46.2184 27.5218 46.5792 27.1659C46.94 26.81 47.2051 26.3687 47.35 25.8831C47.4949 25.3974 47.5148 24.883 47.408 24.3876C47.3011 23.8921 47.0709 23.4317 46.7388 23.0489C47.0889 22.8077 47.3753 22.4851 47.5732 22.1088C47.7712 21.7325 47.8749 21.3138 47.8754 20.8886ZM44.8644 15.9957C45.0878 15.9957 45.3061 16.062 45.4917 16.186C45.6774 16.3101 45.8221 16.4864 45.9076 16.6928C45.9931 16.8991 46.0154 17.1261 45.9718 17.3451C45.9283 17.5641 45.8207 17.7653 45.6628 17.9232C45.5049 18.0812 45.3037 18.1887 45.0847 18.2323C44.8657 18.2758 44.6387 18.2535 44.4323 18.168C44.226 18.0825 44.0497 17.9378 43.9256 17.7521C43.8015 17.5665 43.7353 17.3482 43.7353 17.1248C43.7353 16.8254 43.8543 16.5382 44.066 16.3264C44.2778 16.1147 44.565 15.9957 44.8644 15.9957ZM42.9826 12.6084C43.2059 12.6084 43.4242 12.6746 43.6099 12.7987C43.7956 12.9228 43.9403 13.0991 44.0257 13.3054C44.1112 13.5117 44.1336 13.7388 44.09 13.9578C44.0464 14.1768 43.9389 14.378 43.781 14.5359C43.6231 14.6938 43.4219 14.8014 43.2029 14.8449C42.9838 14.8885 42.7568 14.8661 42.5505 14.7807C42.3442 14.6952 42.1678 14.5505 42.0438 14.3648C41.9197 14.1791 41.8535 13.9608 41.8535 13.7375C41.8535 13.4381 41.9724 13.1509 42.1842 12.9391C42.3959 12.7274 42.6831 12.6084 42.9826 12.6084ZM40.348 9.78562C40.5713 9.78562 40.7896 9.85184 40.9753 9.97591C41.161 10.1 41.3057 10.2763 41.3912 10.4826C41.4766 10.689 41.499 10.916 41.4554 11.135C41.4118 11.354 41.3043 11.5552 41.1464 11.7131C40.9885 11.871 40.7873 11.9786 40.5683 12.0221C40.3492 12.0657 40.1222 12.0434 39.9159 11.9579C39.7096 11.8724 39.5332 11.7277 39.4092 11.542C39.2851 11.3564 39.2189 11.1381 39.2189 10.9147C39.2189 10.6153 39.3378 10.3281 39.5496 10.1163C39.7613 9.90458 40.0485 9.78562 40.348 9.78562ZM36.9607 7.90377C37.184 7.90377 37.4023 7.96999 37.588 8.09406C37.7736 8.21813 37.9184 8.39447 38.0038 8.60079C38.0893 8.80711 38.1116 9.03413 38.0681 9.25316C38.0245 9.47219 37.917 9.67337 37.7591 9.83128C37.6012 9.98919 37.4 10.0967 37.1809 10.1403C36.9619 10.1839 36.7349 10.1615 36.5286 10.076C36.3222 9.99058 36.1459 9.84586 36.0218 9.66018C35.8978 9.4745 35.8315 9.2562 35.8315 9.03288C35.8315 8.73342 35.9505 8.44623 36.1623 8.23448C36.374 8.02273 36.6612 7.90377 36.9607 7.90377ZM29.0569 9.03288C29.1246 8.82211 30.0354 8.28014 31.6915 8.28014C33.3475 8.28014 34.2132 8.81459 34.3185 9.03288C34.2132 9.25118 33.3023 9.78562 31.6915 9.78562C30.0806 9.78562 29.1246 9.22859 29.0569 9.03288ZM26.4223 7.90377C26.6456 7.90377 26.8639 7.96999 27.0496 8.09406C27.2353 8.21813 27.38 8.39447 27.4654 8.60079C27.5509 8.80711 27.5733 9.03413 27.5297 9.25316C27.4861 9.47219 27.3786 9.67337 27.2207 9.83128C27.0628 9.98919 26.8616 10.0967 26.6426 10.1403C26.4235 10.1839 26.1965 10.1615 25.9902 10.076C25.7839 9.99058 25.6075 9.84586 25.4835 9.66018C25.3594 9.4745 25.2932 9.2562 25.2932 9.03288C25.2932 8.73342 25.4121 8.44623 25.6239 8.23448C25.8356 8.02273 26.1228 7.90377 26.4223 7.90377ZM23.0349 9.78562C23.2583 9.78562 23.4766 9.85184 23.6622 9.97591C23.8479 10.1 23.9927 10.2763 24.0781 10.4826C24.1636 10.689 24.1859 10.916 24.1424 11.135C24.0988 11.354 23.9913 11.5552 23.8334 11.7131C23.6754 11.871 23.4743 11.9786 23.2552 12.0221C23.0362 12.0657 22.8092 12.0434 22.6029 11.9579C22.3965 11.8724 22.2202 11.7277 22.0961 11.542C21.9721 11.3564 21.9058 11.1381 21.9058 10.9147C21.9058 10.6153 22.0248 10.3281 22.2365 10.1163C22.4483 9.90458 22.7355 9.78562 23.0349 9.78562ZM20.4004 12.6084C20.6237 12.6084 20.842 12.6746 21.0277 12.7987C21.2133 12.9228 21.3581 13.0991 21.4435 13.3054C21.529 13.5117 21.5513 13.7388 21.5078 13.9578C21.4642 14.1768 21.3567 14.378 21.1988 14.5359C21.0408 14.6938 20.8397 14.8014 20.6206 14.8449C20.4016 14.8885 20.1746 14.8661 19.9683 14.7807C19.7619 14.6952 19.5856 14.5505 19.4615 14.3648C19.3375 14.1791 19.2712 13.9608 19.2712 13.7375C19.2712 13.4381 19.3902 13.1509 19.602 12.9391C19.8137 12.7274 20.1009 12.6084 20.4004 12.6084ZM18.5185 15.9957C18.7418 15.9957 18.9601 16.062 19.1458 16.186C19.3315 16.3101 19.4762 16.4864 19.5617 16.6928C19.6471 16.8991 19.6695 17.1261 19.6259 17.3451C19.5824 17.5641 19.4748 17.7653 19.3169 17.9232C19.159 18.0812 18.9578 18.1887 18.7388 18.2323C18.5198 18.2758 18.2927 18.2535 18.0864 18.168C17.8801 18.0825 17.7037 17.9378 17.5797 17.7521C17.4556 17.5665 17.3894 17.3482 17.3894 17.1248C17.3894 16.8254 17.5084 16.5382 17.7201 16.3264C17.9318 16.1147 18.219 15.9957 18.5185 15.9957ZM17.013 20.8886C17.013 20.6652 17.0792 20.4469 17.2033 20.2613C17.3274 20.0756 17.5037 19.9308 17.71 19.8454C17.9164 19.7599 18.1434 19.7376 18.3624 19.7811C18.5814 19.8247 18.7826 19.9322 18.9405 20.0901C19.0984 20.2481 19.206 20.4492 19.2495 20.6683C19.2931 20.8873 19.2708 21.1143 19.1853 21.3206C19.0998 21.527 18.9551 21.7033 18.7694 21.8274C18.5838 21.9514 18.3654 22.0177 18.1421 22.0177C17.8427 22.0177 17.5555 21.8987 17.3437 21.687C17.132 21.4752 17.013 21.188 17.013 20.8886ZM17.3894 25.0286C17.3894 24.7309 17.4777 24.4398 17.6431 24.1922C17.8085 23.9446 18.0437 23.7517 18.3187 23.6377C18.5938 23.5238 18.8965 23.494 19.1886 23.5521C19.4806 23.6102 19.7489 23.7535 19.9594 23.9641C20.17 24.1746 20.3133 24.4429 20.3714 24.7349C20.4295 25.027 20.3997 25.3297 20.2858 25.6047C20.1718 25.8798 19.9788 26.115 19.7313 26.2804C19.4837 26.4458 19.1926 26.5341 18.8949 26.5341C18.4956 26.5341 18.1127 26.3755 17.8303 26.0932C17.548 25.8108 17.3894 25.4279 17.3894 25.0286ZM21.1531 31.2387C20.7809 31.2387 20.4171 31.1284 20.1076 30.9216C19.7981 30.7148 19.5569 30.4209 19.4145 30.077C19.2721 29.7332 19.2348 29.3548 19.3074 28.9898C19.38 28.6247 19.5592 28.2894 19.8224 28.0262C20.0856 27.763 20.4209 27.5838 20.786 27.5112C21.151 27.4386 21.5294 27.4758 21.8732 27.6183C22.2171 27.7607 22.511 28.0019 22.7178 28.3114C22.9246 28.6209 23.0349 28.9847 23.0349 29.3569C23.0349 29.856 22.8367 30.3346 22.4838 30.6876C22.1308 31.0405 21.6522 31.2387 21.1531 31.2387ZM25.3835 35.3788C24.9369 35.3788 24.5003 35.2464 24.1289 34.9982C23.7575 34.7501 23.4681 34.3974 23.2972 33.9848C23.1263 33.5721 23.0815 33.1181 23.1687 32.68C23.2558 32.242 23.4709 31.8396 23.7867 31.5238C24.1025 31.208 24.5049 30.9929 24.9429 30.9058C25.381 30.8186 25.835 30.8633 26.2477 31.0343C26.6603 31.2052 27.013 31.4946 27.2611 31.866C27.5093 32.2374 27.6417 32.674 27.6417 33.1206C27.6417 33.7195 27.4038 34.2939 26.9803 34.7174C26.5568 35.1409 25.9824 35.3788 25.3835 35.3788ZM31.6915 36.8843C31.1704 36.8843 30.661 36.7298 30.2278 36.4403C29.7945 36.1508 29.4568 35.7393 29.2574 35.2579C29.058 34.7765 29.0058 34.2468 29.1075 33.7357C29.2092 33.2247 29.4601 32.7552 29.8285 32.3868C30.197 32.0183 30.6664 31.7674 31.1775 31.6657C31.6885 31.5641 32.2183 31.6162 32.6997 31.8157C33.1811 32.0151 33.5926 32.3527 33.8821 32.786C34.1715 33.2193 34.3261 33.7286 34.3261 34.2497C34.3261 34.9484 34.0485 35.6186 33.5544 36.1126C33.0603 36.6067 32.3902 36.8843 31.6915 36.8843ZM34.7024 31.3893C34.3185 30.9848 33.8562 30.6626 33.3437 30.4425C32.8312 30.2224 32.2793 30.1089 31.7216 30.1089C31.1638 30.1089 30.6119 30.2224 30.0995 30.4425C29.587 30.6626 29.1247 30.9848 28.7407 31.3893C28.4222 30.7745 27.9403 30.2595 27.348 29.9009C26.7557 29.5423 26.0759 29.3541 25.3835 29.3569C25.097 29.3609 24.8117 29.3962 24.5329 29.4623C24.5329 29.4623 24.5329 29.3945 24.5329 29.3569C24.5317 28.5593 24.2484 27.7878 23.7332 27.1789C23.218 26.5701 22.504 26.163 21.7177 26.0298C21.8318 25.7081 21.8928 25.3699 21.8983 25.0286C21.8948 24.4844 21.7438 23.9514 21.4615 23.4862C21.1792 23.0209 20.776 22.6409 20.295 22.3865C20.6303 21.912 20.7963 21.3385 20.7662 20.7582C20.7362 20.178 20.5119 19.6247 20.1294 19.1874C20.4453 18.9443 20.7012 18.6319 20.8774 18.2743C21.0536 17.9167 21.1453 17.5235 21.1456 17.1248C21.1421 16.8424 21.0912 16.5625 20.995 16.2968C21.5724 16.1613 22.0872 15.8348 22.456 15.3704C22.8248 14.9059 23.0262 14.3306 23.0274 13.7375C23.0341 13.675 23.0366 13.6122 23.0349 13.5493C23.628 13.5481 24.2034 13.3468 24.6678 12.9779C25.1323 12.6091 25.4587 12.0943 25.5943 11.5169C25.8599 11.6131 26.1398 11.664 26.4223 11.6675C26.843 11.6642 27.2568 11.5599 27.6288 11.3634C28.0008 11.167 28.3202 10.884 28.5601 10.5384C29.5216 11.0547 30.6003 11.314 31.6915 11.2911C32.7827 11.314 33.8613 11.0547 34.8229 10.5384C35.0628 10.884 35.3821 11.167 35.7542 11.3634C36.1262 11.5599 36.5399 11.6642 36.9607 11.6675C37.2431 11.664 37.523 11.6131 37.7887 11.5169C37.9242 12.0943 38.2507 12.6091 38.7151 12.9779C39.1796 13.3468 39.7549 13.5481 40.348 13.5493C40.3439 13.612 40.3439 13.6749 40.348 13.7375C40.3492 14.3306 40.5506 14.9059 40.9194 15.3704C41.2882 15.8348 41.803 16.1613 42.3804 16.2968C42.2842 16.5625 42.2333 16.8424 42.2298 17.1248C42.2301 17.5235 42.3218 17.9167 42.498 18.2743C42.6742 18.6319 42.9301 18.9443 43.246 19.1874C42.8635 19.6247 42.6392 20.178 42.6092 20.7582C42.5791 21.3385 42.7451 21.912 43.0804 22.3865C42.5994 22.6409 42.1962 23.0209 41.9139 23.4862C41.6316 23.9514 41.4806 24.4844 41.4771 25.0286C41.4826 25.3699 41.5436 25.7081 41.6578 26.0298C40.8714 26.163 40.1574 26.5701 39.6422 27.1789C39.127 27.7878 38.8437 28.5593 38.8425 29.3569C38.8425 29.3569 38.8425 29.4246 38.8425 29.4623C38.5661 29.3968 38.2834 29.3614 37.9994 29.3569C37.3122 29.3596 36.6387 29.5504 36.0522 29.9087C35.4657 30.267 34.9885 30.779 34.6723 31.3893H34.7024ZM37.9994 35.3788C37.5528 35.3788 37.1162 35.2464 36.7448 34.9982C36.3735 34.7501 36.084 34.3974 35.9131 33.9848C35.7422 33.5721 35.6975 33.1181 35.7846 32.68C35.8717 32.242 36.0868 31.8396 36.4026 31.5238C36.7185 31.208 37.1208 30.9929 37.5589 30.9058C37.9969 30.8186 38.451 30.8633 38.8636 31.0343C39.2763 31.2052 39.6289 31.4946 39.8771 31.866C40.1252 32.2374 40.2577 32.674 40.2577 33.1206C40.2577 33.7195 40.0197 34.2939 39.5962 34.7174C39.1727 35.1409 38.5984 35.3788 37.9994 35.3788ZM42.2298 31.2387C41.8576 31.2387 41.4938 31.1284 41.1843 30.9216C40.8749 30.7148 40.6337 30.4209 40.4912 30.077C40.3488 29.7332 40.3115 29.3548 40.3841 28.9898C40.4568 28.6247 40.636 28.2894 40.8992 28.0262C41.1624 27.763 41.4977 27.5838 41.8627 27.5112C42.2278 27.4386 42.6061 27.4758 42.95 27.6183C43.2939 27.7607 43.5878 28.0019 43.7945 28.3114C44.0013 28.6209 44.1117 28.9847 44.1117 29.3569C44.1117 29.856 43.9134 30.3346 43.5605 30.6876C43.2076 31.0405 42.7289 31.2387 42.2298 31.2387ZM44.4881 26.5341C44.1903 26.5341 43.8992 26.4458 43.6517 26.2804C43.4041 26.115 43.2111 25.8798 43.0972 25.6047C42.9832 25.3297 42.9534 25.027 43.0115 24.7349C43.0696 24.4429 43.213 24.1746 43.4235 23.9641C43.6341 23.7535 43.9023 23.6102 44.1944 23.5521C44.4864 23.494 44.7891 23.5238 45.0642 23.6377C45.3393 23.7517 45.5744 23.9446 45.7398 24.1922C45.9053 24.4398 45.9935 24.7309 45.9935 25.0286C45.9935 25.4279 45.8349 25.8108 45.5526 26.0932C45.2703 26.3755 44.8873 26.5341 44.4881 26.5341ZM45.2408 22.0177C45.0175 22.0177 44.7992 21.9514 44.6135 21.8274C44.4278 21.7033 44.2831 21.527 44.1976 21.3206C44.1122 21.1143 44.0898 20.8873 44.1334 20.6683C44.177 20.4492 44.2845 20.2481 44.4424 20.0901C44.6003 19.9322 44.8015 19.8247 45.0205 19.7811C45.2396 19.7376 45.4666 19.7599 45.6729 19.8454C45.8792 19.9308 46.0556 20.0756 46.1796 20.2613C46.3037 20.4469 46.3699 20.6652 46.3699 20.8886C46.3699 21.188 46.251 21.4752 46.0392 21.687C45.8275 21.8987 45.5403 22.0177 45.2408 22.0177Z" fill="black"/>
<path d="M6.47463 36.1316L4.96914 35.0025V33.7604C5.43751 33.6208 5.8578 33.3536 6.18302 32.9888C6.50824 32.624 6.72557 32.1759 6.81071 31.6946C6.89585 31.2133 6.84544 30.7179 6.66512 30.2636C6.48479 29.8094 6.18167 29.4142 5.78963 29.1224C5.3976 28.8305 4.93211 28.6535 4.44522 28.611C3.95832 28.5686 3.46922 28.6624 3.0326 28.882C2.59597 29.1016 2.22904 29.4383 1.97283 29.8546C1.71662 30.2708 1.58124 30.75 1.58181 31.2388C1.58181 31.4384 1.66112 31.6299 1.80228 31.771C1.94345 31.9122 2.13491 31.9915 2.33455 31.9915C2.53419 31.9915 2.72565 31.9122 2.86682 31.771C3.00798 31.6299 3.08729 31.4384 3.08729 31.2388C3.08729 31.0154 3.15351 30.7971 3.27758 30.6115C3.40165 30.4258 3.57799 30.2811 3.78431 30.1956C3.99063 30.1101 4.21766 30.0878 4.43668 30.1313C4.65571 30.1749 4.8569 30.2824 5.01481 30.4404C5.17271 30.5983 5.28025 30.7994 5.32382 31.0185C5.36739 31.2375 5.34503 31.4645 5.25957 31.6708C5.17411 31.8772 5.02939 32.0535 4.8437 32.1776C4.65802 32.3016 4.43972 32.3679 4.2164 32.3679C4.01676 32.3679 3.8253 32.4472 3.68413 32.5883C3.54297 32.7295 3.46366 32.921 3.46366 33.1206V35.0025L1.95818 36.1316C1.49074 36.4821 1.11135 36.9367 0.850043 37.4594C0.588737 37.982 0.452698 38.5582 0.452698 39.1425V44.4117C0.452698 44.6114 0.532004 44.8028 0.67317 44.944C0.814337 45.0852 1.0058 45.1645 1.20544 45.1645C1.40508 45.1645 1.59654 45.0852 1.73771 44.944C1.87887 44.8028 1.95818 44.6114 1.95818 44.4117V42.1535C2.40185 42.4881 2.91726 42.7148 3.46366 42.8159V45.1645C3.46366 45.3641 3.54297 45.5556 3.68413 45.6967C3.8253 45.8379 4.01676 45.9172 4.2164 45.9172C4.41604 45.9172 4.6075 45.8379 4.74867 45.6967C4.88984 45.5556 4.96914 45.3641 4.96914 45.1645V42.8234C5.5162 42.7201 6.03166 42.4907 6.47463 42.1535V44.4117C6.47463 44.6114 6.55393 44.8028 6.6951 44.944C6.83626 45.0852 7.02773 45.1645 7.22737 45.1645C7.42701 45.1645 7.61847 45.0852 7.75963 44.944C7.9008 44.8028 7.98011 44.6114 7.98011 44.4117V39.1425C7.98011 38.5582 7.84407 37.982 7.58276 37.4594C7.32146 36.9367 6.94206 36.4821 6.47463 36.1316ZM6.35419 39.8953C6.20602 40.342 5.91834 40.7294 5.53349 41.0005C5.14865 41.2715 4.68697 41.4118 4.2164 41.4008C3.74308 41.3992 3.28222 41.2489 2.89894 40.9712C2.51565 40.6935 2.22932 40.3024 2.08039 39.8531C1.93146 39.4038 1.92747 38.9191 2.06897 38.4674C2.21048 38.0157 2.49034 37.6199 2.869 37.336L4.2164 36.3198L5.56381 37.336C5.95815 37.6167 6.24918 38.0194 6.39202 38.4819C6.53485 38.9444 6.52156 39.4411 6.35419 39.8953Z" fill="black"/>
<path d="M15.5075 36.2144L14.002 35.0853V33.7604C14.4704 33.6208 14.8907 33.3536 15.2159 32.9888C15.5411 32.624 15.7585 32.1759 15.8436 31.6946C15.9287 31.2133 15.8783 30.7179 15.698 30.2636C15.5177 29.8094 15.2146 29.4142 14.8225 29.1224C14.4305 28.8305 13.965 28.6535 13.4781 28.611C12.9912 28.5686 12.5021 28.6624 12.0655 28.882C11.6289 29.1016 11.2619 29.4383 11.0057 29.8546C10.7495 30.2708 10.6141 30.75 10.6147 31.2388C10.6147 31.4384 10.694 31.6299 10.8352 31.771C10.9763 31.9122 11.1678 31.9915 11.3674 31.9915C11.5671 31.9915 11.7586 31.9122 11.8997 31.771C12.0409 31.6299 12.1202 31.4384 12.1202 31.2388C12.1202 31.0154 12.1864 30.7971 12.3105 30.6115C12.4345 30.4258 12.6109 30.2811 12.8172 30.1956C13.0235 30.1101 13.2506 30.0878 13.4696 30.1313C13.6886 30.1749 13.8898 30.2824 14.0477 30.4404C14.2056 30.5983 14.3131 30.7994 14.3567 31.0185C14.4003 31.2375 14.3779 31.4645 14.2925 31.6708C14.207 31.8772 14.0623 32.0535 13.8766 32.1776C13.6909 32.3016 13.4726 32.3679 13.2493 32.3679C13.0497 32.3679 12.8582 32.4472 12.717 32.5883C12.5759 32.7295 12.4966 32.921 12.4966 33.1206V35.0853L10.9911 36.2144C10.5236 36.565 10.1442 37.0195 9.88294 37.5422C9.62164 38.0648 9.4856 38.641 9.4856 39.2253V44.4945C9.4856 44.6942 9.5649 44.8856 9.70607 45.0268C9.84723 45.168 10.0387 45.2473 10.2383 45.2473C10.438 45.2473 10.6294 45.168 10.7706 45.0268C10.9118 44.8856 10.9911 44.6942 10.9911 44.4945V42.2363C11.434 42.5735 11.9495 42.8029 12.4966 42.9062V45.2473C12.4966 45.4469 12.5759 45.6384 12.717 45.7795C12.8582 45.9207 13.0497 46 13.2493 46C13.4489 46 13.6404 45.9207 13.7816 45.7795C13.9227 45.6384 14.002 45.4469 14.002 45.2473V42.9062C14.5484 42.8052 15.0638 42.5784 15.5075 42.2438V44.502C15.5075 44.7017 15.5868 44.8932 15.728 45.0343C15.8692 45.1755 16.0606 45.2548 16.2603 45.2548C16.4599 45.2548 16.6514 45.1755 16.7925 45.0343C16.9337 44.8932 17.013 44.7017 17.013 44.502V39.2329C17.0142 38.6473 16.8787 38.0695 16.6173 37.5455C16.356 37.0215 15.976 36.5657 15.5075 36.2144ZM15.3871 39.9781C15.2763 40.3159 15.0874 40.6228 14.8357 40.8737C14.5839 41.1247 14.2765 41.3128 13.9383 41.4225C13.6002 41.5322 13.241 41.5606 12.8898 41.5053C12.5386 41.4499 12.2055 41.3125 11.9175 41.1041C11.6295 40.8957 11.3947 40.6223 11.2324 40.306C11.07 39.9898 10.9846 39.6397 10.983 39.2842C10.9815 38.9287 11.0639 38.5779 11.2236 38.2603C11.3833 37.9427 11.6157 37.6672 11.9019 37.4564L13.2493 36.4026L14.5967 37.4188C14.9831 37.6974 15.2689 38.0936 15.4114 38.5481C15.5539 39.0027 15.5453 39.4911 15.3871 39.9404V39.9781Z" fill="black"/>
<path d="M9.68897 15.5667C9.75938 15.6419 9.84448 15.7018 9.939 15.7428C10.0335 15.7838 10.1354 15.805 10.2385 15.805C10.3415 15.805 10.4434 15.7838 10.5379 15.7428C10.6325 15.7018 10.7176 15.6419 10.788 15.5667L19.8209 5.78105C19.9352 5.65738 20.0047 5.49896 20.0184 5.33111C20.032 5.16326 19.989 4.99569 19.8961 4.85518L16.8852 0.338733C16.817 0.235186 16.7243 0.150085 16.6153 0.0909911C16.5063 0.0318975 16.3844 0.000641424 16.2604 0H4.21655C4.09256 0.000641424 3.97066 0.0318975 3.86166 0.0909911C3.75267 0.150085 3.65996 0.235186 3.59177 0.338733L0.580806 4.85518C0.487978 4.99569 0.444946 5.16326 0.458592 5.33111C0.472238 5.49896 0.541774 5.65738 0.65608 5.78105L9.68897 15.5667ZM2.92183 6.02193H6.68553L8.55986 12.1116L2.92183 6.02193ZM10.2385 12.4955L8.24371 6.02193H12.2332L10.2385 12.4955ZM11.9321 12.1116L13.8065 6.02193H17.5702L11.9321 12.1116ZM17.8637 4.51645H14.6571L16.2604 2.10767L17.8637 4.51645ZM14.8528 1.50548L13.2494 3.91425L11.6461 1.50548H14.8528ZM11.8418 4.51645H8.63513L10.2385 2.10767L11.8418 4.51645ZM8.83085 1.50548L7.22751 3.91425L5.62417 1.50548H8.83085ZM4.21655 2.10767L5.81988 4.51645H2.61321L4.21655 2.10767Z" fill="black"/>
</svg>
