<svg width="20" height="47" viewBox="0 0 20 47" fill="none" xmlns="http://www.w3.org/2000/svg">
<path d="M11.637 0H11.9722C12.8102 0.274773 13.0895 0.615492 13.0895 1.50851C13.0679 1.71807 13.1263 1.92806 13.2533 2.09766C13.3803 2.26726 13.5668 2.38438 13.7767 2.42625C14.5923 2.67355 15.4051 2.92634 16.2207 3.16264C16.6813 3.2794 17.0952 3.53065 17.4078 3.88331C17.7204 4.23596 17.9172 4.67348 17.9721 5.13826C18.3184 7.06168 18.676 8.96036 19.0251 10.8728C19.0754 11.1476 19.0922 11.4361 19.1229 11.7191V12.5104C19.0503 13.0847 18.986 13.6617 18.8966 14.2333C18.8649 14.464 18.7555 14.6776 18.5859 14.84C18.4163 15.0023 18.1962 15.1041 17.9609 15.129C17.4414 15.1913 16.9218 15.2399 16.4023 15.2747C15.7403 15.3186 15.3437 15.0658 15.2291 14.4229C15.1425 13.9283 14.9219 13.4639 14.8185 12.9803C14.7627 12.6698 14.6928 12.3621 14.6202 12.0543C14.6069 11.9468 14.5721 11.8429 14.518 11.7486C14.4638 11.6543 14.3913 11.5715 14.3046 11.5048C14.3046 11.9774 14.2906 12.3758 14.3046 12.7742C14.3425 14.3291 14.521 15.8776 14.8381 17.4014C15.1398 18.7231 15.595 20.0063 15.9889 21.3032C16.92 24.3916 17.8659 27.4773 18.8268 30.5603C18.9509 30.8687 18.9776 31.2067 18.9034 31.5303C18.8291 31.8538 18.6574 32.1478 18.4106 32.3738C17.8771 32.8794 17.2542 32.9481 16.5559 32.7228C14.4163 32.0331 12.2571 31.3874 10.2209 30.4367C7.67946 29.2576 5.44427 27.5249 3.68472 25.3698C3.50145 25.1488 3.37504 24.8875 3.31621 24.6082C3.25738 24.3288 3.26785 24.0397 3.34674 23.7652C3.56182 22.8392 3.75734 21.9077 3.96404 20.979C3.98079 20.8601 4.0127 20.7438 4.05901 20.6327C4.10669 20.5145 4.19769 20.4182 4.31403 20.3627C4.43038 20.3073 4.56363 20.2968 4.68749 20.3332C4.76117 20.351 4.83042 20.3832 4.891 20.4282C4.95159 20.4731 5.00224 20.5296 5.03988 20.5944C5.07751 20.6592 5.10134 20.7309 5.10991 20.805C5.11847 20.8791 5.1116 20.9542 5.08971 21.0257C4.97798 21.5752 4.85229 22.1248 4.73218 22.6606C4.63162 23.1084 4.54224 23.5591 4.42492 24.0042C4.38732 24.1407 4.38607 24.2845 4.4213 24.4217C4.45652 24.5588 4.52703 24.6847 4.62604 24.7873C5.86876 26.252 7.33833 27.515 8.98068 28.5297C10.6566 29.6013 12.5337 30.2113 14.394 30.8626C15.2319 31.1511 16.0699 31.4121 16.8855 31.6869C17.0078 31.7525 17.1476 31.7795 17.286 31.7643C17.4244 31.749 17.5547 31.6923 17.6592 31.6017C17.8967 31.3736 17.8436 31.1126 17.7598 30.8378C16.4945 26.686 15.204 22.5314 13.9554 18.3768C13.5089 16.7639 13.2687 15.1024 13.2404 13.4309C13.1705 11.5982 13.3409 9.77369 13.3884 7.93546C13.3884 7.89149 13.3884 7.84753 13.3884 7.80357C13.4303 7.36942 13.6063 7.1496 13.9303 7.13312C14.2543 7.11663 14.4498 7.31996 14.556 7.7019C15.1146 9.77369 15.6733 11.8427 16.2319 13.9145C16.2878 14.1261 16.366 14.1893 16.5894 14.1673C16.8737 14.1175 17.1612 14.0881 17.4498 14.0794C17.7291 14.0794 17.7989 13.9338 17.8492 13.6865C18.1034 12.3895 17.9553 11.1173 17.6956 9.83964C17.3911 8.33663 17.1174 6.81713 16.8576 5.31961C16.8309 5.05791 16.7214 4.81105 16.5445 4.61384C16.3676 4.41664 16.1322 4.27906 15.8716 4.22052C15.0615 3.98971 14.2599 3.73692 13.4554 3.49237C13.0118 3.38527 12.6204 3.12878 12.3489 2.76741C12.0775 2.40603 11.9432 1.96258 11.9694 1.514C11.9694 1.0881 11.8828 1.03315 11.4778 1.19526C11.1818 1.33799 10.9284 1.55375 10.7424 1.8215C10.5564 2.08924 10.4441 2.39984 10.4164 2.723C10.4164 5.06957 10.4108 7.41522 10.3996 9.75995C10.4069 9.90274 10.3956 10.0459 10.3661 10.1859C10.3413 10.3063 10.2724 10.4137 10.1726 10.4876C10.0727 10.5615 9.9488 10.5969 9.82424 10.587C9.69438 10.5884 9.56865 10.5422 9.47156 10.4574C9.37447 10.3725 9.31299 10.2552 9.29911 10.1281C9.29072 10.0184 9.29072 9.90818 9.29911 9.79842V2.49769C9.29911 1.91517 8.61756 1.18977 8.02819 1.12382C7.83546 1.10184 7.79914 1.18702 7.79635 1.34639C7.80747 1.57553 7.7849 1.80504 7.72931 2.02783C7.64312 2.35861 7.47159 2.66191 7.23133 2.90837C6.99106 3.15483 6.69019 3.33611 6.35784 3.43467C5.51987 3.70944 4.6819 3.96498 3.84393 4.19579C3.57047 4.25194 3.32242 4.39261 3.13599 4.59726C2.94956 4.80191 2.83451 5.05982 2.80764 5.33335C2.46687 7.31447 2.07582 9.28734 1.73225 11.2657C1.62752 12.1376 1.66999 13.0205 1.85794 13.8788C1.88029 14.0217 1.97526 14.0492 2.08978 14.0602C2.46408 14.1014 2.84116 14.1316 3.20708 14.1783C3.39422 14.2003 3.39422 14.0739 3.42774 13.9585L4.41654 10.3205C4.65955 9.43297 4.89698 8.5482 5.14278 7.66068C5.24613 7.28699 5.4668 7.11114 5.76288 7.14686C6.05896 7.18258 6.25728 7.3969 6.26845 7.77884C6.34387 9.81766 6.52264 11.851 6.4165 13.8925C6.36831 14.9855 6.21303 16.0713 5.95282 17.1349C5.9419 17.2108 5.91575 17.2839 5.8759 17.3499C5.83605 17.4158 5.78329 17.4734 5.72068 17.5191C5.65806 17.5649 5.58683 17.5979 5.51113 17.6164C5.43542 17.6349 5.35674 17.6384 5.27965 17.6267C5.20174 17.6074 5.12875 17.5724 5.06529 17.524C5.00183 17.4755 4.94927 17.4146 4.91095 17.3451C4.87262 17.2757 4.84936 17.1991 4.84263 17.1204C4.8359 17.0416 4.84584 16.9624 4.87184 16.8876C5.25521 15.2108 5.40648 13.4907 5.32155 11.774C5.32258 11.7419 5.31635 11.71 5.30331 11.6805C5.29027 11.6511 5.27074 11.6248 5.24613 11.6037L4.70145 13.5628C4.61207 13.8898 4.53107 14.2195 4.42213 14.5438C4.36349 14.7824 4.2165 14.9909 4.00988 15.1286C3.80326 15.2663 3.55187 15.3233 3.30484 15.2884C2.77412 15.2444 2.24062 15.195 1.7127 15.1345C1.18478 15.0741 0.869142 14.6839 0.754619 14.1206C0.479927 12.5971 0.526514 11.0342 0.891487 9.52914C1.20992 8.00965 1.4641 6.47916 1.7546 4.94592C1.81625 4.54759 1.99108 4.17451 2.25894 3.86969C2.5268 3.56487 2.87678 3.34072 3.26853 3.22309C4.10649 2.94832 4.94446 2.69828 5.80757 2.44274C6.48353 2.23666 6.66509 2.00585 6.68185 1.31342C6.70141 0.571529 7.02263 0.18135 7.76563 0H8.11478C8.73519 0.128204 9.3001 0.442051 9.73206 0.898509C9.89127 1.06337 9.98345 1.04689 10.1147 0.898509C10.4969 0.429878 11.0369 0.111177 11.637 0V0Z" fill="black"/>
<path d="M11.8438 4.53103C11.8454 4.5864 11.8354 4.64151 11.8144 4.69291C11.7934 4.74432 11.7619 4.79093 11.7218 4.82985C11.6817 4.86876 11.6339 4.89915 11.5814 4.91912C11.5288 4.93909 11.4727 4.94822 11.4164 4.94593C11.3603 4.9498 11.3041 4.94206 11.2512 4.92321C11.1984 4.90437 11.1501 4.87483 11.1096 4.83651C11.0691 4.7982 11.0372 4.75195 11.0159 4.70075C10.9947 4.64955 10.9846 4.59454 10.9863 4.53927C10.9847 4.48148 10.9952 4.424 11.0169 4.37031C11.0387 4.31662 11.0714 4.26785 11.1129 4.22698C11.1545 4.1861 11.2041 4.15398 11.2586 4.13256C11.3132 4.11114 11.3716 4.10087 11.4304 4.10238C11.4863 4.10344 11.5414 4.11542 11.5925 4.13761C11.6436 4.1598 11.6898 4.19176 11.7282 4.23165C11.7667 4.27153 11.7967 4.31853 11.8166 4.36993C11.8364 4.42132 11.8457 4.47608 11.8438 4.53103Z" fill="#050505"/>
<path d="M11.8353 3.0225C11.8241 3.12415 11.7727 3.21737 11.6922 3.28212C11.6118 3.34687 11.5087 3.37796 11.4052 3.36872C11.3494 3.37103 11.2937 3.36196 11.2417 3.3421C11.1897 3.32224 11.1423 3.29201 11.1027 3.25331C11.0631 3.21461 11.0321 3.16827 11.0115 3.1172C10.991 3.06613 10.9814 3.01144 10.9834 2.95656C10.9845 2.89882 10.9971 2.84186 11.0206 2.78893C11.0441 2.736 11.0779 2.68814 11.1202 2.64808C11.1625 2.60802 11.2124 2.57654 11.267 2.55545C11.3217 2.53436 11.38 2.52407 11.4387 2.52516C11.4986 2.53049 11.5568 2.54783 11.6097 2.5761C11.6626 2.60437 11.7091 2.64299 11.7462 2.68957C11.7834 2.73615 11.8104 2.78972 11.8258 2.84697C11.8411 2.90423 11.8443 2.96396 11.8353 3.0225Z" fill="#060606"/>
<path d="M15.7152 31.8957C15.4359 38.2786 15.0281 44.2605 14.9052 45.9696H11.8969C11.8438 44.4968 11.665 39.9575 11.4667 35.4073C11.3801 33.4042 11.3019 31.7473 11.2349 30.3762C10.7619 30.1508 10.2861 29.8962 9.80754 29.6123C9.65112 29.5216 9.50029 29.4282 9.34945 29.3375C9.27124 30.89 9.17627 32.8739 9.07013 35.41C8.86902 39.9603 8.69304 44.4995 8.63718 45.9723H5.62328C5.47245 43.8923 4.88587 35.377 4.65962 27.5872C4.63448 26.7244 4.63448 25.9166 4.65962 25.161C4.2574 24.6691 3.93338 24.213 3.66802 23.8201C3.60099 24.9521 3.58143 26.2133 3.62333 27.6174C3.86914 36.5448 4.60655 46.4367 4.61493 46.5218C4.62414 46.6518 4.68321 46.7735 4.78018 46.8623C4.87716 46.9511 5.0048 47.0003 5.13726 47H9.13437C9.27005 47 9.40043 46.9482 9.49792 46.8553C9.59541 46.7625 9.65235 46.636 9.65671 46.5026C9.82151 42.1062 10.0533 36.5201 10.2628 32.0028C10.4751 36.5201 10.707 42.1007 10.869 46.5026C10.874 46.6358 10.9312 46.7619 11.0285 46.8546C11.1259 46.9472 11.2558 46.9993 11.3913 47H15.3912C15.5237 47.0003 15.6513 46.9511 15.7483 46.8623C15.8453 46.7735 15.9043 46.6518 15.9135 46.5218C15.9135 46.4422 16.4331 39.5508 16.7515 32.0825C16.4247 32.033 16.0783 31.9726 15.7152 31.8957Z" fill="black"/>
</svg>
