<svg width="48" height="47" viewBox="0 0 48 47" fill="none" xmlns="http://www.w3.org/2000/svg">
<path d="M45.4116 31.4536L43.2131 30.6439C43.7588 29.5458 44.0441 28.3367 44.047 27.1104V26.0392L45.1758 24.6276C46.4056 23.0863 47.0767 21.1737 47.0794 19.2019C47.0823 18.061 46.859 16.9308 46.4223 15.8767C45.9856 14.8227 45.3442 13.8658 44.5352 13.0612L43.0106 11.5367C42.6808 11.207 42.2819 10.9546 41.8428 10.7977C41.4036 10.6408 40.9351 10.5833 40.471 10.6292C40.0069 10.6752 39.5588 10.8236 39.159 11.0636C38.7592 11.3036 38.4176 11.6294 38.1588 12.0173L38.0564 12.169C36.8857 12.2682 35.7514 12.625 34.7347 13.214C33.7181 13.803 32.8442 14.6096 32.1758 15.5759L27.252 22.7157C27.2133 22.6687 27.1693 22.6285 27.1345 22.5785L14.9828 4.96242C14.3144 3.99612 13.4406 3.18959 12.4239 2.60059C11.4073 2.0116 10.273 1.65471 9.10221 1.55551L8.99987 1.40389C8.74119 1.0158 8.39962 0.689955 7.99978 0.449841C7.59995 0.209727 7.15181 0.0613316 6.68769 0.0153543C6.22356 -0.0306229 5.75502 0.0269644 5.31584 0.183963C4.87667 0.340963 4.4778 0.593461 4.14801 0.923251L2.62119 2.44628C1.81203 3.25097 1.17052 4.20818 0.733803 5.26249C0.297089 6.3168 0.0738461 7.44726 0.0769983 8.58843C0.0796956 10.5602 0.750744 12.4729 1.98059 14.0142L3.10941 15.4258V16.497C3.11082 17.7292 3.39755 18.9443 3.94711 20.0472C4.39234 20.9393 4.62459 21.9225 4.62562 22.9196V35.6285C4.62562 35.8295 4.70549 36.0223 4.84766 36.1645C4.98983 36.3067 5.18266 36.3866 5.38372 36.3866H8.41613C8.61719 36.3866 8.81002 36.3067 8.95219 36.1645C9.09436 36.0223 9.17423 35.8295 9.17423 35.6285V23.7899C9.17239 22.8449 9.42658 21.9171 9.90979 21.105C10.393 20.2929 11.0872 19.6268 11.9186 19.1776L20.263 32.8455L20.0242 33.1919C19.8284 33.4758 19.5666 33.7078 19.2613 33.8681C18.956 34.0284 18.6163 34.1122 18.2715 34.1122C17.3637 34.115 16.487 34.4439 15.8014 35.0389C15.1158 35.6339 14.6668 36.4555 14.5363 37.3539L1.74482 42.067C1.18442 42.2735 0.714481 42.6705 0.417257 43.1885C0.120032 43.7065 0.0144575 44.3126 0.11901 44.9006C0.223563 45.4886 0.531583 46.0211 0.98916 46.4049C1.44674 46.7887 2.02472 46.9994 2.62195 47H20.9028C22.0793 46.9969 23.2352 46.6911 24.2593 46.1119C25.2834 45.5328 26.1412 44.6998 26.7501 43.6932L31.21 36.3866H37.9821V46.2419C37.9821 46.443 38.062 46.6358 38.2042 46.778C38.3464 46.9201 38.5392 47 38.7402 47H41.7727C41.9737 47 42.1665 46.9201 42.3087 46.778C42.4509 46.6358 42.5308 46.443 42.5308 46.2419V36.3866H44.5344C45.1317 36.3859 45.7096 36.1753 46.1672 35.7915C46.6248 35.4076 46.9328 34.8751 47.0374 34.2871C47.1419 33.6991 47.0364 33.0931 46.7391 32.5751C46.4419 32.057 45.972 31.6601 45.4116 31.4536ZM41.0146 42.4514H39.4984V34.4034C39.5002 33.3429 39.2517 32.2969 38.7731 31.3506C38.2946 30.4042 37.5994 29.5842 36.7442 28.9571L42.5308 26.8549V27.1104C42.5286 28.1078 42.295 29.091 41.8485 29.9829C41.3002 31.086 41.0148 32.3012 41.0146 33.5331V42.4514ZM13.735 5.82287L25.8843 23.4389C26.0248 23.6415 26.1856 23.8293 26.3642 23.9991L24.7722 26.3023C24.4131 26.1258 24.1108 25.852 23.8997 25.5121C23.6886 25.1722 23.5772 24.7798 23.5782 24.3797C23.5788 23.6557 23.3646 22.9479 22.9626 22.3457L10.275 3.31507C11.6797 3.73368 12.9 4.61815 13.735 5.82287ZM6.14182 34.8703V33.3541H7.65803V34.8703H6.14182ZM7.65803 23.7899V31.8379H6.14182V22.9196C6.14159 21.6877 5.85616 20.4726 5.30791 19.3694C4.86137 18.4776 4.62782 17.4943 4.62562 16.497V16.2415L10.4122 18.3437C9.55699 18.9708 8.86182 19.7908 8.38324 20.7371C7.90466 21.6835 7.65619 22.7294 7.65803 23.7899ZM12.8541 17.7971C12.7643 17.6505 12.6275 17.5388 12.4659 17.4802L4.32617 14.5198L3.16399 13.0665C2.14898 11.7945 1.59525 10.2158 1.5932 8.58843C1.59086 7.64659 1.77524 6.71363 2.13568 5.84349C2.49613 4.97335 3.02548 4.18329 3.69315 3.519L5.21845 1.99369C5.39369 1.83033 5.60173 1.70617 5.8287 1.62948C6.05567 1.55279 6.29637 1.52533 6.53479 1.54892C6.7732 1.57252 7.00385 1.64664 7.21138 1.76633C7.41892 1.88603 7.59857 2.04856 7.73839 2.24311L21.7004 23.1865C21.9363 23.5397 22.0622 23.9549 22.062 24.3797C22.0611 25.0255 22.2318 25.66 22.5567 26.2181C22.8816 26.7763 23.349 27.238 23.911 27.5562L21.2068 31.4771L12.8541 17.7971ZM18.2715 35.6285C18.862 35.6289 19.4437 35.4857 19.9665 35.2111C20.4892 34.9365 20.9373 34.5388 21.272 34.0524L33.4214 16.4363C34.2564 15.2316 35.4767 14.3471 36.8814 13.9285L24.1938 32.9569C23.7914 33.5597 23.5771 34.2684 23.5782 34.9932C23.5776 35.5636 23.3507 36.1105 22.9474 36.5138C22.544 36.9172 21.9971 37.1441 21.4267 37.1447H16.1367C16.2929 36.7028 16.5818 36.3199 16.964 36.0485C17.3461 35.7771 17.8028 35.6304 18.2715 35.6285ZM25.453 42.9062C24.9798 43.6902 24.3128 44.3391 23.5161 44.7905C22.7195 45.242 21.82 45.4807 20.9044 45.4838H2.62195C2.38056 45.4836 2.14693 45.3986 1.96193 45.2435C1.77692 45.0885 1.65233 44.8733 1.60995 44.6357C1.56758 44.398 1.61011 44.153 1.73012 43.9436C1.85012 43.7342 2.03996 43.5736 2.2664 43.49L15.374 38.6609H21.4267C22.3991 38.6599 23.3314 38.2731 24.019 37.5855C24.7067 36.8979 25.0934 35.9656 25.0944 34.9932C25.0942 34.5684 25.22 34.1531 25.456 33.7999L39.418 12.8566C39.5578 12.662 39.7375 12.4995 39.945 12.3798C40.1525 12.2601 40.3832 12.186 40.6216 12.1624C40.86 12.1388 41.1007 12.1662 41.3277 12.2429C41.5547 12.3196 41.7627 12.4438 41.9379 12.6071L43.4632 14.1324C44.1309 14.7967 44.6603 15.5868 45.0207 16.4569C45.3811 17.3271 45.5655 18.26 45.5632 19.2019C45.5611 20.8293 45.0074 22.4079 43.9924 23.68L42.834 25.1333L34.6905 28.0937C34.5289 28.1522 34.392 28.264 34.3023 28.4106L25.453 42.9062ZM32.1357 34.8703L35.2378 29.7911C36.0692 30.2403 36.7634 30.9063 37.2466 31.7184C37.7298 32.5305 37.984 33.4584 37.9821 34.4034V34.8703H32.1357ZM39.4984 45.4838V43.9676H41.0146V45.4838H39.4984ZM44.5344 34.8703H42.5308V33.5331C42.5314 33.0407 42.5886 32.55 42.7013 32.0707L44.89 32.8765C45.1164 32.9601 45.3063 33.1207 45.4263 33.3302C45.5463 33.5396 45.5888 33.7846 45.5464 34.0222C45.5041 34.2598 45.3795 34.475 45.1945 34.6301C45.0095 34.7851 44.7758 34.8702 44.5344 34.8703Z" fill="black"/>
</svg>
