<svg width="48" height="48" viewBox="0 0 48 48" fill="none" xmlns="http://www.w3.org/2000/svg">
<path d="M45.8927 48C45.336 48 44.7945 47.7765 44.4001 47.3822C40.2386 43.2206 32.6561 36.9085 26.5634 31.8368C26.265 31.5883 26.2245 31.145 26.4729 30.8466C26.7211 30.5481 27.1644 30.5075 27.4631 30.756C33.5777 35.8462 41.1876 42.181 45.3946 46.3879C45.532 46.5253 45.7153 46.599 45.909 46.5936C46.1032 46.5888 46.2825 46.5064 46.4139 46.3615C46.661 46.089 46.6375 45.6425 46.3614 45.366C42.148 41.1471 35.8604 33.5933 30.3131 26.9288C29.8807 26.4095 29.4536 25.8964 29.0332 25.3916L25.1525 30.4738C25.0028 31.1746 24.3631 34.1095 23.4973 37.2432C22.127 42.2029 20.9127 45.1621 19.785 46.2898C18.7784 47.2965 17.1445 47.8998 15.1844 47.9886C14.7931 48.0063 14.4676 47.7059 14.4501 47.318C14.4326 46.93 14.7328 46.6013 15.1206 46.5837C16.706 46.5118 18.0437 46.0423 18.7906 45.2954C20.6343 43.4516 22.906 34.2573 23.7309 30.4007L17.6002 24.2701C13.7434 25.0952 4.54862 27.3672 2.70558 29.2103C1.98202 29.9338 1.52827 31.1683 1.42796 32.6865C1.40246 33.074 1.06449 33.3659 0.680022 33.3417C0.29246 33.3161 -0.000884163 32.9812 0.0248033 32.5937C0.147616 30.7353 0.746491 29.1805 1.71118 28.2159C2.8388 27.0883 5.79802 25.874 10.7577 24.5036C12.9092 23.9092 14.967 23.4214 16.2723 23.1254C15.8201 22.7204 15.4314 22.3636 15.0972 22.0466C14.8198 21.7836 14.6641 21.4282 14.6591 21.0459C14.6539 20.6632 14.8003 20.3033 15.0711 20.0324L16.0607 19.0429L4.76733 7.74947C2.21218 5.19422 0.163366 1.19091 0.0773971 1.02169C-0.0605092 0.750376 -0.00810292 0.42122 0.207053 0.20597C0.422397 -0.0091863 0.751647 -0.0615925 1.02277 0.0763137C1.19199 0.162282 5.1953 2.21109 7.75055 4.76625L11.3682 8.38378C11.6428 8.65838 11.6428 9.10359 11.3682 9.37809C11.0935 9.6525 10.6484 9.65269 10.3738 9.37809L7.2533 6.25791L6.25899 7.25222L17.0553 18.0486L18.0497 17.0543L12.3218 11.3264C12.0472 11.0518 12.0472 10.6066 12.3218 10.3321C12.5965 10.0575 13.0416 10.0575 13.3162 10.3321L19.0441 16.0599L20.0336 15.0704C20.3044 14.7997 20.6663 14.6535 21.047 14.6583C21.4294 14.6633 21.7849 14.8191 22.0482 15.0966C22.6478 15.7291 23.3995 16.5664 24.3383 17.6479L26.9379 15.6629C27.8452 14.7881 41.2396 1.91953 45.6804 0.223782C46.5577 -0.111186 47.2176 -0.0656238 47.6423 0.35897C48.0669 0.783564 48.1124 1.44366 47.7773 2.32078C47.0951 4.10709 44.5647 7.51069 40.2565 12.4372C40.0008 12.7295 39.5566 12.7592 39.2643 12.5035C38.972 12.2479 38.9423 11.8037 39.198 11.5114C44.4274 5.53144 46.0354 2.94 46.4635 1.81894C46.5331 1.63678 46.5664 1.50694 46.582 1.419C46.4941 1.43456 46.3643 1.46784 46.182 1.53741C44.9775 1.99734 42.1426 3.78581 35.4775 9.69441C32.3552 12.4621 29.5287 15.1336 28.402 16.208L31.793 19.599C32.741 18.6049 34.9323 16.2876 37.3315 13.6163C37.5911 13.3272 38.0356 13.3035 38.3245 13.5629C38.6133 13.8224 38.6372 14.267 38.3777 14.5558C35.3463 17.9311 32.6441 20.7453 32.3383 21.063L29.9085 24.2452C30.395 24.8291 30.891 25.4248 31.3939 26.029C36.9222 32.6706 43.1881 40.1982 47.3565 44.3722C48.1674 45.1841 48.211 46.4728 47.4558 47.3059C47.0633 47.7387 46.5263 47.985 45.9435 47.9993C45.9266 47.9998 45.9096 48 45.8927 48ZM18.8936 23.5746L24.4266 29.1076L30.8718 20.6665L27.3346 17.1293L18.8936 23.5746ZM17.5416 19.5508L16.0658 21.0269C16.5312 21.4683 17.1086 21.9923 17.8237 22.6222L23.2184 18.503C22.3204 17.4697 21.601 16.6688 21.0276 16.0641L19.5599 17.5322C19.5539 17.5387 19.5476 17.545 19.5414 17.5514C19.5351 17.5577 19.5287 17.5638 19.5223 17.5698L17.5633 19.5291C17.5597 19.5328 17.5561 19.5365 17.5526 19.54C17.5488 19.5438 17.5453 19.5473 17.5416 19.5508ZM2.60321 2.60213C3.30502 3.73116 4.24318 5.10281 5.27733 6.24506L6.24605 5.27634C5.1038 4.24219 3.73224 3.30403 2.60321 2.60213ZM12.3199 47.7619C12.2747 47.7619 12.2288 47.7575 12.1828 47.7484C9.30887 47.1801 6.55562 45.6966 4.43012 43.5712C2.1893 41.3304 0.678522 38.4276 0.176303 35.3975C0.112835 35.0144 0.37196 34.6523 0.755022 34.5889C1.13808 34.5251 1.50005 34.7844 1.56371 35.1675C1.66833 35.7988 1.82152 36.4244 2.02018 37.038L7.38062 33.9036C7.71577 33.7075 8.14646 33.8203 8.34258 34.1556C8.53862 34.4908 8.42574 34.9214 8.09058 35.1174L2.53046 38.3687C3.21905 39.9166 4.20202 41.3543 5.42452 42.5768C5.91174 43.0641 6.43515 43.5142 6.98715 43.923L11.1205 39.0369C11.3711 38.7405 11.8147 38.7034 12.1113 38.9543C12.4078 39.205 12.4449 39.6487 12.194 39.9452L8.1654 44.7076C8.98224 45.1942 9.84437 45.596 10.7325 45.9023L12.8602 42.7049C13.0754 42.3817 13.5119 42.294 13.8351 42.5092C14.1584 42.7242 14.2461 43.1607 14.031 43.4841L12.1534 46.3054C12.2539 46.3279 12.3547 46.3491 12.4557 46.369C12.8366 46.4443 13.0844 46.8143 13.009 47.1952C12.9427 47.5298 12.6489 47.7619 12.3199 47.7619Z" fill="black"/>
</svg>
