<svg width="47" height="46" viewBox="0 0 47 46" fill="none" xmlns="http://www.w3.org/2000/svg">
<path d="M23.5613 46C19.0123 46 14.5655 44.6511 10.7832 42.1238C7.00084 39.5965 4.05288 36.0044 2.31206 31.8017C0.571245 27.599 0.115768 22.9745 1.00323 18.5129C1.89069 14.0514 4.08123 9.95316 7.29783 6.73655C10.5144 3.51995 14.6126 1.32941 19.0742 0.441949C23.5358 -0.445511 28.1603 0.00996561 32.363 1.75078C36.5657 3.4916 40.1578 6.43956 42.6851 10.2219C45.2124 14.0042 46.5613 18.451 46.5613 23C46.5567 29.0986 44.1321 34.9461 39.8197 39.2584C35.5074 43.5708 29.6599 45.9954 23.5613 46V46ZM23.5613 1.30644C19.2707 1.30644 15.0765 2.57874 11.509 4.96246C7.9415 7.34618 5.16098 10.7343 3.51904 14.6982C1.87711 18.6622 1.4475 23.0241 2.28455 27.2322C3.1216 31.4404 5.18772 35.3058 8.22162 38.3397C11.2555 41.3736 15.1209 43.4397 19.3291 44.2767C23.5372 45.1138 27.8991 44.6842 31.8631 43.0422C35.827 41.4003 39.2151 38.6198 41.5988 35.0523C43.9825 31.4848 45.2549 27.2906 45.2549 23C45.2503 17.2479 42.9633 11.7327 38.8959 7.66537C34.8286 3.59802 29.3134 1.31099 23.5613 1.30644V1.30644Z" fill="black"/>
<path d="M10.9612 26.4379C10.2812 26.4379 9.6165 26.2363 9.05113 25.8585C8.48576 25.4808 8.04511 24.9438 7.78489 24.3156C7.52468 23.6874 7.4566 22.9962 7.58925 22.3293C7.72191 21.6624 8.04934 21.0498 8.53015 20.569C9.01096 20.0882 9.62355 19.7607 10.2904 19.6281C10.9573 19.4954 11.6486 19.5635 12.2768 19.8237C12.905 20.0839 13.442 20.5246 13.8197 21.0899C14.1975 21.6553 14.3991 22.32 14.3991 23C14.3991 23.9118 14.0369 24.7862 13.3922 25.431C12.7474 26.0757 11.873 26.4379 10.9612 26.4379ZM10.9612 20.7137C10.5287 20.7274 10.1098 20.8672 9.75583 21.116C9.40189 21.3648 9.12846 21.7116 8.96922 22.1139C8.80997 22.5162 8.77188 22.9562 8.85962 23.3799C8.94736 23.8035 9.15711 24.1922 9.46302 24.4981C9.76893 24.804 10.1577 25.0138 10.5813 25.1015C11.0049 25.1893 11.445 25.1512 11.8472 24.9919C12.2495 24.8327 12.5964 24.5593 12.8452 24.2053C13.094 23.8514 13.2338 23.4324 13.2474 23C13.2476 22.7029 13.188 22.4088 13.0723 22.1352C12.9566 21.8616 12.7871 21.614 12.5738 21.4072C12.3606 21.2003 12.1079 21.0384 11.8309 20.9311C11.5539 20.8238 11.2581 20.7733 10.9612 20.7825V20.7137Z" fill="black"/>
<path d="M23.6643 26.4379C22.9843 26.4379 22.3196 26.2363 21.7543 25.8585C21.1889 25.4808 20.7482 24.9438 20.488 24.3156C20.2278 23.6874 20.1597 22.9962 20.2924 22.3293C20.425 21.6624 20.7525 21.0498 21.2333 20.569C21.7141 20.0882 22.3267 19.7607 22.9936 19.6281C23.6605 19.4954 24.3517 19.5635 24.9799 19.8237C25.6081 20.0839 26.1451 20.5246 26.5228 21.0899C26.9006 21.6553 27.1023 22.32 27.1023 23C27.1023 23.9118 26.74 24.7862 26.0953 25.431C25.4506 26.0757 24.5761 26.4379 23.6643 26.4379ZM23.6643 20.7137C23.2287 20.7139 22.8028 20.8424 22.4398 21.0832C22.0767 21.324 21.7927 21.6663 21.623 22.0675C21.4533 22.4687 21.4056 22.911 21.4857 23.3392C21.5658 23.7673 21.7703 24.1624 22.0736 24.4751C22.3769 24.7878 22.7655 25.0042 23.1911 25.0974C23.6166 25.1906 24.0601 25.1563 24.4663 24.999C24.8725 24.8417 25.2234 24.5682 25.4751 24.2127C25.7268 23.8571 25.8683 23.4354 25.8818 23C25.8773 22.4133 25.6422 21.8518 25.2273 21.4369C24.8124 21.0221 24.251 20.787 23.6643 20.7825V20.7137Z" fill="black"/>
<path d="M36.1613 26.4379C35.4853 26.421 34.8292 26.2051 34.2753 25.8172C33.7213 25.4293 33.2941 24.8866 33.047 24.2571C32.7999 23.6276 32.744 22.9392 32.8862 22.2781C33.0284 21.6169 33.3624 21.0124 33.8465 20.5402C34.3305 20.0679 34.9431 19.7489 35.6076 19.6231C36.272 19.4973 36.9588 19.5702 37.582 19.8327C38.2052 20.0953 38.7372 20.5358 39.1113 21.0991C39.4854 21.6625 39.685 22.3237 39.6853 22.9999C39.6854 23.4587 39.5937 23.9129 39.4156 24.3358C39.2375 24.7586 38.9765 25.1415 38.6481 25.4619C38.3197 25.7822 37.9305 26.0337 37.5034 26.2013C37.0763 26.3689 36.62 26.4494 36.1613 26.4379ZM36.1613 20.7137C35.7257 20.7139 35.2998 20.8424 34.9368 21.0832C34.5738 21.3239 34.2897 21.6663 34.12 22.0675C33.9504 22.4687 33.9026 22.911 33.9828 23.3391C34.0629 23.7673 34.2674 24.1624 34.5707 24.4751C34.8739 24.7878 35.2626 25.0042 35.6881 25.0974C36.1136 25.1905 36.5572 25.1563 36.9634 24.999C37.3696 24.8416 37.7204 24.5681 37.9722 24.2126C38.2239 23.8571 38.3653 23.4353 38.3788 22.9999C38.3788 22.4118 38.1452 21.8478 37.7293 21.4319C37.3135 21.0161 36.7495 20.7825 36.1613 20.7825V20.7137Z" fill="black"/>
</svg>
