<svg width="30" height="49" viewBox="0 0 30 49" fill="none" xmlns="http://www.w3.org/2000/svg">
<path d="M18.2186 1C18.3139 1.01738 18.4029 1.05949 18.4768 1.12209C18.6936 1.28487 18.9116 1.4465 19.1308 1.60699C19.1652 1.62966 19.2022 1.64813 19.2409 1.66202L20.6419 2.24838L20.6798 2.26557L23.3819 3.48987C23.864 3.73374 24.2984 4.06224 24.6641 4.45968C24.7051 4.49661 24.7359 4.54337 24.7536 4.59553C24.7912 4.70415 24.8464 4.80583 24.9171 4.89644C25.2434 5.35739 25.4498 5.89216 25.5178 6.45261C25.6314 7.39663 25.7484 8.34409 25.862 9.28811C25.9412 9.99656 26.0031 10.7084 26.084 11.4169C26.2114 12.5139 26.3783 13.6041 26.6124 14.684C26.8344 15.7157 27.0272 16.7474 27.1735 17.7929C27.232 18.2021 27.2664 18.6165 27.294 19.0292C27.3387 19.717 27.3611 20.4048 27.411 21.0823C27.4385 21.3942 27.4868 21.7038 27.5556 22.0092C27.8069 23.1681 28.0719 24.3254 28.3249 25.4843C28.3387 25.5479 28.3628 25.5961 28.4299 25.6116V25.7233C28.4012 25.7367 28.3745 25.754 28.3507 25.7749C28.2071 25.9194 28.0296 26.0258 27.8344 26.0844C27.3719 26.2543 26.8949 26.3821 26.4093 26.4662C25.7603 26.6034 25.1001 26.6816 24.4369 26.7L24.3698 26.7121C24.3905 26.884 24.4094 27.056 24.4318 27.2159L24.6624 29.0283C24.7416 29.6301 24.8202 30.2319 24.8982 30.8338C24.967 31.3588 25.0353 31.8838 25.103 32.4088C25.1833 33.0199 25.2631 33.6309 25.3422 34.2419C25.4214 34.8529 25.4994 35.4599 25.5763 36.0628C25.6538 36.6784 25.7347 37.294 25.8121 37.9113C25.8809 38.4627 25.9492 39.0153 26.0169 39.569C26.0875 40.1433 26.158 40.7193 26.2252 41.2885C26.2871 41.8135 26.3445 42.3391 26.3973 42.8653C26.4506 43.3639 26.5057 43.8626 26.5487 44.3613C26.5814 44.7189 26.5935 45.0783 26.6176 45.436C26.6214 45.4987 26.6124 45.5615 26.5911 45.6207C26.5698 45.6798 26.5366 45.734 26.4937 45.7799C26.3449 45.9515 26.1708 46.0994 25.9773 46.2184C25.528 46.4905 25.0464 46.7054 24.5437 46.858C23.7202 47.1261 22.8764 47.3273 22.0205 47.4599C21.3028 47.5751 20.5817 47.6817 19.8588 47.7556C19.062 47.8382 18.2616 47.8863 17.4613 47.9362C16.5423 47.9929 15.6198 48.0118 14.7076 47.9929C13.9004 47.9774 13.0949 47.9482 12.2894 47.9104C11.7111 47.8829 11.1311 47.8467 10.5528 47.7883C9.81965 47.7126 9.08818 47.6163 8.35843 47.5218C7.5769 47.4138 6.8031 47.2559 6.04183 47.0489C5.53299 46.9193 5.03699 46.7438 4.55997 46.5244C4.30358 46.4078 4.06395 46.2574 3.84743 46.0774C3.81301 46.0481 3.78031 46.0154 3.74761 45.9845C3.6698 45.9199 3.6096 45.8366 3.57259 45.7425C3.53559 45.6485 3.52297 45.5466 3.53591 45.4463C3.59271 44.9442 3.62197 44.4386 3.66672 43.9348C3.70458 43.4946 3.74761 43.0544 3.79064 42.6142C3.84227 42.0835 3.89448 41.5521 3.94726 41.0202C3.99545 40.5216 4.04536 40.0229 4.09355 39.5242C4.14174 39.0256 4.19854 38.4805 4.25189 37.9578C4.30524 37.435 4.34999 36.9587 4.3999 36.4601L4.5548 34.9503C4.60472 34.4602 4.65291 33.9702 4.70282 33.4801C4.75273 32.99 4.80608 32.4484 4.85944 31.9429C4.89845 31.5439 4.93861 31.1456 4.97992 30.7478C5.03155 30.2308 5.08375 29.7149 5.13654 29.2002L5.28111 27.7575C5.33446 27.2279 5.38609 26.6966 5.43945 26.1653C5.43945 26.1429 5.43945 26.1205 5.43945 26.0827H5.28799C4.90074 26.0827 4.5135 26.0965 4.12625 26.0827C3.77164 26.0711 3.41972 26.0168 3.0781 25.9211C2.74937 25.8299 2.42236 25.7491 2.09707 25.6391C1.96198 25.5921 1.83077 25.5346 1.70466 25.4671C1.57558 25.4018 1.55665 25.3622 1.58246 25.2247C1.64615 24.8808 1.69089 24.5369 1.78728 24.2119C1.98922 23.4605 2.10471 22.6886 2.1315 21.9111C2.17165 21.166 2.20895 20.4209 2.24337 19.6758C2.30156 18.5206 2.44422 17.3711 2.6702 16.2367C2.84231 15.4113 3.00581 14.586 3.15899 13.7589C3.25365 13.243 3.3311 12.7272 3.39822 12.2113C3.46535 11.6954 3.52387 11.1985 3.58066 10.6895C3.62541 10.2786 3.65983 9.86587 3.70458 9.45491C3.7631 8.90122 3.82334 8.34753 3.88874 7.79384C3.94037 7.35193 4.00577 6.91001 4.06085 6.46637C4.13607 5.87942 4.35869 5.32102 4.70798 4.84314C4.74275 4.80042 4.7701 4.75218 4.78887 4.70042C4.82302 4.59018 4.886 4.49105 4.97131 4.41326C5.37034 3.99387 5.84433 3.6527 6.36884 3.40734C6.83354 3.20787 7.29479 2.99981 7.75777 2.79175C8.10199 2.64215 8.42384 2.47879 8.75945 2.32919C9.20521 2.13145 9.65614 1.94574 10.1002 1.74455C10.2789 1.65727 10.4514 1.55787 10.6165 1.44708C10.6933 1.39994 10.7628 1.34203 10.823 1.27512C10.9187 1.14601 11.0523 1.04986 11.2051 1L18.2186 1ZM2.66676 25.6477C2.71129 25.677 2.75927 25.7006 2.80961 25.7182C3.11252 25.7766 3.41371 25.8454 3.71835 25.8798C4.10215 25.9211 4.4894 25.9366 4.87665 25.9572C5.07112 25.9646 5.26531 25.9366 5.44978 25.8747L5.47043 25.6889C5.32586 25.6339 5.19505 25.5806 5.06081 25.5342C4.61467 25.3856 4.15249 25.2904 3.68393 25.2505C3.17247 25.179 2.6528 25.1912 2.14526 25.2866L1.94045 25.3313C2.01017 25.3935 2.09611 25.4346 2.18829 25.4499C2.202 25.4529 2.21529 25.4575 2.22788 25.4637C2.29844 25.4912 2.37417 25.4964 2.42408 25.5806C2.4499 25.6236 2.548 25.6236 2.61512 25.6425L2.66676 25.6477ZM18.4802 1.28028L18.3838 1.17195C18.3774 1.20371 18.3734 1.23589 18.3718 1.26825C18.3701 1.46686 18.3273 1.66298 18.2462 1.84429C18.1343 2.11253 18.031 2.37562 17.9174 2.64559C17.685 3.18155 17.2963 3.63514 16.8021 3.94727C16.4176 4.18781 15.9915 4.35459 15.5457 4.43905C15.4098 4.46484 15.2704 4.47688 15.1292 4.49751C15.1471 4.53186 15.1759 4.55919 15.2112 4.57511C15.2465 4.59102 15.2862 4.59458 15.3237 4.58521C15.3564 4.58521 15.4029 4.55426 15.4304 4.61444L15.2773 4.66087C15.4339 4.85346 15.4494 5.08387 15.4941 5.30053C15.8815 5.22127 16.2606 5.10614 16.6266 4.95663C17.1309 4.76469 17.5864 4.46342 17.9602 4.07451C18.334 3.68559 18.6168 3.21872 18.7883 2.70749C18.9121 2.36009 18.9874 1.99729 19.012 1.62935C18.8761 1.53305 18.747 1.43848 18.6145 1.34734C18.5719 1.32091 18.5269 1.29846 18.4802 1.28028ZM11.3618 1.2201C11.2361 1.48663 11.3618 1.71876 11.4564 1.9595C11.49 1.96523 11.5239 1.96867 11.558 1.96981C11.8282 1.96981 12.1001 1.97841 12.372 1.97841C12.5837 1.97841 12.7954 1.97841 13.0071 1.96981C14.4758 1.95606 15.9445 1.9423 17.4131 1.92854C17.642 1.92854 17.871 1.90963 18.1016 1.89931C18.2031 1.64654 18.3047 1.40237 18.2393 1.12381C17.895 1.12381 17.5629 1.10661 17.2307 1.10661C15.3501 1.1089 13.4707 1.11234 11.5924 1.11693C11.5513 1.11801 11.5104 1.12261 11.4702 1.13068C11.4447 1.13419 11.4207 1.14474 11.401 1.16115C11.3812 1.17756 11.3664 1.19917 11.3583 1.22354L11.3618 1.2201ZM13.995 5.4914L13.8539 5.44153C12.7765 5.07871 11.8505 4.49579 11.1673 3.56897C11.1603 3.55603 11.1508 3.54465 11.1392 3.53556C11.1277 3.52648 11.1144 3.51987 11.1002 3.51616C11.086 3.51244 11.0711 3.5117 11.0566 3.51399C11.0421 3.51627 11.0282 3.52152 11.0158 3.52942C10.8024 3.61368 10.5855 3.69278 10.3738 3.78219C9.16907 4.28085 8.00733 4.8483 6.83354 5.4037C6.55175 5.54033 6.29741 5.72741 6.08314 5.95567C6.06093 5.97557 6.04375 6.00042 6.03298 6.02821C6.02221 6.056 6.01817 6.08594 6.02118 6.11559C6.03323 6.25659 6.04528 6.39931 6.047 6.54203C6.047 7.25047 6.06421 7.96064 6.047 8.66736C6.02979 9.37409 5.99708 10.1307 5.96438 10.8615C5.94545 11.2656 5.91103 11.6697 5.89038 12.0737C5.8594 12.624 5.8267 13.176 5.81121 13.7279C5.78023 14.7768 5.78883 15.8257 5.83702 16.8747C5.87317 17.6742 5.90242 18.4755 5.93513 19.282C5.95234 19.7136 5.96783 20.1418 5.97987 20.5785C5.98848 20.8863 6.00569 21.1958 5.9902 21.5036C5.96955 21.9352 5.92308 22.3634 5.88521 22.795C5.83702 23.3263 5.78883 23.8577 5.7372 24.389C5.67524 25.0252 5.61271 25.6614 5.5496 26.2977C5.51001 26.6914 5.47215 27.0852 5.43256 27.479C5.37233 28.0791 5.31037 28.6826 5.25013 29.2776C5.20022 29.7797 5.15203 30.2835 5.10039 30.7873L4.91451 32.6135C4.8646 33.0984 4.81813 33.5833 4.76822 34.0682C4.70798 34.658 4.64602 35.2495 4.5875 35.8393C4.53587 36.3431 4.48768 36.8452 4.43777 37.349C4.37753 37.944 4.31557 38.539 4.25533 39.1339C4.20542 39.6498 4.15723 40.1656 4.1056 40.6815C4.04536 41.2936 3.9834 41.9075 3.92316 42.5214C3.86981 43.0837 3.80957 43.6459 3.76654 44.2099C3.72501 44.398 3.71859 44.5921 3.74761 44.7826C3.74761 44.7929 3.74761 44.8049 3.74761 44.8169C3.73085 44.8567 3.71872 44.8982 3.71147 44.9407C3.71147 45.0078 3.74589 45.0886 3.72007 45.1402C3.66155 45.2554 3.69942 45.3758 3.67188 45.4841C3.6556 45.5538 3.6594 45.6266 3.68286 45.6941C3.70631 45.7617 3.74846 45.8212 3.8044 45.8659C3.85087 45.9106 3.89562 45.957 3.94553 45.9983C4.15146 46.1691 4.37957 46.3114 4.62365 46.4213C5.0752 46.6294 5.54468 46.7963 6.02634 46.9199C7.32474 47.2573 8.64871 47.4873 9.98487 47.6077C10.7043 47.6817 11.4254 47.7419 12.1483 47.7797C13.0088 47.8244 13.8694 47.8502 14.7299 47.8639C15.7075 47.8794 16.6851 47.8639 17.6558 47.8055C18.4183 47.7539 19.1824 47.7006 19.9432 47.6335C20.7039 47.5665 21.4612 47.4513 22.2133 47.3137C23.0391 47.1725 23.8532 46.9696 24.6486 46.7067C25.1234 46.5572 25.576 46.345 25.9945 46.0756C26.1523 45.9708 26.2943 45.844 26.4162 45.6991C26.4439 45.6687 26.4653 45.6332 26.4792 45.5945C26.4931 45.5558 26.4992 45.5148 26.4971 45.4738C26.4971 45.3638 26.4971 45.252 26.4885 45.1419C26.4885 45.0972 26.461 45.0525 26.4592 45.0061C26.4575 44.9597 26.4592 44.8702 26.4592 44.8032C26.4635 44.78 26.4615 44.7561 26.4533 44.734C26.4451 44.7119 26.4311 44.6925 26.4128 44.6777C26.3956 44.6639 26.4369 44.5865 26.4351 44.5384C26.4248 44.3664 26.411 44.1945 26.3938 44.0225C26.3336 43.4516 26.2734 42.879 26.2097 42.303C26.1523 41.8009 26.0949 41.2982 26.0376 40.795C25.9687 40.2207 25.8982 39.6446 25.8259 39.0754C25.7674 38.6009 25.71 38.1263 25.6538 37.6517C25.5849 37.1049 25.5144 36.5563 25.4455 36.0095L25.239 34.4087C25.161 33.8068 25.0824 33.205 25.0032 32.6032C24.9343 32.0655 24.8644 31.5273 24.7932 30.9885C24.714 30.3918 24.6366 29.7849 24.5591 29.1968C24.4903 28.6672 24.4209 28.1381 24.3509 27.6097C24.2786 27.0818 24.1977 26.5556 24.1289 26.0277C24.0876 25.7096 24.0617 25.3897 24.0222 25.0716C23.955 24.5179 23.881 23.9677 23.8122 23.4157C23.7502 22.9136 23.6929 22.411 23.6401 21.9077C23.6049 21.676 23.5859 21.4422 23.5833 21.2079C23.5953 20.5871 23.628 19.9664 23.6504 19.3456C23.6642 18.9776 23.6745 18.6097 23.69 18.2417C23.721 17.4645 23.7623 16.6941 23.7846 15.91C23.8174 14.8198 23.7846 13.7296 23.7313 12.6429C23.721 12.4589 23.7072 12.2749 23.6969 12.0927C23.6711 11.6421 23.6452 11.1916 23.6229 10.7411C23.6091 10.4797 23.6057 10.2253 23.5902 9.95529C23.542 9.19354 23.511 8.43007 23.5196 7.6666C23.5196 7.15934 23.5506 6.6538 23.5661 6.14826C23.5721 6.12141 23.572 6.09354 23.5658 6.06674C23.5595 6.03993 23.5473 6.0149 23.5299 5.9935C23.3399 5.78015 23.1131 5.60253 22.8604 5.46905C22.277 5.19392 21.6987 4.91192 21.1135 4.64023C20.3097 4.2671 19.5198 3.89568 18.7074 3.57929C18.6523 3.55865 18.5973 3.54318 18.5456 3.52598C18.5301 3.5449 18.5232 3.55006 18.5181 3.55865L18.4716 3.62743C18.0694 4.26302 17.4759 4.75486 16.7763 5.03229C16.4321 5.16813 16.0724 5.2713 15.7179 5.38995C15.649 5.4123 15.5802 5.4295 15.5079 5.45185C15.5079 5.53955 15.5079 5.6238 15.5079 5.69602C15.5079 6.26175 15.5234 6.82747 15.5303 7.39319C15.5406 8.23003 15.5498 9.06744 15.5578 9.90542C15.5681 10.7617 15.5773 11.6181 15.5853 12.4744C15.5957 13.3124 15.6054 14.1498 15.6146 14.9866C15.6238 15.8235 15.6329 16.6746 15.6421 17.5401C15.6525 18.5718 15.6628 19.6035 15.6731 20.6353C15.6731 21.2938 15.6869 21.9524 15.6989 22.6093C15.7013 22.6569 15.6928 22.7044 15.674 22.7482C15.6552 22.792 15.6266 22.8309 15.5905 22.862C15.3805 23.0615 15.1757 23.2679 14.9692 23.4708C14.9416 23.4983 14.9089 23.5223 14.8745 23.5516C14.6645 23.3177 14.4649 23.089 14.2584 22.8638C14.2249 22.8301 14.1984 22.7901 14.1807 22.7461C14.163 22.7021 14.1543 22.655 14.1551 22.6076C14.1551 21.875 14.1413 21.1442 14.1344 20.4117C14.1241 19.4683 14.1144 18.5248 14.1052 17.5814C14.096 16.6379 14.0868 15.7037 14.0776 14.7786C14.0696 13.8305 14.0604 12.8825 14.0501 11.9345C14.0421 11.0048 14.0329 10.0751 14.0226 9.14539C14.0134 8.14348 14.0042 7.14042 13.995 6.13622C13.9933 5.923 13.995 5.70806 13.995 5.4914ZM28.2234 25.5531C28.2234 25.529 28.2234 25.5015 28.213 25.4757C27.9566 24.3185 27.6967 23.1612 27.4454 22.0023C27.3746 21.6884 27.3252 21.3702 27.2974 21.0497C27.2458 20.3481 27.2217 19.6448 27.1787 18.9432C27.158 18.6131 27.1374 18.2812 27.0857 17.9545C26.9652 17.183 26.8333 16.4133 26.6899 15.6452C26.578 15.0296 26.4386 14.4209 26.3216 13.807C26.1391 12.8355 26.0221 11.8536 25.9119 10.8718C25.8328 10.1496 25.7708 9.42567 25.6882 8.70519C25.6021 7.94172 25.504 7.18169 25.4094 6.41994C25.3368 5.89151 25.1366 5.38867 24.8259 4.95491C24.8023 4.92266 24.777 4.89167 24.7502 4.86205C24.7072 5.01337 24.6607 5.14234 24.6349 5.27474C24.5282 5.81639 24.4215 6.35632 24.3234 6.89797C24.1426 7.90217 23.9619 8.90638 23.7967 9.9123C23.7483 10.2124 23.7281 10.5164 23.7365 10.8202C23.7502 11.3103 23.8019 11.8021 23.826 12.2921C23.8587 12.9627 23.8896 13.6334 23.9034 14.3057C23.9155 14.8336 23.9034 15.3632 23.8948 15.8911C23.8845 16.3794 23.8569 16.8661 23.838 17.3527L23.7554 19.5176C23.7365 20.0145 23.7175 20.5115 23.702 21.0084C23.6926 21.1504 23.6926 21.2928 23.702 21.4348C23.7313 21.7684 23.7692 22.102 23.8087 22.4339C23.8627 22.8867 23.92 23.3384 23.9809 23.7889C24.0497 24.346 24.122 24.9014 24.1943 25.4568C24.2201 25.6614 24.2493 25.8661 24.2786 26.0862L24.461 26.0019C24.5196 25.9761 24.5781 25.9469 24.6332 25.9245C25.316 25.6692 26.0383 25.5353 26.7673 25.529C27.0943 25.529 27.4213 25.5514 27.7466 25.5617C27.8998 25.5565 28.0719 25.5531 28.2234 25.5531ZM1.6754 25.2608C2.99377 24.9324 4.25705 25.0888 5.48248 25.5531C5.48248 25.4774 5.48248 25.4774 5.35167 25.3811L5.50485 25.4293C5.51518 25.3158 5.5255 25.2126 5.53583 25.1095C5.60008 24.4538 5.66319 23.7992 5.72515 23.1458C5.75957 22.7933 5.794 22.4425 5.82325 22.0883C5.84563 21.8097 5.87489 21.5294 5.87833 21.2491C5.88177 20.9688 5.86112 20.6611 5.85079 20.367C5.82842 19.7875 5.80432 19.2098 5.78195 18.6303C5.76646 18.24 5.75441 17.8479 5.73892 17.4576C5.71827 16.9056 5.68729 16.3554 5.67352 15.8034C5.66147 15.3838 5.66491 14.966 5.67352 14.5464C5.67352 14.1011 5.68901 13.654 5.70622 13.2086C5.72687 12.7082 5.75957 12.2079 5.78711 11.7075C5.78711 11.5734 5.79572 11.4392 5.80949 11.3068C5.86179 10.8119 5.84673 10.3121 5.76474 9.82116C5.59263 8.78945 5.41478 7.75258 5.2312 6.71054C5.15375 6.2755 5.05909 5.85078 4.97303 5.4123C4.93517 5.24035 4.87837 5.0684 4.82502 4.86377C4.79059 4.90504 4.77166 4.92224 4.75617 4.94287C4.45189 5.36745 4.25362 5.85855 4.17788 6.37524C4.11592 6.81715 4.05568 7.25907 4.00577 7.70099C3.92832 8.35441 3.85776 9.00783 3.78719 9.66125C3.75449 9.96217 3.73212 10.2648 3.69942 10.5657C3.63918 11.1005 3.58066 11.6353 3.5101 12.1683C3.43953 12.7014 3.37241 13.188 3.27775 13.6935C3.11596 14.5309 2.94385 15.3666 2.77174 16.2075C2.66504 16.7749 2.55833 17.3458 2.49121 17.927C2.41203 18.6148 2.36729 19.3026 2.3191 19.9904C2.28812 20.4857 2.28639 20.9826 2.25886 21.4795C2.2382 21.8836 2.20895 22.2877 2.1642 22.6832C2.12633 23.0271 2.07126 23.371 2.00241 23.7029C1.93357 24.0348 1.8303 24.4165 1.74597 24.7759C1.71843 24.9289 1.70294 25.0871 1.6754 25.2608ZM14.131 5.51031V5.68227L14.1568 7.93313C14.1671 8.85823 14.1763 9.78276 14.1844 10.7067C14.1947 11.7029 14.2039 12.6974 14.2119 13.6901C14.2211 14.5716 14.2303 15.4549 14.2394 16.3399C14.2498 17.3257 14.2589 18.3105 14.267 19.294L14.2979 22.5611C14.2979 22.5921 14.2979 22.623 14.3083 22.6591H14.4115L14.4253 22.4872L14.4374 22.6591C14.8116 22.6871 15.1876 22.6836 15.5612 22.6488C15.5612 22.623 15.5612 22.5955 15.5612 22.568C15.5612 22.1089 15.5457 21.6481 15.5406 21.1924C15.5303 20.3085 15.5211 19.4247 15.513 18.5409C15.5039 17.7316 15.4947 16.9217 15.4855 16.1112C15.4752 15.2423 15.466 14.3727 15.458 13.5027C15.4476 12.6784 15.4385 11.8548 15.4304 11.0317C15.4201 10.1398 15.4104 9.24684 15.4012 8.35269C15.392 7.4872 15.3828 6.62227 15.3736 5.75793C15.3708 5.7221 15.3656 5.68648 15.3581 5.65132C14.9448 5.65585 14.5325 5.60848 14.131 5.51031ZM11.5253 2.09878C11.5494 2.15208 11.558 2.17787 11.5717 2.20195C11.825 2.68298 12.1403 3.1287 12.5097 3.5277C12.7105 3.74471 12.9617 3.9089 13.2412 4.00573C13.6448 4.14917 14.0616 4.25227 14.4855 4.31353C14.6282 4.34916 14.7741 4.36991 14.921 4.37543C15.1923 4.36668 15.4624 4.33446 15.7282 4.27913C16.393 4.13947 16.9893 3.7751 17.4166 3.24742C17.6821 2.88876 17.8883 2.48994 18.0276 2.06611C18.0276 2.06611 18.0276 2.04719 18.0276 2.03L11.5253 2.09878ZM24.2373 6.6452C24.2521 6.61776 24.2626 6.58817 24.2683 6.55751C24.2683 6.5042 24.2425 6.43026 24.2683 6.40275C24.3018 6.36187 24.3233 6.31244 24.3302 6.26003C24.3492 6.17061 24.3664 6.07948 24.387 5.99006C24.45 5.57664 24.5461 5.16894 24.6745 4.77092C24.6859 4.73089 24.6857 4.68841 24.6738 4.6485C24.6619 4.60859 24.6389 4.57291 24.6073 4.54566C24.5901 4.52503 24.5643 4.51299 24.5454 4.49236C24.2088 4.11921 23.8047 3.81293 23.3544 3.58961L20.7417 2.40141L20.6282 2.35327L19.2272 1.76691C19.191 1.75143 19.1532 1.7394 19.1084 1.7222C19.0476 2.31032 18.8771 2.88186 18.6059 3.40734C18.8571 3.50879 19.0981 3.60164 19.3339 3.70137C20.5387 4.20691 21.7073 4.77264 22.8811 5.33492C23.0596 5.42089 23.2248 5.53208 23.3716 5.66507C23.4267 5.71322 23.4852 5.75793 23.5437 5.80435C23.6056 5.84211 23.6599 5.8911 23.7038 5.94879C23.7451 6.0021 23.7485 6.04853 23.7812 6.08808C23.9265 6.24339 24.0605 6.40889 24.1822 6.5833C24.1995 6.60484 24.2179 6.6255 24.2373 6.6452ZM6.047 5.81467L6.1124 5.74933C6.1124 5.74933 6.49347 5.42858 6.71823 5.32117C7.08482 5.14921 7.44797 4.97726 7.81457 4.80531C8.85927 4.31524 9.90226 3.8183 10.9848 3.41249C11.004 3.40437 11.0224 3.39459 11.0399 3.38326C10.7286 2.87359 10.4943 2.32083 10.3446 1.74283C10.2172 1.80302 10.1053 1.85976 9.99176 1.91479C9.55804 2.10394 9.12088 2.2862 8.68716 2.47707C8.36704 2.61807 8.0538 2.77111 7.7354 2.91555C7.20358 3.158 6.67003 3.3953 6.13994 3.64119C5.75053 3.85108 5.39536 4.11896 5.08662 4.43561C5.0675 4.44875 5.05336 4.46794 5.04649 4.49009C5.03962 4.51224 5.04042 4.53606 5.04876 4.5577C5.05737 4.59032 5.06256 4.62374 5.06425 4.65743L4.99713 4.53362C4.95491 4.56751 4.92451 4.61387 4.91029 4.66607C4.89607 4.71828 4.89875 4.77364 4.91796 4.82422C4.9868 5.04776 5.04876 5.27474 5.10039 5.50344C5.16063 5.76824 5.20538 6.03477 5.26045 6.3013C5.27623 6.34071 5.29644 6.37821 5.32069 6.41307C5.27422 6.48013 5.30348 6.55923 5.35856 6.66412C5.38463 6.59001 5.42303 6.52083 5.47215 6.45949C5.59293 6.34208 5.80604 6.0812 5.80604 6.0812L5.86886 5.97427L6.047 5.81467ZM15.3857 5.53439C15.3668 5.36244 15.3547 5.21284 15.3323 5.06324C15.3232 4.99951 15.3047 4.9375 15.2773 4.87925C15.2487 4.81931 15.2153 4.7618 15.1774 4.7073C15.143 4.64883 15.0862 4.64023 15.026 4.62132C14.9657 4.60241 14.9399 4.53534 14.8986 4.49064C14.8908 4.48543 14.882 4.48192 14.8728 4.48032L14.5527 4.43905C14.2325 4.37371 13.9107 4.31868 13.594 4.24131C13.1963 4.14377 12.8219 3.96844 12.4925 3.72545C12.4099 3.66526 12.3841 3.57585 12.3204 3.50535C12.2051 3.36951 12.0881 3.23194 11.9762 3.0875C11.6777 2.69491 11.4355 2.26257 11.2568 1.80302C11.209 1.69401 11.186 1.57575 11.1896 1.45679C11.1932 1.33784 11.2232 1.22116 11.2774 1.11521C11.2189 1.1094 11.1598 1.11868 11.1059 1.14216C11.052 1.16564 11.0049 1.20254 10.9693 1.24933C10.8382 1.40162 10.6857 1.53424 10.5167 1.6431C10.4917 1.66019 10.4675 1.67855 10.4444 1.69813C10.4444 1.72048 10.4444 1.73424 10.453 1.74799C10.6084 2.38368 10.8918 2.98105 11.286 3.50363C11.4388 3.69911 11.6019 3.88624 11.7748 4.06419C12.387 4.65223 13.1294 5.08761 13.9417 5.33492C14.0622 5.37447 14.1844 5.41058 14.3152 5.45185L14.3358 5.32117L14.3547 5.45185C14.693 5.5264 15.0396 5.55646 15.3857 5.54127V5.53439ZM24.344 26.4851C25.0124 26.4759 25.6794 26.4219 26.3405 26.3235C26.9652 26.2117 28.0495 25.8385 28.201 25.6803C28.1829 25.6756 28.1645 25.6721 28.1459 25.67C27.7174 25.6511 27.2854 25.6253 26.862 25.6184C26.4934 25.6181 26.1257 25.6533 25.7639 25.7233C25.3177 25.7909 24.8833 25.9205 24.4731 26.1085C24.4163 26.136 24.3612 26.1687 24.301 26.2014L24.344 26.4851ZM23.7554 8.22201H23.7726L23.8277 8.04146C23.8397 8.22888 23.7399 8.36473 23.764 8.52636C23.7752 8.68149 23.7752 8.83722 23.764 8.99235H23.7933C23.8036 8.94421 23.8174 8.89778 23.826 8.84963C23.943 8.20825 24.0566 7.56687 24.1702 6.92548C24.1798 6.88786 24.1785 6.84825 24.1663 6.81137C24.1541 6.77449 24.1315 6.74188 24.1013 6.71742C24.0745 6.69017 24.0514 6.65953 24.0325 6.62629C23.9361 6.48872 23.8277 6.35976 23.7244 6.22908L23.6934 6.24111L23.7554 8.22201ZM5.7699 8.95968H5.80432C5.80432 8.8118 5.79227 8.66392 5.80432 8.51776C5.81637 8.3716 5.7458 8.2306 5.75269 8.06381L5.79227 8.13431C5.82842 7.50496 5.85595 6.87906 5.86284 6.24283C5.8353 6.25315 5.82498 6.25315 5.81981 6.26003L5.41535 6.77589C5.39847 6.80089 5.38806 6.82968 5.38505 6.85969C5.38205 6.8897 5.38655 6.91999 5.39814 6.94784L5.69761 8.58654C5.72171 8.71035 5.7458 8.83588 5.7699 8.95968ZM15.4821 22.7915C15.4363 22.7726 15.3856 22.7689 15.3376 22.781C15.2895 22.7931 15.2467 22.8203 15.2153 22.8586V22.7726C15.1086 22.7726 15.0036 22.7726 14.9003 22.7726C14.7947 22.7676 14.6888 22.771 14.5836 22.7829L14.6353 22.8689C14.501 22.7692 14.501 22.7692 14.3702 22.7915L14.8866 23.3727L14.9847 23.2799C15.1447 23.1234 15.3048 22.9669 15.4821 22.7915Z" fill="black" stroke="black"/>
<path d="M2.61687 25.6425L2.54114 25.6047C2.58239 25.5912 2.62675 25.5904 2.66848 25.6023C2.71021 25.6143 2.74739 25.6385 2.77521 25.6718L2.66678 25.6477L2.61687 25.6425Z" fill="black"/>
<path d="M8.64587 46.7515L8.89199 46.7876V46.822L8.64243 46.7859L8.64587 46.7515Z" fill="black"/>
<path d="M10.6888 46.6379L10.4272 46.6155V46.5863L10.6888 46.6104V46.6379Z" fill="black"/>
<path d="M17.7006 46.7396L17.9622 46.7188C17.8865 46.7675 17.8486 46.7709 17.7006 46.7396Z" fill="black"/>
<path d="M24.2339 46.1823L23.974 46.251V46.2253L24.2322 46.1496L24.2339 46.1823Z" fill="black"/>
<path d="M7.76295 46.6139L8.00907 46.6517V46.6844L7.76123 46.6431L7.76295 46.6139Z" fill="black"/>
<path d="M7.97463 46.2963L7.74228 46.2597C7.78133 46.2486 7.8223 46.246 7.8624 46.2524C7.90249 46.2587 7.94077 46.2736 7.97463 46.2963Z" fill="black"/>
<path d="M21.1204 46.8237L20.8726 46.8615V46.8306L21.1204 46.7927V46.8237Z" fill="black"/>
<path d="M18.4028 46.7256L18.1567 46.7445V46.7153L18.4028 46.6964V46.7256Z" fill="black"/>
<path d="M7.5392 46.2236L7.2948 46.1806V46.1548L7.53575 46.1995L7.5392 46.2236Z" fill="black"/>
<path d="M19.3063 47.0385L19.0533 47.0523V47.0282L19.3132 47.0042L19.3063 47.0385Z" fill="black"/>
<path d="M9.58386 46.8787L9.80416 46.9011V46.9337L9.58558 46.9011L9.58386 46.8787Z" fill="black"/>
<path d="M12.2602 46.7153L12.4994 46.7394V46.7669L12.2585 46.7394L12.2602 46.7153Z" fill="black"/>
<path d="M12.0433 46.7394L11.8058 46.7136V46.6878L12.0467 46.7102L12.0433 46.7394Z" fill="black"/>
<path d="M22.2081 46.6241L22.4474 46.5777V46.6018L22.2081 46.6482V46.6241Z" fill="black"/>
<path d="M19.518 46.6086L19.7418 46.5777V46.6069L19.518 46.6362V46.6086Z" fill="black"/>
<path d="M18.6058 46.6826L18.8451 46.662V46.6878L18.5989 46.7136L18.6058 46.6826Z" fill="black"/>
<path d="M20.4526 46.5024L20.6609 46.4763C20.6006 46.5442 20.5266 46.5163 20.4526 46.5024Z" fill="black"/>
<path d="M20.2048 46.5365C20.13 46.5739 20.0444 46.5825 19.9638 46.5609L20.2048 46.5365Z" fill="black"/>
<path d="M5.7613 45.8057L5.53412 45.7403C5.57446 45.7328 5.61602 45.7348 5.65546 45.7461C5.69491 45.7575 5.73115 45.7779 5.7613 45.8057Z" fill="black"/>
<path d="M24.6418 45.6612L24.4214 45.7369V45.7094L24.6435 45.6389L24.6418 45.6612Z" fill="black"/>
<path d="M10.4513 46.9646L10.6871 46.9938V47.0213L10.4513 46.9938V46.9646Z" fill="black"/>
<path d="M19.9621 46.9371L20.1996 46.9095V46.9353L19.9535 46.9732L19.9621 46.9371Z" fill="black"/>
<path d="M6.1864 46.3027L5.96094 46.2476V46.215L6.18296 46.282L6.1864 46.3027Z" fill="black"/>
<path d="M9.09507 46.4332L9.33087 46.4745V46.49L9.09335 46.4676L9.09507 46.4332Z" fill="black"/>
<path d="M11.3773 46.6603L11.6027 46.6843V46.7136L11.379 46.6878L11.3773 46.6603Z" fill="black"/>
<path d="M19.5163 46.9869L19.7624 46.9611V46.9852L19.5128 47.0127L19.5163 46.9869Z" fill="black"/>
<path d="M9.76285 46.5467L9.53738 46.5209V46.4917L9.77317 46.5278L9.76285 46.5467Z" fill="black"/>
<path d="M10.0227 46.5485L10.2413 46.5657V46.5967L10.021 46.5674L10.0227 46.5485Z" fill="black"/>
<path d="M18.3804 47.1022L18.1601 47.128V47.1004L18.3839 47.0746L18.3804 47.1022Z" fill="black"/>
<path d="M9.33425 46.8758L9.12256 46.8463V46.8289L9.34114 46.848L9.33425 46.8758Z" fill="black"/>
<path d="M20.4027 46.8873L20.6385 46.8632V46.8804L20.4027 46.9182V46.8873Z" fill="black"/>
<path d="M23.5541 46.337L23.7812 46.27V46.3026L23.5523 46.3594L23.5541 46.337Z" fill="black"/>
<path d="M21.5317 46.3799L21.3166 46.416V46.3885L21.5352 46.3541L21.5317 46.3799Z" fill="black"/>
<path d="M6.47382 45.9673L6.66314 46.0103L6.65454 46.0447L6.46866 45.9931L6.47382 45.9673Z" fill="black"/>
<path d="M21.7933 46.6964L21.9999 46.6569V46.6844L21.7968 46.7222L21.7933 46.6964Z" fill="black"/>
<path d="M6.02979 45.8572L6.21739 45.8985C6.18555 45.911 6.1507 45.9138 6.11729 45.9065C6.08387 45.8991 6.05341 45.882 6.02979 45.8572Z" fill="black"/>
<path d="M5.79056 46.184C5.77679 46.184 5.76302 46.1926 5.75097 46.184C5.69291 46.1676 5.63855 46.1402 5.59091 46.1032L5.794 46.1617L5.79056 46.184Z" fill="black"/>
<path d="M8.38424 46.7479L8.18631 46.7153V46.686L8.39456 46.7239L8.38424 46.7479Z" fill="black"/>
<path d="M13.403 46.7929H13.1655C13.2427 46.7676 13.3258 46.7676 13.403 46.7929Z" fill="black"/>
<path d="M17.0293 46.7963H16.7884V46.7823H17.0276L17.0293 46.7963Z" fill="black"/>
<path d="M14.0966 46.7996H14.3169V46.8204C14.279 46.8204 14.2429 46.8204 14.205 46.8204H14.1L14.0966 46.7996Z" fill="black"/>
<path d="M14.52 46.8065H14.7557V46.8186H14.52V46.8065Z" fill="black"/>
<path d="M15.0019 46.8065H15.2153V46.8169H14.9915L15.0019 46.8065Z" fill="black"/>
<path d="M15.4408 46.8082H15.6662V46.8186H15.4408V46.8082Z" fill="black"/>
<path d="M10.0004 46.9199L10.1931 46.9443V46.9634L10.0004 46.9547V46.9199Z" fill="black"/>
<path d="M22.8862 46.5193L22.69 46.5554V46.5348L22.7795 46.5124L22.8845 46.4935L22.8862 46.5193Z" fill="black"/>
<path d="M12.9555 47.1539H12.7163V47.1382H12.9607L12.9555 47.1539Z" fill="black"/>
<path d="M17.4975 47.1557L17.2513 47.1696V47.1418H17.4992L17.4975 47.1557Z" fill="black"/>
<path d="M13.8574 47.1867H13.6147V47.1693H13.8522L13.8574 47.1867Z" fill="black"/>
<path d="M17.0053 47.1782H16.7918V47.1608L17.0001 47.1504L17.0053 47.1782Z" fill="black"/>
<path d="M14.52 47.1865H14.7695V47.2039H14.52V47.1865Z" fill="black"/>
<path d="M14.9795 47.1865H15.2273V47.2039H14.9795V47.1865Z" fill="black"/>
<path d="M15.4287 47.1882H15.68V47.2021H15.4287V47.1882Z" fill="black"/>
<path d="M23.5385 45.9518L23.7107 45.9123V45.9364L23.5299 45.988L23.5385 45.9518Z" fill="black"/>
<path d="M4.28804 45.5581L4.43434 45.6424L4.42401 45.663L4.27255 45.5839L4.28804 45.5581Z" fill="black"/>
<path d="M23.1134 46.0516L23.2855 46.0137V46.043L23.1134 46.0808V46.0516Z" fill="black"/>
<path d="M11.0967 46.657H10.8936V46.6414H11.0967V46.657Z" fill="black"/>
<path d="M19.2805 46.6571L19.0946 46.6693V46.638L19.2788 46.6276L19.2805 46.6571Z" fill="black"/>
<path d="M12.9142 46.7774L12.7232 46.7687V46.7548H12.9159L12.9142 46.7774Z" fill="black"/>
<path d="M15.9072 46.7996H16.1275V46.8187H15.9055L15.9072 46.7996Z" fill="black"/>
<path d="M11.1415 47.0439H10.9435V47.0265H11.138L11.1415 47.0439Z" fill="black"/>
<path d="M11.3652 47.0575H11.5597V47.0732H11.3618L11.3652 47.0575Z" fill="black"/>
<path d="M18.8537 47.0715H18.6558V47.0541L18.8554 47.0454L18.8537 47.0715Z" fill="black"/>
<path d="M11.9986 47.1146L11.8127 47.1042V47.0833H11.9986V47.1146Z" fill="black"/>
<path d="M12.4444 47.1351L12.2585 47.1264V47.1125H12.4495L12.4444 47.1351Z" fill="black"/>
<path d="M13.2257 47.1572H13.4116V47.1867L13.2223 47.1763L13.2257 47.1572Z" fill="black"/>
<path d="M16.3839 47.1693H16.5784V47.1867H16.3839V47.1693Z" fill="black"/>
<path d="M16.081 47.2003H15.9089V47.1899H16.081V47.2003Z" fill="black"/>
<path d="M25.0927 45.5013L24.936 45.5581L24.9274 45.5357L25.0789 45.4721L25.0927 45.5013Z" fill="black"/>
<path d="M5.25182 45.6372L5.07971 45.5787C5.11097 45.5746 5.14276 45.5777 5.17261 45.5879C5.20247 45.598 5.22957 45.6149 5.25182 45.6372Z" fill="black"/>
<path d="M6.47385 46.3508L6.63047 46.392V46.4092L6.47557 46.3783L6.47385 46.3508Z" fill="black"/>
<path d="M6.86971 46.4401L7.02461 46.478V46.5003L6.86282 46.4625L6.86971 46.4401Z" fill="black"/>
<path d="M21.8846 46.3218L21.7589 46.3461V46.32L21.8846 46.2991V46.3218Z" fill="black"/>
<path d="M8.3085 46.3284L8.43414 46.3423V46.3666L8.31194 46.3527L8.3085 46.3284Z" fill="black"/>
<path d="M13.6147 46.7789H13.7421V46.7981H13.6147V46.7789Z" fill="black"/>
<path d="M4.81986 45.4464L4.93173 45.4859V45.5031C4.90966 45.5029 4.8877 45.5 4.86633 45.4945C4.84555 45.485 4.82542 45.474 4.80609 45.4618L4.81986 45.4464Z" fill="black"/>
<path d="M17.494 46.767L17.3667 46.7792V46.7531H17.4923L17.494 46.767Z" fill="black"/>
<path d="M21.5524 46.7655H21.4353V46.7516L21.5506 46.7377L21.5524 46.7655Z" fill="black"/>
<path d="M22.7778 46.155L22.6591 46.1776V46.1515L22.7795 46.1359L22.7778 46.155Z" fill="black"/>
<path d="M25.8448 45.1334L25.7398 45.1936L25.7295 45.1747L25.8328 45.1145L25.8448 45.1334Z" fill="black"/>
<path d="M3.97649 45.3826L3.90076 45.3207L3.91453 45.3035L3.98681 45.3637V45.3723C3.98681 45.3723 3.97649 45.3775 3.97649 45.3826Z" fill="black"/>
<path d="M4.80953 45.8315L4.68045 45.7971L4.69594 45.7627L4.80609 45.8349L4.80953 45.8315Z" fill="black"/>
<path d="M17.8245 47.1143L17.9381 47.1056V47.1282H17.8262L17.8245 47.1143Z" fill="black"/>
<path d="M24.9515 45.9346L24.8552 45.9708L24.8466 45.9518L24.9378 45.9123L24.9515 45.9346Z" fill="black"/>
<path d="M20.9052 46.4487H20.993V46.4592H20.907L20.9052 46.4487Z" fill="black"/>
<path d="M4.80609 45.8349L4.92313 45.8607L4.9128 45.8882L4.80953 45.8315L4.80609 45.8349Z" fill="black"/>
<path d="M26.2011 45.276L26.1184 45.3328L26.1081 45.3156L26.1856 45.2554L26.2011 45.276Z" fill="black"/>
<path d="M25.4128 45.7403L25.3336 45.7764L25.325 45.7609L25.3956 45.7214L25.4128 45.7403Z" fill="black"/>
<path d="M25.4128 45.3534L25.3336 45.3895L25.325 45.3741L25.3973 45.3362L25.4128 45.3534Z" fill="black"/>
<path d="M3.94556 44.9493L4.01612 45.0044L4.00752 45.0198L3.92834 44.9683L3.94556 44.9493Z" fill="black"/>
<path d="M5.11934 45.9432L5.20368 45.9759V45.9948L5.11246 45.9639L5.11934 45.9432Z" fill="black"/>
<path d="M8.64069 46.3954H8.71641C8.73853 46.3984 8.7604 46.403 8.78182 46.4094H8.70437C8.68279 46.4065 8.66149 46.4019 8.64069 46.3954Z" fill="black"/>
<path d="M27.8534 25.4259L28.0823 25.4603V25.493L27.8534 25.4569V25.4259Z" fill="black"/>
<path d="M27.0392 25.3295L27.2716 25.3588V25.3863L27.0444 25.3588L27.0392 25.3295Z" fill="black"/>
<path d="M25.6366 25.3932L25.4318 25.443V25.4172L25.6331 25.3674L25.6366 25.3932Z" fill="black"/>
<path d="M26.6658 25.3175H26.8671V25.3332H26.6709L26.6658 25.3175Z" fill="black"/>
<path d="M26.2424 25.3089H26.3904V25.3193H26.2407L26.2424 25.3089Z" fill="black"/>
<path d="M27.4799 25.3812L27.6399 25.3968V25.4177H27.4678L27.4799 25.3812Z" fill="black"/>
<path d="M25.9481 25.3554L25.819 25.3676V25.3467H25.9481V25.3554Z" fill="black"/>
<path d="M24.7554 25.6597L24.6573 25.7045C24.6573 25.6924 24.6573 25.6804 24.6573 25.6787L24.7502 25.6374L24.7554 25.6597Z" fill="black"/>
<path d="M4.07118 24.9959L4.31558 25.0389V25.0664L4.06946 25.0355L4.07118 24.9959Z" fill="black"/>
<path d="M3.86292 25.0029L3.63229 24.9788V24.9496L3.86636 24.9754L3.86292 25.0029Z" fill="black"/>
<path d="M1.84409 25.0906L2.06439 25.0149L2.07471 25.0424C2.00258 25.076 1.92365 25.0925 1.84409 25.0906Z" fill="black"/>
<path d="M5.1813 25.3124L4.94724 25.2281L4.95756 25.1971L5.19163 25.2797L5.1813 25.3124Z" fill="black"/>
<path d="M3.17621 24.9204C3.19233 24.9151 3.20915 24.9121 3.22612 24.9117C3.28507 24.913 3.34332 24.9248 3.39823 24.9465H3.17965L3.17621 24.9204Z" fill="black"/>
<path d="M2.26579 24.9753L2.49814 24.9461V24.9685L2.26407 25.0063L2.26579 24.9753Z" fill="black"/>
<path d="M2.71319 24.9186H2.91628V24.9342H2.70975L2.71319 24.9186Z" fill="black"/>
<path d="M4.53934 25.0819L4.71145 25.1215V25.1472L4.53934 25.1094V25.0819Z" fill="black"/>
<path d="M14.9141 15.2721L14.8677 15.5506H14.8333L14.8074 15.2721C14.7747 15.2566 14.7403 15.2428 14.7093 15.2256C14.6415 15.1939 14.587 15.1392 14.5556 15.0713C14.5241 15.0033 14.5176 14.9265 14.5372 14.8542C14.5544 14.7854 14.5942 14.7242 14.6501 14.6805C14.7061 14.6368 14.7751 14.6131 14.8462 14.6131C14.9172 14.6131 14.9862 14.6368 15.0422 14.6805C15.0982 14.7242 15.1379 14.7854 15.1551 14.8542C15.1737 14.9236 15.1679 14.9973 15.1388 15.063C15.1097 15.1287 15.059 15.1824 14.995 15.2153L14.9141 15.2721ZM14.847 15.2084C14.9165 15.2098 14.9837 15.184 15.0342 15.1364C15.0847 15.0888 15.1145 15.0233 15.1172 14.954C15.1164 14.8825 15.0877 14.8141 15.0372 14.7634C14.9868 14.7127 14.9186 14.6836 14.847 14.6823C14.7778 14.6841 14.7119 14.7127 14.6634 14.7621C14.6149 14.8115 14.5876 14.8779 14.5871 14.9471C14.5874 14.9809 14.5943 15.0144 14.6074 15.0456C14.6206 15.0769 14.6398 15.1052 14.664 15.129C14.6881 15.1527 14.7167 15.1716 14.7481 15.1843C14.7795 15.1971 14.8131 15.2035 14.847 15.2033V15.2084Z" fill="black"/>
<path d="M14.9709 20.0506L14.9262 20.3275H14.8952L14.8625 20.0523C14.7592 20.0111 14.6491 19.9629 14.6147 19.8426C14.5984 19.7718 14.5984 19.6983 14.6147 19.6276C14.6339 19.5621 14.6737 19.5044 14.7283 19.4632C14.7828 19.422 14.8492 19.3995 14.9176 19.3989C14.9895 19.4026 15.0583 19.4297 15.1136 19.4759C15.1689 19.5221 15.2076 19.585 15.2239 19.6551C15.2601 19.8168 15.1792 19.9423 14.9709 20.0506ZM15.1757 19.7274C15.1746 19.658 15.1474 19.5916 15.0996 19.5413C15.0518 19.4909 14.9868 19.4604 14.9176 19.4557C14.8483 19.4547 14.7813 19.4807 14.7309 19.5282C14.6804 19.5757 14.6505 19.641 14.6474 19.7102C14.645 19.7456 14.65 19.7811 14.662 19.8146C14.674 19.848 14.6928 19.8786 14.7172 19.9044C14.7416 19.9302 14.7711 19.9507 14.8038 19.9647C14.8365 19.9786 14.8717 19.9856 14.9072 19.9853C14.9768 19.9858 15.0438 19.9591 15.094 19.9109C15.1442 19.8627 15.1735 19.7968 15.1757 19.7274Z" fill="black"/>
<path d="M14.8866 10.6999L14.8367 10.9974C14.8168 10.9739 14.8024 10.9463 14.7947 10.9165C14.7869 10.8867 14.786 10.8556 14.7919 10.8254C14.7986 10.7889 14.7916 10.7511 14.7722 10.7194C14.7529 10.6877 14.7225 10.6642 14.687 10.6534C14.6305 10.6314 14.5824 10.5921 14.5497 10.5412C14.5169 10.4902 14.5011 10.4302 14.5045 10.3697C14.503 10.2977 14.5263 10.2273 14.5704 10.1703C14.6146 10.1134 14.677 10.0733 14.7472 10.0568C14.8218 10.0392 14.9002 10.0487 14.9683 10.0837C15.0364 10.1187 15.0899 10.1768 15.119 10.2476C15.149 10.3176 15.1526 10.396 15.1292 10.4684C15.1058 10.5408 15.0569 10.6022 14.9916 10.6414C14.9623 10.6638 14.9227 10.6792 14.8866 10.6999ZM15.0897 10.38C15.0893 10.3112 15.0625 10.2452 15.0148 10.1956C14.967 10.146 14.9021 10.1166 14.8332 10.1135C14.7989 10.1119 14.7645 10.1171 14.7322 10.1287C14.6998 10.1404 14.6701 10.1583 14.6447 10.1815C14.6192 10.2046 14.5986 10.2326 14.584 10.2637C14.5694 10.2948 14.5611 10.3285 14.5596 10.3628C14.5582 10.3981 14.5639 10.4333 14.5762 10.4664C14.5886 10.4995 14.6074 10.5298 14.6316 10.5556C14.6558 10.5813 14.6848 10.602 14.7171 10.6165C14.7493 10.6309 14.7841 10.6388 14.8195 10.6397C14.889 10.6385 14.9555 10.6111 15.0056 10.5629C15.0558 10.5147 15.0858 10.4494 15.0897 10.38Z" fill="black"/>
<path d="M14.8487 6.74489L14.7919 7.03205H14.7678L14.7299 6.75521L14.625 6.70362C14.566 6.66995 14.5192 6.61863 14.4911 6.55691C14.463 6.49519 14.455 6.42621 14.4683 6.35972C14.4814 6.30987 14.5064 6.26392 14.5411 6.22579C14.5758 6.18765 14.6192 6.15846 14.6676 6.14069C14.716 6.12293 14.768 6.11712 14.8192 6.12376C14.8704 6.1304 14.9191 6.14929 14.9614 6.17882C15.0037 6.20836 15.0382 6.24766 15.062 6.29339C15.0858 6.33911 15.0982 6.38991 15.0981 6.44145C15.098 6.49298 15.0855 6.54374 15.0615 6.58939C15.0376 6.63503 15.0029 6.67423 14.9606 6.70362C14.9241 6.71963 14.8868 6.73341 14.8487 6.74489ZM15.0432 6.4199C15.0436 6.3856 15.0372 6.35154 15.0244 6.31974C15.0115 6.28793 14.9924 6.25902 14.9682 6.23468C14.944 6.21034 14.9152 6.19107 14.8834 6.17799C14.8517 6.16492 14.8176 6.1583 14.7833 6.15853C14.7137 6.15761 14.6467 6.18422 14.5967 6.23254C14.5467 6.28087 14.5179 6.34699 14.5165 6.41646C14.5163 6.45198 14.5231 6.48719 14.5366 6.52004C14.5501 6.5529 14.57 6.58275 14.5952 6.60787C14.6203 6.63298 14.6502 6.65286 14.6831 6.66634C14.7159 6.67983 14.7512 6.68666 14.7867 6.68643C14.8211 6.68576 14.855 6.67833 14.8865 6.66457C14.9179 6.65081 14.9464 6.63099 14.9702 6.60624C14.994 6.58149 15.0127 6.5523 15.0253 6.52032C15.0378 6.48835 15.0439 6.45423 15.0432 6.4199ZM14.8022 6.76381H14.7764C14.7764 6.7724 14.7644 6.78272 14.7764 6.78788C14.7812 6.80046 14.7882 6.8121 14.7971 6.82227L14.8022 6.76381Z" fill="black"/>
<path d="M14.3375 6.31333V6.1087H14.3582V6.31505L14.3375 6.31333Z" fill="black"/>
<path d="M14.3909 18.2726V18.0611C14.4442 18.1282 14.415 18.2004 14.4253 18.2709L14.3909 18.2726Z" fill="black"/>
<path d="M14.3892 12.0961V12.3059C14.3393 12.2371 14.3616 12.1666 14.3565 12.0961H14.3892Z" fill="black"/>
<path d="M14.3995 17.6794L14.4253 17.9116C14.3806 17.8273 14.3806 17.8273 14.3995 17.6794Z" fill="black"/>
<path d="M15.2084 7.08027L15.1895 6.87909H15.2153V7.08371L15.2084 7.08027Z" fill="black"/>
<path d="M14.3341 5.92643V5.74072L14.3599 5.92643H14.3341Z" fill="black"/>
<path d="M15.2204 9.10414V8.92188L15.2445 9.10243L15.2204 9.10414Z" fill="black"/>
<path d="M15.3478 18.2245L15.3255 18.0388H15.3547V18.2262L15.3478 18.2245Z" fill="black"/>
<path d="M14.4081 18.639L14.384 18.4532H14.4133C14.4281 18.5145 14.4263 18.5786 14.4081 18.639Z" fill="black"/>
<path d="M15.3065 15.8739V15.683L15.3306 15.8722L15.3065 15.8739Z" fill="black"/>
<path d="M15.248 9.27778V9.46349H15.2377L15.2136 9.27606L15.248 9.27778Z" fill="black"/>
<path d="M15.3599 20.2381V20.049L15.3805 20.2364L15.3599 20.2381Z" fill="black"/>
<path d="M15.2927 13.8551L15.2721 13.6694H15.2996V13.8517L15.2927 13.8551Z" fill="black"/>
<path d="M14.3874 12.4796V12.6636L14.3651 12.4917L14.3874 12.4796Z" fill="black"/>
<path d="M15.4132 22.427V22.6127L15.3891 22.4236L15.4132 22.427Z" fill="black"/>
<path d="M15.2824 13.2808L15.3065 13.47H15.2772C15.2637 13.4074 15.2655 13.3425 15.2824 13.2808Z" fill="black"/>
<path d="M14.3616 11.8932V11.7092L14.3857 11.8966L14.3616 11.8932Z" fill="black"/>
<path d="M15.2462 11.4788V11.2965L15.2686 11.4805L15.2462 11.4788Z" fill="black"/>
<path d="M15.2945 14.6771V14.469H15.3082V14.6771H15.2945Z" fill="black"/>
<path d="M15.3667 19.2269V19.4264H15.353V19.2269H15.3667Z" fill="black"/>
<path d="M14.3978 15.272V15.456H14.384V15.2806L14.3978 15.272Z" fill="black"/>
<path d="M15.3495 19.0327V18.8607H15.3633V19.0464L15.3495 19.0327Z" fill="black"/>
<path d="M14.3995 14.8904V15.0864H14.384V14.8938L14.3995 14.8904Z" fill="black"/>
<path d="M15.31 14.8646V15.0468H15.2962V14.8646H15.31Z" fill="black"/>
<path d="M14.4201 19.2786V19.435H14.4115V19.2786H14.4201Z" fill="black"/>
<path d="M14.3823 14.6805V14.5085H14.3943V14.6805H14.3823Z" fill="black"/>
<path d="M15.2549 10.1135V10.2854H15.2394V10.1135H15.2549Z" fill="black"/>
<path d="M14.427 20.8622V21.0565H14.4098V20.8571L14.427 20.8622Z" fill="black"/>
<path d="M14.4253 21.244V21.4159H14.4133V21.244H14.4253Z" fill="black"/>
<path d="M15.3753 21.4348V21.2629H15.3908V21.4434L15.3753 21.4348Z" fill="black"/>
<path d="M15.353 19.8115V19.6688H15.3616V19.8133L15.353 19.8115Z" fill="black"/>
<path d="M14.3564 9.49446V9.32251H14.3685V9.49446H14.3564Z" fill="black"/>
<path d="M14.3719 8.90985V9.10416H14.3547V8.90985H14.3719Z" fill="black"/>
<path d="M14.353 8.70521V8.52466H14.3685V8.70521H14.353Z" fill="black"/>
<path d="M15.3237 17.0311V16.8488H15.3357V17.0328L15.3237 17.0311Z" fill="black"/>
<path d="M15.2274 8.09822V8.27017H15.2136V8.0965L15.2274 8.09822Z" fill="black"/>
<path d="M14.4201 18.8831V19.055H14.4115V18.8831H14.4201Z" fill="black"/>
<path d="M15.1981 5.70984V5.89211H15.186V5.70984H15.1981Z" fill="black"/>
<path d="M15.2824 12.4606V12.6326H15.2721C15.2721 12.6016 15.2721 12.5707 15.2618 12.5397C15.2514 12.5088 15.2618 12.4795 15.2618 12.4503L15.2824 12.4606Z" fill="black"/>
<path d="M19.537 3.6567L19.3218 3.57073L19.3322 3.54321L19.549 3.62919L19.537 3.6567Z" fill="black"/>
<path d="M24.1633 6.17745L24.1891 6.05536H24.2132L24.1823 6.17916L24.1633 6.17745Z" fill="black"/>
<path d="M20.5593 4.09518L20.4801 4.05563V4.04187L20.5662 4.07626L20.5593 4.09518Z" fill="black"/>
<path d="M20.9345 4.23273L21.0188 4.26712V4.28259L20.9259 4.25336L20.9345 4.23273Z" fill="black"/>
<path d="M20.1032 3.875L20.1875 3.90939V3.92659L20.1049 3.89048L20.1032 3.875Z" fill="black"/>
<path d="M5.44804 6.26C5.39125 6.21529 5.39125 6.21529 5.38092 6.06226L5.44804 6.26Z" fill="black"/>
<path d="M6.68555 5.15439L6.85766 5.07013L6.86626 5.08904L6.69415 5.1733L6.68555 5.15439Z" fill="black"/>
<path d="M7.78531 4.62132L7.95742 4.53534L7.96774 4.55425L7.80424 4.63679L7.78531 4.62132Z" fill="black"/>
<path d="M7.21734 4.91361L7.08654 4.97551L7.07449 4.95488L7.20186 4.88782L7.21734 4.91361Z" fill="black"/>
<path d="M5.3138 5.83533L5.2811 5.67542H5.30003L5.33789 5.83533H5.3138Z" fill="black"/>
<path d="M5.11759 4.85168L5.14169 4.97721H5.12448L5.09006 4.85684L5.11759 4.85168Z" fill="black"/>
<path d="M6.50997 5.2799L6.40326 5.33493L6.39465 5.31601L6.49964 5.26099L6.50997 5.2799Z" fill="black"/>
<path d="M8.60968 4.24304L8.70262 4.20349V4.22069L8.62345 4.26711L8.60968 4.24304Z" fill="black"/>
<path d="M5.60811 6.08287L5.55992 6.13789L5.54443 6.12758L5.58918 6.06567L5.60811 6.08287Z" fill="black"/>
<path d="M10.1294 3.61715L10.0365 3.65154V3.63263L10.1277 3.59308L10.1294 3.61715Z" fill="black"/>
<path d="M16.1034 1.24085H15.9055V1.23041H16.1034V1.24085Z" fill="black"/>
<path d="M16.902 1.24259H16.7126V1.23041H16.9054L16.902 1.24259Z" fill="black"/>
<path d="M17.3202 1.24259H17.1309V1.23041H17.3219L17.3202 1.24259Z" fill="black"/>
<path d="M17.5353 1.22186H17.7642C17.7296 1.24252 17.69 1.25342 17.6498 1.25342C17.6095 1.25342 17.57 1.24252 17.5353 1.22186Z" fill="black"/>
<path d="M17.9329 1.22522H18.1704V1.24436H17.9364L17.9329 1.22522Z" fill="black"/>
<path d="M11.3583 1.22357H11.6251C11.5356 1.24793 11.453 1.29143 11.3617 1.22357H11.3583Z" fill="black"/>
<path d="M11.7938 1.22357H12.0313V1.24445H11.7989L11.7938 1.22357Z" fill="black"/>
<path d="M12.2086 1.22357H12.4203V1.24445L12.2103 1.25489L12.2086 1.22357Z" fill="black"/>
<path d="M13.2326 1.24094H13.0347V1.22876H13.2326V1.24094Z" fill="black"/>
<path d="M13.4426 1.23041H13.6388V1.24085H13.4426V1.23041Z" fill="black"/>
<path d="M13.8659 1.22876H14.0535V1.2392H13.8642L13.8659 1.22876Z" fill="black"/>
<path d="M14.2773 1.22876H14.4752V1.2392H14.2807L14.2773 1.22876Z" fill="black"/>
<path d="M14.8642 1.24085H14.6663V1.23041H14.8642V1.24085Z" fill="black"/>
<path d="M14.3978 5.12689L14.131 5.06842V5.04091L14.3978 5.0134C14.5251 4.78298 14.6473 4.71592 14.8194 4.76407C14.8886 4.78436 14.949 4.82729 14.9909 4.88597C15.0327 4.94464 15.0537 5.01567 15.0503 5.08765C15.0469 5.15963 15.0194 5.22839 14.9723 5.2829C14.9251 5.33741 14.861 5.37451 14.7902 5.38826C14.6198 5.42093 14.4941 5.33667 14.3978 5.12689ZM14.9915 5.06842C14.9913 5.03395 14.9843 4.99987 14.9708 4.96813C14.9573 4.93639 14.9377 4.90763 14.9131 4.8835C14.8885 4.85936 14.8593 4.84034 14.8273 4.82751C14.7952 4.81469 14.761 4.80832 14.7265 4.80878C14.69 4.80663 14.6535 4.81206 14.6192 4.8247C14.5849 4.83735 14.5536 4.85694 14.5272 4.88225C14.5009 4.90757 14.4801 4.93805 14.4661 4.97179C14.4521 5.00553 14.4452 5.04179 14.4459 5.0783C14.4467 5.11481 14.4549 5.15078 14.4702 5.18395C14.4855 5.21711 14.5075 5.24676 14.5348 5.27103C14.5621 5.29529 14.5942 5.31365 14.629 5.32494C14.6637 5.33624 14.7004 5.34023 14.7368 5.33667C14.7712 5.33578 14.805 5.32813 14.8364 5.31417C14.8678 5.3002 14.8961 5.28019 14.9198 5.25528C14.9435 5.23037 14.962 5.20104 14.9743 5.16898C14.9866 5.13692 14.9924 5.10275 14.9915 5.06842Z" fill="black"/>
<path d="M15.1947 5.31086V5.47078H15.186L15.1757 5.29883L15.1947 5.31086Z" fill="black"/>
<path d="M11.1328 1.68781L11.1655 1.82365H11.1449L11.1105 1.69296L11.1328 1.68781Z" fill="black"/>
<path d="M12.2258 3.49335L12.1483 3.42801L12.1604 3.41254L12.243 3.471L12.2258 3.49335Z" fill="black"/>
<path d="M11.0795 1.26483V1.36628H11.0709V1.26483H11.0795Z" fill="black"/>
<path d="M11.8523 3.1185L11.8144 3.07379L11.8247 3.06348L11.8626 3.10818L11.8523 3.1185Z" fill="black"/>
<path d="M15.5699 4.55771L15.7919 4.50269C15.7385 4.59038 15.6576 4.58694 15.5802 4.5921L15.5699 4.55771Z" fill="black"/>
<path d="M17.5302 3.5088L17.4028 3.62745L17.5181 3.49677L17.5302 3.5088Z" fill="black"/>
<path d="M18.3013 2.14869L18.2617 2.26906H18.2462L18.2823 2.14697L18.3013 2.14869Z" fill="black"/>
<path d="M18.4802 1.28033L18.494 1.41446H18.4802V1.28033Z" fill="black"/>
<path d="M17.0879 3.87501L17.1326 3.84749C17.1401 3.84115 17.1491 3.83674 17.1587 3.83464C17.1683 3.83254 17.1782 3.83282 17.1877 3.83546L17.1154 3.89908L17.0879 3.87501Z" fill="black"/>
<path d="M26.8465 26.0655L27.1167 25.9899C27.0851 26.0293 27.0436 26.0596 26.9964 26.0777C26.9492 26.0958 26.8981 26.1011 26.8482 26.093L26.8465 26.0655Z" fill="black"/>
<path d="M26.4644 26.167L26.7123 26.1068C26.6823 26.1409 26.6447 26.1673 26.6025 26.1841C26.5603 26.2008 26.5148 26.2073 26.4696 26.2031L26.4644 26.167Z" fill="black"/>
<path d="M24.6796 26.4111H24.4335C24.5058 26.3492 24.5454 26.3475 24.6796 26.4111Z" fill="black"/>
<path d="M27.8688 25.7233C27.805 25.7875 27.7184 25.8239 27.6279 25.8248C27.6939 25.764 27.7791 25.7281 27.8688 25.7233Z" fill="black"/>
<path d="M26.0634 26.2547L26.3095 26.21C26.277 26.2392 26.2389 26.2613 26.1974 26.275C26.1559 26.2886 26.112 26.2934 26.0685 26.2891L26.0634 26.2547Z" fill="black"/>
<path d="M27.2423 25.9504L27.5074 25.8455C27.4787 25.8874 27.4382 25.9197 27.3909 25.9384C27.3437 25.9571 27.292 25.9613 27.2423 25.9504Z" fill="black"/>
<path d="M24.8466 26.3853L25.0892 26.363V26.3956C25.0507 26.4125 25.0088 26.4203 24.9667 26.4185C24.9247 26.4167 24.8836 26.4053 24.8466 26.3853Z" fill="black"/>
<path d="M25.9137 26.3285L25.6383 26.3681C25.7622 26.2856 25.8431 26.277 25.9137 26.3285Z" fill="black"/>
<path d="M25.4903 26.3853L25.251 26.4043V26.3733C25.3286 26.3505 25.4095 26.3412 25.4903 26.3458V26.3853Z" fill="black"/>
<path d="M2.94385 25.689C3.02899 25.6812 3.11463 25.6967 3.19169 25.7337V25.7681L2.94385 25.7216V25.689Z" fill="black"/>
<path d="M4.57544 25.8767C4.66266 25.8411 4.76015 25.8411 4.84737 25.8767C4.75854 25.9026 4.66427 25.9026 4.57544 25.8767Z" fill="black"/>
<path d="M3.99201 25.8798L3.75278 25.8608C3.82635 25.8239 3.91111 25.816 3.99029 25.8385L3.99201 25.8798Z" fill="black"/>
<path d="M3.58066 25.8368L3.31561 25.8007C3.358 25.7782 3.4064 25.7695 3.45397 25.776C3.50153 25.7825 3.54585 25.8038 3.58066 25.8368Z" fill="black"/>
<path d="M4.97131 25.8317L5.21399 25.8024C5.14342 25.8867 5.05737 25.8609 4.97648 25.8643L4.97131 25.8317Z" fill="black"/>
<path d="M4.3999 25.8818H4.15723V25.8609H4.3999V25.8818Z" fill="black"/>
<path d="M23.8294 7.87808L23.8724 7.63391C23.9017 7.7388 23.8983 7.76288 23.8294 7.87808Z" fill="black"/>
<path d="M24.0514 6.84638L24.0101 7.07508H23.9843L24.0205 6.84467L24.0514 6.84638Z" fill="black"/>
<path d="M23.9017 7.46713L23.9482 7.26422H23.974L23.9361 7.47056L23.9017 7.46713Z" fill="black"/>
<path d="M5.71138 7.87816L5.67868 7.67181H5.70278L5.7372 7.87816H5.71138Z" fill="black"/>
<path d="M5.55133 6.86188L5.59952 7.07854H5.56854L5.52551 6.86532L5.55133 6.86188Z" fill="black"/>
<path d="M5.64081 7.4602L5.60983 7.27106H5.63393L5.66835 7.46364L5.64081 7.4602Z" fill="black"/>
<path d="M14.847 15.2033C14.8126 15.2035 14.7786 15.1969 14.7468 15.1838C14.7151 15.1708 14.6863 15.1515 14.6621 15.1272C14.6379 15.1028 14.6188 15.0739 14.6059 15.0421C14.593 15.0103 14.5866 14.9762 14.5871 14.9419C14.5875 14.8727 14.6149 14.8064 14.6634 14.757C14.7119 14.7075 14.7777 14.6789 14.847 14.6771C14.9185 14.6785 14.9867 14.7076 15.0372 14.7583C15.0876 14.809 15.1163 14.8773 15.1172 14.9488C15.1145 15.0181 15.0847 15.0836 15.0341 15.1312C14.9836 15.1788 14.9164 15.2047 14.847 15.2033ZM14.9107 15.064C14.8831 15.0451 14.8642 15.0227 14.8504 15.0245C14.8366 15.0262 14.8194 15.052 14.8057 15.0657C14.8212 15.0812 14.8349 15.1053 14.8504 15.1053C14.8659 15.1053 14.8831 15.0847 14.9107 15.064ZM14.9107 14.9419C14.9348 14.9608 14.9502 14.9815 14.964 14.9815C14.9778 14.9815 14.9933 14.9557 15.007 14.9419C14.9933 14.9282 14.9795 14.9041 14.964 14.9024C14.9485 14.9007 14.9365 14.9282 14.9124 14.9419H14.9107ZM14.7385 15.0038C14.754 14.9763 14.773 14.9574 14.7712 14.9436C14.7695 14.9299 14.7437 14.9161 14.7282 14.9024C14.7162 14.9196 14.6921 14.9351 14.6921 14.9505C14.6921 14.966 14.711 14.9798 14.7334 15.0038H14.7385ZM14.9107 14.8319C14.8848 14.813 14.8693 14.7906 14.8539 14.7906C14.8384 14.7906 14.8229 14.8147 14.8074 14.8284C14.8212 14.8422 14.8349 14.8663 14.8504 14.868C14.8659 14.8697 14.8762 14.8456 14.9038 14.8284L14.9107 14.8319Z" fill="white"/>
<path d="M15.1757 19.7273C15.1735 19.7968 15.1441 19.8627 15.094 19.9109C15.0438 19.9591 14.9768 19.9858 14.9072 19.9853C14.8717 19.9856 14.8364 19.9786 14.8037 19.9646C14.771 19.9507 14.7416 19.9302 14.7172 19.9044C14.6928 19.8786 14.674 19.848 14.662 19.8145C14.6499 19.7811 14.645 19.7456 14.6473 19.7101C14.6505 19.641 14.6804 19.5757 14.7308 19.5282C14.7813 19.4807 14.8482 19.4547 14.9175 19.4557C14.9868 19.4604 15.0518 19.4909 15.0996 19.5412C15.1474 19.5916 15.1746 19.658 15.1757 19.7273ZM14.7867 19.6654C14.7661 19.6929 14.7437 19.7101 14.7454 19.7256C14.7472 19.7411 14.7695 19.7566 14.7833 19.7703C14.7988 19.7566 14.8229 19.7428 14.8246 19.7273C14.8263 19.7119 14.8057 19.6947 14.7867 19.6654ZM15.0243 19.6654C15.007 19.6929 14.9847 19.7084 14.9864 19.7239C14.9881 19.7394 15.0105 19.7549 15.0243 19.7686C15.038 19.7549 15.0621 19.7411 15.0638 19.7256C15.0656 19.7101 15.0432 19.6895 15.0243 19.662V19.6654ZM14.9933 19.6035C14.9485 19.5846 14.9296 19.5691 14.9107 19.5691C14.8917 19.5691 14.878 19.5915 14.8607 19.6035C14.8728 19.619 14.8831 19.6448 14.8986 19.6482C14.9141 19.6517 14.933 19.6293 14.9916 19.6001L14.9933 19.6035ZM14.9761 19.8666L14.9554 19.8339C14.9382 19.8254 14.9175 19.8064 14.9021 19.8099C14.8866 19.8133 14.878 19.8408 14.8676 19.8563C14.8831 19.8683 14.8986 19.8873 14.9158 19.889C14.9374 19.8843 14.9578 19.8756 14.9761 19.8632V19.8666Z" fill="white"/>
<path d="M15.0896 10.38C15.0857 10.4494 15.0557 10.5147 15.0056 10.5629C14.9555 10.6111 14.889 10.6385 14.8194 10.6397C14.7839 10.6388 14.749 10.6309 14.7166 10.6163C14.6842 10.6018 14.6551 10.5809 14.6309 10.555C14.6067 10.529 14.5879 10.4985 14.5757 10.4652C14.5634 10.4319 14.5579 10.3966 14.5595 10.3611C14.5631 10.2921 14.5939 10.2273 14.6452 10.1809C14.6965 10.1345 14.7641 10.1102 14.8332 10.1135C14.902 10.1166 14.967 10.146 15.0147 10.1956C15.0624 10.2452 15.0893 10.3112 15.0896 10.38ZM14.8762 10.2562C14.8487 10.2373 14.8315 10.2184 14.816 10.2184C14.8005 10.2184 14.7867 10.2425 14.7712 10.2562C14.7884 10.2717 14.8039 10.2941 14.8246 10.2992C14.8452 10.3044 14.8521 10.2855 14.8762 10.2562ZM14.8074 10.54L14.8435 10.5623C14.8435 10.5417 14.8659 10.521 14.8625 10.5004C14.859 10.4798 14.8401 10.4677 14.828 10.4523C14.8125 10.4643 14.7867 10.4729 14.7833 10.4884C14.7798 10.5038 14.7988 10.5228 14.8074 10.54ZM14.9313 10.3199C14.9175 10.3474 14.8986 10.3646 14.902 10.3783C14.9055 10.3921 14.9279 10.4041 14.9433 10.4162C14.9554 10.4007 14.9778 10.3869 14.9778 10.3714C14.9778 10.356 14.9537 10.3439 14.9313 10.3199ZM14.7041 10.4368C14.7196 10.4076 14.7368 10.3904 14.7368 10.3732C14.7368 10.356 14.711 10.3388 14.7041 10.3405C14.6972 10.3422 14.6628 10.3628 14.6594 10.3783C14.6559 10.3938 14.6817 10.4093 14.7041 10.4368Z" fill="white"/>
<path d="M15.0432 6.4199C15.0439 6.45422 15.0378 6.48835 15.0253 6.52032C15.0128 6.55229 14.9941 6.58149 14.9702 6.60624C14.9464 6.63099 14.918 6.65081 14.8865 6.66457C14.855 6.67833 14.8211 6.68575 14.7868 6.68643C14.7512 6.68665 14.716 6.67983 14.6831 6.66634C14.6502 6.65286 14.6203 6.63298 14.5952 6.60786C14.57 6.58275 14.5501 6.5529 14.5366 6.52004C14.5232 6.48718 14.5163 6.45198 14.5165 6.41646C14.5179 6.34698 14.5467 6.28087 14.5967 6.23254C14.6467 6.18422 14.7138 6.15761 14.7833 6.15853C14.8177 6.1583 14.8517 6.16491 14.8834 6.17799C14.9152 6.19106 14.944 6.21033 14.9682 6.23467C14.9924 6.25901 15.0115 6.28793 15.0244 6.31974C15.0373 6.35154 15.0437 6.38559 15.0432 6.4199ZM14.8349 6.54886C14.8126 6.52651 14.7988 6.50416 14.785 6.50416C14.7713 6.50416 14.7541 6.52479 14.7386 6.53683C14.7506 6.5523 14.7609 6.57638 14.7747 6.57982C14.7885 6.58325 14.8074 6.56434 14.8349 6.54886ZM14.8969 6.36487C14.8763 6.39067 14.8539 6.40786 14.8556 6.42162C14.8573 6.43538 14.8814 6.46289 14.8952 6.46289C14.9051 6.46034 14.9142 6.4554 14.9217 6.4485C14.9292 6.4416 14.9349 6.43296 14.9382 6.42334C14.9399 6.40958 14.9158 6.39067 14.8969 6.36487ZM14.7248 6.43194C14.7007 6.4113 14.6869 6.38895 14.6714 6.38895C14.6625 6.39079 14.6541 6.3947 14.6469 6.40038C14.6397 6.40605 14.634 6.41333 14.6301 6.42162C14.631 6.43137 14.6348 6.44064 14.6409 6.44829C14.647 6.45593 14.6552 6.46161 14.6646 6.46461C14.6697 6.46633 14.6887 6.44741 14.7162 6.43194H14.7248ZM14.8711 6.29437C14.8315 6.2789 14.8109 6.2617 14.7902 6.26342C14.7695 6.26514 14.7472 6.28578 14.7472 6.29953C14.7481 6.30946 14.7516 6.31898 14.7573 6.32713C14.763 6.33528 14.7708 6.34177 14.7799 6.34596C14.785 6.3494 14.8057 6.33048 14.8625 6.29437H14.8711Z" fill="white"/>
<path d="M14.8022 6.75863L14.7884 6.81365C14.7796 6.80348 14.7726 6.79184 14.7678 6.77926C14.7678 6.77926 14.7678 6.76379 14.7678 6.75519L14.8022 6.75863Z" fill="white"/>
<path d="M14.9915 5.06839C14.9924 5.10272 14.9866 5.13689 14.9743 5.16895C14.962 5.20101 14.9435 5.23034 14.9198 5.25525C14.8961 5.28016 14.8678 5.30017 14.8364 5.31413C14.805 5.3281 14.7712 5.33575 14.7368 5.33664C14.7004 5.3402 14.6637 5.33621 14.629 5.32491C14.5942 5.31362 14.5621 5.29526 14.5348 5.271C14.5075 5.24673 14.4855 5.21708 14.4702 5.18392C14.4549 5.15075 14.4467 5.11478 14.4459 5.07827C14.4452 5.04176 14.4521 5.00549 14.4661 4.97176C14.4801 4.93802 14.5009 4.90753 14.5272 4.88222C14.5536 4.85691 14.5849 4.83732 14.6192 4.82467C14.6535 4.81203 14.69 4.8066 14.7265 4.80874C14.761 4.80829 14.7952 4.81466 14.8273 4.82748C14.8593 4.84031 14.8885 4.85933 14.9131 4.88347C14.9377 4.9076 14.9573 4.93636 14.9708 4.9681C14.9843 4.99984 14.9913 5.03392 14.9915 5.06839ZM14.847 5.01509C14.8263 5.03916 14.8039 5.05636 14.8039 5.07011C14.8066 5.07973 14.8116 5.08854 14.8185 5.09574C14.8254 5.10294 14.834 5.10832 14.8435 5.11138C14.8531 5.10918 14.8619 5.10454 14.8692 5.09791C14.8764 5.09128 14.8818 5.08289 14.8848 5.07355C14.8831 5.05979 14.8607 5.0426 14.8418 5.01509H14.847ZM14.7816 5.18704C14.7557 5.16812 14.7403 5.14577 14.7248 5.14749C14.7157 5.1499 14.7074 5.15467 14.7007 5.16132C14.6941 5.16796 14.6893 5.17624 14.6869 5.18532C14.6892 5.19464 14.6939 5.20319 14.7006 5.21013C14.7072 5.21707 14.7155 5.22215 14.7248 5.22487C14.7351 5.22831 14.7506 5.20595 14.7764 5.18876L14.7816 5.18704ZM14.594 5.12686C14.6181 5.09934 14.6421 5.08387 14.6421 5.06839C14.6421 5.05292 14.6198 5.03572 14.6008 5.02884C14.5819 5.02197 14.5664 5.04604 14.5664 5.05808C14.5721 5.08224 14.5814 5.10542 14.594 5.12686ZM14.7213 5.00649C14.7403 4.98242 14.7626 4.96522 14.7626 4.94975C14.7626 4.93427 14.7385 4.92051 14.7248 4.90504C14.711 4.91879 14.6869 4.93083 14.6852 4.94631C14.6835 4.96178 14.7041 4.98242 14.7213 5.00821V5.00649Z" fill="white"/>
<path d="M14.9107 15.0641C14.8831 15.0847 14.8659 15.107 14.8504 15.1053C14.8349 15.1036 14.8212 15.0812 14.8057 15.0658C14.8194 15.052 14.8332 15.0279 14.8504 15.0245C14.8676 15.0211 14.8831 15.0451 14.9107 15.0641Z" fill="black"/>
<path d="M14.9124 14.9419C14.9365 14.9229 14.952 14.9006 14.9657 14.9023C14.9795 14.904 14.995 14.9281 15.0088 14.9419C14.995 14.9556 14.9812 14.9797 14.9657 14.9814C14.9502 14.9831 14.9365 14.9608 14.9124 14.9419Z" fill="black"/>
<path d="M14.7334 15.0039C14.711 14.9798 14.6869 14.9643 14.6869 14.9506C14.6869 14.9368 14.711 14.9196 14.723 14.9024C14.7385 14.9162 14.7626 14.9282 14.7661 14.9437C14.7695 14.9591 14.7488 14.9763 14.7334 15.0039Z" fill="black"/>
<path d="M14.9038 14.8285C14.8762 14.8457 14.859 14.8663 14.8435 14.8646C14.828 14.8629 14.8143 14.8388 14.8005 14.825C14.816 14.8113 14.8298 14.7889 14.847 14.7872C14.8642 14.7855 14.878 14.8095 14.9038 14.8285Z" fill="black"/>
<path d="M14.7867 19.6654C14.8057 19.6946 14.828 19.7118 14.8246 19.7273C14.8212 19.7428 14.7988 19.7565 14.7833 19.7703C14.7695 19.7565 14.7454 19.7411 14.7454 19.7256C14.7454 19.7101 14.7661 19.6929 14.7867 19.6654Z" fill="black"/>
<path d="M15.0243 19.662C15.0432 19.6895 15.0656 19.7067 15.0638 19.7222C15.0621 19.7376 15.038 19.7514 15.0243 19.7652C15.0105 19.7514 14.9881 19.7376 14.9864 19.7205C14.9847 19.7033 15.007 19.6895 15.0243 19.662Z" fill="black"/>
<path d="M14.9915 19.6001C14.9313 19.6293 14.9124 19.6482 14.8969 19.6448C14.8814 19.6413 14.8711 19.6155 14.859 19.6001C14.8762 19.588 14.8917 19.5674 14.9089 19.5657C14.9261 19.564 14.9485 19.5811 14.9915 19.6001Z" fill="black"/>
<path d="M14.976 19.8632C14.9575 19.8743 14.9371 19.8819 14.9158 19.8855C14.8986 19.8855 14.8831 19.8649 14.8676 19.8528C14.8779 19.8374 14.8883 19.8116 14.902 19.8064C14.9158 19.8013 14.9382 19.8219 14.9554 19.8305L14.976 19.8632Z" fill="black"/>
<path d="M14.8762 10.2562C14.8521 10.2768 14.8332 10.3026 14.8246 10.2992C14.816 10.2957 14.7885 10.2717 14.7712 10.2562C14.7867 10.2424 14.8005 10.2201 14.816 10.2184C14.8315 10.2166 14.8487 10.2373 14.8762 10.2562Z" fill="black"/>
<path d="M14.8074 10.5399C14.7988 10.5227 14.7781 10.5021 14.7833 10.4883C14.7885 10.4746 14.8194 10.4574 14.828 10.4574C14.8401 10.4729 14.8607 10.4883 14.8625 10.5055C14.8642 10.5227 14.8504 10.5468 14.8435 10.5674L14.8074 10.5399Z" fill="black"/>
<path d="M14.9313 10.3198C14.9537 10.3438 14.9778 10.3576 14.9778 10.3713C14.9778 10.3851 14.9554 10.4006 14.9434 10.4161C14.9279 10.404 14.9055 10.3937 14.9021 10.3782C14.8986 10.3628 14.9175 10.3473 14.9313 10.3198Z" fill="black"/>
<path d="M14.7041 10.4367C14.6818 10.4092 14.6577 10.392 14.6594 10.3783C14.6611 10.3645 14.6869 10.3473 14.7041 10.3405C14.7213 10.3336 14.7368 10.3628 14.7368 10.3731C14.7368 10.3834 14.7196 10.4075 14.7041 10.4367Z" fill="black"/>
<path d="M14.8349 6.54892C14.8074 6.5644 14.7902 6.58331 14.7747 6.57987C14.7592 6.57643 14.7506 6.55236 14.7385 6.53688C14.754 6.52485 14.7695 6.50421 14.785 6.50421C14.8005 6.50421 14.8194 6.52657 14.8349 6.54892Z" fill="black"/>
<path d="M14.8969 6.36487C14.9158 6.39066 14.9399 6.40958 14.9382 6.42333C14.9348 6.43295 14.9292 6.4416 14.9217 6.4485C14.9141 6.45539 14.9051 6.46034 14.8952 6.46288C14.8814 6.46288 14.8573 6.43709 14.8556 6.42161C14.8539 6.40614 14.8762 6.39066 14.8969 6.36487Z" fill="black"/>
<path d="M14.7162 6.43197C14.6886 6.44744 14.6697 6.46636 14.6559 6.46464C14.6466 6.46164 14.6383 6.45596 14.6322 6.44832C14.6261 6.44067 14.6224 6.4314 14.6215 6.42165C14.6253 6.41336 14.6311 6.40608 14.6383 6.40041C14.6454 6.39473 14.6538 6.39082 14.6628 6.38898C14.6783 6.38898 14.6921 6.41133 14.7162 6.43197Z" fill="black"/>
<path d="M14.8624 6.29444C14.8056 6.32883 14.785 6.34946 14.7712 6.34602C14.7622 6.34183 14.7544 6.33534 14.7486 6.32719C14.7429 6.31904 14.7394 6.30952 14.7385 6.2996C14.7385 6.28584 14.7661 6.26521 14.7816 6.26349C14.797 6.26177 14.8194 6.27896 14.8624 6.29444Z" fill="black"/>
<path d="M14.8418 5.01508C14.8607 5.04259 14.8831 5.05978 14.8797 5.07354C14.8766 5.08288 14.8712 5.09127 14.864 5.0979C14.8568 5.10453 14.8479 5.10917 14.8384 5.11137C14.8288 5.10831 14.8203 5.10293 14.8133 5.09573C14.8064 5.08853 14.8014 5.07972 14.7988 5.0701C14.7988 5.05634 14.8194 5.03915 14.8418 5.01508Z" fill="black"/>
<path d="M14.7764 5.18881C14.7506 5.20601 14.7351 5.22836 14.7196 5.22664C14.7104 5.22392 14.702 5.21884 14.6954 5.2119C14.6888 5.20497 14.684 5.19641 14.6817 5.18709C14.6841 5.17801 14.6889 5.16973 14.6956 5.16309C14.7022 5.15645 14.7105 5.15168 14.7196 5.14926C14.7351 5.14754 14.7506 5.1699 14.7764 5.18881Z" fill="black"/>
<path d="M14.594 5.1269C14.5814 5.10546 14.5722 5.08228 14.5664 5.05812C14.5664 5.04608 14.594 5.02545 14.6009 5.02888C14.6077 5.03232 14.6422 5.05468 14.6422 5.06843C14.6422 5.08219 14.6181 5.1011 14.594 5.1269Z" fill="black"/>
<path d="M14.7213 5.00819C14.7041 4.9824 14.6835 4.96348 14.6852 4.94801C14.6869 4.93253 14.711 4.92049 14.7248 4.90674C14.7385 4.92221 14.7609 4.93597 14.7626 4.95145C14.7644 4.96692 14.7403 4.98412 14.7213 5.00819Z" fill="black"/>
</svg>
