<svg width="28" height="47" viewBox="0 0 28 47" fill="none" xmlns="http://www.w3.org/2000/svg">
<path d="M25.926 5.59208C25.9382 5.54044 25.9453 5.48666 25.9453 5.43143V1.14746C25.9453 0.514565 25.4308 0 24.7979 0H2.82041C2.18787 0 1.67295 0.514565 1.67295 1.14746V5.43143C1.67295 5.48666 1.68048 5.54044 1.69267 5.59208L0.511501 37.9802C0.497875 38.3603 0.794422 38.6795 1.17452 38.6935C1.55426 38.7064 1.87375 38.4105 1.88774 38.0304L2.81503 12.6009C4.47956 11.9418 5.7762 10.5563 6.58121 8.56078C6.97027 7.59691 7.16283 6.69615 7.2557 6.11991H13.1207V13.5816L9.48572 45.623H1.61091L1.73534 42.2072C1.74932 41.8271 1.45242 41.508 1.07232 41.494C0.692585 41.4789 0.373089 41.7769 0.359463 42.157L0.22607 45.8106C0.214954 46.1204 0.331493 46.4259 0.546642 46.6489C0.761791 46.872 1.063 47 1.37281 47H9.69047C10.2746 47 10.7648 46.5622 10.8304 45.982L13.8091 19.7277L14.645 27.0941C14.688 27.472 15.0298 27.7435 15.4066 27.7008C15.7846 27.6578 16.056 27.3167 16.013 26.9388L14.4976 13.5816V11.7808H14.5216C15.9004 11.7808 17.022 10.6861 17.022 9.34105V6.11991H20.3626C20.4554 6.69615 20.648 7.59691 21.0371 8.56078C21.8421 10.5563 23.1391 11.9418 24.8036 12.6009L26.0077 45.623H18.1329L16.4892 31.136C16.4465 30.758 16.1048 30.4862 15.7276 30.5296C15.35 30.5723 15.0782 30.9133 15.1212 31.2913L16.7879 45.9816C16.8535 46.5622 17.3437 47 17.9282 47H26.2458C26.5556 47 26.8565 46.872 27.0716 46.6489C27.2868 46.4259 27.4037 46.1204 27.3922 45.8109L25.926 5.59208ZM2.87133 11.0544L3.05133 6.11991H5.85795C5.62703 7.37244 4.91954 9.89362 2.87133 11.0544ZM8.27838 4.74296H3.0499V1.37695H8.27838V4.74296ZM15.6451 9.34069C15.6451 9.92697 15.1413 10.4035 14.5216 10.4035H14.4976V6.11991H15.6451V9.34069ZM17.9629 4.74296H9.65533V1.37695H17.9629V4.74296ZM20.9693 4.74296H19.3399V1.37695H24.5684V4.74296H20.9693ZM21.7621 6.11991H24.5669L24.747 11.0533C22.7084 9.89362 21.9963 7.37315 21.7621 6.11991Z" fill="black"/>
<path d="M14.6171 3.15732C14.6171 3.60339 14.2553 3.9652 13.8092 3.9652C13.3631 3.9652 13.0017 3.60339 13.0017 3.15732C13.0017 2.71124 13.3631 2.34979 13.8092 2.34979C14.2553 2.34979 14.6171 2.71124 14.6171 3.15732Z" fill="black"/>
</svg>
