<svg width="20" height="46" viewBox="0 0 20 46" fill="none" xmlns="http://www.w3.org/2000/svg">
<path d="M18.6832 25.994C18.2263 26.1162 17.79 26.2707 17.3332 26.3629C16.5109 26.5266 15.7068 26.7756 14.8914 26.967C14.8461 26.9771 14.8055 27.002 14.7757 27.0379C14.746 27.0738 14.7288 27.1185 14.7269 27.1653C14.725 27.2073 14.7395 27.2485 14.7672 27.2799C14.795 27.3113 14.8338 27.3306 14.8754 27.3336C15.1518 27.3728 15.4008 27.5388 15.6886 27.5065L16.0152 27.4903C16.3669 27.4429 16.711 27.3492 17.0385 27.2114C17.8037 26.907 18.5849 26.6258 19.1332 25.9502V25.8949C18.9789 25.9033 18.8269 25.9368 18.6832 25.994Z" fill="black"/>
<path d="M16.5215 41.0514L16.5045 38.5399V38.347C16.5045 38.1668 16.5045 37.985 16.4834 37.8064C16.4798 37.7759 16.4742 37.7456 16.4665 37.7155C16.4876 37.3966 16.4664 37.0665 16.4495 36.7428C16.4638 36.621 16.4524 36.4983 16.4157 36.3792L16.403 35.7876C16.4158 35.6905 16.4029 35.5924 16.3649 35.499C16.3649 35.3395 16.3649 35.1801 16.3501 35.0206C16.3141 34.5821 16.3078 34.142 16.2189 33.7083L16.1999 33.4149C16.1929 33.2194 16.1646 33.0248 16.1152 32.8328C16.1152 32.7595 16.1025 32.6861 16.0983 32.6128C16.1104 32.5688 16.099 32.5229 16.0666 32.4852L16.0517 32.2715C16.0586 32.2498 16.0593 32.2272 16.0539 32.2052C16.0484 32.1832 16.0369 32.1624 16.02 32.144L16.001 31.9654C16.0077 31.9434 16.0085 31.9207 16.0034 31.8985C15.9984 31.8764 15.9874 31.8552 15.9713 31.8362C15.9713 31.7772 15.9565 31.7182 15.9502 31.6592C15.9438 31.6002 15.9184 31.4997 15.9036 31.4296C15.9192 31.3626 15.9051 31.2937 15.8634 31.2334L15.8465 31.0867L15.8169 30.999L15.7978 30.8571C15.7887 30.7375 15.7603 30.6192 15.7132 30.5047L15.6984 30.3979C15.4664 29.3093 15.1219 28.236 14.668 27.1879C14.6299 27.097 14.503 27.0285 14.541 26.92C14.5436 26.8768 14.5239 26.8345 14.486 26.802C14.476 26.7441 14.4461 26.6892 14.3993 26.6426C14.3273 26.6075 14.3591 26.5453 14.3337 26.4991C14.3083 26.4528 14.3337 26.4433 14.2871 26.4321C14.2406 26.4209 14.2681 26.346 14.2321 26.3093C14.2274 26.2507 14.1978 26.1947 14.1475 26.1498C14.0883 26.0494 14.0311 25.9473 13.9719 25.8453C13.9523 25.9627 13.9765 26.082 14.0417 26.1897C14.0475 26.2847 14.08 26.3776 14.1369 26.4624V26.5724L14.1877 26.6872C14.1816 26.7282 14.1968 26.7693 14.23 26.802L14.2871 26.92C14.2871 26.9519 14.2744 26.9822 14.3231 26.9998C14.2941 27.1148 14.3118 27.2337 14.3739 27.341C14.4522 27.6456 14.5305 27.9486 14.6066 28.2531L14.6426 28.4126L14.833 29.2609L14.8457 29.3678C14.8378 29.388 14.8363 29.4094 14.8415 29.4302C14.8466 29.451 14.8582 29.4706 14.8753 29.4874L14.8986 29.6739C14.8936 29.6949 14.8941 29.7164 14.9003 29.7373C14.9065 29.7581 14.9181 29.7777 14.9346 29.7951L14.9494 29.9418C14.9392 29.985 14.9514 30.0295 14.9832 30.0662C14.9832 30.1268 14.9832 30.1858 15.0002 30.2464C14.992 30.2895 15.004 30.3335 15.034 30.3708L15.051 30.5525L15.1462 31.1282C15.1533 31.3111 15.1831 31.4932 15.235 31.672C15.235 31.7453 15.235 31.8187 15.252 31.8904C15.2405 31.9449 15.2523 32.0008 15.2858 32.0499L15.3049 32.2699C15.2923 32.3243 15.3034 32.3802 15.3366 32.4294C15.3366 32.5027 15.3366 32.5745 15.3514 32.6479C15.3402 32.705 15.352 32.7633 15.3853 32.8153L15.4043 33.0672C15.3898 33.1332 15.4016 33.2009 15.4382 33.2618L15.4508 33.4882C15.4383 33.5574 15.4507 33.628 15.4868 33.6923L15.5059 33.9841C15.5355 34.3031 15.5609 34.622 15.5968 34.9409C15.6413 35.373 15.6942 35.8068 15.7428 36.2405L15.7555 36.5387C15.743 36.6194 15.7553 36.7013 15.7915 36.7779C15.7915 36.8895 15.7915 37.0011 15.8063 37.1111C15.7955 37.192 15.8085 37.2737 15.8444 37.3503L15.8571 37.6469C15.8698 37.8176 15.8782 37.9866 15.8973 38.1572C15.9502 38.6276 15.9565 39.1012 16.0433 39.57L16.0623 39.9017C16.0693 40.1484 16.0976 40.3945 16.147 40.6384C16.147 40.7373 16.147 40.8345 16.1639 40.9334C16.1511 41.0029 16.162 41.0737 16.1956 41.1391C16.1956 41.2364 16.2062 41.3353 16.2104 41.4325C16.2016 41.4993 16.2147 41.5666 16.2485 41.6287C16.2485 41.7164 16.2591 41.8025 16.2654 41.8886C16.2521 41.9572 16.2638 42.0272 16.2993 42.0911C16.2993 42.1772 16.2993 42.2617 16.3162 42.3478C16.3047 42.4022 16.3158 42.4579 16.348 42.5073L16.367 42.764C16.3955 43.1555 16.4506 43.5456 16.532 43.9329C16.532 43.3205 16.549 42.7114 16.532 42.1007C16.5447 41.7626 16.568 41.4054 16.5215 41.0514ZM16.2866 36.1353C16.2879 36.1618 16.2829 36.1882 16.2718 36.2134C16.278 36.1838 16.278 36.1537 16.2718 36.1241L16.2866 36.1353ZM15.8782 37.344C15.877 37.3498 15.877 37.3557 15.8782 37.3615V37.344ZM15.6794 30.5557C15.6794 30.5557 15.6794 30.5478 15.6794 30.5446C15.6794 30.5446 15.6794 30.5525 15.6794 30.5557Z" fill="black"/>
<path d="M10.9876 13.3389C10.12 13.6923 9.23483 14.0002 8.33564 14.2611C8.14148 14.3141 8.06382 14.2726 7.99529 14.0905C7.72804 13.3781 7.45622 12.668 7.17297 11.9625C6.84587 11.0724 6.40264 10.2304 5.85498 9.45864C5.81158 9.3987 5.77503 9.27881 5.6791 9.32031C5.58316 9.36181 5.59915 9.47017 5.60829 9.5647C5.63458 9.78379 5.6891 9.99849 5.77046 10.2033C6.34609 11.7665 7.17069 13.2006 7.90621 14.6922C7.9656 14.8098 8.01356 14.8029 8.11407 14.7522C8.3265 14.6461 8.54122 14.5493 8.7605 14.4594C9.60566 14.1159 10.5011 13.8807 11.3782 13.6086C11.5313 13.5625 11.6843 13.5164 11.65 13.3343C11.65 13.2836 11.65 13.2651 11.65 13.2467C11.3926 11.6295 10.8454 10.0732 10.0351 8.65401C9.95116 8.48242 9.81726 8.34083 9.65135 8.24823C9.60338 8.22517 9.56455 8.17906 9.51201 8.19981C9.45947 8.22056 9.47546 8.29895 9.4846 8.34506C9.50521 8.47251 9.53266 8.59873 9.56683 8.72317C9.82266 9.62464 10.2018 10.48 10.5285 11.3538C10.7491 11.9076 10.9389 12.4733 11.0973 13.0484C11.1155 13.1683 11.1589 13.2743 10.9876 13.3389Z" fill="black"/>
<path d="M14.0371 10.9849C13.9685 11.0056 14.0005 11.0771 13.996 11.1255C13.98 11.3722 13.9663 11.6189 13.9526 11.8633C13.9526 11.9532 13.9388 12.0454 13.9297 12.1353C13.9117 12.1594 13.8995 12.1873 13.894 12.2169C13.8884 12.2465 13.8897 12.2769 13.8977 12.3059L13.8817 12.5134C13.832 12.68 13.8013 12.8517 13.7904 13.0253L13.7698 13.2282L13.4614 14.9043L13.4455 15.0565C13.3359 15.5128 13.2497 15.9745 13.1873 16.4398L13.1736 16.5943C13.103 16.8734 13.0556 17.1579 13.032 17.445L13.0137 17.6548C12.9617 17.8389 12.9311 18.0285 12.9224 18.2197L12.9018 18.4779C12.8875 18.5013 12.8774 18.527 12.8721 18.554C12.7077 20.0249 12.598 21.4959 12.9178 22.9645C12.913 22.9816 12.9116 22.9995 12.9137 23.0172C12.9158 23.0348 12.9214 23.0519 12.9301 23.0674C12.9388 23.0828 12.9505 23.0964 12.9645 23.1072C12.9784 23.1181 12.9944 23.126 13.0115 23.1305V22.7985C13.0038 22.8074 12.9976 22.8175 12.9932 22.8285C12.9939 22.8224 12.9959 22.8166 12.999 22.8114C13.0022 22.8063 13.0064 22.8018 13.0115 22.7985L13.0617 22.0838L13.0868 21.7011C13.1034 21.6763 13.1146 21.6484 13.1197 21.619C13.1248 21.5896 13.1238 21.5594 13.1165 21.5305C13.1165 21.4244 13.1302 21.3206 13.1348 21.2146C13.1717 21.1439 13.1846 21.0629 13.1713 20.984L13.1919 20.6659C13.229 20.5952 13.2426 20.5144 13.2307 20.4353L13.2444 20.1725C13.282 20.102 13.2964 20.0212 13.2856 19.9419C13.2856 19.8543 13.2856 19.7644 13.297 19.6768C13.4021 19.1073 13.4363 18.524 13.498 17.9522C13.498 17.8462 13.5117 17.7401 13.5163 17.6341C13.5553 17.5641 13.5691 17.4826 13.5551 17.4035L13.5688 17.0669C13.6036 16.9717 13.6206 16.8709 13.6191 16.7695C13.6807 16.3706 13.6693 15.9649 13.7607 15.566C13.9206 14.8743 14.0576 14.1665 14.149 13.4564C14.149 13.3642 14.165 13.2743 14.1741 13.1844C14.2807 12.6411 14.3175 12.0863 14.2838 11.5336C14.2835 11.3736 14.2468 11.2158 14.1764 11.0725C14.1467 11.031 14.1147 10.9595 14.0371 10.9849ZM13.4751 15.1164V15.1349C13.4761 15.128 13.4761 15.121 13.4751 15.1141V15.1164Z" fill="black"/>
<path d="M14.7634 9.71685C15.2545 12.3313 15.6771 14.9597 16.3487 17.535C16.5426 18.3639 16.782 19.1814 17.0659 19.9835C17.1047 20.1356 17.139 20.2878 17.187 20.4446C17.5547 21.5766 17.9545 22.6971 18.409 23.7968C18.4753 23.9605 18.457 24.0274 18.2857 24.092C18.0231 24.1791 17.7553 24.2492 17.4839 24.3018L17.2783 24.3179C17.2554 24.3114 17.2311 24.3109 17.2079 24.3166C17.1847 24.3222 17.1633 24.3338 17.1459 24.3502L16.8946 24.3732C16.3395 24.4585 15.7525 24.4724 15.2362 24.8343C15.3845 24.8786 15.5385 24.9004 15.6931 24.8989C15.9472 24.9282 16.2037 24.9305 16.4583 24.9058L16.7027 24.8874C17.2898 24.8297 17.8448 24.6153 18.4227 24.5093C18.5918 24.4793 18.6511 24.5346 18.69 24.6822C18.7215 24.8615 18.7801 25.0349 18.8636 25.1963L18.9344 25.3992L18.9709 25.3669L18.9527 24.9542C18.9493 24.7161 18.9217 24.4789 18.8704 24.2464C18.4753 22.6464 17.9567 21.0832 17.4405 19.5247C16.9494 17.8347 16.3601 16.1701 16.022 14.4363L16.0015 14.1297C16.0124 14.0672 15.9993 14.0029 15.9649 13.9498C15.9649 13.8622 15.9512 13.7769 15.9466 13.6893L15.9169 13.5717L15.8918 13.302L15.8027 12.7855C15.8027 12.7187 15.7913 12.6495 15.7845 12.5826C15.6536 11.6189 15.4427 10.668 15.154 9.7399C15.0887 9.51953 14.9893 9.31099 14.8594 9.12202C14.8137 9.05977 14.7634 8.95602 14.672 9.00213C14.5807 9.04824 14.6446 9.13585 14.6561 9.20502C14.6926 9.37563 14.7314 9.54624 14.7634 9.71685Z" fill="black"/>
<path d="M2.0358 24.7398L2.01981 24.4654C1.73885 23.753 1.45789 23.0176 1.24774 22.266C1.07871 21.6573 0.973636 21.0348 0.834299 20.4215L0.820593 20.267C0.82798 20.2376 0.828946 20.2069 0.823425 20.177C0.817904 20.1472 0.806027 20.1189 0.788614 20.0941C0.788614 20.0042 0.772625 19.9143 0.763488 19.8244C0.778545 19.7456 0.765605 19.6639 0.726941 19.5938L0.708667 19.2203C0.690393 18.9898 0.674404 18.7385 0.658414 18.4987V17.392L0.674404 16.8364L0.763488 16.0041C0.763488 15.9165 0.763488 15.8289 0.781762 15.7436C0.875414 15.6029 0.836583 15.4346 0.861709 15.2824C1.11627 13.7519 1.58221 12.2649 2.24594 10.865C2.35922 10.6784 2.41856 10.4636 2.41726 10.2448C1.16551 11.6696 0.617298 13.4011 0.295224 15.234L0.279234 15.3885C0.261179 15.4139 0.248426 15.4427 0.24175 15.4732C0.235075 15.5038 0.234616 15.5353 0.240403 15.566L0.222129 15.7735C0.20337 15.799 0.190374 15.8283 0.184059 15.8593C0.177744 15.8904 0.178264 15.9225 0.185582 15.9534C0.185582 16.0433 0.169592 16.1355 0.162739 16.2254C0.055786 16.807 0.00529412 17.3977 0.0119813 17.9892V18.2681C-0.0197864 18.7712 0.0116815 19.2763 0.105634 19.7713L0.123908 20.0895C0.115893 20.1185 0.114609 20.149 0.120155 20.1786C0.125701 20.2082 0.137928 20.2361 0.155887 20.2601L0.178729 20.5322C0.420856 22.2798 0.921099 23.9283 2.0061 25.39C2.09194 25.1836 2.10246 24.9532 2.0358 24.7398ZM0.315782 15.4531C0.315782 15.4531 0.315782 15.4531 0.315782 15.4669C0.314791 15.4623 0.314791 15.4576 0.315782 15.4531Z" fill="black"/>
<path d="M3.13453 17.5557C3.09798 18.1246 3.09798 18.6952 3.13453 19.2641C3.14851 19.6478 3.22571 20.0265 3.36295 20.3846C3.38122 20.4261 3.39036 20.5022 3.46802 20.4791C3.54568 20.4561 3.5137 20.4077 3.51599 20.3639C3.55027 19.7348 3.53193 19.1039 3.46117 18.4779C3.46117 18.0399 3.46117 17.6041 3.46117 17.1684C3.55939 17.0923 3.50457 16.9862 3.51827 16.894C3.62539 16.4771 3.67534 16.0473 3.66675 15.6167C3.66675 15.4138 3.73527 15.204 3.62792 15.0058C3.61193 14.9389 3.65304 14.8628 3.57309 14.7545C3.45013 15.1642 3.36225 15.5838 3.31041 16.0087C3.31041 16.094 3.29442 16.1793 3.28757 16.2646C3.26904 16.2915 3.25641 16.322 3.2505 16.3542C3.24459 16.3864 3.24555 16.4195 3.2533 16.4513C3.2533 16.5413 3.23732 16.6312 3.23046 16.7234C3.17221 16.9971 3.14008 17.2758 3.13453 17.5557Z" fill="black"/>
<path d="M3.48623 21.9685C3.56618 21.8625 3.64156 21.738 3.71465 21.6411C4.26869 20.8136 5.0757 20.1918 6.01257 19.8705C6.08984 19.8413 6.15396 19.7847 6.19302 19.7114C6.29581 19.5569 6.23414 19.4947 6.06739 19.4993H5.68821C5.67222 19.437 5.65623 19.3771 5.64253 19.3148L5.62197 18.5079C5.63521 18.4293 5.62321 18.3485 5.58771 18.2773L5.56715 17.9638C5.53289 17.747 5.5169 17.5257 5.46436 17.3136C5.25193 16.4675 5.00752 15.6305 4.48215 14.9181C4.42276 14.8374 4.34509 14.6876 4.23774 14.7637C4.2127 14.7845 4.19234 14.8104 4.17801 14.8398C4.16368 14.8691 4.15571 14.9013 4.15463 14.934C4.15354 14.9667 4.15938 14.9993 4.17174 15.0295C4.1841 15.0598 4.2027 15.0871 4.22631 15.1095C4.42659 15.4158 4.57195 15.7553 4.65575 16.1124C4.80879 16.6335 4.85447 17.173 4.96868 17.7009L4.99381 17.9891C4.98691 18.0182 4.9862 18.0485 4.99171 18.0779C4.99722 18.1073 5.00884 18.1352 5.02579 18.1597C5.02579 18.3073 5.03721 18.4525 5.04406 18.5978C5.03599 18.6798 5.03599 18.7625 5.04406 18.8445C5.10626 19.0807 5.09514 19.3305 5.01222 19.5602C4.9293 19.7898 4.77857 19.9882 4.58037 20.1287C4.38707 20.2965 4.20614 20.4784 4.03901 20.6728C3.80455 20.8878 3.60764 21.1411 3.45653 21.4221C3.39375 21.4868 3.34744 21.5659 3.32158 21.6526C3.29572 21.7394 3.29108 21.8312 3.30806 21.9201C3.34004 22.0261 3.39258 22.0907 3.48623 21.9685ZM5.61283 19.3033V19.2641C5.61159 19.2794 5.61159 19.2949 5.61283 19.3102V19.3033Z" fill="black"/>
<path d="M8.39584 42.6574C8.62449 42.6736 8.85386 42.6601 9.08033 42.6169H10.5702C10.7699 42.6591 10.9728 42.6727 11.1749 42.6574L11.7726 42.6805C12.0627 42.7397 12.3552 42.7773 12.6488 42.7931L12.9728 42.822C12.9965 42.8439 13.0237 42.8589 13.0525 42.8659C13.0813 42.8729 13.1109 42.8717 13.1393 42.8625C13.3735 42.9116 13.6125 42.9116 13.8466 42.8625C13.9429 42.8786 14.0409 42.8606 14.1296 42.8105L14.3897 42.7873C14.6041 42.7919 14.8153 42.7198 14.9989 42.5794C14.8563 42.4864 14.7018 42.4267 14.5425 42.4032L14.3942 42.3801C14.2099 42.3273 14.0232 42.2887 13.8352 42.2645L13.5797 42.2357C13.5254 42.1923 13.4598 42.1778 13.3972 42.1952L13.0823 42.1721C13.0125 42.1246 12.9321 42.1083 12.8541 42.1259L12.4845 42.1028C12.137 42.0353 11.7864 41.9967 11.435 41.9873L10.8007 41.9613C9.99739 41.8703 9.19034 41.8443 8.38443 41.8833C8.08617 41.8435 7.78468 41.892 7.50372 42.0248L6.52719 42.0508C5.82901 42.0652 5.13083 42.071 4.43494 42.1692L3.96264 42.1894C3.86486 42.1733 3.76545 42.1912 3.67516 42.2414L3.41733 42.2617C3.16635 42.3512 2.88571 42.3021 2.59595 42.5158C3.28394 42.6399 3.97738 42.7094 4.67223 42.7238H6.63671C6.83521 42.74 7.03451 42.7176 7.22765 42.6574H8.39584ZM14.3532 42.4234C14.3445 42.4175 14.3368 42.4097 14.3303 42.4003C14.3377 42.405 14.3453 42.4089 14.3532 42.4119V42.4234ZM10.7185 42.0046C10.6532 41.9988 10.5876 41.9988 10.5223 42.0046C10.5748 41.9584 10.6478 42.0046 10.7163 42.0046H10.7185Z" fill="black"/>
<path d="M1.97695 41.5431C2.07994 40.6881 2.09466 39.8301 2.11357 38.9736C2.11357 38.4439 2.11848 37.9152 2.12829 37.3876C2.13667 37.3765 2.14236 37.3645 2.1451 37.352L2.16402 33.4412C2.16402 32.8635 2.17453 32.2873 2.18083 31.7096C2.22283 31.5714 2.22283 31.4281 2.18083 31.2899C2.22917 31.2574 2.21866 31.2171 2.21236 31.1753C2.21236 30.9213 2.22707 30.6657 2.23338 30.4117C2.26863 30.2724 2.27993 30.1303 2.26701 29.9889L2.27962 29.58C2.32375 29.1154 2.36999 28.6383 2.41413 28.169C2.41413 28.073 2.42464 27.977 2.43095 27.8794C2.47799 27.6803 2.50608 27.4789 2.51502 27.2769L2.53183 27.0663C2.56522 27.0186 2.577 26.9643 2.56546 26.9114L2.57807 26.7674C2.89335 25.914 3.25696 25.0637 3.5344 24.2103C3.60212 24.0718 3.6342 23.9253 3.62898 23.7781C3.3769 23.9678 3.17516 24.1905 3.03417 24.4348C2.64295 25.0967 2.37363 25.7942 2.23338 26.5087C2.23338 26.5428 2.23338 26.5784 2.21866 26.614C2.20152 26.6306 2.18944 26.6497 2.18327 26.67C2.1771 26.6903 2.17699 26.7114 2.18293 26.7317L2.16402 26.868C2.1485 26.8786 2.13733 26.8922 2.13175 26.9073C2.12618 26.9224 2.12644 26.9383 2.13249 26.9532L2.11567 27.0942C2.09942 27.1113 2.08806 27.1307 2.08228 27.1512C2.0765 27.1717 2.07642 27.1929 2.08205 27.2134L2.06523 27.3544C2.04934 27.3716 2.03835 27.3911 2.03293 27.4116C2.02752 27.4321 2.02778 27.4532 2.0337 27.4736L2.01479 27.6502C1.98363 27.686 1.97235 27.7292 1.98326 27.771L1.96014 27.9909C1.93116 28.0251 1.92136 28.0662 1.93282 28.1055C1.93282 28.1876 1.9181 28.2697 1.9118 28.3518C1.8954 28.3698 1.88432 28.3901 1.87925 28.4114C1.87418 28.4328 1.87524 28.4547 1.88237 28.4757L1.86346 28.7328C1.8305 28.7806 1.81944 28.8349 1.83193 28.8877C1.83193 28.9853 1.83193 29.0844 1.81511 29.182C1.77961 29.2537 1.76667 29.3305 1.77728 29.4065C1.77728 29.515 1.77728 29.6234 1.76257 29.7318C1.66589 30.3761 1.65958 31.025 1.62805 31.6709L1.58391 33.6333V36.2291C1.58391 36.655 1.5692 37.0809 1.61754 37.5053L1.63226 39.1254C1.63226 39.5017 1.63226 39.8765 1.66799 40.2513V42.6814C1.63324 42.8349 1.62126 42.9907 1.63226 43.1461L1.61965 43.5069C1.58747 43.5549 1.57575 43.6089 1.58602 43.6618C1.5545 43.7507 1.5545 43.844 1.58602 43.9329C1.61565 43.9135 1.63925 43.8896 1.65521 43.8629C1.67117 43.8361 1.67912 43.8072 1.6785 43.778C1.73414 43.6946 1.76359 43.603 1.76467 43.51C1.76467 43.476 1.76467 43.4434 1.78149 43.4094C1.83609 43.2604 1.86366 43.1068 1.86346 42.9525C1.86346 42.8549 1.87607 42.7573 1.88447 42.6582C1.93178 42.4113 1.95915 42.1625 1.96645 41.9132C1.96645 41.7847 1.97275 41.6639 1.97695 41.5431ZM2.15141 31.7545V31.6864V31.7545ZM2.19765 30.3807V30.3544C2.19765 30.3544 2.19765 30.3637 2.19765 30.3668V30.3807ZM1.75206 43.3598C1.75593 43.3546 1.76177 43.3503 1.76887 43.3474L1.75206 43.3614V43.3598Z" fill="black"/>
<path d="M13.8589 25.6758C13.8087 25.7934 13.8726 25.8695 13.916 25.9571C13.9891 25.8395 13.8886 25.7727 13.8589 25.6758Z" fill="black"/>
<path d="M2.36926 8.10064C2.37493 8.26541 2.40416 8.42848 2.45606 8.58481C2.68448 9.39175 2.96544 9.57158 3.75349 9.35717C3.95679 9.30183 4.01161 9.35717 4.06415 9.55083C4.74146 11.9754 5.77555 14.2836 7.13185 16.3983C7.19352 16.4998 7.2552 16.5805 7.38768 16.5505H7.70975C7.77236 16.5617 7.83685 16.5485 7.89021 16.5136L8.03868 16.4975C8.0659 16.5021 8.09369 16.5021 8.12091 16.4975C9.83407 16.0894 11.481 15.453 13.1325 14.8513C13.2787 14.7752 13.1508 14.6645 13.1667 14.5723C13.1742 14.5413 13.1746 14.509 13.1679 14.4779C13.1612 14.4467 13.1475 14.4175 13.1279 14.3925L13.1142 14.2403C13.0914 14.0951 13.0731 13.9498 13.0434 13.8069C12.6596 11.8679 11.9356 10.0465 11.1178 8.27356C11.0538 8.13292 10.967 7.92311 10.8071 7.99689C10.6039 8.09142 10.7546 8.28047 10.8186 8.42342C11.6794 10.2567 12.3544 12.1732 12.8332 14.1435C12.8972 14.4086 12.8332 14.4985 12.5888 14.5769C10.9305 15.0826 9.27596 15.5998 7.62524 16.1286C7.43565 16.1885 7.38311 16.1286 7.3123 15.9695C6.42146 13.8699 5.52605 11.7765 4.62606 9.68917C4.42962 9.22806 4.43419 9.22806 4.88647 9.039C5.33874 8.84995 5.80015 8.56636 5.89837 7.98306C5.92354 7.85675 5.92354 7.72665 5.89837 7.60034C5.82302 7.10766 5.60713 6.6478 5.27707 6.27695C4.7654 5.6314 4.71743 4.86365 4.82022 4.11665C4.92301 3.36965 5.29534 2.62035 5.63569 1.91024H5.84584C6.44855 2.17581 7.02008 2.50833 7.54986 2.90163C7.601 2.92973 7.64508 2.96927 7.67873 3.01723C7.71239 3.06518 7.73472 3.12028 7.74402 3.17829C7.78194 3.46049 7.87099 3.73325 8.0067 3.98293C8.51151 4.93512 8.42471 5.85504 7.8765 6.74959C7.79736 6.88599 7.76298 7.04416 7.77828 7.20148C7.77828 7.26373 7.75544 7.33981 7.82853 7.37439C7.90163 7.40898 7.96559 7.33981 8.00442 7.28217C8.20086 6.98476 8.39045 6.68273 8.58689 6.38531C8.65167 6.25298 8.75225 6.14187 8.87699 6.06484C9.08942 7.07006 9.53713 7.44817 10.5559 7.59573L10.8254 7.61878C11.2248 7.67724 11.6279 7.70575 12.0315 7.70409L12.6688 7.72484L13.4523 7.81475L13.6579 7.8332C13.8155 7.86778 13.9708 7.90698 14.1284 7.93925C14.1741 7.93925 14.2403 7.97614 14.2632 7.90006C14.286 7.82398 14.2358 7.79861 14.1901 7.76864C14 7.64647 13.7823 7.57506 13.5573 7.56114L13.4066 7.545C13.1067 7.4779 12.8 7.44694 12.4929 7.45278C12.4138 7.45565 12.336 7.43149 12.2722 7.38422C12.2083 7.33694 12.1622 7.2693 12.1411 7.19226C11.9652 6.74959 11.7779 6.31153 11.5929 5.87348C11.095 4.69073 10.613 3.50107 9.86834 2.44743C9.08257 1.34768 8.10036 0.540741 6.75724 0.236408C6.55413 0.221749 6.35249 0.190913 6.1542 0.144186C5.83372 -0.00257164 5.47422 -0.0385113 5.13144 0.0419395C4.78867 0.12239 4.48176 0.314737 4.25831 0.589158C4.09767 0.775875 3.95466 0.977334 3.83116 1.19091C3.07233 2.59577 2.59426 4.13739 2.42408 5.72823C2.42408 5.7974 2.41266 5.86656 2.40581 5.93573C2.34417 6.25003 2.31432 6.56984 2.31672 6.89023V7.54962C2.30005 7.64927 2.31194 7.75166 2.35099 7.84473C2.35556 7.93003 2.36241 8.01534 2.36926 8.10064ZM13.1051 14.4501C13.1051 14.4501 13.1051 14.4501 13.1051 14.4686C13.1027 14.4662 13.1011 14.4632 13.1002 14.46C13.0994 14.4567 13.0995 14.4533 13.1005 14.4501H13.1051ZM7.8331 16.4813C7.82641 16.4792 7.81924 16.4792 7.81254 16.4813H7.8331ZM13.3495 7.57267H13.3129C13.281 7.56806 13.3403 7.5427 13.3403 7.57267H13.3495Z" fill="black"/>
<path d="M4.20356 23.2527C4.21955 23.2689 4.26752 23.2366 4.27437 23.1928C4.45989 23.0305 4.62279 22.8436 4.75863 22.6372C5.35879 21.9142 5.89965 21.1431 6.37585 20.3316C6.11998 20.439 5.88724 20.5956 5.69059 20.7927C5.18121 21.2239 4.69924 21.6804 4.43884 22.3213C4.35954 22.4394 4.30798 22.5743 4.28808 22.7155C4.24925 22.764 4.20356 22.8101 4.23326 22.8815L4.21955 23.0937C4.183 23.1305 4.14646 23.1951 4.20356 23.2527Z" fill="black"/>
<path d="M15.3629 45.034C15.249 45.0204 15.1328 45.0323 15.0259 45.0688L14.7138 45.0823L13.5082 45.1635L11.554 45.2968L10.7646 45.3122C9.91719 45.3393 9.06824 45.3393 8.21779 45.3122L7.80161 45.2968C7.27664 45.236 6.748 45.2012 6.21833 45.1925C5.11216 45.1316 4.00287 45.1239 2.89569 45.1693C2.61175 45.1605 2.33012 45.2158 2.07916 45.3296C2.9839 45.3567 3.90447 45.432 4.81599 45.4803L5.18014 45.4977C5.43474 45.5385 5.69255 45.5631 5.95143 45.5711L6.31559 45.5885C6.38465 45.6205 6.4642 45.6321 6.54177 45.6214L6.80414 45.6329C6.87347 45.6643 6.953 45.6752 7.03033 45.6639L7.34925 45.6812C7.58171 45.7264 7.81887 45.7516 8.0572 45.7566L8.36707 45.774C8.39243 45.7892 8.42118 45.7998 8.45153 45.8051C8.48188 45.8104 8.51318 45.8103 8.5435 45.8049L8.85337 45.8203C8.92286 45.8513 9.00223 45.8621 9.07955 45.8513L9.39847 45.8706L10.1019 45.9556C10.103 45.9704 10.103 45.9852 10.1019 46H11.4002L11.4522 45.9459C11.7483 45.9408 12.0434 45.9143 12.3343 45.8667L12.5899 45.8532C12.6678 45.8641 12.7476 45.8518 12.8161 45.8184L13.0197 45.803C14.3609 45.687 15.6977 45.3219 16.0324 44.9664C15.8854 44.9993 15.7475 44.9664 15.6208 45.0225L15.3629 45.034Z" fill="black"/>
<path d="M14.2038 18.0537C14.1858 17.8253 14.1374 17.6004 14.0599 17.3851L14.0416 17.2283C14.0452 17.135 14.0124 17.044 13.9503 16.9747V19.1004C13.9621 19.789 14.0116 20.4763 14.0987 21.1593L14.117 21.5305C14.1051 21.6093 14.1179 21.6899 14.1536 21.7611L14.1741 22.0285C14.1827 22.2893 14.2156 22.5486 14.2723 22.8032C14.2584 22.954 14.2748 23.1061 14.3203 23.2504C14.3203 23.3404 14.334 23.4303 14.3431 23.5202C14.3281 23.599 14.341 23.6806 14.3797 23.7507C14.3797 23.8384 14.3934 23.926 14.398 24.0159C14.3915 24.0468 14.3915 24.0787 14.3977 24.1096C14.404 24.1406 14.4165 24.1699 14.4345 24.1957C14.4345 24.2833 14.4345 24.3709 14.4528 24.4562C14.4452 24.4857 14.4442 24.5164 14.4497 24.5463C14.4552 24.5762 14.4672 24.6045 14.4848 24.6292L14.5053 24.8989C14.4922 24.9625 14.5045 25.0288 14.5396 25.0834L14.5601 25.3416C14.5445 25.4206 14.5583 25.5027 14.599 25.5721C14.599 25.662 14.6104 25.7497 14.615 25.8373C14.6085 25.8682 14.6085 25.9001 14.6147 25.931C14.621 25.9619 14.6335 25.9913 14.6515 26.0171C14.6515 26.1047 14.6515 26.1923 14.6698 26.2799C14.6995 26.4413 14.6995 26.7019 14.8776 26.6857C15.0558 26.6696 15.0147 26.4044 15.0284 26.2246C15.0233 26.1801 15.0117 26.1366 14.9941 26.0955L14.9759 25.8327C14.9675 25.55 14.9362 25.2686 14.8822 24.9911C14.8822 24.8851 14.8822 24.779 14.8662 24.673C14.8795 24.5944 14.8675 24.5136 14.832 24.4424L14.8114 24.0735C14.8244 23.9744 14.8118 23.8735 14.7749 23.7807L14.7566 23.4095C14.7707 23.3119 14.7581 23.2122 14.72 23.1213L14.704 22.7478C14.712 22.6525 14.6963 22.5566 14.6584 22.4689V22.3697V22.0954C14.6474 21.7615 14.6146 21.4288 14.5601 21.0994L14.5304 20.7558C14.5241 20.4732 14.4935 20.1916 14.4391 19.9143C14.4391 19.8267 14.4391 19.7391 14.4231 19.6492C14.4365 19.5704 14.4236 19.4893 14.3865 19.4186C14.3865 19.331 14.3728 19.2434 14.3683 19.1581C14.3814 19.0945 14.3691 19.0282 14.334 18.9736C14.334 18.8883 14.318 18.8007 14.3112 18.7154C14.301 18.5419 14.2711 18.3702 14.2221 18.2036L14.2038 18.0537ZM14.2038 18.2843C14.2038 18.2843 14.2038 18.2728 14.2038 18.2681C14.2017 18.2717 14.2002 18.2756 14.1992 18.2797L14.2038 18.2843Z" fill="black"/>
</svg>
