<svg width="27" height="46" viewBox="0 0 27 46" fill="none" xmlns="http://www.w3.org/2000/svg">
<path d="M26.8407 29.6855L23.9144 2.4884C23.8953 2.29254 23.7358 1.99273 23.4355 1.9143L18.1012 0.336555C17.2591 0.0875977 16.3665 0.173937 15.5881 0.579941L11.2086 2.86323L9.71982 0.332152C9.5988 0.12632 9.37778 0 9.13898 0H6.3796C4.95747 0 3.63425 0.704195 2.83994 1.88375L0.943429 4.69982C0.775871 4.94868 0.792941 5.27823 0.985297 5.50832L3.50092 8.51809C3.63416 8.67747 3.82544 8.75977 4.01824 8.75977C4.16954 8.75977 4.32164 8.70909 4.44725 8.60523L6.05473 7.27591L6.45723 8.34936C7.11839 10.1125 6.95649 12.0583 6.01286 13.688C4.37007 16.5252 3.53129 19.7577 3.58717 23.0358C3.60361 23.5286 3.96586 24.1471 4.58893 24.2799L4.36001 31.1004C4.34752 31.4724 4.63888 31.7839 5.01084 31.7965C5.01856 31.7968 5.0262 31.7969 5.03384 31.7969C5.39555 31.7969 5.69464 31.5099 5.70686 31.1457L5.95429 23.7723L17.051 10.8235C17.0123 11.7191 17.1313 12.6195 17.406 13.4767L18.5824 17.1469C18.9062 18.157 19.0883 19.2067 19.1239 20.2668L19.6708 36.5664H16.2884C15.9163 36.5664 15.6146 36.868 15.6146 37.2402C15.6146 37.6125 15.9163 37.9141 16.2884 37.9141H19.7161L19.7613 39.2617H5.43463L5.47982 37.9141H13.1342C13.5064 37.9141 13.8081 37.6125 13.8081 37.2402C13.8081 36.868 13.5064 36.5664 13.1342 36.5664H5.52501L5.60228 34.2645C5.61477 33.8925 5.3234 33.581 4.95145 33.5684C4.58012 33.5571 4.26792 33.8474 4.25543 34.2192C4.16199 37.0046 3.9762 42.5419 3.88348 45.3035C3.87737 45.4861 3.94556 45.6633 4.07251 45.7946C4.19946 45.9259 4.37429 46 4.55694 46H20.639C20.8216 46 20.9965 45.9259 21.1234 45.7946C21.2504 45.6633 21.3186 45.4861 21.3124 45.3035C21.2043 42.0808 20.9626 34.8789 20.8534 31.625H25.0988C25.5953 31.625 26.0704 31.4131 26.4022 31.0437C26.734 30.6744 26.8938 30.1793 26.8407 29.6855ZM16.2111 1.77495C16.6782 1.53157 17.2138 1.47955 17.719 1.62896L19.3413 2.10881L9.94011 12.9399C9.69619 13.221 9.72628 13.6465 10.0073 13.8905C10.1348 14.0012 10.2921 14.0554 10.4487 14.0554C10.6372 14.0554 10.8247 13.9768 10.9579 13.8233L20.7613 2.52874L22.0562 2.91175L4.93312 22.8932C4.92557 22.127 4.97157 21.3639 5.06825 20.6088L8.9167 16.1749C9.16063 15.8939 9.13053 15.4683 8.8495 15.2244C8.56847 14.9804 8.14288 15.0105 7.89895 15.2916L5.65331 17.8789C6.00145 16.732 6.47466 15.622 7.0652 14.5683L12.4395 8.20579C12.6793 7.92116 12.6431 7.49611 12.3585 7.25632C12.074 7.01644 11.6489 7.05264 11.4091 7.33718L8.1816 11.1664C8.27118 10.0645 8.11934 8.94287 7.71936 7.87615L7.19431 6.47612L16.2111 1.77495ZM6.3796 1.34766H8.75364L10.0122 3.48711L6.53827 5.29827L4.20143 2.32408C4.75119 1.70712 5.53993 1.34766 6.3796 1.34766ZM4.10512 7.13952L2.34409 5.0326L3.39248 3.47587L5.41801 6.05385L4.10512 7.13952ZM5.25377 44.6523L5.38944 40.6094H19.8065L19.9422 44.6523H5.25377ZM25.3996 30.1432C25.3546 30.1933 25.2557 30.2773 25.0988 30.2773H24.3881L23.4494 21.6475C23.4091 21.2775 23.0765 21.01 22.7066 21.0504C22.3367 21.0906 22.0694 21.4232 22.1096 21.7931L23.0324 30.2773H20.8082L20.4707 20.2215C20.431 19.037 20.2274 17.8643 19.8657 16.7355L18.6894 13.0653C18.3626 12.0458 18.303 10.9524 18.5171 9.90357L18.7291 8.86515L20.481 6.82076L21.7664 18.6386C21.804 18.9839 22.096 19.2397 22.4355 19.2397C22.4598 19.2397 22.4845 19.2383 22.5092 19.2356C22.8791 19.1954 23.1464 18.8629 23.1062 18.4929L21.684 5.41695L22.7413 4.18313L25.5008 29.8297C25.5176 29.9858 25.4446 30.0931 25.3996 30.1432Z" fill="black"/>
</svg>
