<svg width="44" height="46" viewBox="0 0 44 46" fill="none" xmlns="http://www.w3.org/2000/svg">
<path d="M20.094 3.95064H23.841C24.2422 3.95064 24.5673 3.62541 24.5673 3.22434C24.5673 2.82319 24.2422 2.49805 23.841 2.49805H20.094C19.6928 2.49805 19.3677 2.82328 19.3677 3.22434C19.3677 3.62541 19.6928 3.95064 20.094 3.95064Z" fill="black"/>
<path d="M43.5679 17.3124L41.0687 7.01563C41.0439 6.91375 40.436 4.50827 38.0462 3.49259C36.3163 2.75748 30.8456 0.680566 29.4758 0.161898C29.351 0.0608242 29.1922 0 29.019 0H28.915H14.9678C14.9446 0 14.9215 0.00125781 14.8983 0.00350391C14.8883 0.00449219 14.8785 0.00619922 14.8687 0.00754687C14.856 0.00925391 14.8433 0.0109609 14.8307 0.0133867C14.8189 0.0156328 14.8073 0.0185977 14.7957 0.0213828C14.7854 0.0238984 14.775 0.0264141 14.7646 0.0292891C14.7526 0.032793 14.7409 0.0368359 14.729 0.0408789C14.723 0.0430352 14.7169 0.0445625 14.7109 0.0468086C14.4288 0.153453 7.77747 2.66764 5.83649 3.49259C3.53882 4.46919 2.88871 6.7293 2.81998 6.99254C2.81998 6.99263 2.81998 6.99272 2.81989 6.99281C2.81863 6.99775 2.81765 7.00161 2.81666 7.00512C2.8154 7.00988 2.8145 7.01365 2.81405 7.01545L1.03802 14.3328C1.03802 14.3328 1.03802 14.3328 1.03802 14.3329L0.314779 17.3124C0.229337 17.6642 0.416033 18.0251 0.752497 18.1588L7.89238 20.9951V42.321V45.2737C7.89238 45.6749 8.21752 46 8.61868 46H35.2639C35.6651 46 35.9902 45.6749 35.9902 45.2737V42.321V28.492C35.9902 28.0908 35.6651 27.7657 35.2639 27.7657C34.8627 27.7657 34.5376 28.0909 34.5376 28.492V41.5946H16.6873C16.286 41.5946 15.961 41.9197 15.961 42.3209C15.961 42.722 16.286 43.0472 16.6873 43.0472H34.5377V44.5473H9.34515V43.0472H14.2663C14.6675 43.0472 14.9926 42.722 14.9926 42.3209C14.9926 41.9197 14.6675 41.5946 14.2663 41.5946H9.34515V20.502V17.3875V11.7593C9.34515 11.6268 9.30895 11.4969 9.2404 11.3835L5.57747 5.32576C5.81393 5.13574 6.08805 4.96423 6.40493 4.82955C7.89193 4.19759 12.3509 2.49649 14.298 1.75707C14.7651 6.04954 18.0989 9.5017 21.9935 9.5017C25.8766 9.5017 29.2026 6.06984 29.6851 1.79499C31.681 2.55327 36.016 4.2081 37.4781 4.82946C37.795 4.96414 38.069 5.13565 38.3056 5.32567L34.6427 11.3833C34.5742 11.4967 34.538 11.6267 34.538 11.7591V17.3873V20.5019V26.0709C34.538 26.4721 34.8631 26.7972 35.2643 26.7972C35.6655 26.7972 35.9906 26.4721 35.9906 26.0709V20.9949L43.1304 18.1585C43.4666 18.025 43.6532 17.6641 43.5679 17.3124ZM7.89256 19.4319L1.87545 17.0416L2.24884 15.5034L7.89247 17.8704V19.4319H7.89256ZM7.89256 11.9617V16.2951L2.59591 14.0738L4.22514 7.36144C4.2272 7.35326 4.32612 6.9787 4.59296 6.50487L7.89256 11.9617ZM21.9934 8.04901C19.1227 8.04901 16.0604 5.42872 15.7246 1.45259H28.2625C27.9265 5.42881 24.8642 8.04901 21.9934 8.04901ZM35.9904 11.9617L39.2901 6.50469C39.4648 6.81492 39.5677 7.08247 39.618 7.23161C39.6181 7.23206 39.6183 7.23251 39.6185 7.23296C39.6232 7.24707 39.6273 7.25991 39.6312 7.27177C39.6319 7.27402 39.6327 7.27636 39.6334 7.27851C39.6363 7.28795 39.639 7.29639 39.6414 7.30421C39.6424 7.30717 39.6433 7.3105 39.6441 7.31328C39.6461 7.31966 39.6477 7.32532 39.6492 7.33035C39.6499 7.33269 39.6506 7.33547 39.6512 7.33754C39.6524 7.34158 39.6533 7.34473 39.654 7.3476C39.6545 7.34931 39.6552 7.35164 39.6556 7.35299C39.6563 7.35551 39.6568 7.35784 39.6569 7.3582L41.2869 14.0738L35.9903 16.2952V11.9617H35.9904ZM35.9904 19.4319V17.8704L41.634 15.5034L42.0073 17.0417L35.9904 19.4319Z" fill="black"/>
</svg>
