<svg width="61" height="48" viewBox="0 0 61 48" fill="none" xmlns="http://www.w3.org/2000/svg">
<path d="M37.6938 22.9363C36.3051 22.1966 34.8371 22.1966 33.4484 22.9363C33.0147 23.1674 32.8503 23.7063 33.0814 24.1403C33.3124 24.574 33.8515 24.7386 34.2853 24.5073C35.1626 24.04 35.9797 24.04 36.857 24.5073C36.9902 24.5784 37.1335 24.6121 37.2747 24.6121C37.593 24.612 37.9008 24.4409 38.0609 24.1403C38.2918 23.7063 38.1275 23.1674 37.6938 22.9363Z" fill="black"/>
<path d="M37.5986 18.6767C35.6902 17.9323 33.8577 18.23 32.2992 19.5375C31.9225 19.8532 31.8733 20.4146 32.1892 20.7911C32.3651 21.0012 32.6173 21.1093 32.8715 21.1093C33.0732 21.1093 33.2762 21.041 33.4428 20.9011C34.517 20.0004 35.6318 19.8202 36.9519 20.335C37.4094 20.5139 37.9258 20.2872 38.1044 19.8291C38.2831 19.3712 38.0567 18.8553 37.5986 18.6767Z" fill="black"/>
<path d="M52.9706 35.022C58.0594 30.9202 61.1883 24.2867 60.853 18.0806C60.7246 15.7051 60.098 13.5022 59.02 11.5361C59.4175 11.0284 59.745 10.4688 59.9963 9.86554C60.731 8.10447 60.7434 6.1653 60.0311 4.40506C59.3172 2.64115 57.9616 1.26835 56.2143 0.54C52.9903 -0.805866 49.2728 0.445544 47.453 3.38765C42.6767 2.67093 37.9704 4.57475 34.333 7.66495C33.1794 8.64498 32.1546 9.74011 31.4474 10.7485C30.7411 11.7555 30.5281 12.42 30.4897 12.8474C28.9472 14.7045 28.1576 16.936 28.1447 19.4916C28.1447 21.8981 28.3923 23.8628 28.5254 24.9184C28.5535 25.1413 28.5842 25.3852 28.5998 25.541C28.4628 25.7565 28.1242 26.184 27.8671 26.5083C26.702 27.9787 25.8106 29.1847 25.8106 30.207C25.8106 31.3204 26.6812 32.1484 27.5231 32.9491C28.0401 33.4409 28.5748 33.9494 28.8258 34.4511C28.9495 34.6971 29.1207 35.0097 29.3212 35.355C29.5686 35.7815 30.1138 35.924 30.5376 35.678C30.9628 35.4313 31.1073 34.8866 30.8606 34.4616C30.6779 34.1467 30.5241 33.8665 30.4171 33.6534C30.0276 32.8745 29.3488 32.2288 28.75 31.6593C28.2335 31.168 27.5907 30.5567 27.5907 30.2068C27.5907 29.7231 28.7621 28.2449 29.2623 27.6135C30.0365 26.6365 30.3899 26.1906 30.3899 25.6798C30.3899 25.4764 30.3529 25.1826 30.2915 24.6956C30.1544 23.6074 29.9247 21.7862 29.9247 19.496C29.9357 17.3208 30.618 15.4326 31.9495 13.8781C34.7945 12.5657 36.9071 12.2529 38.2269 12.954C40.0038 13.8976 40.4349 16.6667 40.852 19.3446C41.1116 21.0115 41.3594 22.5931 41.9507 23.7473C41.8868 24.0129 41.832 24.2865 41.7879 24.569C41.7119 25.0546 42.0442 25.5098 42.5297 25.5857C43.0157 25.662 43.4706 25.3292 43.5464 24.8438C44.1901 20.7238 47.1052 19.8982 48.7848 21.3619C49.5396 22.0195 50.0185 23.7158 49.513 25.4159C48.7162 28.0954 46.1232 28.8407 44.6485 29.0466C44.1616 29.1144 43.822 29.5642 43.89 30.0509C43.952 30.496 44.3333 30.8181 44.7702 30.8181C45.1611 30.8181 46.632 30.5268 47.8326 29.912C49.5665 34.8961 50.0903 35.7594 50.8747 36.0169C51.068 36.0804 51.2404 36.0845 51.4169 36.0505L54.238 45.6958H44.3396L41.9412 39.1184C41.784 38.6868 41.3237 38.4457 40.8795 38.5623C37.289 39.5034 35.1409 39.8207 34.6221 39.7219C34.5176 39.6483 34.0827 39.2922 33.0777 37.8931C32.7909 37.4936 32.2347 37.4026 31.8357 37.6893C31.4365 37.976 31.3452 38.5322 31.6319 38.9314C32.9127 40.7145 33.4891 41.1491 33.8477 41.3284C34.1623 41.4859 34.975 41.8932 40.5454 40.4863L42.7381 46.4997C42.9506 47.0836 43.511 47.4757 44.1322 47.4757H54.6338C55.1046 47.4757 55.5368 47.2598 55.8197 46.883C56.1027 46.5061 56.1894 46.0304 56.0576 45.5764L52.9706 35.022ZM58.3812 5.07277C58.9166 6.39574 58.9068 7.85433 58.3536 9.1805C58.248 9.43385 58.1238 9.67615 57.9838 9.90766C55.7944 6.91275 52.4206 4.71774 49.333 3.80523C51.866 0.622945 56.8571 1.30727 58.3812 5.07277ZM49.356 28.8728C50.2352 28.0833 50.8729 27.0873 51.219 25.9234C51.8761 23.7138 51.3441 21.231 49.9541 20.0201C47.9362 18.2618 44.7637 18.5482 42.9921 21.2543C42.8473 20.5867 42.7303 19.8391 42.6107 19.0708C42.1487 16.105 41.6253 12.7437 39.0617 11.382C37.5623 10.5856 35.6014 10.6169 33.1054 11.4853C34.104 10.1693 35.9708 8.31427 38.5864 6.88154C41.623 5.2179 46.3208 3.81982 51.4527 6.60731C56.3064 9.24363 58.8139 13.3294 59.0758 18.1766C59.3923 24.0358 56.3039 30.3256 51.3424 34.0356C50.8044 33.0464 49.9513 30.6027 49.356 28.8728Z" fill="black"/>
<path d="M13.0149 24.5305V22.2485C13.0149 21.0231 12.0272 20.0255 10.8062 20.0064V17.9133H11.4249C11.9166 17.9133 12.3149 17.515 12.3149 17.0234C12.3149 16.5317 11.9166 16.1334 11.4249 16.1334H10.8062V15.6197C10.8062 14.7015 10.0591 13.9544 9.14094 13.9544H6.16572C5.24752 13.9544 4.50042 14.7015 4.50042 15.6197V20.0064C3.27938 20.0255 2.29164 21.0231 2.29164 22.2485V24.5305C1.07963 24.6275 0.122498 25.6426 0.122498 26.8791V29.6638C0.122498 30.1555 0.520846 30.5538 1.01246 30.5538C1.50408 30.5538 1.90243 30.1555 1.90243 29.6638V26.8791C1.90243 26.5602 2.16194 26.3008 2.48067 26.3008H12.8258C13.1447 26.3008 13.4041 26.5604 13.4041 26.8791V39.7336C13.4041 40.176 13.0442 40.5359 12.6018 40.5359H2.7047C2.26233 40.5359 1.90243 40.176 1.90243 39.7336V33.817C1.90243 33.3254 1.50408 32.9271 1.01246 32.9271C0.520846 32.9271 0.122498 33.3254 0.122498 33.817V39.7336C0.122498 41.1575 1.28088 42.3158 2.7047 42.3158H12.6018C14.0257 42.3158 15.184 41.1575 15.184 39.7336V26.8791C15.184 25.6426 14.2269 24.6274 13.0149 24.5305ZM9.02619 15.7342V20.0045H6.28035V15.7342H9.02619ZM4.53566 21.7844H10.771C11.0268 21.7844 11.235 21.9926 11.235 22.2484V24.5208H4.07145V22.2484C4.07145 21.9926 4.27971 21.7844 4.53566 21.7844Z" fill="black"/>
<path d="M14.8843 17.9132H15.3683C15.8599 17.9132 16.2583 17.5149 16.2583 17.0233C16.2583 16.5316 15.8599 16.1333 15.3683 16.1333H14.8843C14.3927 16.1333 13.9943 16.5316 13.9943 17.0233C13.9943 17.5149 14.3927 17.9132 14.8843 17.9132Z" fill="black"/>
<path d="M19.1274 17.9132C19.6191 17.9132 20.0174 17.5149 20.0174 17.0233C20.0174 16.5316 19.6191 16.1333 19.1274 16.1333H18.6435C18.1519 16.1333 17.7536 16.5316 17.7536 17.0233C17.7536 17.5149 18.1519 17.9132 18.6435 17.9132H19.1274Z" fill="black"/>
<path d="M22.8864 16.1333H22.4025C21.9109 16.1333 21.5125 16.5316 21.5125 17.0233C21.5125 17.5149 21.9109 17.9132 22.4025 17.9132H22.8864C23.378 17.9132 23.7764 17.5149 23.7764 17.0233C23.7764 16.5318 23.378 16.1333 22.8864 16.1333Z" fill="black"/>
<path d="M15.3618 14.3636C15.5127 14.3636 15.6659 14.3251 15.8061 14.2441L16.2252 14.002C16.6508 13.7563 16.7965 13.212 16.5508 12.7863C16.3049 12.3608 15.7609 12.2152 15.335 12.4607L14.9159 12.7028C14.4902 12.9486 14.3445 13.4929 14.5904 13.9186C14.7552 14.204 15.0542 14.3636 15.3618 14.3636Z" fill="black"/>
<path d="M18.6173 12.4839C18.7682 12.4839 18.9213 12.4455 19.0615 12.3646L19.4806 12.1226C19.9062 11.877 20.052 11.3327 19.8063 10.9069C19.5605 10.4813 19.0164 10.3355 18.5906 10.5812L18.1715 10.8231C17.7458 11.0688 17.6 11.6131 17.8458 12.0388C18.0105 12.3244 18.3097 12.4839 18.6173 12.4839Z" fill="black"/>
<path d="M22.3169 10.4851L22.7361 10.2432C23.1617 9.99754 23.3075 9.45324 23.0618 9.02748C22.8162 8.60172 22.272 8.45612 21.8461 8.70175L21.427 8.9437C21.0013 9.18933 20.8555 9.73363 21.1013 10.1594C21.2661 10.4449 21.5652 10.6045 21.8728 10.6045C22.0237 10.6044 22.1767 10.5659 22.3169 10.4851Z" fill="black"/>
<path d="M16.7306 20.0444L16.3115 19.8025C15.8855 19.5569 15.3414 19.7023 15.0958 20.1282C14.85 20.554 14.9958 21.0983 15.4215 21.3439L15.8406 21.5859C15.9809 21.6668 16.1338 21.7052 16.2848 21.7052C16.5923 21.7052 16.8915 21.5456 17.0563 21.2601C17.3022 20.8345 17.1562 20.2902 16.7306 20.0444Z" fill="black"/>
<path d="M19.9861 21.924L19.5669 21.682C19.1411 21.4364 18.5969 21.582 18.3513 22.0078C18.1055 22.4335 18.2513 22.9778 18.677 23.2235L19.0961 23.4654C19.2364 23.5463 19.3893 23.5848 19.5402 23.5848C19.8478 23.5848 20.147 23.4252 20.3118 23.1397C20.5575 22.7139 20.4117 22.1697 19.9861 21.924Z" fill="black"/>
<path d="M23.2417 23.8037L22.8226 23.5617C22.3971 23.3158 21.8526 23.4614 21.6069 23.8871C21.361 24.3128 21.5067 24.8571 21.9324 25.103L22.3515 25.345C22.4918 25.426 22.6447 25.4644 22.7958 25.4644C23.1032 25.4644 23.4024 25.3048 23.5673 25.0194C23.8131 24.5938 23.6673 24.0495 23.2417 23.8037Z" fill="black"/>
</svg>
