<svg width="35" height="47" viewBox="0 0 35 47" fill="none" xmlns="http://www.w3.org/2000/svg">
<path d="M31.8171 27.9062H2.44214C2.24737 27.9062 2.06058 27.8289 1.92286 27.6912C1.78514 27.5534 1.70776 27.3666 1.70776 27.1719V22.7656C1.70776 22.5709 1.78514 22.3841 1.92286 22.2463C2.06058 22.1086 2.24737 22.0312 2.44214 22.0312H31.8171C32.0119 22.0312 32.1987 22.1086 32.3364 22.2463C32.4741 22.3841 32.5515 22.5709 32.5515 22.7656V27.1719C32.5515 27.3666 32.4741 27.5534 32.3364 27.6912C32.1987 27.8289 32.0119 27.9062 31.8171 27.9062ZM3.17651 26.4375H31.0828V23.5H3.17651V26.4375Z" fill="black"/>
<path d="M27.4109 47H6.84839C5.8749 46.9988 4.94163 46.6116 4.25327 45.9232C3.56491 45.2349 3.17768 44.3016 3.17651 43.3281V27.1719H4.64526V43.3281C4.64526 43.9124 4.87738 44.4728 5.29054 44.886C5.70371 45.2991 6.26408 45.5312 6.84839 45.5312H27.4109C27.9952 45.5312 28.5556 45.2991 28.9687 44.886C29.3819 44.4728 29.614 43.9124 29.614 43.3281V27.1719H31.0828V43.3281C31.0816 44.3016 30.6944 45.2349 30.006 45.9232C29.3176 46.6116 28.3844 46.9988 27.4109 47Z" fill="black"/>
<path d="M26.4614 23.1328L25.1887 22.3985L25.8644 21.2235L30.5599 12.8105L30.5475 12.8031L28.124 11.3109L21.508 23.1262L20.228 22.4051L27.2112 9.93025C27.2593 9.84411 27.3243 9.76855 27.4023 9.70809C27.4803 9.64763 27.5697 9.6035 27.6651 9.57834C27.7605 9.55319 27.86 9.54752 27.9576 9.56167C28.0553 9.57583 28.1491 9.60952 28.2334 9.66074L31.9266 11.9226C32.089 12.0212 32.2069 12.1788 32.2555 12.3625C32.3041 12.5461 32.2797 12.7414 32.1873 12.9074L26.4614 23.1328Z" fill="black"/>
<path d="M31.5697 12.5336L30.2874 11.8176L31.7275 9.23627C31.8258 9.05966 31.8543 8.85263 31.8074 8.65604C31.7605 8.45945 31.6416 8.28759 31.4742 8.17436C31.4009 8.12915 31.3191 8.09932 31.2339 8.0867C31.1487 8.07407 31.0618 8.07892 30.9785 8.10093C30.8871 8.12577 30.8017 8.16909 30.7277 8.2282C30.6537 8.28731 30.5926 8.36097 30.5481 8.44461L29.1073 11.023L27.8243 10.3077L29.2652 7.72639C29.4058 7.46958 29.5973 7.24413 29.828 7.06383C30.0587 6.88352 30.3237 6.75214 30.6069 6.67771C30.8818 6.60543 31.1686 6.58983 31.4498 6.63187C31.7309 6.67391 32.0006 6.77271 32.2423 6.92225C32.733 7.23382 33.0858 7.72123 33.2287 8.2846C33.3715 8.84796 33.2934 9.44461 33.0105 9.95229L31.5697 12.5336Z" fill="black"/>
<path d="M22.422 19.9668L23.1902 18.7154L26.8817 20.9815L26.1136 22.2329L22.422 19.9668Z" fill="black"/>
<path d="M30.988 20.9231L29.7087 20.2019L32.2989 15.6099L30.4402 14.4672L31.2076 13.2188L33.67 14.7286C33.832 14.8279 33.9492 14.9862 33.997 15.1701C34.0448 15.354 34.0194 15.5493 33.9263 15.7149L30.988 20.9231Z" fill="black"/>
<path d="M4.33249 23.0028L0.447651 11.5906C0.124953 10.6703 0.170694 9.66084 0.575302 8.77346C0.979911 7.88609 1.71203 7.18958 2.61846 6.82969C3.00837 6.68394 3.42127 6.60932 3.83753 6.60938C4.59045 6.61927 5.32142 6.86439 5.92809 7.31041C6.53477 7.75642 6.98676 8.38101 7.22079 9.0967L11.7959 22.5292L10.4058 23.0021L5.83062 9.57111C5.74599 9.30235 5.60842 9.05325 5.42602 8.83848C5.24362 8.62372 5.02008 8.44764 4.76857 8.32062C4.51705 8.19359 4.24266 8.1182 3.96155 8.09888C3.68045 8.07955 3.39832 8.1167 3.13179 8.20811C2.58304 8.43265 2.14211 8.86031 1.90091 9.40195C1.65971 9.94359 1.63685 10.5574 1.83709 11.1155L5.72267 22.5284L4.33249 23.0028Z" fill="black"/>
<path d="M2.09448 14.1973L7.48375 12.1785L7.99929 13.5547L2.61001 15.5735L2.09448 14.1973Z" fill="black"/>
<path d="M3.05786 17.024L8.44713 15.0052L8.96267 16.3814L3.57339 18.4003L3.05786 17.024Z" fill="black"/>
<path d="M5.30371 16.9421L6.69462 16.4692L8.75781 22.537L7.3669 23.01L5.30371 16.9421Z" fill="black"/>
<path d="M17.864 22.7656H16.3953V0.734375C16.3953 0.539607 16.4726 0.352815 16.6104 0.215093C16.7481 0.0773714 16.9349 0 17.1296 0L24.4734 0C24.6682 0 24.8549 0.0773714 24.9927 0.215093C25.1304 0.352815 25.2078 0.539607 25.2078 0.734375V16.1562H23.739V1.46875H17.864V22.7656Z" fill="black"/>
<path d="M14.9265 22.7656H13.4578V7.34375H10.5203V18.9542H9.05151V6.60938C9.05151 6.41461 9.12888 6.22782 9.26661 6.09009C9.40433 5.95237 9.59112 5.875 9.78589 5.875H14.1921C14.3869 5.875 14.5737 5.95237 14.7114 6.09009C14.8491 6.22782 14.9265 6.41461 14.9265 6.60938V22.7656Z" fill="black"/>
<path d="M14.1921 6.60938H12.7234V3.67188H11.2546V6.60938H9.78589V2.9375C9.78589 2.74273 9.86326 2.55594 10.001 2.41822C10.1387 2.2805 10.3255 2.20313 10.5203 2.20312H13.4578C13.6525 2.20313 13.8393 2.2805 13.977 2.41822C14.1148 2.55594 14.1921 2.74273 14.1921 2.9375V6.60938Z" fill="black"/>
<path d="M17.1296 3.67188H20.8015V5.14062H17.1296V3.67188Z" fill="black"/>
<path d="M17.1296 6.60938H19.3328V8.07812H17.1296V6.60938Z" fill="black"/>
<path d="M17.1296 9.54688H20.8015V11.0156H17.1296V9.54688Z" fill="black"/>
<path d="M17.1296 12.4844H19.3328V13.9531H17.1296V12.4844Z" fill="black"/>
<path d="M17.1296 15.4219H20.8015V16.8906H17.1296V15.4219Z" fill="black"/>
<path d="M17.1296 18.3594H19.3328V19.8281H17.1296V18.3594Z" fill="black"/>
<path d="M9.78589 12.4844H14.1921V13.9531H9.78589V12.4844Z" fill="black"/>
<path d="M6.11401 29.375H7.58276V30.8438H6.11401V29.375Z" fill="black"/>
<path d="M6.11401 32.3125H7.58276V41.8594H6.11401V32.3125Z" fill="black"/>
</svg>
