<svg width="47" height="46" viewBox="0 0 47 46" fill="none" xmlns="http://www.w3.org/2000/svg">
<path d="M31.9267 9.83916L38.8267 2.9391C38.9219 2.84421 38.9886 2.72453 39.0192 2.59365C39.0498 2.46277 39.0431 2.32594 38.9998 2.19868C38.9565 2.07143 38.8785 1.95886 38.7744 1.87375C38.6704 1.78865 38.5446 1.73441 38.4113 1.71721L25.3033 0.00512999C25.1942 -0.00809788 25.0835 0.00345083 24.9795 0.0389167C24.8755 0.0743827 24.7808 0.132853 24.7025 0.209976L16.0896 8.82284L9.18953 1.92277C9.09469 1.8276 8.97507 1.76092 8.84424 1.73029C8.71342 1.69966 8.57663 1.70632 8.4494 1.7495C8.32216 1.79269 8.20958 1.87067 8.12443 1.9746C8.03927 2.07853 7.98496 2.20425 7.96764 2.3375L6.25628 15.4462C6.24172 15.5553 6.25256 15.6663 6.28797 15.7705C6.32338 15.8748 6.38239 15.9694 6.46041 16.0471L15.0733 24.6599L8.17321 31.56C8.07802 31.6549 8.01134 31.7746 7.98075 31.9054C7.95016 32.0363 7.95688 32.1732 8.00014 32.3004C8.04341 32.4277 8.12149 32.5402 8.22551 32.6253C8.32954 32.7104 8.45535 32.7647 8.58865 32.7819L21.0735 34.4106V45.2811C21.0735 45.4717 21.1492 45.6545 21.284 45.7893C21.4188 45.9241 21.6016 45.9998 21.7922 45.9998C21.9828 45.9998 22.1657 45.9241 22.3004 45.7893C22.4352 45.6545 22.511 45.4717 22.511 45.2811V34.0778L24.4933 32.0955V45.2811C24.4933 45.4717 24.569 45.6545 24.7038 45.7893C24.8386 45.9241 25.0214 45.9998 25.2121 45.9998C25.4027 45.9998 25.5855 45.9241 25.7203 45.7893C25.8551 45.6545 25.9308 45.4717 25.9308 45.2811V30.658L30.9125 25.6762L37.8126 32.5763C37.9087 32.6694 38.0282 32.7346 38.1585 32.765C38.2888 32.7954 38.4248 32.7898 38.5522 32.7488C38.6775 32.7028 38.7881 32.624 38.8727 32.5208C38.9572 32.4175 39.0126 32.2935 39.033 32.1616L40.7437 19.0507C40.7582 18.9416 40.7474 18.8306 40.712 18.7264C40.6766 18.6222 40.6176 18.5275 40.5395 18.4499L31.9267 9.83916ZM36.1106 16.0557C33.5554 15.0638 30.2376 14.4255 27.1448 15.789C27.041 15.5188 26.9067 15.2612 26.7444 15.0214L30.9132 10.8526L36.1106 16.0557ZM23.8378 19.7221C23.5123 19.7681 23.1809 19.7495 22.8627 19.6671C22.5444 19.5847 22.2456 19.4403 21.9833 19.2421C21.7211 19.0439 21.5005 18.7958 21.3344 18.5121C21.1683 18.2284 21.0599 17.9147 21.0154 17.589C20.9709 17.2633 20.9912 16.932 21.0751 16.6142C21.159 16.2963 21.3049 15.9982 21.5044 15.7369C21.7039 15.4756 21.953 15.2563 22.2375 15.0916C22.522 14.9268 22.8362 14.8199 23.1622 14.777C23.2812 14.76 23.4013 14.7516 23.5215 14.7519C23.847 14.7514 24.1693 14.8154 24.4698 14.9403C24.7703 15.0651 25.0431 15.2483 25.2724 15.4792C25.603 15.8078 25.8349 16.2224 25.9418 16.676C26.0487 17.1297 26.0263 17.6042 25.8771 18.0458C25.7279 18.4873 25.458 18.8783 25.0979 19.1742C24.7379 19.4701 24.302 19.6591 23.8399 19.7199L23.8378 19.7221ZM25.7281 14.0051C25.0695 13.5468 24.2843 13.3056 23.482 13.3151C21.1906 8.64315 24.6011 2.92975 25.5542 1.48793L36.7804 2.95275L25.7281 14.0051ZM22.2975 4.64758C21.3092 7.2006 20.6717 10.5184 22.033 13.6069C21.7651 13.7103 21.5098 13.8436 21.2718 14.0044L17.103 9.83916L22.2975 4.64758ZM9.20247 3.96907L20.2555 15.0214C19.798 15.6803 19.5571 16.4654 19.5662 17.2675C14.8943 19.5568 9.1809 16.1484 7.73836 15.1961L9.20247 3.96907ZM10.8959 18.4499C12.527 19.1105 14.2654 19.4664 16.0249 19.5C17.3433 19.5097 18.6491 19.2428 19.858 18.7165C19.9616 18.9845 20.0952 19.2398 20.2562 19.4777L16.0874 23.6465L10.8959 18.4499ZM21.2718 20.4947C21.9182 20.9439 22.6863 21.1851 23.4734 21.1862H23.5187C25.8108 25.8581 22.3996 31.5715 21.4465 33.014L10.2195 31.5463L21.2718 20.4947ZM24.7032 29.8515C25.6915 27.2985 26.329 23.9807 24.9677 20.8922C25.2355 20.7888 25.4909 20.6554 25.7288 20.4947L29.8976 24.6635L24.7032 29.8515ZM37.7982 30.53L26.7444 19.4777C27.2019 18.8188 27.4429 18.0337 27.4337 17.2316C32.1056 14.9402 37.8183 18.3507 39.2616 19.303L37.7982 30.53Z" fill="black"/>
<path d="M5.42477 18.1566C4.79102 17.7878 4.32305 17.1898 4.11747 16.486C3.91189 15.7822 3.98441 15.0264 4.32005 14.3745C4.39156 14.2045 4.39502 14.0136 4.32971 13.8411C4.26441 13.6687 4.13532 13.528 3.96916 13.448C3.803 13.3681 3.61247 13.355 3.43698 13.4116C3.26149 13.4682 3.11445 13.5901 3.02628 13.752C2.52944 14.7255 2.42459 15.8524 2.73329 16.9009C3.042 17.9493 3.74079 18.8396 4.68589 19.3885C4.84935 19.4867 5.04512 19.5159 5.23012 19.4697C5.41513 19.4236 5.57421 19.3058 5.67239 19.1423C5.77056 18.9789 5.79978 18.7831 5.75361 18.5981C5.70744 18.4131 5.58967 18.254 5.42621 18.1559L5.42477 18.1566Z" fill="black"/>
<path d="M4.26749 21.5836C2.053 21.0294 1.94231 19.5711 1.93728 19.3971C1.93672 19.3027 1.91756 19.2094 1.88092 19.1224C1.84428 19.0354 1.79086 18.9565 1.72371 18.8902C1.65657 18.8238 1.57702 18.7714 1.4896 18.7358C1.40218 18.7002 1.3086 18.6821 1.21421 18.6827C1.11982 18.6833 1.02647 18.7024 0.939485 18.7391C0.852498 18.7757 0.773581 18.8291 0.707238 18.8963C0.640896 18.9634 0.588428 19.043 0.552831 19.1304C0.517233 19.2178 0.499202 19.3114 0.499769 19.4058C0.499769 19.5164 0.538582 22.1327 3.91961 22.978C3.97645 22.9925 4.0349 22.9997 4.09355 22.9995C4.2688 22.9992 4.43788 22.9348 4.56899 22.8185C4.7001 22.7022 4.7842 22.542 4.80548 22.3681C4.82676 22.1941 4.78376 22.0184 4.68455 21.8739C4.58534 21.7294 4.43677 21.6262 4.26677 21.5836H4.26749Z" fill="black"/>
<path d="M42.3156 14.8013C42.1521 14.7032 41.9563 14.674 41.7713 14.7201C41.5863 14.7663 41.4272 14.8841 41.3291 15.0475C41.2309 15.211 41.2017 15.4067 41.2478 15.5918C41.294 15.7768 41.4118 15.9358 41.5752 16.034C42.2087 16.4026 42.6766 17.0003 42.8821 17.7039C43.0877 18.4074 43.0153 19.163 42.68 19.8147C42.6084 19.9846 42.605 20.1756 42.6703 20.348C42.7356 20.5205 42.8647 20.6612 43.0308 20.7411C43.197 20.8211 43.3875 20.8341 43.563 20.7775C43.7385 20.7209 43.8856 20.5991 43.9737 20.4371C44.4706 19.4639 44.5757 18.3372 44.2673 17.2889C43.9588 16.2406 43.2604 15.3504 42.3156 14.8013V14.8013Z" fill="black"/>
<path d="M43.0802 11.212C42.9878 11.1867 42.8913 11.18 42.7964 11.1925C42.7014 11.205 42.6099 11.2364 42.5272 11.2848C42.4445 11.3331 42.3723 11.3975 42.3149 11.4742C42.2575 11.5509 42.2159 11.6382 42.1928 11.7312C42.1696 11.8241 42.1652 11.9207 42.1799 12.0154C42.1946 12.1101 42.228 12.2008 42.2783 12.2824C42.3286 12.3639 42.3946 12.4346 42.4726 12.4902C42.5506 12.5459 42.6389 12.5854 42.7323 12.6064C44.9468 13.1605 45.0575 14.6189 45.0626 14.7928C45.0637 14.9835 45.1405 15.1658 45.2761 15.2998C45.4117 15.4338 45.595 15.5084 45.7856 15.5073C45.9763 15.5061 46.1586 15.4293 46.2926 15.2937C46.4266 15.1581 46.5012 14.9748 46.5001 14.7842C46.5001 14.6735 46.4613 12.0565 43.0802 11.212V11.212Z" fill="black"/>
</svg>
