<svg width="19" height="47" viewBox="0 0 19 47" fill="none" xmlns="http://www.w3.org/2000/svg">
<path d="M9.80953 0C6.86414 0 4.4679 2.39625 4.4679 5.34164C4.4679 8.28703 6.86414 10.6833 9.80953 10.6833C12.7549 10.6833 15.1512 8.28703 15.1512 5.34164C15.1512 2.39625 12.7549 0 9.80953 0ZM9.80953 9.53104C7.49954 9.53104 5.62026 7.65163 5.62026 5.34176C5.62026 3.03177 7.49966 1.15248 9.80953 1.15248C12.1195 1.15248 13.9988 3.03188 13.9988 5.34176C13.9988 7.65163 12.1194 9.53104 9.80953 9.53104Z" fill="black"/>
<path d="M18.9154 24.4826L16.8204 14.5322C16.5095 13.0557 15.1887 11.9838 13.6796 11.9838H5.93937C4.43039 11.9838 3.1095 13.0557 2.79852 14.5322L0.703416 24.4826C0.503163 25.4335 0.739582 26.4118 1.35181 27.1664C1.81505 27.7373 2.44811 28.1236 3.14964 28.2779L2.43863 31.657C2.40282 31.8269 2.44565 32.0039 2.55497 32.1386C2.66428 32.2733 2.82872 32.3517 3.00241 32.3517H5.43494V32.6644C5.43494 32.6765 5.43529 32.6887 5.43611 32.7007L6.21429 45.0436C6.28346 46.1407 7.19871 47 8.29793 47C8.89202 47 9.42888 46.7505 9.80949 46.3509C10.1901 46.7505 10.7269 47 11.321 47C12.4203 47 13.3355 46.1407 13.4047 45.0436L14.1829 32.7007C14.1837 32.6887 14.184 32.6765 14.184 32.6644V32.3517H16.6164C16.7901 32.3517 16.9545 32.2734 17.0639 32.1386C17.1733 32.0036 17.216 31.8268 17.1802 31.6568L16.4684 28.2781C17.1704 28.1238 17.8037 27.7375 18.267 27.1662C18.8795 26.4115 19.1157 25.4334 18.9154 24.4826ZM9.23331 44.9122C9.23331 45.428 8.81361 45.8475 8.29793 45.8475C7.80543 45.8475 7.39533 45.4626 7.36443 44.971L6.58741 32.6462V32.3517H9.23342V44.9122H9.23331ZM13.0317 32.6462L12.2547 44.971C12.2238 45.4626 11.8137 45.8475 11.3212 45.8475C10.8054 45.8475 10.3858 45.4278 10.3858 44.9122V32.3517H13.0318V32.6462H13.0317ZM17.3723 26.4402C17.0778 26.8033 16.6763 27.05 16.231 27.1505L13.9495 16.3201C13.8838 16.0087 13.5771 15.8096 13.2669 15.875C12.9555 15.9407 12.7563 16.2461 12.8218 16.5576L15.9063 31.1993H3.71259L4.4071 27.8989C4.4078 27.8955 4.40862 27.8922 4.40921 27.8888L6.79364 16.5576C6.8593 16.2461 6.65986 15.9407 6.34842 15.8751C6.0378 15.8097 5.73151 16.0089 5.66597 16.3203L3.387 27.1504C2.94213 27.0497 2.54104 26.803 2.24681 26.4403C1.85426 25.9565 1.70281 25.3296 1.83108 24.7201L3.92619 14.7697C4.12551 13.8231 4.97216 13.1362 5.93937 13.1362H13.6797C14.6469 13.1362 15.4936 13.8231 15.6929 14.7697L17.7879 24.7201C17.9162 25.3295 17.7647 25.9565 17.3723 26.4402Z" fill="black"/>
</svg>
